<svg width="24" height="24" viewBox="0 0 24 24" fill="none" xmlns="http://www.w3.org/2000/svg">
<path d="M20.1912 14.0608L19.0612 12.1808C18.8112 11.7708 18.5912 10.9808 18.5912 10.5008V8.63078C18.5912 5.00078 15.6412 2.05078 12.0212 2.05078C8.39118 2.06078 5.44118 5.00078 5.44118 8.63078V10.4908C5.44118 10.9708 5.22118 11.7608 4.98118 12.1708L3.85118 14.0508C3.42118 14.7808 3.32118 15.6108 3.59118 16.3308C3.86118 17.0608 4.47118 17.6408 5.27118 17.9008C6.35118 18.2608 7.44118 18.5208 8.55118 18.7108C8.66118 18.7308 8.77118 18.7408 8.88118 18.7608C9.02118 18.7808 9.17118 18.8008 9.32118 18.8208C9.58118 18.8608 9.84118 18.8908 10.1112 18.9108C10.7412 18.9708 11.3812 19.0008 12.0212 19.0008C12.6512 19.0008 13.2812 18.9708 13.9012 18.9108C14.1312 18.8908 14.3612 18.8708 14.5812 18.8408C14.7612 18.8208 14.9412 18.8008 15.1212 18.7708C15.2312 18.7608 15.3412 18.7408 15.4512 18.7208C16.5712 18.5408 17.6812 18.2608 18.7612 17.9008C19.5312 17.6408 20.1212 17.0608 20.4012 16.3208C20.6812 15.5708 20.6012 14.7508 20.1912 14.0608ZM12.7512 10.0008C12.7512 10.4208 12.4112 10.7608 11.9912 10.7608C11.5712 10.7608 11.2312 10.4208 11.2312 10.0008V6.90078C11.2312 6.48078 11.5712 6.14078 11.9912 6.14078C12.4112 6.14078 12.7512 6.48078 12.7512 6.90078V10.0008Z" fill="white"/>
<path d="M14.8297 20.01C14.4097 21.17 13.2997 22 11.9997 22C11.2097 22 10.4297 21.68 9.87969 21.11C9.55969 20.81 9.31969 20.41 9.17969 20C9.30969 20.02 9.43969 20.03 9.57969 20.05C9.80969 20.08 10.0497 20.11 10.2897 20.13C10.8597 20.18 11.4397 20.21 12.0197 20.21C12.5897 20.21 13.1597 20.18 13.7197 20.13C13.9297 20.11 14.1397 20.1 14.3397 20.07C14.4997 20.05 14.6597 20.03 14.8297 20.01Z" fill="white"/>
</svg>
