<svg id="box" viewBox="0 0 26 26" xmlns="http://www.w3.org/2000/svg">
<path d="M25.3026 5.53326C25.3026 5.20342 25.1033 4.90621 24.7983 4.78084L13.3091 0.0610073C13.1111 -0.0203358 12.889 -0.0203358 12.6909 0.0610073L1.20184 4.78084C0.89675 4.90616 0.69751 5.20342 0.69751 5.53326V20.4667C0.69751 20.7966 0.896699 21.0938 1.20184 21.2192L12.6909 25.939C12.8869 26.0195 13.1071 26.0212 13.3081 25.9389C13.3179 25.9357 12.883 26.1141 24.7983 21.2192C25.1034 21.0938 25.3026 20.7966 25.3026 20.4667V5.53326ZM13 9.4421L8.76675 7.70304L17.9154 3.71209L22.4318 5.56748L13 9.4421ZM2.32437 6.81523L5.97673 8.31565V12.5487C5.97673 12.998 6.34094 13.3622 6.79016 13.3622C7.23938 13.3622 7.60359 12.998 7.60359 12.5487V8.98399L12.1866 10.8667V23.973L2.32437 19.9215V6.81523ZM13 1.6928L15.8199 2.85123L6.6713 6.84217L3.56831 5.56743L13 1.6928ZM13.8135 10.8667L23.6757 6.81523V19.9215L13.8135 23.973V10.8667Z" />
</svg>
