<svg width="81" height="81" viewBox="0 0 81 81" fill="none" xmlns="http://www.w3.org/2000/svg">
<g clip-path="url(#clip0_618_4335)">
<path d="M16.875 28.6875V25.3125C16.875 19.0468 19.3641 13.0376 23.7946 8.6071C28.2251 4.17656 34.2343 1.6875 40.5 1.6875C46.7657 1.6875 52.7748 4.17656 57.2054 8.6071C61.6359 13.0376 64.125 19.0468 64.125 25.3125C64.1244 29.634 62.4079 33.7784 59.3528 36.8347L51.2055 44.982C49.9514 46.2357 48.9566 47.7242 48.2779 49.3624C47.5992 51.0007 47.2499 52.7566 47.25 54.5299V55.6875H33.75V51.732C33.75 45.6233 36.18 39.7609 40.5 35.4375L44.8639 31.0736C45.6204 30.3171 46.2205 29.4189 46.6299 28.4304C47.0393 27.4419 47.25 26.3824 47.25 25.3125C47.25 23.5223 46.5388 21.8054 45.273 20.5395C44.0071 19.2737 42.2902 18.5625 40.5 18.5625C38.7098 18.5625 36.9929 19.2737 35.727 20.5395C34.4612 21.8054 33.75 23.5223 33.75 25.3125V28.6875H16.875ZM40.5 65.8125C42.2902 65.8125 44.0071 66.5237 45.273 67.7895C46.5388 69.0554 47.25 70.7723 47.25 72.5625C47.25 74.3527 46.5388 76.0696 45.273 77.3355C44.0071 78.6013 42.2902 79.3125 40.5 79.3125C38.7098 79.3125 36.9929 78.6013 35.727 77.3355C34.4612 76.0696 33.75 74.3527 33.75 72.5625C33.75 70.7723 34.4612 69.0554 35.727 67.7895C36.9929 66.5237 38.7098 65.8125 40.5 65.8125Z" stroke="#00162E" stroke-width="4"/>
</g>
<defs>
<clipPath id="clip0_618_4335">
<rect width="81" height="81" fill="white"/>
</clipPath>
</defs>
</svg>
