<svg viewBox="0 0 8 8" id="downArrow" xmlns="http://www.w3.org/2000/svg">
<path d="M0.790369 4.64156L3.60137 7.46531C3.81287 7.67756 4.18712 7.67756 4.39937 7.46531L7.21037 4.64156C7.42937 4.42106 7.42862 4.06481 7.20812 3.84581C6.98762 3.62681 6.63212 3.62681 6.41237 3.84731L4.56212 5.70506V0.938812C4.56212 0.627562 4.31012 0.376312 3.99962 0.376312C3.68912 0.376312 3.43712 0.627562 3.43712 0.938812V5.70506L1.58762 3.84731C1.47737 3.73706 1.33337 3.68231 1.18862 3.68231C1.04537 3.68231 0.901369 3.73706 0.791869 3.84581C0.572119 4.06481 0.571369 4.42106 0.790369 4.64156Z" />
</svg>
