<svg width="600" height="734" viewBox="0 0 600 734" fill="none" xmlns="http://www.w3.org/2000/svg">
<path fill-rule="evenodd" clip-rule="evenodd" d="M390.237 10.096C383.986 3.84501 375.507 0.333008 366.667 0.333008H100C44.77 0.333008 0 45.1047 0 100.333V633.666C0 688.896 44.77 733.666 100 733.666H500C555.228 733.666 600 688.896 600 633.666V233.666C600 224.826 596.488 216.347 590.237 210.096L390.237 10.096ZM100 66.9997H333.333V233.666C333.333 252.076 348.257 267 366.667 267H533.333V633.666C533.333 652.076 518.409 667 500 667H100C81.59 667 66.6667 652.076 66.6667 633.666V100.333C66.6667 81.9237 81.59 66.9997 100 66.9997ZM486.193 200.333H400V114.14L486.193 200.333ZM466.667 440.333C466.667 421.923 451.743 407 433.333 407H166.667C148.257 407 133.333 421.923 133.333 440.333C133.333 458.743 148.257 473.666 166.667 473.666H433.333C451.743 473.666 466.667 458.743 466.667 440.333ZM466.667 573.666C466.667 555.256 451.743 540.333 433.333 540.333H166.667C148.257 540.333 133.333 555.256 133.333 573.666C133.333 592.076 148.257 607 166.667 607H433.333C451.743 607 466.667 592.076 466.667 573.666Z" fill="black"/>
<path d="M283.333 285C301.742 285 316.666 299.923 316.666 318.333C316.666 336.743 301.742 351.667 283.333 351.667H166.666C148.256 351.667 133.333 336.743 133.333 318.333C133.333 299.923 148.256 285 166.666 285H283.333Z" fill="black"/>
</svg>
