<svg width="944" height="714" viewBox="0 0 944 714" fill="none" xmlns="http://www.w3.org/2000/svg">
<path d="M4.35632 139.013L50.9972 166.534L5.1043 192.464L4.68531 192.7L4.17646 246.86L3.33861 247.332L4.16742 247.822L3.65857 301.981L49.4507 329.001L3.54115 354.94L3.12218 355.174L2.59528 411.254L51.0018 383.906L51.4207 383.669L51.9207 330.455L51.9572 330.477L52.4751 275.354L96.4525 250.508C96.8521 250.918 97.3626 251.215 97.9329 251.37L96.9404 357.007L143.583 384.527L143.074 438.683L187.417 464.846C187.34 465.122 187.282 465.407 187.279 465.705C187.276 466.002 187.327 466.286 187.398 466.56L142.991 491.647L142.573 491.883L142.073 545.057L97.1263 518.539L98.153 409.264L52.4998 435.057C51.9121 434.453 51.0955 434.075 50.1854 434.066C48.3787 434.049 46.9 435.501 46.883 437.308C46.8687 438.825 47.8951 440.1 49.2917 440.483L48.3088 545.102L1.50261 571.547L1.08374 571.783L0.556784 627.87L47.7836 601.187L47.7831 601.24L95.7689 574.13L143.24 602.137L143.758 546.999L190.452 520.618L190.871 520.382L191.355 468.896C192.758 468.539 193.809 467.284 193.823 465.767C193.837 464.25 192.811 462.976 191.414 462.591L191.898 411.097L145.257 383.579L145.757 330.385L191.231 304.694L190.731 357.897L237.372 385.418L237.363 386.382L238.202 385.908L239.029 386.396L239.038 385.436L285.767 359.032L286.186 358.795L286.713 302.71L241.063 328.503C240.476 327.899 239.658 327.517 238.747 327.509C237.837 327.5 237.012 327.864 236.413 328.459L192.914 302.794L193.94 193.51L145.953 220.622L100.139 193.594L54.3273 166.564L99.8012 140.871L100.63 141.361L100.639 140.397L101.477 139.924L100.648 139.434L101.157 85.2742L54.5162 57.7546L54.991 7.22897C56.3945 6.87205 57.4447 5.61814 57.4589 4.09949C57.4759 2.29244 56.0246 0.813409 54.2179 0.796434C52.4111 0.779459 50.9323 2.23096 50.9153 4.03801C50.9125 4.33474 50.9615 4.61862 51.034 4.89439L6.62758 29.9832L6.2086 30.2192L5.68167 86.3027L52.8314 59.6627L52.3406 111.897L4.35632 139.013ZM49.7613 382.692L4.28749 408.383L4.77821 356.153L50.2521 330.463L49.7613 382.692ZM6.34307 193.678L51.8171 167.985L51.3263 220.218L5.85232 245.91L6.34307 193.678ZM5.8252 248.798L50.8084 275.34L50.3176 327.574L5.33445 301.03L5.8252 248.798ZM51.6553 273.904L6.6721 247.362L27.3294 235.691L52.1444 221.67L95.6587 247.344C95.5828 247.617 95.5268 247.898 95.524 248.197C95.5212 248.495 95.5719 248.777 95.6427 249.051L51.6553 273.904ZM99.1233 301.905L99.598 251.386C100.171 251.239 100.689 250.954 101.098 250.55L122.107 262.946L144.599 276.216L144.108 328.445L121.617 315.175L99.1233 301.905ZM95.4595 518.523L49.9857 544.214L50.4764 491.983L95.9502 466.292L95.4595 518.523ZM96.4591 412.136L95.9683 464.365L50.4945 490.056L50.9601 440.497C52.3637 440.139 53.4123 438.885 53.4265 437.368C53.4293 437.071 53.3803 436.787 53.3078 436.513L96.4591 412.136ZM47.7262 599.304L2.25231 624.996L2.74307 572.762L48.2169 547.07L47.7262 599.304ZM49.9676 546.139L95.4414 520.449L94.9507 572.678L49.4769 598.369L49.9676 546.139ZM141.601 599.234L96.6175 572.694L97.1082 520.464L142.055 546.983L142.046 547.966L142.081 547.947L141.599 599.234L141.601 599.234ZM143.739 545.095L144.23 492.864L188.206 468.019C188.605 468.43 189.118 468.725 189.686 468.882L189.212 519.404L143.739 545.095ZM190.222 412.047L189.747 462.577C189.177 462.722 188.663 463.006 188.254 463.405L144.748 437.736L145.239 385.506L190.222 412.047ZM98.6145 356.061L99.1052 303.832L121.597 317.102L144.088 330.372L143.598 382.603L98.6145 356.061ZM285.019 305.585L284.529 357.818L239.055 383.51L239.52 333.943C240.924 333.586 241.974 332.332 241.989 330.814C241.991 330.517 241.942 330.236 241.871 329.962L285.019 305.585ZM237.855 333.927L237.39 383.493L192.407 356.951L192.897 304.721L235.58 329.905C235.504 330.176 235.449 330.457 235.447 330.754C235.432 332.269 236.457 333.544 237.855 333.927ZM191.249 302.77L145.775 328.461L146.266 276.235L191.739 250.543L191.249 302.77ZM191.757 248.616L146.284 274.306L146.774 222.074L192.248 196.381L191.757 248.616ZM145.108 222.061L144.617 274.291L122.125 261.02L101.933 249.107C102.009 248.834 102.065 248.555 102.068 248.258C102.082 246.741 101.055 245.468 99.6589 245.083L100.125 195.521L145.108 222.061ZM97.9905 245.069C97.4191 245.215 96.9013 245.5 96.4941 245.903L52.9913 220.235L53.482 168.003L98.4652 194.545L97.9905 245.069ZM53.5109 165.114L52.673 165.586L51.8442 165.097L51.8442 165.098L7.68979 139.044L53.1621 113.352L98.1453 139.894L53.5109 165.114ZM98.9922 138.456L54.009 111.914L54.4997 59.6817L99.4829 86.2238L98.9922 138.456ZM7.37887 83.4328L7.86962 31.2002L51.8471 6.35412C52.2466 6.76466 52.7571 7.05958 53.3257 7.21497L52.851 57.7406L7.37887 83.4328ZM281.577 412.432C281.574 412.728 281.625 413.012 281.696 413.286L237.289 438.375L236.87 438.611L235.853 546.867L192.14 571.566C191.555 570.728 190.593 570.174 189.495 570.164C187.688 570.147 186.209 571.598 186.192 573.405C186.178 574.922 187.205 576.197 188.601 576.581L188.103 629.635L235.254 602.992L234.754 656.19L283.051 684.687L283.578 628.602L237.812 601.599L283.313 575.892L326.828 601.565C326.752 601.837 326.696 602.119 326.693 602.417C326.676 604.224 328.127 605.703 329.934 605.72C331.741 605.737 333.22 604.286 333.237 602.478C333.251 600.962 332.226 599.686 330.828 599.303L331.293 549.746L331.813 494.623L378.123 468.46L423.106 495.002L377.213 520.934L376.794 521.17L376.285 575.326L375.448 575.8L376.276 576.29L375.777 629.486L329.046 655.887L328.627 656.123L328.1 712.206L376.507 684.856L376.925 684.622L377.425 631.427L422.408 657.969L422.399 658.931L423.237 658.457L470.707 686.468L471.2 634.017C471.773 633.871 472.291 633.584 472.699 633.181L516.201 658.846L515.683 713.954L562.833 687.314L562.832 687.325L611.237 659.977L611.656 659.741L612.156 606.548L657.139 633.088L657.13 634.05L657.968 633.578L658.797 634.066L658.806 633.104L705.116 606.943L752.587 634.949L753.105 579.83L798.577 554.14L798.078 607.338L846.376 635.835L893.017 663.354L893.535 608.231L937.512 583.387C938.1 583.989 938.916 584.369 939.825 584.377C941.632 584.394 943.11 582.943 943.127 581.136C943.144 579.329 941.693 577.849 939.886 577.833C938.978 577.824 938.153 578.188 937.556 578.779L894.053 553.111L894.571 497.988L846.164 525.34L845.745 525.576L845.245 578.772L800.262 552.232L800.78 497.113L755.129 522.906C754.729 522.495 754.217 522.199 753.648 522.043L754.132 470.557L705.832 442.062L705.323 496.217L658.682 468.697L658.155 524.78L703.965 551.809L658.497 577.498L611.025 549.487L610.507 604.607L565.033 630.297L566.033 523.902L612.764 497.499L613.183 497.263L613.71 441.176L568.057 466.97C567.469 466.366 566.652 465.988 565.744 465.98C563.937 465.963 562.458 467.415 562.441 469.222C562.427 470.739 563.454 472.012 564.85 472.397L564.375 522.927L517.645 549.331L517.226 549.568L516.726 602.764L471.741 576.223L472.216 525.696C473.619 525.339 474.67 524.085 474.684 522.567C474.687 522.27 474.636 521.988 474.565 521.712L518.972 496.623L519.391 496.389L519.917 440.307L471.93 467.418L425.287 439.896L378.138 466.535L331.497 439.015L285.184 465.179L285.649 415.621C287.053 415.264 288.103 414.01 288.117 412.491C288.134 410.684 286.683 409.205 284.876 409.188C283.073 409.173 281.594 410.624 281.577 412.432ZM238.53 439.589L282.507 414.744C282.906 415.155 283.417 415.45 283.987 415.607L283.513 466.127L282.675 466.601L238.039 491.82L238.53 439.589ZM329.654 546.842L284.669 520.301L285.16 468.068L330.144 494.611L329.654 546.842ZM283.002 520.285L237.528 545.976L238.019 493.745L283.493 468.054L283.002 520.285ZM237.512 547.901L282.986 522.211L282.495 574.44L237.021 600.131L237.512 547.901ZM189.798 626.758L190.27 576.591C191.673 576.234 192.722 574.98 192.736 573.463C192.737 573.358 192.716 573.26 192.707 573.156L235.761 548.832L235.271 601.066L189.798 626.758ZM281.412 681.784L236.428 655.242L236.919 603.009L281.902 629.551L281.412 681.784ZM329.159 599.288C328.588 599.434 328.07 599.719 327.663 600.122L284.16 574.454L284.651 522.227L329.634 548.767L329.159 599.288ZM424.253 550.139L469.236 576.682L448.579 588.353L423.764 602.374L378.781 575.832L399.438 564.161L424.253 550.139ZM469.591 627.697C469.019 627.843 468.503 628.128 468.094 628.531L425.42 603.353L470.056 578.133L469.591 627.697ZM424.575 604.787L467.259 629.972C467.183 630.245 467.127 630.528 467.124 630.825C467.121 631.121 467.172 631.403 467.243 631.678L424.093 656.056L424.575 604.787ZM425.102 548.704L425.593 496.469L468.277 521.656C468.201 521.929 468.145 522.21 468.142 522.505C468.128 524.022 469.153 525.295 470.551 525.68L470.085 575.246L425.102 548.704ZM470.608 519.377C470.035 519.524 469.519 519.809 469.11 520.213L426.438 495.033L471.074 469.815L470.608 519.377ZM378.452 522.148L423.926 496.454L423.435 548.688L377.961 574.38L378.452 522.148ZM375.268 683.641L329.794 709.331L330.285 657.1L375.759 631.41L375.268 683.641ZM377.443 629.5L377.934 577.267L422.917 603.81L422.427 656.042L377.443 629.5ZM424.913 657.509L468.051 633.136C468.45 633.548 468.963 633.843 469.533 634L469.067 683.564L424.913 657.509ZM517.375 711.08L517.866 658.859L563.34 633.169L562.849 685.388L517.375 711.08ZM658.822 631.18L659.313 578.951L704.787 553.26L704.296 605.49L658.822 631.18ZM750.948 632.046L705.963 605.505L706.454 553.276L728.945 566.546L751.437 579.816L750.946 632.046L750.948 632.046ZM706.962 499.121L729.454 512.391L749.646 524.305C749.569 524.577 749.514 524.859 749.512 525.157C749.497 526.674 750.524 527.949 751.92 528.332L751.455 577.893L728.963 564.622L706.472 551.352L706.962 499.121ZM800.244 554.157L845.227 580.699L844.737 632.932L799.753 606.39L800.244 554.157ZM891.377 660.452L846.394 633.908L846.885 581.675L891.868 608.217L891.377 660.452ZM936.702 581.929L892.715 606.781L847.732 580.239L868.389 568.568L893.206 554.547L936.719 580.222C936.643 580.495 936.587 580.777 936.584 581.074C936.581 581.371 936.632 581.655 936.702 581.929ZM847.403 526.555L892.877 500.861L892.386 553.096L846.912 578.788L847.403 526.555ZM799.086 499.987L798.595 552.216L753.122 577.907L753.587 528.346C754.991 527.989 756.041 526.734 756.055 525.217C756.058 524.92 756.007 524.638 755.937 524.362L799.086 499.987ZM707.471 444.963L752.456 471.504L751.981 522.026C751.408 522.171 750.892 522.457 750.483 522.86L729.472 510.464L706.981 497.194L707.471 444.963ZM660.322 471.6L705.305 498.142L704.814 550.373L659.831 523.833L660.322 471.6ZM612.665 552.39L657.648 578.932L657.157 631.165L612.174 604.622L612.665 552.39ZM610.489 606.532L609.999 658.761L564.525 684.452L565.015 632.223L610.489 606.532ZM517.884 656.924L518.375 604.705L563.848 579.014L563.358 631.234L517.884 656.924ZM612.016 444.051L611.525 496.286L566.051 521.978L566.517 472.414C567.92 472.057 568.971 470.803 568.985 469.285C568.988 468.986 568.937 468.704 568.866 468.43L612.016 444.051ZM518.883 550.547L564.357 524.853L563.867 577.087L518.393 602.779L518.883 550.547ZM516.217 656.918L473.533 631.735C473.609 631.462 473.665 631.181 473.668 630.886C473.682 629.369 472.656 628.094 471.259 627.711L471.725 578.149L516.708 604.689L516.217 656.918ZM517.735 495.408L473.757 520.254C473.358 519.843 472.845 519.548 472.277 519.391L472.751 468.869L518.227 443.178L517.736 495.408L517.735 495.408ZM425.273 441.82L470.256 468.362L425.62 493.58L424.782 494.054L423.953 493.565L379.799 467.512L425.273 441.82ZM376.465 467.481L330.993 493.173L286.008 466.631L331.484 440.939L376.465 467.481Z" fill="#E5E7EA"/>
</svg>
