<svg width="199" height="162" viewBox="0 0 199 162" fill="none" xmlns="http://www.w3.org/2000/svg">
<g style="mix-blend-mode:multiply" opacity="0.5">
<path d="M163.63 31.3968C170.274 31.3968 175.66 26.0119 175.66 19.3693C175.66 12.7267 170.274 7.3418 163.63 7.3418C156.987 7.3418 151.601 12.7267 151.601 19.3693C151.601 26.0119 156.987 31.3968 163.63 31.3968Z" fill="#EBF1FF"/>
</g>
<g style="mix-blend-mode:multiply" opacity="0.5">
<path d="M172.464 28.202C177.342 23.3243 177.342 15.4159 172.464 10.5382C167.585 5.66048 159.675 5.66047 154.797 10.5382C149.918 15.4159 149.918 23.3243 154.797 28.202C159.675 33.0798 167.585 33.0798 172.464 28.202Z" fill="#EBF1FF"/>
</g>
<g style="mix-blend-mode:multiply" opacity="0.5">
<path d="M170.689 26.4274C174.587 22.5298 174.587 16.2105 170.689 12.3129C166.791 8.41526 160.47 8.41526 156.572 12.3129C152.673 16.2105 152.673 22.5298 156.572 26.4274C160.47 30.325 166.791 30.325 170.689 26.4274Z" fill="#EBF1FF"/>
</g>
<g style="mix-blend-mode:multiply" opacity="0.5">
<path d="M157.12 20.3457C160.446 16.8929 163.772 13.435 167.142 10.0265C165.322 9.34345 163.342 9.20638 161.446 9.63207C159.549 10.0578 157.818 11.0277 156.465 12.4229C155.112 13.8181 154.195 15.5778 153.828 17.4863C153.461 19.3947 153.658 21.3688 154.397 23.1664C155.306 22.2273 156.213 21.2871 157.12 20.3457Z" fill="#EBF1FF"/>
</g>
<g style="mix-blend-mode:multiply" opacity="0.5">
<path d="M158.223 26.2574C158.777 25.7139 159.347 25.1881 159.9 24.6435C163.762 20.8409 167.647 17.0624 171.556 13.3079C171.037 12.6313 170.434 12.0235 169.761 11.499C165.06 16.132 160.405 20.8138 155.74 25.4832C156.21 26.0889 156.748 26.6388 157.344 27.122C157.627 26.8111 157.949 26.5251 158.223 26.2574Z" fill="#EBF1FF"/>
</g>
<g style="mix-blend-mode:multiply" opacity="0.5">
<path d="M164.517 19.3704C164.517 19.1948 164.465 19.0232 164.368 18.8772C164.27 18.7311 164.132 18.6173 163.97 18.5501C163.807 18.4828 163.629 18.4652 163.457 18.4994C163.285 18.5337 163.126 18.6182 163.002 18.7423C162.878 18.8665 162.793 19.0246 162.759 19.1968C162.725 19.369 162.743 19.5475 162.81 19.7096C162.877 19.8718 162.991 20.0104 163.137 20.1078C163.283 20.2053 163.455 20.2573 163.63 20.2572C163.866 20.2572 164.091 20.1637 164.257 19.9974C164.424 19.8311 164.517 19.6056 164.517 19.3704Z" fill="#EBF1FF"/>
</g>
<g style="mix-blend-mode:multiply" opacity="0.5">
<path d="M167.997 21.8422L163.334 19.5507L163.5 11.212C163.5 11.1817 163.513 11.1527 163.534 11.131C163.555 11.1092 163.583 11.0963 163.614 11.0949C163.629 11.0941 163.645 11.0963 163.66 11.1016C163.675 11.1069 163.688 11.115 163.7 11.1256C163.712 11.1362 163.721 11.1489 163.728 11.1632C163.735 11.1774 163.739 11.1929 163.739 11.2086L163.927 19.1858L168.131 21.5875C168.163 21.6054 168.186 21.6347 168.197 21.6694C168.207 21.7041 168.204 21.7415 168.188 21.774C168.18 21.7912 168.169 21.8067 168.155 21.8196C168.141 21.8324 168.125 21.8423 168.107 21.8486C168.089 21.855 168.07 21.8577 168.051 21.8566C168.032 21.8555 168.014 21.8506 167.997 21.8422Z" fill="#EBF1FF"/>
</g>
<g style="mix-blend-mode:multiply" opacity="0.5">
<path d="M131.185 82.4402L130.064 80.8377C129.912 80.6231 129.686 80.4729 129.429 80.4166C129.172 80.3602 128.904 80.4017 128.676 80.533C127.207 81.3679 125.887 82.4393 124.767 83.7038C124.592 83.8989 124.497 84.1519 124.498 84.4136C124.5 84.6754 124.599 84.9271 124.776 85.1199L126.122 86.5712C126.276 86.7353 126.372 86.9451 126.395 87.1688C126.419 87.3924 126.369 87.6177 126.253 87.8104C125.843 88.4814 125.501 89.191 125.23 89.9291C125.157 90.1191 125.03 90.2835 124.865 90.4013C124.699 90.5192 124.502 90.5853 124.298 90.5913L122.036 90.6783C121.793 90.6885 121.561 90.7828 121.379 90.945C121.197 91.1072 121.078 91.3273 121.04 91.5679C120.765 93.2824 120.778 95.0306 121.077 96.7409C121.12 96.9906 121.253 97.2163 121.449 97.3763C121.646 97.5363 121.894 97.6199 122.147 97.6118L124.236 97.5402C124.452 97.5311 124.665 97.59 124.846 97.7086C125.026 97.8273 125.165 97.9996 125.242 98.2013C125.381 98.5753 125.539 98.942 125.715 99.3001C125.883 99.6412 126.064 99.969 126.258 100.284C126.367 100.463 126.418 100.671 126.405 100.88C126.392 101.09 126.316 101.29 126.186 101.455L124.851 103.175C124.699 103.371 124.622 103.615 124.632 103.862C124.642 104.11 124.74 104.347 124.908 104.529C126.078 105.808 127.453 106.884 128.976 107.713C129.196 107.833 129.452 107.871 129.698 107.818C129.944 107.766 130.163 107.628 130.315 107.429L131.61 105.732C131.739 105.561 131.918 105.435 132.121 105.37C132.325 105.306 132.544 105.306 132.747 105.37C133.542 105.626 134.362 105.799 135.192 105.885C135.421 105.909 135.635 106.008 135.802 106.166C135.968 106.325 136.078 106.534 136.112 106.762L136.406 108.673C136.448 108.935 136.586 109.171 136.793 109.335C137.001 109.499 137.263 109.579 137.527 109.559C139.244 109.437 140.928 109.028 142.509 108.348C142.729 108.256 142.913 108.093 143.028 107.883C143.144 107.674 143.185 107.432 143.145 107.196L142.736 104.878C142.7 104.685 142.72 104.486 142.794 104.304C142.868 104.121 142.992 103.964 143.153 103.851C143.778 103.422 144.36 102.934 144.892 102.394C145.051 102.233 145.259 102.129 145.482 102.097C145.706 102.066 145.934 102.108 146.132 102.218L147.857 103.17C148.086 103.296 148.354 103.332 148.608 103.272C148.862 103.211 149.084 103.058 149.231 102.843C150.2 101.425 150.93 99.8572 151.392 98.203C151.459 97.9668 151.441 97.7146 151.342 97.4901C151.242 97.2656 151.067 97.083 150.847 96.974L148.852 95.9911C148.667 95.9015 148.512 95.7583 148.409 95.58C148.306 95.4018 148.258 95.1967 148.273 94.9912C148.335 94.2202 148.322 93.4449 148.234 92.6764C148.21 92.4585 148.257 92.2389 148.367 92.0492C148.476 91.8596 148.644 91.7097 148.844 91.6214L150.717 90.784C150.95 90.6789 151.137 90.4922 151.243 90.2591C151.348 90.026 151.366 89.7623 151.291 89.5175C150.793 87.8858 150.032 86.3463 149.038 84.9596C148.888 84.7495 148.667 84.6018 148.415 84.5447C148.163 84.4876 147.899 84.525 147.674 84.6498L145.894 85.6315C145.7 85.7389 145.477 85.7816 145.258 85.7533C145.038 85.7249 144.833 85.6271 144.673 85.474C144.068 84.8907 143.402 84.3731 142.688 83.9301C142.498 83.8125 142.351 83.6368 142.269 83.4291C142.187 83.2214 142.174 82.9928 142.233 82.7773L142.759 80.8263C142.826 80.5769 142.799 80.3114 142.683 80.0807C142.566 79.85 142.369 79.6702 142.129 79.5757C140.544 78.9492 138.867 78.5845 137.165 78.4956C136.909 78.482 136.656 78.5629 136.455 78.7228C136.254 78.8827 136.119 79.1107 136.075 79.3636L135.726 81.3737C135.689 81.5917 135.583 81.7919 135.424 81.9453C135.264 82.0987 135.06 82.1972 134.841 82.2264C134 82.336 133.173 82.5359 132.375 82.8227C132.162 82.8967 131.931 82.8995 131.716 82.8304C131.501 82.7614 131.315 82.6244 131.185 82.4402ZM139.13 86.5439C148.211 91.1723 144.015 103.506 133.993 101.64C133.884 101.62 133.779 101.584 133.68 101.534C124.604 96.9018 128.798 84.5747 138.816 86.437C138.925 86.4575 139.031 86.4935 139.13 86.5439Z" fill="#EBF1FF"/>
</g>
<g style="mix-blend-mode:multiply" opacity="0.5">
<path d="M107.193 96.9515L106.289 95.6599C106.167 95.487 105.984 95.3661 105.777 95.3207C105.571 95.2754 105.354 95.309 105.171 95.4149C103.987 96.0886 102.923 96.9529 102.021 97.973C101.88 98.1301 101.803 98.3339 101.804 98.5449C101.806 98.7558 101.885 98.9586 102.028 99.1139L103.113 100.283C103.236 100.416 103.314 100.585 103.333 100.765C103.352 100.945 103.312 101.127 103.218 101.283C102.888 101.823 102.612 102.394 102.394 102.988C102.336 103.141 102.234 103.274 102.1 103.369C101.967 103.464 101.808 103.517 101.644 103.522L99.8211 103.592C99.625 103.6 99.4378 103.676 99.2914 103.806C99.145 103.937 99.0485 104.115 99.0183 104.308C98.7969 105.69 98.8069 107.098 99.0478 108.476C99.0828 108.677 99.1894 108.859 99.3478 108.988C99.5063 109.117 99.7061 109.184 99.9103 109.178L101.594 109.121C101.768 109.114 101.94 109.161 102.085 109.257C102.231 109.353 102.342 109.492 102.405 109.654C102.517 109.955 102.644 110.251 102.786 110.539C102.921 110.813 103.067 111.077 103.223 111.332C103.311 111.477 103.352 111.644 103.342 111.813C103.332 111.982 103.271 112.143 103.167 112.276L102.091 113.662C101.969 113.82 101.906 114.017 101.915 114.217C101.923 114.416 102.003 114.607 102.138 114.754C103.081 115.784 104.189 116.65 105.416 117.317C105.593 117.414 105.8 117.445 105.998 117.403C106.196 117.362 106.373 117.25 106.496 117.09L107.54 115.722C107.644 115.584 107.788 115.483 107.953 115.43C108.117 115.378 108.294 115.378 108.458 115.43C109.099 115.637 109.759 115.776 110.428 115.845C110.612 115.865 110.785 115.945 110.918 116.073C111.052 116.201 111.14 116.369 111.167 116.552L111.405 118.092C111.438 118.303 111.549 118.494 111.716 118.626C111.884 118.758 112.095 118.823 112.307 118.806C113.691 118.708 115.048 118.378 116.322 117.83C116.5 117.756 116.647 117.624 116.74 117.455C116.833 117.287 116.866 117.092 116.834 116.902L116.504 115.035C116.475 114.879 116.491 114.718 116.55 114.571C116.61 114.424 116.71 114.298 116.84 114.206C117.344 113.861 117.813 113.468 118.242 113.032C118.37 112.903 118.537 112.819 118.717 112.793C118.897 112.768 119.081 112.802 119.24 112.891L120.631 113.658C120.815 113.76 121.031 113.789 121.236 113.74C121.44 113.691 121.62 113.568 121.738 113.394C122.519 112.251 123.107 110.988 123.48 109.655C123.534 109.464 123.519 109.261 123.439 109.08C123.359 108.899 123.218 108.752 123.041 108.664L121.433 107.872C121.283 107.8 121.159 107.685 121.076 107.541C120.992 107.398 120.954 107.232 120.966 107.067C121.016 106.445 121.006 105.821 120.934 105.202C120.915 105.026 120.952 104.848 121.041 104.695C121.129 104.541 121.264 104.42 121.426 104.349L122.935 103.673C123.123 103.589 123.274 103.439 123.359 103.251C123.445 103.063 123.458 102.851 123.398 102.654C122.996 101.339 122.383 100.098 121.583 98.9803C121.462 98.8115 121.284 98.6928 121.081 98.6467C120.879 98.6006 120.667 98.6303 120.485 98.7302L119.051 99.5215C118.895 99.6083 118.715 99.6428 118.538 99.62C118.361 99.5972 118.196 99.5182 118.067 99.3947C117.579 98.9245 117.043 98.5076 116.467 98.1509C116.314 98.0558 116.196 97.9138 116.13 97.7461C116.064 97.5785 116.055 97.3941 116.102 97.2203L116.526 95.648C116.58 95.447 116.558 95.2333 116.464 95.0476C116.37 94.8619 116.212 94.7173 116.018 94.6412C114.741 94.137 113.39 93.8437 112.018 93.7726C111.811 93.7619 111.608 93.8271 111.446 93.956C111.284 94.0849 111.175 94.2686 111.139 94.4724L110.858 96.0919C110.828 96.2677 110.743 96.4292 110.614 96.5529C110.486 96.6767 110.321 96.7562 110.145 96.7798C109.467 96.8679 108.801 97.029 108.158 97.2601C107.986 97.3214 107.798 97.3244 107.624 97.2686C107.449 97.2128 107.298 97.1014 107.193 96.9515ZM113.594 100.256C120.913 103.987 117.532 113.926 109.455 112.422C109.367 112.405 109.282 112.376 109.203 112.335C101.888 108.603 105.269 98.6688 113.342 100.17C113.43 100.187 113.515 100.216 113.594 100.256Z" fill="#EBF1FF"/>
</g>
<g style="mix-blend-mode:multiply" opacity="0.5">
<path d="M4.5389 32.0132H15.7779L19.452 36.3386V25.9602C19.452 22.6176 17.4199 19.9072 14.9131 19.9072H4.5389C2.03207 19.9101 0 22.6176 0 25.9602C0 29.3033 2.03207 32.0132 4.5389 32.0132Z" fill="#EBF1FF"/>
</g>
<g style="mix-blend-mode:multiply" opacity="0.5">
<path d="M10.5045 24.3486H8.59863V28.7951H10.5045V24.3486Z" fill="#EBF1FF"/>
</g>
<g style="mix-blend-mode:multiply" opacity="0.5">
<path d="M7.8082 25.7949H5.90234V28.7953H7.8082V25.7949Z" fill="#EBF1FF"/>
</g>
<g style="mix-blend-mode:multiply" opacity="0.5">
<path d="M13.419 23.0146H11.5132V28.7948H13.419V23.0146Z" fill="#EBF1FF"/>
</g>
<g style="mix-blend-mode:multiply" opacity="0.5">
<path d="M38.4402 12.854H26.507L22.6055 17.4449V6.42701C22.6055 2.87755 24.7632 0 27.4252 0H38.4402C41.1022 0 43.26 2.87755 43.26 6.42701C43.26 9.97648 41.1022 12.854 38.4402 12.854Z" fill="#EBF1FF"/>
</g>
<g style="mix-blend-mode:multiply" opacity="0.5">
<path d="M30.6314 6.32352C30.6314 6.0828 30.56 5.84749 30.4262 5.64735C30.2925 5.4472 30.1024 5.29121 29.8799 5.19909C29.6575 5.10697 29.4127 5.08287 29.1766 5.12983C28.9405 5.17679 28.7236 5.29271 28.5533 5.46292C28.3831 5.63313 28.2671 5.84999 28.2202 6.08608C28.1732 6.32217 28.1973 6.56688 28.2894 6.78927C28.3816 7.01166 28.5376 7.20174 28.7378 7.33548C28.938 7.46921 29.1733 7.54059 29.4141 7.54059C29.7369 7.54044 30.0464 7.41217 30.2747 7.18395C30.503 6.95574 30.6313 6.64626 30.6314 6.32352Z" fill="#EBF1FF"/>
</g>
<g style="mix-blend-mode:multiply" opacity="0.5">
<path d="M34.587 6.32352C34.587 6.0828 34.5156 5.84749 34.3818 5.64735C34.2481 5.4472 34.0579 5.29121 33.8355 5.19909C33.6131 5.10697 33.3683 5.08287 33.1322 5.12983C32.896 5.17679 32.6791 5.29271 32.5089 5.46292C32.3386 5.63313 32.2227 5.84999 32.1757 6.08608C32.1288 6.32217 32.1529 6.56688 32.245 6.78927C32.3371 7.01166 32.4932 7.20174 32.6934 7.33548C32.8935 7.46921 33.1289 7.54059 33.3697 7.54059C33.6925 7.54059 34.0021 7.41237 34.2304 7.18412C34.4587 6.95587 34.587 6.64631 34.587 6.32352Z" fill="#EBF1FF"/>
</g>
<g style="mix-blend-mode:multiply" opacity="0.5">
<path d="M38.543 6.32352C38.543 6.0828 38.4716 5.84749 38.3379 5.64735C38.2041 5.4472 38.014 5.29121 37.7916 5.19909C37.5691 5.10697 37.3244 5.08287 37.0882 5.12983C36.8521 5.17679 36.6352 5.29271 36.4649 5.46292C36.2947 5.63313 36.1788 5.84999 36.1318 6.08608C36.0848 6.32217 36.1089 6.56688 36.2011 6.78927C36.2932 7.01166 36.4492 7.20174 36.6494 7.33548C36.8496 7.46921 37.0849 7.54059 37.3257 7.54059C37.6485 7.54044 37.9581 7.41217 38.1863 7.18395C38.4146 6.95574 38.5429 6.64626 38.543 6.32352Z" fill="#EBF1FF"/>
</g>
<g style="mix-blend-mode:multiply" opacity="0.5">
<path d="M194.181 47.6382H182.247L178.346 52.2285V41.2112C178.346 37.6617 180.507 34.7842 183.165 34.7842H194.181C196.842 34.7842 199 37.6617 199 41.2112C199 44.7607 196.842 47.6382 194.181 47.6382Z" fill="#EBF1FF"/>
</g>
<g style="mix-blend-mode:multiply" opacity="0.5">
<path d="M186.372 41.1073C186.372 40.8666 186.3 40.6312 186.167 40.431C186.033 40.2307 185.843 40.0747 185.621 39.9825C185.398 39.8903 185.153 39.8661 184.917 39.913C184.681 39.9599 184.464 40.0757 184.294 40.2459C184.123 40.4161 184.007 40.633 183.96 40.8691C183.913 41.1052 183.937 41.3499 184.03 41.5723C184.122 41.7948 184.278 41.9849 184.478 42.1186C184.678 42.2524 184.914 42.3238 185.154 42.3238C185.477 42.3238 185.787 42.1956 186.015 41.9675C186.243 41.7394 186.371 41.43 186.372 41.1073Z" fill="#EBF1FF"/>
</g>
<g style="mix-blend-mode:multiply" opacity="0.5">
<path d="M190.328 41.1073C190.328 40.8666 190.257 40.6312 190.123 40.431C189.989 40.2307 189.799 40.0747 189.577 39.9825C189.354 39.8903 189.109 39.8661 188.873 39.913C188.637 39.9599 188.42 40.0757 188.25 40.2459C188.08 40.4161 187.964 40.633 187.916 40.8691C187.869 41.1052 187.894 41.3499 187.986 41.5723C188.078 41.7948 188.234 41.9849 188.434 42.1186C188.634 42.2524 188.87 42.3238 189.11 42.3238C189.433 42.3238 189.743 42.1956 189.971 41.9675C190.199 41.7394 190.328 41.43 190.328 41.1073Z" fill="#EBF1FF"/>
</g>
<g style="mix-blend-mode:multiply" opacity="0.5">
<path d="M194.281 41.1073C194.281 40.8666 194.21 40.6312 194.076 40.431C193.942 40.2307 193.752 40.0747 193.53 39.9825C193.307 39.8903 193.063 39.8661 192.826 39.913C192.59 39.9599 192.373 40.0757 192.203 40.2459C192.033 40.4161 191.917 40.633 191.87 40.8691C191.823 41.1052 191.847 41.3499 191.939 41.5723C192.031 41.7948 192.187 41.9849 192.387 42.1186C192.587 42.2524 192.823 42.3238 193.064 42.3238C193.223 42.3239 193.382 42.2925 193.529 42.2314C193.677 42.1703 193.811 42.0807 193.924 41.9677C194.037 41.8547 194.127 41.7206 194.188 41.573C194.249 41.4253 194.281 41.2671 194.281 41.1073Z" fill="#EBF1FF"/>
</g>
<g style="mix-blend-mode:multiply" opacity="0.5">
<path d="M106.327 90.0576H115.079L117.94 93.4246V85.3451C117.94 82.7416 116.358 80.6309 114.406 80.6309H106.326C104.374 80.6309 102.792 82.7416 102.792 85.3451C102.793 87.9481 104.376 90.0576 106.327 90.0576Z" fill="#EBF1FF"/>
</g>
<g style="mix-blend-mode:multiply" opacity="0.5">
<path d="M107.777 85.4956C107.777 85.315 107.724 85.1384 107.623 84.9882C107.523 84.838 107.38 84.7209 107.214 84.6517C107.047 84.5825 106.863 84.5643 106.686 84.5995C106.509 84.6347 106.346 84.7216 106.218 84.8492C106.091 84.9769 106.004 85.1396 105.968 85.3167C105.933 85.4938 105.951 85.6774 106.02 85.8442C106.089 86.0111 106.206 86.1537 106.356 86.254C106.507 86.3544 106.683 86.4079 106.864 86.4079C107.106 86.4079 107.338 86.3118 107.509 86.1407C107.681 85.9696 107.777 85.7376 107.777 85.4956Z" fill="#EBF1FF"/>
</g>
<g style="mix-blend-mode:multiply" opacity="0.5">
<path d="M110.976 85.4956C110.976 85.315 110.923 85.1384 110.823 84.9882C110.722 84.838 110.58 84.7209 110.413 84.6517C110.246 84.5825 110.062 84.5643 109.885 84.5995C109.708 84.6347 109.545 84.7216 109.418 84.8492C109.29 84.9769 109.203 85.1396 109.167 85.3167C109.132 85.4938 109.15 85.6774 109.219 85.8442C109.288 86.0111 109.405 86.1537 109.556 86.254C109.706 86.3544 109.882 86.4079 110.063 86.4079C110.305 86.4079 110.537 86.3118 110.709 86.1407C110.88 85.9696 110.976 85.7376 110.976 85.4956Z" fill="#EBF1FF"/>
</g>
<g style="mix-blend-mode:multiply" opacity="0.5">
<path d="M114.175 85.4956C114.175 85.315 114.122 85.1384 114.022 84.9882C113.921 84.838 113.779 84.7209 113.612 84.6517C113.445 84.5825 113.262 84.5643 113.084 84.5995C112.907 84.6347 112.745 84.7216 112.617 84.8492C112.489 84.9769 112.402 85.1396 112.367 85.3167C112.331 85.4938 112.349 85.6774 112.419 85.8442C112.488 86.0111 112.605 86.1537 112.755 86.254C112.905 86.3544 113.082 86.4079 113.262 86.4079C113.504 86.4079 113.736 86.3118 113.908 86.1407C114.079 85.9696 114.175 85.7376 114.175 85.4956Z" fill="#EBF1FF"/>
</g>
<g style="mix-blend-mode:multiply" opacity="0.5">
<path d="M166.804 55.1894C166.804 54.5412 166.676 53.8992 166.428 53.3003C166.18 52.7014 165.816 52.1572 165.358 51.6988C164.9 51.2404 164.355 50.8768 163.756 50.6287C163.157 50.3806 162.515 50.2529 161.867 50.2529C161.218 50.2529 160.576 50.3806 159.977 50.6287C159.378 50.8768 158.834 51.2404 158.375 51.6988C157.917 52.1572 157.553 52.7014 157.305 53.3003C157.057 53.8992 156.929 54.5412 156.929 55.1894C156.929 57.918 161.628 62.1963 161.628 62.1963C161.628 62.1963 166.804 57.9158 166.804 55.1894Z" fill="#EBF1FF"/>
</g>
<g style="mix-blend-mode:multiply" opacity="0.5">
<path d="M161.628 62.1963C161.628 62.1963 166.802 57.9158 166.802 55.1894C166.802 53.8802 166.282 52.6246 165.356 51.6988C164.43 50.773 163.174 50.2529 161.864 50.2529" fill="#EBF1FF"/>
</g>
<g style="mix-blend-mode:multiply" opacity="0.5">
<path d="M160.433 59.9665C160.433 59.9665 161.07 54.7936 160.353 55.1096C159.637 55.4257 159.238 56.2244 160.034 56.3835C160.83 56.5427 164.014 56.3835 164.014 56.3835C164.014 56.3835 164.299 55.478 163.776 55.2688C162.98 54.9505 162.98 57.9758 162.82 60.1257" fill="#EBF1FF"/>
</g>
<g style="mix-blend-mode:multiply" opacity="0.5">
<path d="M163.618 61.0815H159.638C159.49 61.0814 159.349 61.0226 159.244 60.918C159.14 60.8134 159.081 60.6717 159.081 60.5239C159.081 60.3761 159.14 60.2344 159.244 60.13C159.349 60.0255 159.49 59.9668 159.638 59.9668H163.618C163.691 59.9668 163.764 59.9812 163.831 60.0092C163.899 60.0372 163.961 60.0782 164.012 60.13C164.064 60.1817 164.105 60.2431 164.133 60.3107C164.161 60.3783 164.175 60.4507 164.175 60.5239C164.175 60.6717 164.117 60.8134 164.012 60.918C163.908 61.0226 163.766 61.0814 163.618 61.0815Z" fill="#EBF1FF"/>
<path d="M161.707 63.6299C161.095 63.6299 160.508 63.3866 160.074 62.9535C159.641 62.5205 159.398 61.9332 159.398 61.3208V60.9229H164.016V61.3208C164.016 61.9331 163.773 62.5203 163.34 62.9533C162.907 63.3864 162.32 63.6297 161.707 63.6299Z" fill="#EBF1FF"/>
</g>
<g style="mix-blend-mode:multiply" opacity="0.5">
<path d="M143.417 69.6706V1.71289C143.417 1.30946 143.089 0.982422 142.686 0.982422L49.2042 0.982422C48.8007 0.982422 48.4736 1.30946 48.4736 1.71289V69.6706C48.4736 70.074 48.8007 70.4011 49.2042 70.4011H142.686C143.089 70.4011 143.417 70.074 143.417 69.6706Z" fill="#EBF1FF"/>
</g>
<g style="mix-blend-mode:multiply" opacity="0.5">
<path d="M139.261 3.07812H51.6518C51.253 3.07812 50.9297 3.40135 50.9297 3.80007V67.5836C50.9297 67.9823 51.253 68.3055 51.6518 68.3055H139.261C139.659 68.3055 139.983 67.9823 139.983 67.5836V3.80007C139.983 3.40135 139.659 3.07812 139.261 3.07812Z" fill="#EBF1FF"/>
</g>
<g style="mix-blend-mode:multiply" opacity="0.5">
<path d="M50.9297 62.1592C50.9297 65.554 53.3893 68.3059 56.4238 68.3059H135.047C138.081 68.3059 140.541 65.554 140.541 62.1592H50.9297Z" fill="#EBF1FF"/>
</g>
<g style="mix-blend-mode:multiply" opacity="0.5">
<path d="M58.6601 8.01898C58.6601 7.73903 58.5771 7.46537 58.4215 7.23259C58.2659 6.99982 58.0448 6.8184 57.7861 6.71126C57.5274 6.60413 57.2428 6.5761 56.9682 6.63071C56.6935 6.68533 56.4413 6.82014 56.2433 7.0181C56.0453 7.21605 55.9104 7.46827 55.8558 7.74284C55.8012 8.01741 55.8292 8.30202 55.9364 8.56066C56.0435 8.8193 56.225 9.04037 56.4578 9.1959C56.6906 9.35143 56.9644 9.43445 57.2444 9.43445C57.6198 9.43445 57.9799 9.28532 58.2454 9.01987C58.5109 8.75442 58.6601 8.39439 58.6601 8.01898Z" fill="#EBF1FF"/>
</g>
<g style="mix-blend-mode:multiply" opacity="0.5">
<path d="M63.6158 8.01914C63.6159 7.73903 63.5329 7.46517 63.3774 7.23222C63.2218 6.99927 63.0006 6.81768 62.7418 6.71044C62.483 6.60319 62.1981 6.5751 61.9233 6.62972C61.6486 6.68434 61.3961 6.81922 61.198 7.01729C60.9999 7.21536 60.865 7.46772 60.8104 7.74246C60.7558 8.01719 60.7839 8.30196 60.8911 8.56073C60.9984 8.8195 61.18 9.04065 61.413 9.1962C61.646 9.35175 61.9199 9.43472 62.2001 9.43461C62.5756 9.43461 62.9357 9.28548 63.2012 9.02003C63.4667 8.75457 63.6158 8.39455 63.6158 8.01914Z" fill="#EBF1FF"/>
</g>
<g style="mix-blend-mode:multiply" opacity="0.5">
<path d="M68.5698 8.01898C68.5698 7.73903 68.4867 7.46537 68.3312 7.23259C68.1756 6.99982 67.9545 6.8184 67.6958 6.71126C67.4371 6.60413 67.1525 6.5761 66.8778 6.63071C66.6032 6.68533 66.3509 6.82014 66.1529 7.0181C65.9549 7.21605 65.8201 7.46827 65.7655 7.74284C65.7109 8.01741 65.7389 8.30202 65.8461 8.56066C65.9532 8.8193 66.1347 9.04037 66.3675 9.1959C66.6003 9.35143 66.874 9.43445 67.154 9.43445C67.3399 9.43445 67.524 9.39784 67.6958 9.3267C67.8676 9.25557 68.0236 9.15131 68.1551 9.01987C68.2866 8.88843 68.3909 8.73239 68.462 8.56066C68.5331 8.38893 68.5698 8.20486 68.5698 8.01898Z" fill="#EBF1FF"/>
</g>
<g style="mix-blend-mode:multiply" opacity="0.5">
<path d="M80.8914 44.4829C87.5903 41.6895 90.7549 33.9954 87.961 27.2983C85.167 20.6013 77.4714 17.4361 70.7731 20.2301C64.0747 23.0241 60.9089 30.7176 63.7034 37.4147C66.498 44.1117 74.193 47.2763 80.8914 44.4829Z" fill="#EBF1FF"/>
</g>
<g style="mix-blend-mode:multiply" opacity="0.5">
<path d="M80.8912 44.4833C74.1929 47.2767 66.4972 44.1126 63.7033 37.415C60.9093 30.7174 64.074 23.0239 70.7729 20.2305L80.8912 44.4833Z" fill="#EBF1FF"/>
</g>
<g style="mix-blend-mode:multiply" opacity="0.5">
<path d="M80.9646 44.5137C87.6635 41.7202 90.8281 34.0261 88.0342 27.3291L75.8525 32.4094L80.9646 44.5137Z" fill="#EBF1FF"/>
</g>
<g style="mix-blend-mode:multiply" opacity="0.5">
<path d="M75.9194 32.5676L90.6454 26.4254C89.8445 24.4986 88.6706 22.749 87.1912 21.2773C85.7117 19.8055 83.956 18.6407 82.0248 17.8496L75.9194 32.5676Z" fill="#EBF1FF"/>
</g>
<g style="mix-blend-mode:multiply" opacity="0.5">
<path d="M101.027 44.3682H105.024V51.9668H101.027" fill="#EBF1FF"/>
</g>
<g style="mix-blend-mode:multiply" opacity="0.5">
<path d="M111.445 37.2139H107.448V51.9665H111.445V37.2139Z" fill="#EBF1FF"/>
</g>
<g style="mix-blend-mode:multiply" opacity="0.5">
<path d="M117.341 35.7207H113.542V51.9656H117.341V35.7207Z" fill="#EBF1FF"/>
</g>
<g style="mix-blend-mode:multiply" opacity="0.5">
<path d="M123.893 29.3516H120.093V51.966H123.893V29.3516Z" fill="#EBF1FF"/>
</g>
<g style="mix-blend-mode:multiply" opacity="0.5">
<path d="M99.5811 41.2265L106.854 34.0207H113.733L120.285 24.3262" fill="#EBF1FF"/>
<path d="M120.474 25.0971V24.2529H119.629L120.474 25.0971Z" fill="#EBF1FF"/>
<path d="M99.9743 41.0296C99.9743 40.9648 99.9551 40.9015 99.9191 40.8477C99.8832 40.7938 99.832 40.7519 99.7722 40.7271C99.7123 40.7023 99.6465 40.6958 99.5829 40.7084C99.5194 40.7211 99.4611 40.7523 99.4153 40.798C99.3695 40.8438 99.3383 40.9022 99.3256 40.9657C99.313 41.0292 99.3195 41.0951 99.3443 41.1549C99.3691 41.2147 99.411 41.2658 99.4649 41.3018C99.5187 41.3378 99.5821 41.357 99.6468 41.357C99.7337 41.357 99.817 41.3225 99.8784 41.2611C99.9398 41.1997 99.9743 41.1164 99.9743 41.0296Z" fill="#EBF1FF"/>
</g>
<g style="mix-blend-mode:multiply" opacity="0.5">
<path d="M101.849 11.3789H98.9238V14.3036H101.849V11.3789Z" fill="#EBF1FF"/>
<path d="M101.849 17.2285H98.9238V20.1532H101.849V17.2285Z" fill="#EBF1FF"/>
</g>
<path d="M98.9005 48.0553L95.9605 49.776L64.7032 68.089C63.7412 68.6529 62.6155 68.5198 62.1691 67.7894C61.7228 67.0589 62.1191 65.9964 63.0595 65.3984L93.5696 46.002L96.5057 44.1357L98.9005 48.0553Z" fill="#5465FF"/>
<path d="M120.588 49.8417C126.665 43.7661 126.665 33.9155 120.588 27.8399C114.511 21.7643 104.658 21.7643 98.5817 27.8399C92.5049 33.9155 92.5048 43.7661 98.5817 49.8417C104.658 55.9173 114.511 55.9173 120.588 49.8417Z" fill="#5465FF"/>
<path d="M118.51 47.764C123.439 42.8358 123.439 34.8458 118.51 29.9177C113.58 24.9895 105.589 24.9895 100.66 29.9177C95.7307 34.8458 95.7307 42.8359 100.66 47.764C105.589 52.6921 113.58 52.6921 118.51 47.764Z" fill="white"/>
<mask id="mask0_156_35" style="mask-type:luminance" maskUnits="userSpaceOnUse" x="96" y="26" width="27" height="26">
<path d="M118.51 47.764C123.439 42.8358 123.439 34.8458 118.51 29.9177C113.58 24.9895 105.589 24.9895 100.66 29.9177C95.7307 34.8458 95.7307 42.8359 100.66 47.764C105.589 52.6921 113.58 52.6921 118.51 47.764Z" fill="white"/>
</mask>
<g mask="url(#mask0_156_35)">
<path d="M104.453 43.1055H100.497V67.3827H104.453V43.1055Z" fill="#B7B7FF"/>
<path d="M111.563 39.9033H107.606V67.5464H111.563V39.9033Z" fill="#E0E0FF"/>
<path d="M118.672 36.4658H114.716V67.1098H118.672V36.4658Z" fill="#B7B7FF"/>
<path d="M114.253 31.8237L96.125 37.6221L96.2749 38.0904L114.403 32.2921L114.253 31.8237Z" fill="#B7B7FF"/>
<path d="M113.124 34.174L112.724 33.8898L113.918 32.2134L112.188 31.6222L112.348 31.1572L114.257 31.8104C114.31 31.8268 114.358 31.8562 114.398 31.8959C114.437 31.9356 114.465 31.9843 114.481 32.0378C114.498 32.0932 114.501 32.1522 114.489 32.2091C114.478 32.266 114.451 32.319 114.413 32.3629L113.124 34.174ZM114.095 32.2743C114.101 32.2763 114.106 32.278 114.111 32.2794L114.095 32.2743ZM114.026 32.0605C114.023 32.0637 114.021 32.0671 114.019 32.0707L114.026 32.0605Z" fill="#B7B7FF"/>
</g>
<path d="M78.6513 146.509C76.6715 146.539 73.8321 146.585 71.999 146.611C72.0189 145.723 72.0513 144.838 72.0911 144.028C72.1793 142.009 72.2941 140.446 72.2941 140.446L77.969 140.407C77.969 140.407 77.9429 140.971 77.969 141.816C78.0026 143.071 78.1498 144.939 78.6513 146.509Z" fill="#FFC7AB"/>
<path d="M80.8496 149.284C79.7613 148.947 79.0796 147.836 78.6532 146.509C76.6717 146.539 73.8328 146.584 71.9952 146.611C71.9457 148.702 71.9645 150.805 72.1658 151.987C72.2069 152.235 72.3346 152.46 72.5262 152.623C72.7177 152.785 72.9607 152.875 73.2119 152.875H82.9646C83.7606 152.875 84.4429 152.21 84.3628 151.42C84.2633 150.474 83.1472 149.995 80.8496 149.284Z" fill="#414CB0"/>
<path d="M52.1452 138.075C51.7078 139.135 51.3468 140.225 51.065 141.337C50.8489 142.195 50.6749 143.133 50.6289 144.021C48.7634 143.349 46.0951 142.385 44.3638 141.759C45.1672 139.786 46.0263 137.852 46.4885 136.836L46.5016 136.81C46.7012 136.364 46.8228 136.102 46.8228 136.102L52.1452 138.075Z" fill="#FFC7AB"/>
<path d="M51.6993 147.393C50.8004 146.693 50.5565 145.412 50.6275 144.02L44.3642 141.76C43.5778 143.698 42.8506 145.672 42.6198 146.847C42.5705 147.094 42.6101 147.35 42.7317 147.569C42.8533 147.789 43.049 147.959 43.2839 148.048L52.4055 151.499C53.1486 151.781 54.0253 151.401 54.2283 150.633C54.4688 149.712 53.5966 148.871 51.6993 147.393Z" fill="#414CB0"/>
<path d="M80.1997 140.176L69.7647 140.995L67.9277 113.257L64.6954 101.009L60.4658 84.9901L60.2463 84.1539L59.2268 80.2929L59.0762 79.7159L61.0724 79.5357L71.8616 78.5693L72.5144 81.5196L78.9745 110.737C79.1852 111.688 79.308 112.657 79.3412 113.631L80.1997 140.176Z" fill="#414CB0"/>
<path d="M65.5245 92.7198L64.6955 101.01L63.3514 114.429C63.1984 115.974 62.8546 117.494 62.328 118.955L54.4405 139.254L45.0972 135.649L50.5551 114.625C52.7942 101.671 52.4235 91.7301 53 85.4236C53.0364 85.0302 53.0756 84.6533 53.1183 84.2895C53.3508 82.3567 53.7118 80.8281 54.3248 79.7168L59.2293 80.2938L62.6845 80.7002L63.4356 83.8762L63.5862 84.5186L65.5245 92.7198Z" fill="#414CB0"/>
<path d="M58.3381 56.0068L53.9032 57.7918C53.2653 58.0485 52.6845 58.4289 52.1942 58.9109C51.7038 59.393 51.3137 59.9672 51.0462 60.6006L47.3237 69.5072C46.9597 70.377 46.8825 71.3401 47.1032 72.2567C47.3239 73.1734 47.8312 73.9958 48.5513 74.6046C49.1501 75.1119 49.8728 75.4512 50.6456 75.5879C51.4185 75.7247 52.2138 75.6539 52.9503 75.3828L56.0974 74.226L58.3381 56.0068Z" fill="#6271FF"/>
<path d="M89.0081 47.9148C88.1791 48.3247 87.2233 50.0676 87.5867 50.6952C87.884 51.2068 88.576 50.5133 88.8045 50.2751C89.2241 49.8368 90.3067 48.6663 89.7091 48.0012C89.5175 47.7892 89.2691 47.7864 89.0081 47.9148Z" fill="#FFC7AB"/>
<path d="M87.0022 48.5449C86.3142 49.1628 85.865 51.099 86.3813 51.6049C86.806 52.0199 87.2853 51.1638 87.4411 50.8727C87.7254 50.3378 88.4543 48.9195 87.6998 48.4397C87.4593 48.2868 87.2188 48.3505 87.0022 48.5449Z" fill="#FFC7AB"/>
<path d="M85.6704 49.5177C84.9751 50.114 84.4861 51.9461 84.9882 52.4111C85.3992 52.7926 85.8928 51.9763 86.0537 51.6988C86.3482 51.1872 87.0998 49.8383 86.363 49.4034C86.1281 49.2647 85.8893 49.3301 85.6704 49.5177Z" fill="#FFC7AB"/>
<path d="M84.4015 49.9709C83.7067 50.5672 83.2178 52.3988 83.7193 52.8638C84.1309 53.2453 84.6244 52.429 84.7848 52.1515C85.0798 51.6399 85.8315 50.2915 85.0946 49.8567C84.8598 49.718 84.6204 49.7828 84.4015 49.9709Z" fill="#FFC7AB"/>
<path d="M58.3381 56.059L53.7213 63.9953C53.7213 63.9953 54.9233 77.1063 54.0488 78.7184C53.1743 80.3306 51.2059 81.5937 52.4096 82.514C53.6133 83.4344 63.1192 85.0442 73.3899 82.6277C76.2327 81.8228 74.2644 80.3277 73.6082 79.6376C72.9521 78.9475 72.0788 61.5805 72.0788 61.5805L66.1707 56.1983L61.8064 55.0244L58.3381 56.059Z" fill="#6271FF"/>
<path d="M66.0838 56.1987C65.2639 57.6324 55.617 59.107 58.3382 56.0071L61.1242 55.4199L66.0838 56.1987Z" fill="#DF9B3E"/>
<path d="M78.5826 65.5397L74.776 59.8949C74.3393 59.1853 73.761 58.5731 73.0772 58.0967C72.3934 57.6203 71.6188 57.2899 70.8017 57.126L66.1792 56.1982L68.9083 66.4413C68.9083 66.4413 73.1726 72.4232 77.0224 73.816C80.4793 75.0666 85.0649 73.0133 87.5933 59.5027L81.861 58.7211L78.5826 65.5397Z" fill="#6271FF"/>
<path d="M90.7402 51.473C90.1609 51.3991 88.172 54.3955 88.172 54.3955L84.9584 55.4898C84.3757 55.6881 83.8383 56.0006 83.3776 56.4088C82.917 56.8171 82.5422 57.313 82.2753 57.8676L81.8643 58.7203L87.5966 59.502C87.691 58.9977 87.7831 58.4821 87.8718 57.9455C89.839 56.1713 92.0246 51.6367 90.7402 51.473Z" fill="#FFC7AB"/>
<path d="M59.4497 52.3686C59.7414 49.4126 59.6237 46.4492 59.6237 46.4492L64.9216 46.8324C64.8769 47.4356 64.8671 48.0408 64.8921 48.6452C64.9322 49.6149 65.0308 50.5813 65.1872 51.5392C65.269 52.0605 65.364 52.5721 65.4658 53.0633L59.4497 52.3686Z" fill="#FFC7AB"/>
<path d="M59.4488 52.3652L58.3384 56.0074C60.897 56.6224 63.5124 56.6491 66.1795 56.1989L65.4666 53.061L59.4488 52.3652Z" fill="#6271FF"/>
<path d="M57.1414 43.5013C57.7009 43.8423 57.9812 45.4062 57.9812 45.4062C59.0012 44.7297 58.2251 43.644 59.2781 43.1363C63.9313 43.3984 66.2295 39.6357 66.2295 39.6357C68.3821 40.5089 68.0489 42.9231 68.0489 42.9231C68.2291 50.3342 64.0274 52.9678 62.8988 52.911C60.6478 52.7973 58.7926 51.1488 57.3603 47.1695C56.5018 47.1127 55.4931 46.3328 55.3305 45.3385C55.1753 44.3875 55.9884 43.1119 57.1414 43.5013Z" fill="#FFC7AB"/>
<path d="M61.5531 65.8412C61.8181 64.345 60.6235 62.556 61.4877 61.0991C62.3792 59.5978 65.1084 57.5792 67.9638 49.4269C71.4275 39.5396 64.2931 30.9684 58.1536 36.4091C53.795 40.2747 51.4018 46.634 50.4211 48.3275C49.5898 49.7623 48.5334 50.5013 47.3906 51.3972C45.205 53.1173 43.0888 54.6283 42.4485 58.6092C41.8424 62.3792 42.9239 65.9253 44.8127 68.6892C48.1735 73.6086 54.0912 76.0501 57.5998 72.8673C59.2339 71.3888 60.8725 69.6845 61.5531 65.8412Z" fill="#2B2926"/>
</svg>
