<svg width="662" height="660" viewBox="0 0 662 660" fill="none" xmlns="http://www.w3.org/2000/svg">
<path d="M3.05131 84.5674L2.56753 136.058L50.866 164.555L51.3839 109.434L96.8578 83.7432L96.349 137.9L144.335 110.789L190.148 137.819L189.674 188.346C188.269 188.703 187.22 189.957 187.206 191.476C187.203 191.772 187.252 192.056 187.324 192.33L142.918 217.417L142.499 217.654L141.972 273.737L189.956 246.625L236.6 274.146L283.75 247.508L329.562 274.538L329.062 327.73L281.075 354.843L328.544 382.852L328.027 437.975L376.433 410.625L376.852 410.389L377.352 357.191L420.036 382.376C419.96 382.649 419.904 382.932 419.901 383.229C419.887 384.746 420.912 386.021 422.31 386.404L421.326 491.088L374.596 517.49L374.177 517.724L373.65 573.809L422.056 546.459L422.475 546.223L422.984 492.06L469.294 465.894L514.282 492.439L468.384 518.373L467.965 518.607L467.438 574.692L515.845 547.342L516.264 547.106L517.273 439.747L559.957 464.932C559.881 465.205 559.825 465.486 559.822 465.784C559.808 467.301 560.832 468.576 562.231 468.959L561.747 520.449L607.559 547.479L562.085 573.169L561.256 572.68L561.247 573.643L560.409 574.117L561.238 574.605L560.729 628.766L605.071 654.929C604.995 655.202 604.939 655.485 604.936 655.781C604.919 657.588 606.37 659.067 608.177 659.084C609.984 659.101 611.463 657.65 611.48 655.843C611.494 654.326 610.467 653.051 609.071 652.668L609.546 602.142L657.533 575.028L610.892 547.508L656.785 521.578L657.204 521.342L657.713 467.182L658.551 466.708L657.722 466.219L658.231 412.057L612.437 385.038L658.348 359.099L658.767 358.865L659.294 302.783L610.886 330.132L610.467 330.368L609.967 383.582L609.932 383.562L609.414 438.683L565.437 463.531C565.038 463.121 564.527 462.824 563.957 462.669L564.44 411.183L518.628 384.155L564.521 358.226L564.94 357.99L565.449 303.809L609.388 278.984C609.976 279.588 610.794 279.967 611.702 279.976C613.509 279.993 614.988 278.541 615.005 276.734C615.019 275.217 613.993 273.942 612.596 273.559L613.579 168.937L660.385 142.49L660.804 142.254L661.331 86.1709L661.256 86.2135L661.756 32.9739L615.115 5.45591L615.124 4.49257L614.285 4.9664L613.457 4.4785L613.448 5.43866L566.718 31.841L566.299 32.0771L565.772 88.1605L611.425 62.3667C612.011 62.9708 612.829 63.3501 613.738 63.3586C614.646 63.3671 615.471 63.0033 616.07 62.4104L658.781 87.614L614.106 112.854L614.107 112.8L566.121 139.911L518.651 111.903L518.133 167.042L471.439 193.423L471.02 193.657L470.536 245.143C469.133 245.5 468.083 246.755 468.068 248.272C468.051 250.079 469.503 251.558 471.309 251.575C473.116 251.592 474.595 250.141 474.612 248.334C474.615 248.037 474.566 247.753 474.493 247.479L518.9 222.39L519.319 222.154L519.818 168.981L564.765 195.5L563.756 302.876L517.481 329.019L470.011 301.011L469.494 356.133L425.516 380.979C425.117 380.568 424.606 380.274 424.036 380.116L424.52 328.627L380.178 302.465C380.254 302.192 380.31 301.909 380.313 301.612C380.315 301.316 380.266 301.033 380.194 300.759L424.6 275.669L425.019 275.433L426.036 167.178L469.747 142.48C470.333 143.317 471.296 143.872 472.395 143.882C474.201 143.899 475.68 142.447 475.697 140.64C475.711 139.123 474.685 137.848 473.288 137.465L473.787 84.4104L426.637 111.051L427.137 57.8527L378.838 29.3555L378.311 85.4406L424.077 112.444L378.576 138.15L335.062 112.478C335.138 112.205 335.194 111.922 335.197 111.625C335.214 109.818 333.762 108.339 331.956 108.322C330.147 108.305 328.67 109.757 328.653 111.564C328.639 113.081 329.665 114.354 331.062 114.739L330.078 219.416L283.767 245.582L238.783 219.038L284.676 193.108L285.095 192.874L285.604 138.714L286.442 138.24L285.613 137.751L286.113 84.5529L332.844 58.1522L333.263 57.9176L333.789 1.83588L285.383 29.1844L284.964 29.4205L284.464 82.6133L239.481 56.0729L239.49 55.1111L238.652 55.5851L191.183 27.5758L190.69 80.0269C190.117 80.1732 189.599 80.4584 189.19 80.8631L145.689 55.1968L146.207 0.090182L99.057 26.7286L99.0571 26.7169L50.6506 54.0654L50.2317 54.3015L49.7319 107.496L7.04638 82.3109C7.12396 82.0366 7.17825 81.7553 7.18105 81.4569C7.19803 79.6499 5.74671 78.1709 3.93997 78.1539C2.13323 78.1369 0.654436 79.5884 0.637458 81.3955C0.628221 82.9108 1.65306 84.1842 3.05131 84.5674ZM514.606 546.127L469.132 571.819L469.623 519.586L515.097 493.894L514.606 546.127ZM612.126 331.35L657.602 305.66L657.111 357.889L611.636 383.58L612.126 331.35ZM567.466 85.2923L567.956 33.0596L613.43 7.36729L612.965 56.9296C611.561 57.2865 610.511 58.5403 610.497 60.059C610.494 60.3557 610.544 60.6396 610.615 60.9136L567.466 85.2923ZM614.631 56.9452L615.097 7.38478L660.08 33.9251L659.589 86.1561L616.907 60.971C616.983 60.6983 617.039 60.4172 617.042 60.1205C617.054 58.6018 616.028 57.3284 614.631 56.9452ZM98.5317 82.8104L144.006 57.1182L143.515 109.339L98.0411 135.03L98.5317 82.8104ZM192.299 86.3455C192.872 86.1992 193.388 85.914 193.795 85.511L236.468 110.691L191.833 135.909L192.299 86.3455ZM236.789 165.34L236.299 217.573L193.615 192.388C193.691 192.115 193.747 191.834 193.749 191.537C193.764 190.02 192.739 188.747 191.342 188.364L191.808 138.798L236.789 165.34ZM191.281 194.665C191.854 194.519 192.37 194.233 192.779 193.829L235.452 219.007L190.816 244.227L191.281 194.665ZM237.636 163.903L192.653 137.361L213.31 125.69L238.125 111.67L283.108 138.212L262.451 149.883L237.636 163.903ZM237.316 109.255L194.632 84.0684C194.708 83.7957 194.764 83.5145 194.767 83.2178C194.77 82.9211 194.721 82.6371 194.648 82.363L237.798 57.9844L237.316 109.255ZM144.155 218.633L188.132 193.788C188.532 194.199 189.044 194.494 189.615 194.651L189.14 245.172L143.664 270.864L144.155 218.633ZM376.178 304.724L375.712 354.29L330.727 327.748L331.218 275.515L373.902 300.7C373.826 300.973 373.77 301.254 373.767 301.551C373.753 303.066 374.78 304.341 376.178 304.724ZM376.237 298.42C375.664 298.566 375.146 298.851 374.739 299.254L332.068 274.078L376.703 248.863L376.237 298.42ZM329.88 329.184L374.865 355.726L352.562 368.327L329.391 381.418L284.408 354.876L329.88 329.184ZM375.194 409.41L329.719 435.104L330.209 382.869L375.685 357.177L375.194 409.41ZM420.817 545.246L375.344 570.938L375.834 518.705L421.308 493.013L420.817 545.246ZM423.493 437.904L438.369 429.499L468.965 412.213L468.474 464.446L423 490.138L423.493 437.904ZM471.141 358.074L493.632 371.344L516.124 384.614L515.633 436.844L493.141 423.574L470.65 410.303L471.141 358.074ZM515.124 491L470.141 464.46L470.632 412.229L493.123 425.499L515.615 438.769L515.124 491ZM563.899 468.973C564.47 468.829 564.987 468.542 565.395 468.14L608.898 493.81L608.407 546.043L563.424 519.501L563.899 468.973ZM562.407 627.818L562.897 575.584L607.881 602.128L607.406 652.652C606.833 652.798 606.317 653.083 605.909 653.486L562.407 627.818ZM608.727 600.69L563.744 574.147L608.379 548.928L608.379 548.93L609.217 548.458L610.045 548.946L610.045 548.944L654.2 574.998L608.727 600.69ZM655.546 520.365L610.073 546.057L610.563 493.824L656.037 468.132L655.546 520.365ZM656.064 465.245L611.081 438.701L611.572 386.468L656.555 413.01L656.064 465.245ZM610.234 440.137L655.217 466.68L634.56 478.352L609.745 492.371L566.231 466.696C566.307 466.424 566.363 466.141 566.365 465.844C566.368 465.547 566.319 465.265 566.247 464.989L610.234 440.137ZM562.292 462.655C561.718 462.801 561.202 463.086 560.794 463.489L517.291 437.821L517.781 385.592L562.766 412.132L562.292 462.655ZM563.284 357.013L517.809 382.703L518.299 330.474L563.775 304.783L563.284 357.013ZM610.929 273.545C609.526 273.902 608.476 275.156 608.461 276.675C608.459 276.971 608.508 277.253 608.58 277.528L565.432 301.906L565.923 249.675L611.397 223.985L610.929 273.545ZM566.43 195.52L611.904 169.83L611.413 222.059L565.939 247.75L566.43 195.52ZM614.162 114.738L659.637 89.0459L659.146 141.279L613.671 166.972L614.162 114.738ZM611.922 167.903L566.448 193.593L566.939 141.364L612.413 115.674L611.922 167.903ZM517.659 221.178L473.682 246.023C473.282 245.612 472.77 245.317 472.201 245.16L472.676 194.638L518.15 168.947L517.659 221.178ZM519.809 166.097L520.291 114.81L565.274 141.35L564.783 193.579L519.836 167.059L519.846 166.076L519.809 166.097ZM471.649 303.918L516.633 330.458L516.142 382.687L493.65 369.417L471.159 356.147L471.649 303.918ZM469.474 358.058L468.983 410.286L442.999 424.968L423.511 435.978L423.977 386.42C425.38 386.063 426.43 384.809 426.445 383.29C426.447 382.993 426.397 382.709 426.326 382.435L469.474 358.058ZM422.844 329.574L422.369 380.099C421.796 380.245 421.28 380.531 420.873 380.934L377.37 355.266L377.845 304.74C378.416 304.595 378.932 304.309 379.341 303.907L422.844 329.574ZM423.362 274.452L379.384 299.298C378.985 298.887 378.474 298.591 377.904 298.435L378.379 247.915L379.216 247.441L379.215 247.439L423.852 222.221L423.362 274.452ZM424.379 166.141L378.905 191.831L379.396 139.602L424.87 113.912L424.379 166.141ZM378.887 193.758L424.361 168.068L423.87 220.297L378.397 245.988L378.887 193.758ZM472.091 87.2838L471.62 137.449C470.216 137.806 469.166 139.06 469.152 140.579C469.151 140.684 469.172 140.782 469.181 140.884L426.128 165.21L426.619 112.976L472.091 87.2838ZM380.478 32.2601L425.461 58.8022L424.97 111.035L379.987 84.4928L380.478 32.2601ZM332.729 114.755C333.302 114.608 333.818 114.323 334.225 113.92L377.729 139.586L377.239 191.814L332.254 165.272L332.729 114.755ZM377.221 193.743L376.73 245.975L331.745 219.432L332.236 167.202L377.221 193.743ZM330.898 220.867L375.883 247.411L330.411 273.102L329.579 272.611L329.579 272.614L285.424 246.561L330.898 220.867ZM236.619 272.222L191.635 245.68L236.271 220.46L237.109 219.986L237.938 220.476L282.092 246.53L236.619 272.222ZM283.438 191.896L237.964 217.589L238.454 165.356L283.928 139.664L283.438 191.896ZM286.622 30.4014L332.096 4.71084L331.605 56.9401L286.131 82.6306L286.622 30.4014ZM284.446 84.5404L283.955 136.775L238.972 110.233L239.463 57.9983L284.446 84.5404ZM236.976 56.5313L193.839 80.905C193.439 80.4945 192.927 80.1996 192.358 80.0426L192.824 30.4787L236.976 56.5313ZM190.632 86.3299L190.167 135.894L145.182 109.353L145.673 57.1221L188.356 82.3073C188.281 82.58 188.226 82.8596 188.223 83.1563C188.209 84.6733 189.234 85.9466 190.632 86.3299ZM144.514 2.96345L144.024 55.1811L98.5499 80.8733L99.0406 28.6522L144.514 2.96345ZM51.8927 55.2792L97.3666 29.5886L96.8759 81.8195L51.402 107.51L51.8927 55.2792ZM49.7172 109.42L49.2264 161.652L4.24332 135.11L4.71804 84.5831C5.28949 84.4368 5.80552 84.1531 6.21269 83.7502L49.7172 109.42Z" fill="#E5E7EA"/>
</svg>
