<svg width="13" height="13" viewBox="0 0 13 13" fill="none" xmlns="http://www.w3.org/2000/svg">
<path d="M7.62381 0.938716L8.76781 3.24537C8.92381 3.56647 9.33981 3.87446 9.69081 3.93343L11.7643 4.28074C13.0903 4.50354 13.4023 5.47339 12.4468 6.43012L10.8348 8.05526C10.5618 8.33049 10.4123 8.86128 10.4968 9.24135L10.9583 11.2531C11.3223 12.8455 10.4838 13.4615 9.08631 12.6293L7.14281 11.4694C6.79181 11.2597 6.21331 11.2597 5.85581 11.4694L3.91231 12.6293C2.52131 13.4615 1.67631 12.8389 2.04031 11.2531L2.50181 9.24135C2.58631 8.86128 2.43681 8.33049 2.16381 8.05526L0.551806 6.43012C-0.397194 5.47339 -0.0916937 4.50354 1.23431 4.28074L3.30781 3.93343C3.65231 3.87446 4.06831 3.56647 4.22431 3.24537L5.36831 0.938716C5.99231 -0.312905 7.00631 -0.312905 7.62381 0.938716Z" fill="#F5F6F7"/>
</svg>
