<svg width="0" height="0" fill="none" style="visibility: hidden; position: absolute;" aria-hidden="true">
    <symbol id="booking" viewBox="0 0 26 26" xmlns="http://www.w3.org/2000/svg">
        <path d="M23.1985 1.63175H21.1047V0.761719C21.1047 0.341047 20.7636 0 20.343 0C19.9223 0 19.5813 0.341047 19.5813 0.761719V1.63175H16.2094V0.761719C16.2094 0.341047 15.8683 0 15.4477 0C15.027 0 14.6859 0.341047 14.6859 0.761719V1.63175H11.3141V0.761719C11.3141 0.341047 10.973 0 10.5523 0C10.1317 0 9.79063 0.341047 9.79063 0.761719V1.63175H6.41875V0.761719C6.41875 0.341047 6.0777 0 5.65703 0C5.23636 0 4.89531 0.341047 4.89531 0.761719V1.63175H2.8014C1.25673 1.63175 0 2.88844 0 4.4332V23.1986C0 24.7433 1.25673 26 2.8014 26H23.1985C24.7432 26 26 24.7433 26 23.1986V4.4332C26 2.88844 24.7432 1.63175 23.1985 1.63175ZM2.8014 3.15519H4.89531V4.02528C4.89531 4.44595 5.23636 4.787 5.65703 4.787C6.0777 4.787 6.41875 4.44595 6.41875 4.02528V3.15519H9.79052V4.02528C9.79052 4.44595 10.1316 4.787 10.5522 4.787C10.9729 4.787 11.314 4.44595 11.314 4.02528V3.15519H14.6858V4.02528C14.6858 4.44595 15.0269 4.787 15.4476 4.787C15.8682 4.787 16.2093 4.44595 16.2093 4.02528V3.15519H19.5811V4.02528C19.5811 4.44595 19.9222 4.787 20.3429 4.787C20.7635 4.787 21.1046 4.44595 21.1046 4.02528V3.15519H23.1984C23.9032 3.15519 24.4766 3.72851 24.4766 4.4332V6.52707H1.52344V4.4332C1.52344 3.72851 2.09676 3.15519 2.8014 3.15519ZM23.1985 24.4766H2.8014C2.09676 24.4766 1.52344 23.9032 1.52344 23.1986V8.0505H24.4766V23.1986C24.4766 23.9032 23.9032 24.4766 23.1985 24.4766Z" fill="#00A8FF"/>
        <path d="M7.69666 10.6065H4.43311C4.01243 10.6065 3.67139 10.9476 3.67139 11.3683V14.6318C3.67139 15.0524 4.01243 15.3935 4.43311 15.3935H7.69671C8.11739 15.3935 8.45843 15.0524 8.45843 14.6318V11.3683C8.45838 10.9476 8.11739 10.6065 7.69666 10.6065ZM6.93494 13.87H5.19477V12.13H6.93494V13.87ZM21.5667 10.6065H18.3032C17.8825 10.6065 17.5415 10.9476 17.5415 11.3683V14.6318C17.5415 15.0524 17.8825 15.3935 18.3032 15.3935H21.5667C21.9874 15.3935 22.3284 15.0524 22.3284 14.6318V11.3683C22.3284 10.9476 21.9874 10.6065 21.5667 10.6065ZM20.805 13.87H19.0649V12.13H20.805V13.87ZM7.69666 17.1336H4.43311C4.01243 17.1336 3.67139 17.4746 3.67139 17.8953V21.1588C3.67139 21.5795 4.01243 21.9205 4.43311 21.9205H7.69671C8.11739 21.9205 8.45843 21.5795 8.45843 21.1588V17.8953C8.45838 17.4746 8.11739 17.1336 7.69666 17.1336ZM6.93494 20.3971H5.19477V18.657H6.93494V20.3971ZM21.5667 17.1336H18.3032C17.8825 17.1336 17.5415 17.4746 17.5415 17.8953V21.1588C17.5415 21.5795 17.8825 21.9205 18.3032 21.9205H21.5667C21.9874 21.9205 22.3284 21.5795 22.3284 21.1588V17.8953C22.3284 17.4746 21.9874 17.1336 21.5667 17.1336ZM20.805 20.3971H19.0649V18.657H20.805V20.3971ZM14.6317 17.1336H11.3681C10.9474 17.1336 10.6064 17.4746 10.6064 17.8953V21.1588C10.6064 21.5795 10.9474 21.9205 11.3681 21.9205H14.6317C15.0524 21.9205 15.3934 21.5795 15.3934 21.1588V17.8953C15.3934 17.4746 15.0524 17.1336 14.6317 17.1336ZM13.87 20.3971H12.1298V18.657H13.87V20.3971ZM14.192 11.3076L12.4231 13.0766L11.8079 12.4614C11.5104 12.1639 11.0281 12.1639 10.7306 12.4614C10.4332 12.7588 10.4332 13.2411 10.7306 13.5386L11.8845 14.6925C12.0274 14.8353 12.2211 14.9156 12.4232 14.9156C12.6252 14.9156 12.8189 14.8353 12.9618 14.6925L15.2693 12.3848C15.5667 12.0874 15.5667 11.6051 15.2693 11.3076C14.9718 11.0101 14.4895 11.0101 14.192 11.3076Z" fill="#00A8FF"/>
    </symbol>
    <symbol id="customers" viewBox="0 0 29 27" xmlns="http://www.w3.org/2000/svg">
        <path d="M14.5 10.7246C17.2172 10.7246 19.4277 8.51404 19.4277 5.79688C19.4277 3.07971 17.2172 0.869141 14.5 0.869141C11.7828 0.869141 9.57227 3.07971 9.57227 5.79688C9.57227 8.51404 11.7828 10.7246 14.5 10.7246ZM14.5 2.56836C16.2802 2.56836 17.7285 4.01666 17.7285 5.79688C17.7285 7.57709 16.2802 9.02539 14.5 9.02539C12.7198 9.02539 11.2715 7.57709 11.2715 5.79688C11.2715 4.01666 12.7198 2.56836 14.5 2.56836ZM24.4688 10.7246C26.1865 10.7246 27.584 9.32712 27.584 7.60938C27.584 5.89163 26.1865 4.49414 24.4688 4.49414C22.751 4.49414 21.3535 5.89163 21.3535 7.60938C21.3535 9.32712 22.751 10.7246 24.4688 10.7246ZM24.4688 6.19336C25.2495 6.19336 25.8848 6.82858 25.8848 7.60938C25.8848 8.39017 25.2495 9.02539 24.4688 9.02539C23.688 9.02539 23.0527 8.39017 23.0527 7.60938C23.0527 6.82858 23.688 6.19336 24.4688 6.19336ZM25.1541 12.6504H23.84C22.2915 12.6504 20.9548 13.5652 20.3457 14.8793C19.0916 13.5103 17.2903 12.6504 15.2918 12.6504H13.7083C11.7098 12.6504 9.90843 13.5103 8.65435 14.8793C8.04518 13.5652 6.70846 12.6504 5.15996 12.6504H3.8459C1.72527 12.6504 0 14.3652 0 16.4731V22.6588C0 23.5739 0.747316 24.3184 1.66591 24.3184H6.86139C6.9485 25.3322 7.80106 26.1309 8.83718 26.1309H20.1629C21.1989 26.1309 22.0515 25.3322 22.1387 24.3184H27.2748C28.2261 24.3184 29.0001 23.5475 29.0001 22.5999V16.4731C29 14.3652 27.2747 12.6504 25.1541 12.6504ZM1.69922 16.4731C1.69922 15.3022 2.66222 14.3496 3.8459 14.3496H5.15996C6.34364 14.3496 7.30664 15.3022 7.30664 16.4731V17.0548C6.73531 18.5424 6.85352 19.434 6.85352 22.6191H1.69922V16.4731ZM20.4473 24.1472C20.4472 24.2227 20.4172 24.2949 20.3639 24.3483C20.3106 24.4016 20.2383 24.4316 20.1629 24.4316H8.83713C8.76173 24.4316 8.68944 24.4016 8.63613 24.3482C8.58282 24.2949 8.55282 24.2226 8.55273 24.1472V19.5052C8.55273 16.6624 10.8655 14.3496 13.7082 14.3496H15.2917C18.1345 14.3496 20.4473 16.6624 20.4473 19.5051V24.1472ZM27.3008 22.5999C27.3008 22.6292 27.6175 22.6191 22.1465 22.6191C22.1465 19.4104 22.2638 18.54 21.6934 17.0548V16.4731C21.6934 15.3022 22.6564 14.3496 23.84 14.3496H25.1541C26.3378 14.3496 27.3008 15.3022 27.3008 16.4731V22.5999ZM4.53125 10.7246C6.24899 10.7246 7.64648 9.32712 7.64648 7.60938C7.64648 5.89163 6.24899 4.49414 4.53125 4.49414C2.81351 4.49414 1.41602 5.89163 1.41602 7.60938C1.41602 9.32712 2.81351 10.7246 4.53125 10.7246ZM4.53125 6.19336C5.31204 6.19336 5.94727 6.82858 5.94727 7.60938C5.94727 8.39017 5.31204 9.02539 4.53125 9.02539C3.75046 9.02539 3.11523 8.39017 3.11523 7.60938C3.11523 6.82858 3.75046 6.19336 4.53125 6.19336Z" fill="#7366FF"/>
    </symbol>
    <symbol id="online-payment" viewBox="0 0 29 28" xmlns="http://www.w3.org/2000/svg">
        <path d="M28.9517 15.9329L26.7504 3.44844C26.4512 1.75221 24.8276 0.615464 23.1317 0.914602L4.25131 4.24379C2.55502 4.54287 1.41833 6.16618 1.71741 7.86241L1.87917 8.77987C0.774453 9.26178 0 10.364 0 11.6443V24.0095C0 25.7319 1.4013 27.1332 3.12371 27.1332H21.866C23.5884 27.1332 24.9897 25.7319 24.9897 24.0095V19.8034L26.4178 19.5516C27.2395 19.4067 27.9556 18.9505 28.4342 18.267C28.9128 17.5835 29.0966 16.7545 28.9517 15.9329ZM27.0385 17.2897C26.821 17.6004 26.4955 17.8077 26.122 17.8736L24.9897 18.0732V11.6442C24.9897 9.92179 23.5884 8.52049 21.866 8.52049H3.56364L3.39541 7.56651C3.32953 7.19303 3.41313 6.81625 3.63066 6.50553C3.84818 6.19486 4.17373 5.9875 4.54721 5.92162L23.4276 2.59249C23.5092 2.57806 23.592 2.5708 23.6749 2.57079C24.3505 2.57079 24.9512 3.05627 25.0725 3.74423L27.2738 16.2287C27.3396 16.6023 27.2561 16.979 27.0385 17.2897ZM21.866 25.4294H3.12371C2.34079 25.4294 1.70384 24.7924 1.70384 24.0095V17.9541H23.2858V24.0094C23.2858 24.7924 22.6489 25.4294 21.866 25.4294ZM3.12371 10.2244H21.866C22.6489 10.2244 23.2858 10.8613 23.2858 11.6443V12.3854H1.70384V11.6443C1.70384 10.8613 2.34079 10.2244 3.12371 10.2244ZM23.2858 14.0893V16.2503H1.70384V14.0893H23.2858Z" fill="#27AF4D"/>
        <path d="M8.19849 22.008H4.33361C3.86312 22.008 3.48169 22.3895 3.48169 22.8599C3.48169 23.3304 3.86312 23.7119 4.33361 23.7119H8.19849C8.66898 23.7119 9.05041 23.3304 9.05041 22.8599C9.05041 22.3895 8.66898 22.008 8.19849 22.008Z" fill="#27AF4D"/>
    </symbol>
    <symbol id="offline-payment" viewBox="0 0 29 21" xmlns="http://www.w3.org/2000/svg">
        <path d="M12.7025 2.39319C9.28125 2.39319 6.50708 5.16736 6.50708 8.58864C6.50708 12.0099 9.27526 14.7901 12.7025 14.7901C16.1298 14.7901 18.898 12.0159 18.898 8.58864C18.892 5.16736 16.1238 2.39918 12.7025 2.39319ZM12.7025 13.5917C9.94034 13.5917 7.70543 11.3508 7.70543 8.59463C7.70543 5.83844 9.94634 3.59753 12.7025 3.59753C15.4587 3.59753 17.6996 5.83844 17.6996 8.59463C17.6996 11.3508 15.4587 13.5857 12.7025 13.5917Z" fill="#FF4B4B"/>
        <path d="M26.6572 4.62811H25.405V3.16612C25.405 1.87191 24.3504 0.793396 23.0622 0.793396H2.34277C1.05455 0.793396 0 1.87191 0 3.16612V14.0112C0 15.3054 1.04855 16.3599 2.34277 16.3719H3.59504V17.8339C3.59504 19.1281 4.64959 20.2066 5.93781 20.2066H26.6572C27.9455 20.2066 29 19.1281 29 17.8339V6.98885C29 5.68864 27.9514 4.6341 26.6572 4.62811ZM2.34277 15.1736C1.70764 15.1676 1.19835 14.6463 1.19835 14.0112V3.16612C1.19835 2.531 1.71364 1.99174 2.34277 1.99174H23.0622C23.6913 1.99174 24.2066 2.531 24.2066 3.16612V14.0112C24.2066 14.6463 23.6973 15.1616 23.0622 15.1736H2.34277ZM27.8017 17.8339C27.8017 18.469 27.2864 19.0083 26.6572 19.0083H5.93781C5.30868 19.0083 4.79339 18.469 4.79339 17.8339V16.3719H23.0622C24.3564 16.3659 25.405 15.3114 25.405 14.0112V5.82645H26.6572C27.2924 5.83245 27.8017 6.35373 27.8017 6.98885V17.8339Z" fill="#FF4B4B"/>
        <path d="M14.6319 6.67128H14.0507C14.0027 6.52748 13.9428 6.38368 13.8709 6.25186H14.6319C14.9614 6.24587 15.231 5.97624 15.231 5.6467C15.231 5.31715 14.9614 5.04752 14.6319 5.04752H10.7732C10.4436 5.04752 10.174 5.31715 10.174 5.6467C10.174 5.97624 10.4436 6.24587 10.7732 6.24587H11.8757C12.2112 6.24587 12.5348 6.40166 12.7445 6.66529H10.7732C10.4436 6.66529 10.174 6.93492 10.174 7.26446C10.174 7.59401 10.4436 7.86364 10.7732 7.86364H12.7505C12.7145 7.92356 12.6726 7.97748 12.6246 8.02542C12.4269 8.22314 12.1573 8.33699 11.8757 8.34298H10.7732C10.4436 8.34298 10.174 8.61261 10.174 8.94215C10.174 9.10992 10.2399 9.26571 10.3598 9.37955L13.1219 11.986C13.3616 12.2136 13.7451 12.1957 13.9668 11.956C14.1885 11.7163 14.1765 11.3388 13.9428 11.1172L12.2471 9.51736C12.7085 9.43947 13.1399 9.22376 13.4695 8.88823C13.4695 8.88823 13.4695 8.87624 13.4755 8.87624C13.7631 8.60062 13.9608 8.2531 14.0507 7.86963H14.6319C14.9614 7.86963 15.231 7.6 15.231 7.27046C15.231 6.94091 14.9614 6.67128 14.6319 6.67128ZM3.75087 2.62686C2.72628 2.62686 1.89343 3.45971 1.89343 4.4843C1.89343 5.50889 2.72628 6.34174 3.75087 6.34174C4.77546 6.34174 5.60831 5.50889 5.60831 4.4843C5.60831 3.45971 4.77546 2.62686 3.75087 2.62686ZM3.75087 5.1374C3.38537 5.1374 3.09178 4.8438 3.09178 4.47831C3.09178 4.11281 3.38537 3.81922 3.75087 3.81922C4.11637 3.81922 4.40996 4.11281 4.40996 4.47831C4.40996 4.8438 4.11637 5.1374 3.75087 5.1374ZM21.6482 10.7876C20.6236 10.7876 19.7907 11.6205 19.7907 12.645C19.7907 13.6696 20.6236 14.5025 21.6482 14.5025C22.6728 14.5025 23.5056 13.6696 23.5056 12.645C23.5056 11.6205 22.6728 10.7936 21.6482 10.7876ZM21.6482 13.3041C21.2827 13.3041 20.9891 13.0105 20.9891 12.645C20.9891 12.2795 21.2827 11.986 21.6482 11.986C22.0137 11.986 22.3073 12.2795 22.3073 12.645C22.3073 13.0045 22.0137 13.2981 21.6482 13.3041Z" fill="#FF4B4B"/>
    </symbol>
    <symbol viewBox="0 0 512 512" id="service-withdrow" xmlns="http://www.w3.org/2000/svg">
        <path d="M17.0667 136.533H102.4V201.267L70.7669 232.9C69.1666 234.5 68.2673 236.67 68.2667 238.933V349.867C68.2667 350.846 68.4373 351.817 68.7712 352.734L110.933 470.8V503.467C110.933 505.73 111.832 507.9 113.433 509.501C115.033 511.101 117.203 512 119.467 512H221.867C224.13 512 226.3 511.101 227.901 509.501C229.501 507.9 230.4 505.73 230.4 503.467V375.467C230.403 374.31 230.168 373.166 229.709 372.105L209.204 324.267H298.667C300.93 324.267 303.1 323.368 304.701 321.767C306.301 320.167 307.2 317.997 307.2 315.733V136.533H392.533V68.2667H409.6V0H0V68.2667H17.0667V136.533ZM213.333 494.933H128V477.867H213.333V494.933ZM213.333 460.8H125.442L85.3333 348.391V242.466L102.4 225.399V315.733C102.4 317.997 103.299 320.167 104.899 321.767C106.5 323.368 108.67 324.267 110.933 324.267H145.067V358.4H162.133V273.067C162.133 270.803 163.032 268.633 164.633 267.033C166.233 265.432 168.403 264.533 170.667 264.533H179.2C181.463 264.533 183.634 265.432 185.234 267.033C186.834 268.633 187.733 270.803 187.733 273.067V315.733C187.73 316.89 187.966 318.034 188.425 319.095L213.333 377.217V460.8ZM290.133 307.2H204.8V273.067C204.8 258.929 193.338 247.467 179.2 247.467H170.667C164.349 247.489 158.266 249.861 153.6 254.121V238.933H136.533V290.133H145.067V307.2H119.467V102.4H136.533V221.867H153.6V138.87C166.509 153.654 185.175 162.133 204.8 162.133C224.425 162.133 243.091 153.653 256 138.87V221.867H273.067V102.4H290.133V307.2ZM154.308 102.4H255.292C251.146 127.054 229.799 145.113 204.8 145.113C179.801 145.113 158.453 127.054 154.308 102.4ZM375.467 119.467H307.2V102.4H324.267V85.3333H85.3333V102.4H102.4V119.467H34.1333V68.2667H375.467V119.467ZM17.0667 17.0667H392.533V51.2H17.0667V17.0667Z" fill="#FFAA05"/>
        <path d="M51.2002 85.3335H68.2669V102.4H51.2002V85.3335ZM341.334 85.3335H358.4V102.4H341.334V85.3335ZM256 273.067H221.867V290.134H273.067V238.934H256V273.067ZM230.4 204.8C230.4 190.663 218.938 179.2 204.8 179.2C190.663 179.2 179.2 190.663 179.2 204.8C179.2 218.938 190.663 230.4 204.8 230.4C218.938 230.4 230.4 218.938 230.4 204.8ZM204.8 213.334C202.537 213.334 200.367 212.434 198.766 210.834C197.166 209.234 196.267 207.063 196.267 204.8C196.267 202.537 197.166 200.366 198.766 198.766C200.367 197.166 202.537 196.267 204.8 196.267C207.063 196.267 209.234 197.166 210.834 198.766C212.434 200.366 213.334 202.537 213.334 204.8C213.334 207.063 212.434 209.234 210.834 210.834C209.234 212.434 207.063 213.334 204.8 213.334Z" fill="#FFAA05"/>
    </symbol>
    <symbol id="providers" viewBox="0 0 23 29" xmlns="http://www.w3.org/2000/svg">
        <path d="M21.0158 18.9199C19.866 17.2168 18.3776 16.8171 17.1816 16.496C15.8916 16.1495 15.1557 15.9508 14.9717 14.4129C15.0073 14.3825 15.0434 14.3526 15.0781 14.321C15.818 13.6506 16.3176 12.7897 16.557 11.7874C16.6176 11.7422 16.6701 11.6871 16.7125 11.6245C19.2786 7.80315 18.4565 4.95362 17.738 3.59515C16.592 1.42831 14.1452 0.0171621 11.5044 0H11.4956C8.8547 0.0171055 6.40783 1.42825 5.26182 3.59509C4.54333 4.95351 3.72125 7.80304 6.28729 11.6245C6.3297 11.6874 6.38238 11.7427 6.44311 11.7882C6.68265 12.7902 7.1821 13.6507 7.92177 14.321C7.95655 14.3525 7.99263 14.3824 8.02826 14.4129C7.84418 15.9508 7.1083 16.1495 5.81831 16.496C4.62234 16.8171 3.13388 17.2168 1.98414 18.9199C0.742348 20.7596 0.138672 23.8344 0.138672 28.3203C0.138672 28.6957 0.443002 29 0.818359 29H22.1816C22.557 29 22.8613 28.6957 22.8613 28.3203C22.8613 23.8344 22.2576 20.7596 21.0158 18.9199ZM7.05132 5.56505C6.63841 6.10671 6.37005 6.97127 6.29534 8.68335C5.7248 7.06756 5.77356 5.53509 6.4635 4.23066C7.37802 2.50148 9.35456 1.37478 11.5 1.35938C13.6454 1.37478 15.6218 2.50148 16.5364 4.2306C17.2221 5.52722 17.2748 7.04898 16.7152 8.65395C16.6618 6.92188 16.4345 6.01835 15.9445 5.54245C15.2241 4.84272 14.0565 5.16279 13.6233 5.37027C12.5762 5.87171 10.5749 5.96262 9.34674 5.38817C8.9374 5.19678 7.63426 4.80029 7.05132 5.56505ZM7.63891 10.3454L7.6388 10.3335C7.58748 7.40412 7.86151 6.6905 8.02095 6.51781C8.09096 6.44196 8.62174 6.59784 8.9592 6.69118C10.707 7.1745 12.0475 7.22168 14.0138 6.67238C14.3584 6.57609 14.7497 6.30835 14.975 6.49526C15.1577 6.64683 15.4128 7.38837 15.3612 10.3335L15.3611 10.3454C15.3611 13.0591 13.3596 14.2951 11.5 14.2951C9.64036 14.2951 7.63891 13.0591 7.63891 10.3454ZM14.417 16.5889L11.5 19.6701L8.583 16.5889C8.88064 16.2449 9.12006 15.7949 9.26738 15.191C9.95155 15.4936 10.7106 15.6544 11.5 15.6544C12.2893 15.6544 13.0484 15.4936 13.7326 15.191C13.8799 15.7949 14.1194 16.2449 14.417 16.5889ZM18.9704 27.6406V24.3299C18.9704 23.9545 18.666 23.6502 18.2907 23.6502C17.9153 23.6502 17.611 23.9545 17.611 24.3299V27.6406H5.38886V24.3299C5.38886 23.9545 5.08453 23.6502 4.70917 23.6502C4.33382 23.6502 4.02949 23.9545 4.02949 24.3299V27.6406H1.5028C1.55763 23.808 2.08513 21.2 3.11089 19.6805C3.97664 18.398 5.09212 18.0984 6.17084 17.8088C6.61898 17.6885 7.08587 17.5626 7.52178 17.3617L11.0054 21.0414C11.0662 21.1058 11.1395 21.157 11.2208 21.192C11.3021 21.227 11.3897 21.245 11.4782 21.2449C11.4855 21.2449 11.4927 21.2441 11.5 21.2439C11.5072 21.2441 11.5145 21.2449 11.5217 21.2449C11.6943 21.2449 11.8666 21.1766 11.9946 21.0414L15.4782 17.3617C15.9141 17.5626 16.381 17.6885 16.8291 17.8088C17.9079 18.0984 19.0234 18.398 19.8891 19.6805C20.9148 21.2 21.4423 23.808 21.4972 27.6406H18.9704Z" fill="#AD46FF"/>
    </symbol>
    <symbol id="reviews" viewBox="0 0 27 29" xmlns="http://www.w3.org/2000/svg">
        <path d="M21.8379 17.2657H15.486C16.0101 15.693 16.2886 14.3694 16.3346 13.2404C16.4429 10.5776 15.1857 9.52339 14.1119 9.10787C14.0669 9.09045 14.0202 9.07788 13.9725 9.07038C13.1405 8.93909 12.8443 9.33053 12.648 9.77301L12.6222 9.83084C12.5935 9.89433 12.5747 9.96186 12.5666 10.0311C12.3987 11.4699 11.9469 12.8611 11.2374 14.1241C10.5279 15.3871 9.57476 16.4967 8.4333 17.3887C8.3136 17.1984 8.14761 17.0415 7.95085 16.9328C7.75408 16.824 7.53296 16.7669 7.30814 16.7668H2.61665C2.26395 16.7672 1.9258 16.9074 1.6764 17.1568C1.427 17.4062 1.28672 17.7444 1.28633 18.0971V27.6697C1.28672 28.0224 1.427 28.3605 1.6764 28.6099C1.9258 28.8593 2.26395 28.9996 2.61665 29H7.30814C7.58105 28.9997 7.84729 28.9156 8.07085 28.7591C8.29442 28.6025 8.46453 28.3811 8.55819 28.1248C9.07459 28.5345 9.67553 28.8245 10.3176 28.9737C10.3658 28.9849 10.4151 28.9909 10.4645 28.9915C10.9962 28.9971 11.6301 29 12.361 29C13.0902 29 13.9159 28.9971 14.8322 28.9915H20.8161C21.166 28.9916 21.5096 28.8987 21.8118 28.7224C22.114 28.5462 22.364 28.2927 22.5361 27.9881C22.7082 27.6835 22.7963 27.3387 22.7914 26.9889C22.7865 26.639 22.6887 26.2968 22.5081 25.9971C22.9075 25.6945 23.1767 25.2513 23.2612 24.7574C23.3457 24.2635 23.2391 23.7559 22.9631 23.3378C23.3508 23.0091 23.5966 22.5436 23.6495 22.0381C23.7023 21.5327 23.5581 21.0264 23.2467 20.6247C23.5196 20.3472 23.7043 19.9952 23.7777 19.6131C23.8512 19.2309 23.81 18.8355 23.6595 18.4767C23.509 18.1178 23.2558 17.8114 22.9317 17.596C22.6076 17.3806 22.2271 17.2657 21.8379 17.2659V17.2657ZM7.27908 27.6406H2.64588V18.1261H7.27908V27.6406ZM17.8622 21.2167H21.6846C21.847 21.2182 22.0022 21.2838 22.1165 21.3992C22.2307 21.5146 22.2948 21.6704 22.2948 21.8328C22.2948 21.9952 22.2307 22.151 22.1165 22.2664C22.0022 22.3817 21.847 22.4473 21.6846 22.4489H18.4071C18.2269 22.4489 18.054 22.5205 17.9265 22.648C17.7991 22.7754 17.7275 22.9483 17.7275 23.1286C17.7275 23.3088 17.7991 23.4817 17.9265 23.6092C18.054 23.7367 18.2269 23.8083 18.4071 23.8083H21.314C21.4764 23.8098 21.6316 23.8754 21.7459 23.9908C21.8601 24.1062 21.9242 24.262 21.9242 24.4244C21.9242 24.5868 21.8601 24.7426 21.7459 24.858C21.6316 24.9733 21.4764 25.0389 21.314 25.0405H18.8848C18.7045 25.0405 18.5317 25.1121 18.4042 25.2396C18.2767 25.367 18.2051 25.5399 18.2051 25.7202C18.2051 25.9004 18.2767 26.0733 18.4042 26.2008C18.5317 26.3283 18.7045 26.3999 18.8848 26.3999H20.8162C20.9786 26.4014 21.1338 26.467 21.2481 26.5824C21.3624 26.6978 21.4265 26.8536 21.4265 27.016C21.4265 27.1784 21.3624 27.3342 21.2481 27.4495C21.1338 27.5649 20.9786 27.6305 20.8162 27.6321H14.828C13.0415 27.6431 11.6051 27.6434 10.5573 27.6329C10.1554 27.53 9.77843 27.3472 9.44879 27.0954C9.11914 26.8436 8.84361 26.528 8.63862 26.1674V18.9236C10.0501 17.9588 11.2449 16.7105 12.147 15.2581C13.0491 13.8058 13.6386 12.1814 13.8779 10.4886C14.3364 10.728 15.0514 11.3447 14.9767 13.1851C14.928 14.3824 14.5722 15.8624 13.8892 17.7097C13.8512 17.8124 13.8386 17.9228 13.8525 18.0315C13.8664 18.1402 13.9063 18.2439 13.9689 18.3338C14.0316 18.4237 14.115 18.4972 14.2121 18.5479C14.3092 18.5986 14.4171 18.6251 14.5267 18.6251H21.8379C22.0003 18.6266 22.1555 18.6922 22.2698 18.8076C22.3841 18.923 22.4482 19.0788 22.4482 19.2412C22.4482 19.4036 22.3841 19.5594 22.2698 19.6748C22.1555 19.7901 22.0003 19.8557 21.8379 19.8573H17.8622C17.6819 19.8573 17.5091 19.9289 17.3816 20.0564C17.2541 20.1838 17.1825 20.3567 17.1825 20.537C17.1825 20.7173 17.2541 20.8901 17.3816 21.0176C17.5091 21.1451 17.6819 21.2167 17.8622 21.2167ZM3.00537 19.2638C3.00537 19.0836 3.07698 18.9107 3.20445 18.7832C3.33192 18.6557 3.5048 18.5841 3.68506 18.5841H4.18384C4.3641 18.5841 4.53698 18.6557 4.66445 18.7832C4.79192 18.9107 4.86353 19.0836 4.86353 19.2638C4.86353 19.4441 4.79192 19.617 4.66445 19.7444C4.53698 19.8719 4.3641 19.9435 4.18384 19.9435H3.68512C3.50485 19.9435 3.33197 19.8719 3.20451 19.7444C3.07704 19.617 3.00543 19.4441 3.00543 19.2638H3.00537ZM18.0752 3.32407C18.035 3.20019 17.96 3.09048 17.8591 3.00801C17.7583 2.92553 17.6359 2.87377 17.5065 2.85888L15.1177 2.58406L14.1182 0.397169C14.0641 0.278696 13.977 0.178278 13.8674 0.10787C13.7578 0.0374624 13.6303 3.05176e-05 13.5 3.05176e-05C13.3698 3.05176e-05 13.2423 0.0374624 13.1327 0.10787C13.0231 0.178278 12.936 0.278696 12.8819 0.397169L11.8823 2.58406L9.49356 2.85888C9.36416 2.87378 9.24176 2.92555 9.14094 3.00802C9.04012 3.09049 8.96513 3.2002 8.92488 3.32408C8.88463 3.44796 8.88082 3.58079 8.91391 3.70677C8.947 3.83275 9.01559 3.94657 9.11152 4.03469L10.8825 5.66112L10.4057 8.01788C10.3799 8.14556 10.3913 8.27796 10.4386 8.39934C10.4858 8.52071 10.567 8.62595 10.6724 8.70251C10.7778 8.77907 10.9029 8.82374 11.033 8.8312C11.163 8.83866 11.2925 8.80859 11.4059 8.74458L13.5 7.56283L15.5941 8.74458C15.7075 8.80859 15.837 8.83866 15.967 8.8312C16.0971 8.82374 16.2222 8.77907 16.3276 8.70251C16.433 8.62595 16.5142 8.52071 16.5614 8.39934C16.6087 8.27796 16.6201 8.14556 16.5943 8.01788L16.1176 5.66112L17.8885 4.03469C17.9845 3.94658 18.0531 3.83276 18.0862 3.70678C18.1193 3.5808 18.1155 3.44796 18.0752 3.32407ZM14.9156 4.91936C14.8294 4.99852 14.7651 5.0986 14.7289 5.20991C14.6928 5.32122 14.6859 5.43998 14.7091 5.55469L14.9671 6.82984L13.8343 6.19049C13.7323 6.13297 13.6173 6.10275 13.5003 6.10275C13.3832 6.10275 13.2682 6.13297 13.1662 6.19049L12.0334 6.82984L12.2914 5.55469C12.3146 5.43998 12.3078 5.32122 12.2716 5.20991C12.2354 5.0986 12.1711 4.99852 12.0849 4.91936L11.1263 4.03933L12.4187 3.89065C12.535 3.87728 12.6458 3.8341 12.7405 3.7653C12.8352 3.6965 12.9106 3.60442 12.9592 3.49796L13.5 2.31474L14.0408 3.49796C14.0895 3.60441 14.1648 3.69649 14.2595 3.76529C14.3542 3.83409 14.465 3.87727 14.5813 3.89065L15.8738 4.03933L14.9156 4.91936ZM26.1722 5.8729C26.132 5.74902 26.057 5.63931 25.9562 5.55684C25.8553 5.47436 25.7329 5.4226 25.6035 5.40771L23.7484 5.19423L22.9724 3.49586C22.9183 3.37739 22.8312 3.27697 22.7216 3.20657C22.612 3.13616 22.4845 3.09873 22.3543 3.09873C22.224 3.09873 22.0965 3.13616 21.9869 3.20657C21.8773 3.27697 21.7902 3.37739 21.7361 3.49586L20.9596 5.19423L19.1045 5.40771C18.9751 5.42261 18.8527 5.47438 18.7518 5.55685C18.651 5.63932 18.576 5.74903 18.5358 5.8729C18.4955 5.99678 18.4917 6.12962 18.5248 6.2556C18.5579 6.38158 18.6265 6.4954 18.7224 6.58351L20.0978 7.8466L19.7275 9.67689C19.7017 9.80456 19.7131 9.93696 19.7604 10.0583C19.8076 10.1797 19.8888 10.2849 19.9942 10.3615C20.0996 10.4381 20.2247 10.4827 20.3548 10.4902C20.4848 10.4977 20.6143 10.4676 20.7277 10.4036L22.354 9.48601L23.9803 10.4036C24.0937 10.4676 24.2232 10.4977 24.3532 10.4902C24.4833 10.4827 24.6085 10.4381 24.7138 10.3615C24.8192 10.2849 24.9004 10.1797 24.9477 10.0583C24.9949 9.93696 25.0063 9.80456 24.9805 9.67689L24.6103 7.8466L25.9857 6.58351C26.0816 6.4954 26.1502 6.38157 26.1832 6.25559C26.2163 6.12961 26.2125 5.99677 26.1722 5.8729ZM23.4082 7.10484C23.322 7.184 23.2577 7.2841 23.2215 7.39542C23.1853 7.50673 23.1785 7.62551 23.2017 7.74023L23.3531 8.48891L22.6879 8.11349C22.586 8.05597 22.4709 8.02575 22.3539 8.02575C22.2369 8.02575 22.1218 8.05597 22.0199 8.11349L21.3547 8.48891L21.5061 7.74023C21.5293 7.62551 21.5225 7.50673 21.4864 7.39542C21.4502 7.2841 21.3859 7.184 21.2997 7.10484L20.7371 6.58816L21.496 6.50088C21.6123 6.4875 21.7232 6.44433 21.8179 6.37553C21.9126 6.30673 21.9879 6.21464 22.0366 6.10819L22.3541 5.41349L22.6716 6.10819C22.7202 6.21464 22.7955 6.30673 22.8902 6.37553C22.9849 6.44433 23.0958 6.4875 23.2121 6.50088L23.9711 6.58816L23.4082 7.10484ZM8.46468 5.8729C8.42443 5.74902 8.34942 5.63931 8.24859 5.55684C8.14776 5.47436 8.02536 5.4226 7.89595 5.40771L6.04046 5.19423L5.26448 3.49586C5.21033 3.37739 5.12328 3.27697 5.01369 3.20657C4.90409 3.13616 4.77657 3.09873 4.64631 3.09873C4.51605 3.09873 4.38853 3.13616 4.27893 3.20657C4.16934 3.27697 4.08228 3.37739 4.02813 3.49586L3.25165 5.19423L1.39655 5.40771C1.26715 5.4226 1.14475 5.47436 1.04392 5.55683C0.943095 5.6393 0.868088 5.749 0.827831 5.87288C0.787574 5.99676 0.783761 6.1296 0.816847 6.25559C0.849933 6.38157 0.918524 6.4954 1.01446 6.58351L2.38986 7.8466L2.0196 9.67689C1.99378 9.80456 2.00518 9.93696 2.05246 10.0583C2.09974 10.1797 2.1809 10.2849 2.28629 10.3615C2.39167 10.4381 2.51683 10.4827 2.64688 10.4902C2.77692 10.4977 2.90637 10.4676 3.01982 10.4036L4.64614 9.48601L6.2724 10.4036C6.38585 10.4676 6.5153 10.4977 6.64534 10.4902C6.77539 10.4827 6.90055 10.4381 7.00593 10.3615C7.11132 10.2849 7.19248 10.1797 7.23976 10.0583C7.28704 9.93696 7.29845 9.80456 7.27262 9.67689L6.90236 7.8466L8.27771 6.58351C8.3737 6.49544 8.44235 6.38164 8.4755 6.25565C8.50865 6.12967 8.50489 5.99681 8.46468 5.8729ZM5.70062 7.10484C5.61441 7.184 5.5501 7.2841 5.51393 7.39542C5.47776 7.50673 5.47095 7.62551 5.49416 7.74023L5.64562 8.48891L4.98043 8.11349C4.87846 8.05592 4.76335 8.02566 4.64625 8.02566C4.52915 8.02566 4.41404 8.05592 4.31207 8.11349L3.64689 8.48891L3.79829 7.74023C3.82149 7.62551 3.81468 7.50673 3.77851 7.39542C3.74234 7.2841 3.67804 7.184 3.59183 7.10484L3.02928 6.58816L3.78826 6.50088C3.90454 6.4875 4.0154 6.44433 4.1101 6.37553C4.2048 6.30673 4.28012 6.21464 4.32878 6.10819L4.64631 5.41349L4.9635 6.10819C5.01215 6.21464 5.08748 6.30673 5.18218 6.37553C5.27687 6.44433 5.38773 6.4875 5.50402 6.50088L6.263 6.58816L5.70062 7.10484Z" fill="#071B36"/>
    </symbol>
    <symbol id="service" viewBox="0 0 27 27" xmlns="http://www.w3.org/2000/svg">
        <path d="M20.2969 26.1875C18.5478 26.1875 17.125 24.7647 17.125 23.0156V11.1139C16.2902 10.5836 15.6032 9.85074 15.1278 8.98352C14.6524 8.1163 14.4042 7.1429 14.4063 6.15394C14.4043 5.06851 14.7034 4.00379 15.2704 3.07822C15.8374 2.15266 16.6501 1.40253 17.618 0.911289C17.7563 0.841005 17.9103 0.807316 18.0653 0.813436C18.2203 0.819556 18.3711 0.86528 18.5034 0.946248C18.6357 1.02722 18.7451 1.14073 18.8211 1.27596C18.8971 1.41119 18.9372 1.56364 18.9375 1.71876V5.63648L20.2969 6.18023L21.6563 5.63648V1.71876C21.6566 1.56364 21.6967 1.41119 21.7727 1.27596C21.8487 1.14073 21.958 1.02722 22.0903 0.946248C22.2227 0.86528 22.3735 0.819556 22.5285 0.813436C22.6835 0.807316 22.8375 0.841005 22.9758 0.911289C23.9437 1.40277 24.7563 2.15307 25.3233 3.07878C25.8903 4.00448 26.1895 5.0693 26.1875 6.15485C26.1893 7.14376 25.941 8.11706 25.4656 8.98424C24.9903 9.85142 24.3034 10.5843 23.4688 11.1148V23.0156C23.4688 24.7647 22.0459 26.1875 20.2969 26.1875ZM17.125 3.59107C16.5477 4.30248 16.2188 5.19966 16.2188 6.15394C16.2188 7.68913 17.0715 9.08023 18.4445 9.78348C18.5929 9.85953 18.7175 9.97508 18.8045 10.1174C18.8915 10.2597 18.9375 10.4233 18.9375 10.59V23.0156C18.9375 23.7651 19.5474 24.375 20.2969 24.375C21.0464 24.375 21.6563 23.7651 21.6563 23.0156V10.59C21.6563 10.4233 21.7023 10.2597 21.7893 10.1174C21.8763 9.97508 22.0008 9.85953 22.1493 9.78348C22.8195 9.4436 23.3824 8.92451 23.7753 8.28393C24.1682 7.64334 24.3758 6.90634 24.375 6.15485C24.3767 5.22175 24.0566 4.31661 23.4688 3.59198V6.25001C23.4688 6.62066 23.2431 6.95326 22.8996 7.09191L20.634 7.99816C20.418 8.0852 20.1767 8.0852 19.9607 7.99816L17.695 7.09191C17.5269 7.02447 17.3827 6.90825 17.2812 6.75822C17.1796 6.60819 17.1252 6.4312 17.125 6.25001V3.59107Z" fill="#AD46FF"/>
        <path d="M14.4733 26.1875H12.5276C12.0715 26.1858 11.6328 26.0129 11.2981 25.7031C10.9634 25.3933 10.7573 24.9691 10.7205 24.5146L10.6063 23.0328C9.98359 22.8437 9.38103 22.5936 8.80744 22.2861L7.67825 23.2531C7.33101 23.5486 6.88548 23.703 6.42983 23.6857C5.97418 23.6684 5.54163 23.4807 5.21778 23.1597L3.84028 21.7813C3.51929 21.4573 3.33151 21.0247 3.31406 20.569C3.29661 20.1132 3.45076 19.6675 3.74603 19.3199L4.713 18.1917C4.40548 17.6181 4.15535 17.0155 3.96625 16.3927L2.48544 16.2795C2.03095 16.2429 1.60678 16.037 1.29695 15.7025C0.987109 15.3679 0.814211 14.9293 0.8125 14.4733V12.5267C0.8125 11.5851 1.54747 10.7912 2.48634 10.7196L3.96716 10.6063C4.15566 9.98375 4.40578 9.382 4.71391 8.80744L3.74603 7.67734C3.45068 7.32974 3.29656 6.88392 3.31418 6.42812C3.3318 5.97232 3.51988 5.53974 3.84119 5.21597L5.21688 3.83938C5.54076 3.51819 5.9734 3.33028 6.4292 3.31283C6.88501 3.29538 7.33075 3.44965 7.67825 3.74513L8.80744 4.71209C9.38103 4.40458 9.98359 4.15445 10.6063 3.96534L10.7205 2.48363C10.7577 2.02954 10.9639 1.60593 11.2983 1.29652C11.6328 0.987098 12.0711 0.814382 12.5267 0.8125H13.5C13.7404 0.8125 13.9709 0.90798 14.1408 1.07793C14.3108 1.24789 14.4062 1.4784 14.4062 1.71875C14.4062 1.9591 14.3108 2.18961 14.1408 2.35957C13.9709 2.52952 13.7404 2.625 13.5 2.625H12.5267L12.3636 4.74653C12.3486 4.93885 12.2727 5.12139 12.1469 5.26759C12.0211 5.4138 11.8519 5.51604 11.6639 5.55944C10.7864 5.76158 9.94893 6.10926 9.18625 6.58803C9.02276 6.69104 8.8305 6.73881 8.6378 6.72429C8.44511 6.70977 8.26218 6.63373 8.11597 6.50738L6.49831 5.12172L5.12262 6.49922L6.50828 8.11597C6.76656 8.41684 6.79828 8.85094 6.58803 9.18625C6.10995 9.94929 5.76233 10.7867 5.55944 11.6639C5.51612 11.8521 5.41378 12.0215 5.26737 12.1473C5.12096 12.2732 4.93815 12.349 4.74563 12.3636L2.625 12.5267V14.4733L4.74563 14.6364C4.9381 14.6512 5.12085 14.727 5.26723 14.8528C5.41361 14.9787 5.51599 15.148 5.55944 15.3361C5.76158 16.2136 6.10926 17.0511 6.58803 17.8137C6.69047 17.9774 6.73797 18.1694 6.72363 18.362C6.70928 18.5545 6.63384 18.7374 6.50828 18.884L5.12262 20.5008L6.49922 21.8783L8.11597 20.4926C8.26238 20.3667 8.44526 20.2909 8.63785 20.2764C8.83044 20.2619 9.02262 20.3094 9.18625 20.412C9.95475 20.8923 10.7885 21.2385 11.6639 21.4406C11.8519 21.484 12.0211 21.5862 12.1469 21.7324C12.2727 21.8786 12.3486 22.0612 12.3636 22.2535L12.5267 24.375H14.4724C14.4807 24.2557 14.5125 24.1392 14.566 24.0322C14.6195 23.9252 14.6937 23.8299 14.7842 23.7517C14.8747 23.6736 14.9799 23.6141 15.0935 23.5767C15.2071 23.5394 15.327 23.5249 15.4463 23.5341C15.5655 23.5433 15.6818 23.576 15.7883 23.6304C15.8949 23.6848 15.9896 23.7597 16.0671 23.8508C16.1445 23.942 16.2032 24.0475 16.2396 24.1615C16.2761 24.2754 16.2896 24.3954 16.2795 24.5146C16.2427 24.969 16.0367 25.393 15.7022 25.7028C15.3678 26.0126 14.9292 26.1856 14.4733 26.1875Z" fill="#AD46FF"/>
        <path d="M7.15628 13.5C7.15141 11.9992 7.68077 10.5457 8.64962 9.39946C9.61848 8.25328 10.9636 7.48927 12.4443 7.24416C12.5617 7.22394 12.6819 7.22719 12.7981 7.25371C12.9142 7.28024 13.0239 7.32951 13.1209 7.39869C13.2179 7.46788 13.3002 7.55559 13.3631 7.65678C13.426 7.75796 13.4682 7.8706 13.4873 7.98819C13.5269 8.22517 13.4708 8.46817 13.3313 8.66377C13.1918 8.85937 12.9803 8.99156 12.7433 9.03129C11.6862 9.20702 10.726 9.75305 10.0345 10.5717C9.343 11.3904 8.96525 12.4284 8.96878 13.5C8.96878 16.6293 12.0772 18.8115 15.0108 17.7739C15.2349 17.7026 15.478 17.7213 15.6886 17.8259C15.8992 17.9306 16.0609 18.113 16.1395 18.3347C16.2181 18.5563 16.2075 18.7999 16.1098 19.0138C16.0121 19.2278 15.8351 19.3954 15.6161 19.4813C11.49 20.9412 7.15628 17.8645 7.15628 13.5Z" fill="#AD46FF"/>
    </symbol>
    <symbol id="servicemen" viewBox="0 0 33 32" xmlns="http://www.w3.org/2000/svg">
        <path d="M13.9258 7.54104C13.4685 8.24516 13.2259 9.06706 13.2274 9.90663L13.2261 12.1123C14.1177 11.5925 16.1861 11.2274 18.5956 11.2274C21.0012 11.2274 23.0629 11.5912 23.9612 12.1096V9.90663C23.9608 8.75127 23.5017 7.64334 22.6848 6.82638C21.8678 6.00942 20.7599 5.5503 19.6045 5.54994H17.5841C16.8565 5.54949 16.1403 5.73151 15.5012 6.07935C14.8621 6.42719 14.3204 6.92975 13.9258 7.54104ZM23.9612 12.1136V13.9341C23.9612 15.063 23.7027 16.1798 23.1762 17.1767C22.7189 18.0576 22.1524 18.8774 21.4903 19.6169C21.1204 20.0145 20.6721 20.331 20.1736 20.5464C19.6751 20.7618 19.1373 20.8714 18.5943 20.8683C18.0513 20.8714 17.5135 20.7618 17.015 20.5464C16.5165 20.331 16.0682 20.0145 15.6983 19.6169C15.0357 18.8778 14.4693 18.0579 14.0124 17.1767C13.491 16.1757 13.2216 15.0627 13.2274 13.9341V12.1136L14.2403 13.6209C14.3344 13.7619 14.4738 13.8665 14.6355 13.9174C14.7971 13.9683 14.9713 13.9624 15.1292 13.9008C15.8982 13.6023 17.1643 13.4077 18.5943 13.4077C20.0257 13.4077 21.2944 13.6036 22.0634 13.9008C22.2209 13.9623 22.3947 13.968 22.5559 13.9171C22.7171 13.8662 22.856 13.7617 22.9497 13.6209C23.4121 12.9293 23.9612 12.1136 23.9612 12.1136Z" stroke="#5465FF" stroke-width="1.06618" stroke-miterlimit="10" stroke-linecap="round" stroke-linejoin="round"/>
        <path d="M14.4681 20.1833C14.804 20.6391 15.2145 21.1189 15.6982 21.56C16.0701 21.8999 16.5179 22.1664 17.0123 22.345C17.5068 22.5236 18.0452 22.6142 18.5929 22.6142C19.6898 22.6142 20.7506 22.2424 21.4903 21.56C21.9741 21.1149 22.3832 20.6351 22.7164 20.1793" stroke="#5465FF" stroke-width="1.06618" stroke-miterlimit="10" stroke-linecap="round" stroke-linejoin="round"/>
        <path d="M14.7774 18.4521V19.1851C14.7774 19.9394 14.3029 20.6111 13.5926 20.863L9.76899 22.2224C8.82584 22.5577 7.98892 23.1379 7.34413 23.9035C6.69935 24.6692 6.26994 25.5926 6.09999 26.5791L5.54424 29.8003C5.52462 29.914 5.5301 30.0307 5.56031 30.1421C5.59052 30.2535 5.64473 30.3569 5.71914 30.4452C5.79354 30.5334 5.88634 30.6043 5.99104 30.6529C6.09574 30.7015 6.20979 30.7266 6.32522 30.7265H30.8621C30.9774 30.7264 31.0914 30.7011 31.196 30.6525C31.3005 30.6038 31.3932 30.5329 31.4676 30.4447C31.542 30.3565 31.5962 30.2532 31.6265 30.1419C31.6568 30.0306 31.6624 29.914 31.6431 29.8003L31.0873 26.5791C30.9174 25.5926 30.488 24.6692 29.8432 23.9035C29.1984 23.1379 28.3615 22.5577 27.4183 22.2224L23.5947 20.863C23.2481 20.7399 22.9481 20.5126 22.736 20.2121C22.5238 19.9117 22.4099 19.5529 22.4099 19.1851V18.4521M10.8645 26.4365V21.8332M13.7712 26.4365V20.7857M23.4161 26.4365V20.7857M26.3241 26.4365V21.8332" stroke="#5465FF" stroke-width="1.06618" stroke-miterlimit="10" stroke-linecap="round" stroke-linejoin="round"/>
        <path d="M27.3557 30.7278V27.0242C27.3536 26.9449 27.3359 26.8668 27.3037 26.7943C27.2714 26.7219 27.2252 26.6565 27.1676 26.6019C27.1101 26.5473 27.0423 26.5046 26.9682 26.4762C26.8942 26.4478 26.8152 26.4343 26.736 26.4365H10.4474C10.2873 26.4325 10.1322 26.4921 10.0161 26.6023C9.89994 26.7125 9.83217 26.8642 9.82764 27.0242V30.7278" stroke="#5465FF" stroke-width="1.06618" stroke-miterlimit="10" stroke-linecap="round" stroke-linejoin="round"/>
        <path d="M18.593 9.5961C19.8943 9.5961 20.9492 9.10801 20.9492 8.50593C20.9492 7.90384 19.8943 7.41576 18.593 7.41576C17.2916 7.41576 16.2367 7.90384 16.2367 8.50593C16.2367 9.10801 17.2916 9.5961 18.593 9.5961Z" stroke="#5465FF" stroke-width="1.06618" stroke-miterlimit="10" stroke-linecap="round" stroke-linejoin="round"/>
        <path d="M11.6028 27.8665H13.0341V29.2978H11.6028V27.8665ZM24.1504 27.8665H25.5818V29.2978H24.1504V27.8665Z" fill="#5465FF" stroke="#5465FF" stroke-width="0.799637" stroke-miterlimit="10" stroke-linecap="round" stroke-linejoin="round"/>
        <path d="M6.55981 11.5872L9.2386 4.61171L8.95073 3.20835L10.6246 1.00002L12.1266 1.57709L11.8827 4.3345L10.7393 5.18745L8.0618 12.1643" stroke="#5465FF" stroke-width="1.06618" stroke-miterlimit="10" stroke-linecap="round" stroke-linejoin="round"/>
        <path d="M4.98579 12.9932C4.98845 13.3997 4.85118 13.9102 4.33142 14.3193L4.19015 14.4246C3.48672 15.0075 2.94362 15.7603 2.6122 16.6116L1.1302 20.4712C0.945223 20.9505 0.957774 21.4837 1.16511 21.9538C1.37244 22.4239 1.75766 22.7927 2.23637 22.9794L3.63573 23.5165C4.11751 23.6988 4.65178 23.6836 5.12243 23.4743C5.59309 23.2649 5.96209 22.8782 6.14926 22.3983L7.63125 18.5387C7.95718 17.6833 8.05322 16.7574 7.90979 15.8533L7.88714 15.6853C7.83727 15.4333 7.84761 15.173 7.91731 14.9256C7.98702 14.6783 8.11413 14.4509 8.28829 14.262M8.99463 14.5259L9.21587 13.9501C9.46509 13.3024 9.20387 12.6001 8.63347 12.3802L5.98267 11.362C5.41226 11.1434 4.74856 11.4913 4.49934 12.139L4.27811 12.716L8.99463 14.5259Z" stroke="#5465FF" stroke-width="1.06618" stroke-miterlimit="10" stroke-linecap="round" stroke-linejoin="round"/>
        <path d="M2.74013 16.2904L4.23945 16.8661L2.71347 20.8417L1.20349 20.2619M6.22788 22.1917L4.71923 21.612L6.24653 17.6365L7.74585 18.2122" stroke="#5465FF" stroke-width="1.06618" stroke-miterlimit="10" stroke-linecap="round" stroke-linejoin="round"/>
    </symbol>
    <symbol id="verified-provider" viewBox="0 0 29 25" xmlns="http://www.w3.org/2000/svg">
        <path d="M16.7501 18.2168C16.2264 17.711 15.392 17.7256 14.8862 18.2492C14.3928 18.76 14.3928 19.5699 14.8862 20.0807L18.8407 24.0352C19.3398 24.5343 20.1435 24.5518 20.6638 24.0748L28.5729 16.8248C29.1094 16.3326 29.1454 15.4987 28.6532 14.9622C28.1611 14.4257 27.3272 14.3897 26.7907 14.8818L19.8122 21.279L16.7501 18.2168Z" fill="#27AF4D"/>
        <path d="M1.31816 24.4214H11.8636C12.5916 24.4214 13.1817 23.8313 13.1817 23.1033C13.1817 22.3753 12.5916 21.7851 11.8636 21.7851H2.72992C3.39107 17.2481 7.27862 13.8818 11.8636 13.8761C15.5356 13.9079 18.538 10.957 18.5699 7.28511C18.6018 3.6132 15.6509 0.610598 11.9789 0.578777C8.30699 0.546955 5.30445 3.49778 5.27263 7.16974C5.26458 8.09747 5.45078 9.01662 5.81924 9.86807C6.18771 10.7195 6.73029 11.4844 7.41209 12.1136C2.9368 13.9291 0.0064879 18.2738 0 23.1033C0 23.8313 0.590152 24.4214 1.31816 24.4214ZM11.8636 3.33064C14.0476 3.33064 15.8181 5.10115 15.8181 7.28517C15.8181 9.46918 14.0476 11.2397 11.8636 11.2397C9.67958 11.2397 7.90906 9.46918 7.90906 7.28517C7.90906 5.10115 9.67958 3.33064 11.8636 3.33064Z" fill="#27AF4D"/>
    </symbol>
</svg>