<svg width="20" height="20" viewBox="0 0 20 20" fill="none" xmlns="http://www.w3.org/2000/svg">
<path d="M17.5 4.98332C14.725 4.70832 11.9333 4.56665 9.15 4.56665C7.5 4.56665 5.85 4.64998 4.2 4.81665L2.5 4.98332" stroke="#FF6161" stroke-width="1.2" stroke-linecap="round" stroke-linejoin="round"/>
<path d="M7.08398 4.14163L7.26732 3.04996C7.40065 2.25829 7.50065 1.66663 8.90898 1.66663H11.0923C12.5007 1.66663 12.609 2.29163 12.734 3.05829L12.9173 4.14163" stroke="#FF6161" stroke-width="1.2" stroke-linecap="round" stroke-linejoin="round"/>
<path d="M15.7077 7.6167L15.166 16.0084C15.0743 17.3167 14.9993 18.3334 12.6743 18.3334H7.32435C4.99935 18.3334 4.92435 17.3167 4.83268 16.0084L4.29102 7.6167" stroke="#FF6161" stroke-width="1.2" stroke-linecap="round" stroke-linejoin="round"/>
<path d="M8.60742 13.75H11.3824" stroke="#FF6161" stroke-width="1.2" stroke-linecap="round" stroke-linejoin="round"/>
<path d="M7.91602 10.4166H12.0827" stroke="#FF6161" stroke-width="1.2" stroke-linecap="round" stroke-linejoin="round"/>
</svg>
