<svg width="81" height="81" viewBox="0 0 81 81" fill="none" xmlns="http://www.w3.org/2000/svg">
<path d="M70.8754 22.7137C70.8079 22.7137 70.7066 22.7137 70.6054 22.7137C52.7516 20.925 34.9316 20.25 17.2804 22.0387L10.3954 22.7137C8.97786 22.8487 7.72911 21.8362 7.59411 20.4187C7.45911 19.0012 8.47161 17.7862 9.85536 17.6512L16.7404 16.9762C34.6954 15.1537 52.8866 15.8625 71.1116 17.6512C72.4954 17.7862 73.5079 19.035 73.3729 20.4187C73.2716 21.735 72.1579 22.7137 70.8754 22.7137Z" fill="#292D32"/>
<path d="M28.6871 19.305C28.5521 19.305 28.4171 19.305 28.2483 19.2712C26.8983 19.035 25.9533 17.7188 26.1896 16.3687L26.9321 11.9475C27.4721 8.7075 28.2146 4.21875 36.0783 4.21875H44.9208C52.8183 4.21875 53.5608 8.87625 54.0671 11.9812L54.8096 16.3687C55.0458 17.7525 54.1008 19.0688 52.7508 19.2712C51.3671 19.5075 50.0508 18.5625 49.8483 17.2125L49.1058 12.825C48.6333 9.88875 48.5321 9.315 44.9546 9.315H36.1121C32.5346 9.315 32.4671 9.7875 31.9608 12.7913L31.1846 17.1788C30.9821 18.4275 29.9021 19.305 28.6871 19.305Z" fill="#292D32"/>
<path d="M51.3341 76.7812H29.6666C17.8878 76.7812 17.4153 70.2674 17.0441 65.0024L14.8503 31.0162C14.7491 29.6324 15.8291 28.4175 17.2128 28.3162C18.6303 28.2487 19.8116 29.2949 19.9128 30.6787L22.1066 64.6649C22.4778 69.7949 22.6128 71.7187 29.6666 71.7187H51.3341C58.4216 71.7187 58.5566 69.7949 58.8941 64.6649L61.0878 30.6787C61.1891 29.2949 62.4041 28.2487 63.7878 28.3162C65.1716 28.4175 66.2516 29.5987 66.1503 31.0162L63.9566 65.0024C63.5853 70.2674 63.1128 76.7812 51.3341 76.7812Z" fill="#292D32"/>
<path d="M46.102 58.2188H34.8633C33.4795 58.2188 32.332 57.0712 32.332 55.6875C32.332 54.3038 33.4795 53.1562 34.8633 53.1562H46.102C47.4858 53.1562 48.6333 54.3038 48.6333 55.6875C48.6333 57.0712 47.4858 58.2188 46.102 58.2188Z" fill="#292D32"/>
<path d="M48.9375 44.7188H32.0625C30.6788 44.7188 29.5312 43.5712 29.5312 42.1875C29.5312 40.8038 30.6788 39.6562 32.0625 39.6562H48.9375C50.3213 39.6562 51.4688 40.8038 51.4688 42.1875C51.4688 43.5712 50.3213 44.7188 48.9375 44.7188Z" fill="#292D32"/>
</svg>
