<svg width="78" height="15" viewBox="0 0 78 15" fill="none" xmlns="http://www.w3.org/2000/svg">
<g clip-path="url(#clip0_9625_2395)">
<path d="M61.208 13.7728C60.3613 13.7728 59.5523 13.7728 58.6679 13.7728C58.6679 13.5846 58.6679 13.4059 58.6679 13.2271C58.6679 10.8564 58.6679 8.47618 58.6679 6.10542C58.6679 5.70088 58.6397 5.29635 58.5739 4.89181C58.2634 3.01025 57.0122 2.16355 55.0836 2.49283C53.7477 2.72802 52.9292 3.51828 52.6093 4.79773C52.4776 5.32457 52.4117 5.87963 52.4117 6.41587C52.3929 8.68315 52.4023 10.9504 52.4023 13.2177C52.4023 13.387 52.4023 13.5564 52.4023 13.754C51.5462 13.754 50.7278 13.754 49.8528 13.754C49.8528 13.5564 49.8528 13.3776 49.8528 13.1895C49.834 10.6306 49.8152 8.06224 49.787 5.50332C49.787 5.2399 49.7399 4.97648 49.6929 4.71306C49.373 2.95381 48.15 2.11651 46.3814 2.49283C44.9326 2.79388 44.1235 3.77229 43.7754 5.14582C43.6249 5.75733 43.5778 6.40647 43.5684 7.0462C43.5402 9.0971 43.559 11.1386 43.559 13.1895C43.559 13.3588 43.559 13.5282 43.559 13.7445C42.7123 13.7445 41.8938 13.7445 41.0283 13.7445C41.0283 9.31348 41.0283 4.873 41.0283 0.413704C41.7998 0.413704 42.5618 0.413704 43.3615 0.413704C43.3615 1.05343 43.3615 1.69316 43.3615 2.44579C44.4245 0.827647 45.8921 0.0844314 47.6984 0.056208C49.533 0.0279847 50.9724 0.780608 51.8661 2.4646C51.9319 2.38934 51.9884 2.33289 52.0354 2.26704C53.5689 -0.131948 56.7205 -0.480036 58.9125 0.677122C60.1638 1.34508 60.7659 2.50223 61.0293 3.83814C61.161 4.52491 61.2269 5.23049 61.2363 5.92667C61.2645 8.43855 61.2457 10.9598 61.2457 13.4717C61.2363 13.5658 61.2268 13.6505 61.208 13.7728Z" fill="#0099C7"/>
<path d="M23.9898 9.89674C24.6295 10.3859 25.2504 10.8563 25.9654 11.402C25.5232 11.8347 25.1375 12.2769 24.6765 12.6344C22.0424 14.7512 17.6019 14.6289 15.1747 12.3522C13.4436 10.7246 12.8792 8.62669 13.105 6.33119C13.359 3.70642 14.629 1.68374 17.1033 0.658291C19.6904 -0.414197 22.2399 -0.254265 24.4413 1.66492C25.6832 2.73741 26.2288 4.21444 26.4358 5.79494C26.5299 6.50053 26.5299 7.22493 26.5769 7.99637C22.9737 7.99637 19.427 7.99637 15.7297 7.99637C15.8614 8.53261 15.9273 9.01241 16.106 9.43576C16.8022 11.0539 18.7214 12.0511 20.6876 11.8818C21.826 11.7783 22.7197 11.2232 23.5006 10.433C23.6511 10.2731 23.7922 10.1131 23.9898 9.89674ZM23.7546 5.94547C23.8298 4.58134 23.1337 3.17958 22.0141 2.61511C20.5183 1.86249 19.0225 1.89071 17.6113 2.83149C16.52 3.55589 15.8803 4.58134 15.7956 5.95488C18.4956 5.94547 21.1298 5.94547 23.7546 5.94547Z" fill="#0099C7"/>
<path d="M11.8164 13.7725C11.0168 13.7725 10.2077 13.7725 9.32338 13.7725C9.32338 13.5843 9.32338 13.4056 9.32338 13.2268C9.31397 10.6773 9.30457 8.1372 9.28575 5.58769C9.28575 5.34309 9.25753 5.08908 9.20108 4.84447C8.93766 3.60265 8.24149 2.73713 6.9338 2.52075C5.51323 2.28555 4.24317 2.61483 3.34943 3.83784C2.72852 4.69395 2.54977 5.69118 2.54036 6.72603C2.54036 8.89923 2.54036 11.0724 2.54036 13.2456C2.54036 13.415 2.54036 13.5843 2.54036 13.7725C1.66544 13.7725 0.846962 13.7725 -0.0185547 13.7725C0.000260895 9.3414 0.000260895 4.91033 0.000260895 0.441628C0.818739 0.441628 1.65603 0.441628 2.54977 0.441628C2.54977 1.04373 2.54977 1.65523 2.54977 2.26674C3.35884 1.07195 4.47837 0.43222 5.83309 0.168802C6.86795 -0.0381695 7.8934 0.00886944 8.89062 0.366366C10.8286 1.07195 11.7694 2.5772 11.8353 4.53402C11.9387 7.58214 11.8635 10.6303 11.8729 13.6784C11.8635 13.6972 11.8447 13.7254 11.8164 13.7725Z" fill="#0099C7"/>
<path d="M25.9375 13.8004C27.7908 11.3638 29.5783 9.01184 31.3752 6.64108C29.8135 4.58077 28.2518 2.53928 26.6337 0.40371C27.7626 0.40371 28.7975 0.394302 29.8323 0.422526C29.9546 0.422526 30.0957 0.620089 30.1804 0.751799C31.093 2.0783 32.0055 3.4048 32.9087 4.73129C32.9839 4.84419 33.0686 4.94767 33.1815 5.0982C34.0941 3.75288 35.016 2.45461 35.8533 1.09989C36.192 0.554235 36.5495 0.328448 37.1986 0.384895C37.9136 0.450749 38.638 0.40371 39.4659 0.40371C37.923 2.51106 36.4178 4.55255 34.8937 6.64108C36.6812 8.99302 38.4687 11.345 40.3314 13.8004C39.2025 13.8004 38.177 13.8098 37.1516 13.7816C37.0293 13.7816 36.8788 13.6028 36.7847 13.4711C35.6369 11.853 34.4986 10.2349 33.3508 8.6073C33.2662 8.485 33.1721 8.3627 33.0498 8.20277C32.0526 9.61394 31.0836 10.9875 30.1052 12.361C29.7759 12.8314 29.5219 13.4711 29.0609 13.7157C28.5999 13.9509 27.932 13.791 27.3487 13.791C26.9347 13.8004 26.502 13.8004 25.9375 13.8004Z" fill="#0099C7"/>
<path d="M77.0872 6.22784C77.3977 6.22784 77.7175 6.22784 77.9997 6.22784C77.3036 6.94283 76.6262 7.65782 75.93 8.38222C75.2433 7.68604 74.5565 6.98987 73.8321 6.25606C74.0955 6.23724 74.3307 6.22784 74.5659 6.20902C74.5471 4.76963 73.0324 3.10445 71.3108 2.62465C69.1094 2.01315 67.2184 2.89748 65.7602 5.24002C65.4121 5.10831 65.0546 4.96719 64.6971 4.82608C64.3302 4.68496 63.9727 4.54384 63.6152 4.40272C64.349 1.98492 67.3219 0.0375093 70.1254 0.0657326C73.2018 0.112772 76.4192 2.22012 77.0872 6.22784Z" fill="#0099C7"/>
<path d="M63.0605 8.09957C62.7877 8.09957 62.5054 8.09957 62.2891 8.09957C62.957 7.4128 63.6438 6.70721 64.3776 5.95459C64.9985 6.65077 65.6665 7.38457 66.2968 8.08075C66.1557 8.09016 65.864 8.09957 65.5818 8.10897C65.7511 9.65185 67.2376 11.1853 68.978 11.6181C71.0854 12.1449 72.7976 11.317 74.3781 9.01212C74.4345 9.02153 74.5004 9.02153 74.5568 9.04035C75.2154 9.29436 75.8645 9.54837 76.5136 9.81178C76.0056 11.571 73.7383 13.876 70.6432 14.1111C67.247 14.3746 63.7285 12.0979 63.0605 8.09957Z" fill="#0099C7"/>
<circle cx="69.9939" cy="6.8669" r="1.59932" fill="#0099C7"/>
</g>
<defs>
<clipPath id="clip0_9625_2395">
<rect width="78" height="14.1493" fill="white"/>
</clipPath>
</defs>
</svg>
