<svg width="512" height="415" viewBox="0 0 512 415" fill="none" xmlns="http://www.w3.org/2000/svg">
<path d="M80.058 0H431.947C453.849 0 473.801 9.115 488.3 23.619C502.917 38.236 512 58.373 512 80.226V334.664C512 356.468 502.825 376.562 488.234 391.141C473.66 405.721 453.643 414.89 431.947 414.89H80.058C58.314 414.89 38.231 405.814 23.635 391.207C9.121 376.698 0 356.686 0 334.664V80.226C0 58.161 9.028 38.095 23.57 23.554C38.101 9.022 58.101 0 80.058 0ZM326.788 278.518H271.555V134.96H326.228C340.998 134.96 353.763 137.817 364.552 143.543C375.307 149.268 383.635 157.492 389.485 168.215C395.34 178.938 398.307 191.801 398.307 206.739C398.307 221.704 395.379 234.535 389.523 245.258C383.7 255.986 375.41 264.21 364.715 269.93C354.024 275.656 341.362 278.518 326.788 278.518ZM155.77 278.518H113.699L161.099 134.96H214.36L261.734 278.518H219.689L211.394 251.048H164.059L155.77 278.518ZM202.584 221.873L188.275 174.5H187.157L172.865 221.873H202.584ZM310.535 245.426H325.403C332.513 245.426 338.565 244.307 343.595 242.004C348.598 239.701 352.444 235.752 355.078 230.162C357.707 224.534 359.027 216.739 359.027 206.739C359.027 196.739 357.707 188.944 355.013 183.348C352.313 177.721 348.402 173.777 343.236 171.474C338.07 169.204 331.753 168.052 324.289 168.052H310.535V245.426ZM431.947 33.331H80.058C67.054 33.331 55.266 38.617 46.765 47.118C38.269 55.613 32.994 67.336 32.994 80.226V334.664C32.994 347.473 38.334 359.152 46.83 367.642C55.407 376.225 67.233 381.559 80.058 381.559H431.947C444.691 381.559 456.462 376.16 465.039 367.577C473.611 359.011 479.006 347.294 479.006 334.664V80.226C479.006 67.515 473.676 55.755 465.105 47.183C456.604 38.682 444.865 33.331 431.947 33.331Z" fill="#292D32"/>
</svg>
