<svg width="24" height="24" viewBox="0 0 24 24" fill="none" xmlns="http://www.w3.org/2000/svg">
<path d="M13.7372 3.44833L15.4999 6.97376C15.7374 7.46132 16.375 7.92387 16.9126 8.02389L20.1004 8.54895C22.1382 8.88649 22.6133 10.3617 21.1506 11.8369L18.6628 14.3247C18.2502 14.7372 18.0127 15.5498 18.1502 16.1374L18.8628 19.2128C19.4254 21.6381 18.1252 22.5882 15.9874 21.313L12.9996 19.5378C12.462 19.2128 11.5619 19.2128 11.0243 19.5378L8.03646 21.313C5.8987 22.5757 4.59854 21.6381 5.16111 19.2128L5.8737 16.1374C5.98621 15.5373 5.74868 14.7247 5.33613 14.3122L2.84832 11.8244C1.38564 10.3617 1.8607 8.88649 3.89845 8.53645L7.08634 8.01139C7.62391 7.92387 8.26149 7.44882 8.49902 6.96126L10.2617 3.43582C11.2244 1.53559 12.7745 1.53559 13.7372 3.44833Z" fill="#292D32"/>
</svg>
