<svg viewBox="0 0 62 19" id="dots" xmlns="http://www.w3.org/2000/svg">
    <path d="M60.1602 18.9302L64.2202 18.9302L64.2202 14.8702L60.1602 14.8702L60.1602 18.9302Z" fill="var(--primary-color)"/>
    <path d="M40.1104 18.9302L44.1704 18.9302L44.1704 14.8702L40.1104 14.8702L40.1104 18.9302Z" fill="var(--primary-color)"/>
    <path d="M20.0508 18.9302L24.1108 18.9302L24.1108 14.8702L20.0508 14.8702L20.0508 18.9302Z" fill="var(--primary-color)"/>
    <path d="M6.10352e-05 18.9302L4.06006 18.9302L4.06006 14.8702L6.14179e-05 14.8702L6.10352e-05 18.9302Z" fill="var(--primary-color)"/>
    <path d="M60.1602 4.06006L64.2202 4.06006L64.2202 5.81741e-05L60.1602 5.77914e-05L60.1602 4.06006Z" fill="var(--primary-color)"/>
    <path d="M40.1104 4.06006L44.1704 4.06006L44.1704 5.81741e-05L40.1104 5.77914e-05L40.1104 4.06006Z" fill="var(--primary-color)"/>
    <path d="M20.0508 4.06006L24.1108 4.06006L24.1108 5.81741e-05L20.0508 5.77914e-05L20.0508 4.06006Z" fill="var(--primary-color)"/>
    <path d="M6.10352e-05 4.06006L4.06006 4.06006L4.06006 5.81741e-05L6.14179e-05 5.77914e-05L6.10352e-05 4.06006Z" fill="var(--primary-color)"/>
</svg>
