<svg viewBox="0 0 1520 406" id="newsletter-bg" xmlns="http://www.w3.org/2000/svg">
    <path
        d="M0 173.982C0 138.455 0 120.692 10.8108 109.154C21.6217 97.6158 39.3475 96.461 74.7992 94.1514L1434.8 5.55062C1474.73 2.94908 1494.7 1.64831 1507.35 13.5015C1520 25.3547 1520 45.3636 1520 85.3814V326C1520 363.712 1520 382.569 1508.28 394.284C1496.57 406 1477.71 406 1440 406H80C42.2876 406 23.4315 406 11.7157 394.284C0 382.569 0 363.712 0 326V173.982Z"
        fill="var(--primary-color)" />
    <mask id="mask0_847_3420" style="mask-type:alpha" maskUnits="userSpaceOnUse" x="0" y="3" width="1520" height="403">
        <path
            d="M0 173.982C0 138.455 0 120.692 10.8108 109.154C21.6217 97.6158 39.3475 96.461 74.7992 94.1514L1434.8 5.55062C1474.73 2.94908 1494.7 1.64831 1507.35 13.5015C1520 25.3547 1520 45.3636 1520 85.3814V326C1520 363.712 1520 382.569 1508.28 394.284C1496.57 406 1477.71 406 1440 406H80C42.2876 406 23.4315 406 11.7157 394.284C0 382.569 0 363.712 0 326V173.982Z"
            fill="var(--primary-color)" />
    </mask>
    <g mask="url(#mask0_847_3420)">
        <path
            d="M537 316C537 438.607 437.607 538 315 538C192.393 538 93 438.607 93 316C93 193.393 192.393 94 315 94C437.607 94 537 193.393 537 316ZM130.075 316C130.075 418.131 212.869 500.925 315 500.925C417.131 500.925 499.925 418.131 499.925 316C499.925 213.869 417.131 131.075 315 131.075C212.869 131.075 130.075 213.869 130.075 316Z"
            fill="white" fill-opacity="0.15" />
        <mask id="path-4-inside-1_847_3420" fill="white">
            <path
                d="M1565 388C1565 430.526 1530.53 465 1488 465C1445.47 465 1411 430.526 1411 388C1411 345.474 1445.47 311 1488 311C1530.53 311 1565 345.474 1565 388ZM1429.99 388C1429.99 420.038 1455.96 446.011 1488 446.011C1520.04 446.011 1546.01 420.038 1546.01 388C1546.01 355.962 1520.04 329.989 1488 329.989C1455.96 329.989 1429.99 355.962 1429.99 388Z" />
        </mask>
        <circle cx="1491.28" cy="392.915" r="45.0532" fill="white" fill-opacity="0.15" />
        <circle cx="314.5" cy="322.5" r="163.5" fill="white" fill-opacity="0.15" />
        <path d="M53.9297 143.344L53.9297 141L51.5855 141L51.5855 143.344L53.9297 143.344Z" fill="white" />
        <path d="M53.9297 154.921L53.9297 152.577L51.5855 152.577L51.5855 154.921L53.9297 154.921Z" fill="white" />
        <path d="M53.9297 166.503L53.9297 164.159L51.5855 164.159L51.5855 166.503L53.9297 166.503Z" fill="white" />
        <path d="M53.9297 178.081L53.9297 175.736L51.5855 175.736L51.5855 178.081L53.9297 178.081Z" fill="white" />
        <path d="M53.9297 189.657L53.9297 187.312L51.5855 187.312L51.5855 189.657L53.9297 189.657Z" fill="white" />
        <path d="M53.9297 201.24L53.9297 198.896L51.5855 198.896L51.5855 201.24L53.9297 201.24Z" fill="white" />
        <path d="M53.9297 212.817L53.9297 210.473L51.5855 210.473L51.5855 212.817L53.9297 212.817Z" fill="white" />
        <path d="M45.3437 143.344L45.3438 141L42.9995 141L42.9995 143.344L45.3437 143.344Z" fill="white" />
        <path d="M45.3437 154.921L45.3438 152.577L42.9995 152.577L42.9995 154.921L45.3437 154.921Z" fill="white" />
        <path d="M45.3437 166.503L45.3438 164.159L42.9995 164.159L42.9995 166.503L45.3437 166.503Z" fill="white" />
        <path d="M45.3437 178.081L45.3438 175.736L42.9995 175.736L42.9995 178.081L45.3437 178.081Z" fill="white" />
        <path d="M45.3437 189.657L45.3438 187.312L42.9995 187.312L42.9995 189.657L45.3437 189.657Z" fill="white" />
        <path d="M45.3437 201.24L45.3438 198.896L42.9995 198.896L42.9995 201.24L45.3437 201.24Z" fill="white" />
        <path d="M45.3437 212.817L45.3438 210.473L42.9995 210.473L42.9995 212.817L45.3437 212.817Z" fill="white" />
    </g>
</svg>