<svg viewBox="0 0 98 78" id="time" xmlns="http://www.w3.org/2000/svg">
<mask id="path-1-inside-1_226_5639">
<path fill-rule="evenodd" clip-rule="evenodd" d="M0 24C0 12.6863 0 7.02944 3.51472 3.51472C7.02944 0 12.6863 0 24 0H74C85.3137 0 90.9706 0 94.4853 3.51472C98 7.02944 98 12.6863 98 24V27.7106C98 28.2173 98 28.4707 97.9481 28.7462C97.8961 29.0216 97.238 30.705 95.9218 34.0717C95.3461 35.5441 95 37.4362 95 39.5C95 41.5638 95.3461 43.4559 95.9218 44.9283C97.238 48.295 97.8961 49.9784 97.9481 50.2538C98 50.5293 98 50.7827 98 51.2894V54C98 65.3137 98 70.9706 94.4853 74.4853C90.9706 78 85.3137 78 74 78H24C12.6863 78 7.02944 78 3.51472 74.4853C0 70.9706 0 65.3137 0 54V48.7785C0 48.3074 0.528833 48 1 48C3.20914 48 5 44.1944 5 39.5C5 34.8056 3.20914 31 1 31C0.528833 31 0 30.6926 0 30.2215V24Z"/>
</mask>
<path fill-rule="evenodd" clip-rule="evenodd" d="M0 24C0 12.6863 0 7.02944 3.51472 3.51472C7.02944 0 12.6863 0 24 0H74C85.3137 0 90.9706 0 94.4853 3.51472C98 7.02944 98 12.6863 98 24V27.7106C98 28.2173 98 28.4707 97.9481 28.7462C97.8961 29.0216 97.238 30.705 95.9218 34.0717C95.3461 35.5441 95 37.4362 95 39.5C95 41.5638 95.3461 43.4559 95.9218 44.9283C97.238 48.295 97.8961 49.9784 97.9481 50.2538C98 50.5293 98 50.7827 98 51.2894V54C98 65.3137 98 70.9706 94.4853 74.4853C90.9706 78 85.3137 78 74 78H24C12.6863 78 7.02944 78 3.51472 74.4853C0 70.9706 0 65.3137 0 54V48.7785C0 48.3074 0.528833 48 1 48C3.20914 48 5 44.1944 5 39.5C5 34.8056 3.20914 31 1 31C0.528833 31 0 30.6926 0 30.2215V24Z" fill="var(--primary-color)" fill-opacity="0.1"/>
<path d="M97.9481 50.2538L98.9308 50.0686L97.9481 50.2538ZM95.9218 34.0717L94.9904 33.7076L95.9218 34.0717ZM97.9481 28.7462L96.9654 28.5609L97.9481 28.7462ZM2.80761 2.80761C0.833484 4.78174 -0.0974946 7.32083 -0.551743 10.6995C-1.00212 14.0494 -1 18.3714 -1 24H1C1 18.3149 1.00212 14.1516 1.43042 10.966C1.85485 7.80911 2.68124 5.76242 4.22183 4.22183L2.80761 2.80761ZM24 -1C18.3714 -1 14.0494 -1.00212 10.6995 -0.551743C7.32084 -0.0974946 4.78174 0.833484 2.80761 2.80761L4.22183 4.22183C5.76242 2.68124 7.80911 1.85485 10.966 1.43042C14.1516 1.00212 18.3149 1 24 1V-1ZM74 -1H24V1H74V-1ZM95.1924 2.80761C93.2183 0.833483 90.6792 -0.0974946 87.3005 -0.551743C83.9506 -1.00212 79.6286 -1 74 -1V1C79.6851 1 83.8484 1.00212 87.034 1.43042C90.1909 1.85485 92.2376 2.68124 93.7782 4.22183L95.1924 2.80761ZM99 24C99 18.3714 99.0021 14.0494 98.5517 10.6995C98.0975 7.32084 97.1665 4.78174 95.1924 2.80761L93.7782 4.22183C95.3188 5.76242 96.1451 7.80911 96.5696 10.966C96.9979 14.1516 97 18.3149 97 24H99ZM99 27.7106V24H97V27.7106H99ZM96 39.5C96 37.5398 96.3299 35.7742 96.8531 34.4358L94.9904 33.7076C94.3624 35.3141 94 37.3325 94 39.5H96ZM96.8531 44.5642C96.3299 43.2258 96 41.4602 96 39.5H94C94 41.6675 94.3624 43.6859 94.9904 45.2924L96.8531 44.5642ZM99 54V51.2894H97V54H99ZM95.1924 75.1924C97.1665 73.2183 98.0975 70.6792 98.5517 67.3005C99.0021 63.9506 99 59.6286 99 54H97C97 59.6851 96.9979 63.8484 96.5696 67.034C96.1451 70.1909 95.3188 72.2376 93.7782 73.7782L95.1924 75.1924ZM74 79C79.6286 79 83.9506 79.0021 87.3005 78.5517C90.6792 78.0975 93.2183 77.1665 95.1924 75.1924L93.7782 73.7782C92.2376 75.3188 90.1909 76.1451 87.034 76.5696C83.8484 76.9979 79.6851 77 74 77V79ZM24 79H74V77H24V79ZM2.80761 75.1924C4.78174 77.1665 7.32084 78.0975 10.6995 78.5517C14.0494 79.0021 18.3714 79 24 79V77C18.3149 77 14.1516 76.9979 10.966 76.5696C7.80911 76.1451 5.76242 75.3188 4.22183 73.7782L2.80761 75.1924ZM-1 54C-1 59.6286 -1.00212 63.9506 -0.551743 67.3005C-0.0974946 70.6792 0.833483 73.2183 2.80761 75.1924L4.22183 73.7782C2.68124 72.2376 1.85485 70.1909 1.43042 67.034C1.00212 63.8484 1 59.6851 1 54H-1ZM-1 48.7785V54H1V48.7785H-1ZM4 39.5C4 41.7337 3.57186 43.7071 2.92361 45.0846C2.23845 46.5406 1.4897 47 1 47V49C2.71943 49 3.97069 47.5566 4.73325 45.9362C5.53271 44.2373 6 41.9607 6 39.5H4ZM1 32C1.4897 32 2.23845 32.4594 2.92361 33.9154C3.57186 35.2929 4 37.2663 4 39.5H6C6 37.0393 5.53271 34.7627 4.73325 33.0638C3.97069 31.4434 2.71943 30 1 30V32ZM-1 24V30.2215H1V24H-1ZM1 30C0.988574 30 0.967582 29.9977 0.943081 29.9901C0.91842 29.9824 0.904646 29.9738 0.902374 29.9721C0.899704 29.9702 0.922181 29.9852 0.947895 30.0281C0.976598 30.076 1 30.1445 1 30.2215H-1C-1 30.8697 -0.629178 31.3375 -0.255749 31.6027C0.111409 31.8635 0.5655 32 1 32V30ZM1 48.7785C1 48.8555 0.976598 48.924 0.947895 48.9719C0.922181 49.0148 0.899704 49.0298 0.902374 49.0279C0.904646 49.0262 0.91842 49.0176 0.943081 49.0099C0.967582 49.0023 0.988574 49 1 49V47C0.5655 47 0.111409 47.1365 -0.255749 47.3973C-0.629178 47.6625 -1 48.1303 -1 48.7785H1ZM94.9904 45.2924C95.6492 46.9774 96.1412 48.2359 96.4752 49.1079C96.6424 49.5445 96.7676 49.8781 96.8536 50.1172C96.9528 50.3933 96.9704 50.4658 96.9654 50.4391L98.9308 50.0686C98.8998 49.9042 98.8156 49.663 98.7357 49.4407C98.6425 49.1815 98.5112 48.8322 98.3429 48.3926C98.0058 47.5124 97.5106 46.2459 96.8531 44.5642L94.9904 45.2924ZM99 51.2894C99 50.8114 99.0036 50.455 98.9308 50.0686L96.9654 50.4391C96.9964 50.6036 97 50.754 97 51.2894H99ZM97 27.7106C97 28.246 96.9964 28.3964 96.9654 28.5609L98.9308 28.9314C99.0036 28.545 99 28.1886 99 27.7106H97ZM96.8531 34.4358C97.5106 32.7541 98.0058 31.4876 98.3429 30.6074C98.5112 30.1678 98.6425 29.8185 98.7357 29.5593C98.8156 29.337 98.8998 29.0958 98.9308 28.9314L96.9654 28.5609C96.9704 28.5342 96.9528 28.6067 96.8536 28.8828C96.7676 29.1219 96.6424 29.4555 96.4752 29.8921C96.1412 30.7641 95.6492 32.0226 94.9904 33.7076L96.8531 34.4358Z" fill="var(--primary-color)" mask="url(#path-1-inside-1_226_5639)"/>
</svg>
