<svg width="71" height="25" viewBox="0 0 71 25" fill="none" xmlns="http://www.w3.org/2000/svg">
<g clip-path="url(#clip0_9625_2293)">
<path fill-rule="evenodd" clip-rule="evenodd" d="M34.4978 11.6941C37.5729 10.4966 40.417 5.39194 41.8655 0.687155H44.0016C44.0621 0.452648 44.1193 0.223309 44.1732 0H41.351C40.0888 4.08094 37.9987 9.33032 34.4976 11.6941H34.4978ZM31.2793 2.14372C28.999 2.72902 27.6069 4.92357 27.6535 7.36166C27.6966 9.51271 29.0903 11.1504 30.9936 11.6814C29.4291 10.8793 28.3171 9.33871 28.2761 7.36166C28.2293 5.00152 29.3949 3.05354 31.2793 2.14372Z" fill="#00A0E3"/>
<path fill-rule="evenodd" clip-rule="evenodd" d="M16.3857 10.6417H18.1243V12.4488H16.3857V10.6417ZM46.3233 1.60596V3.4131H48.062V1.60596H49.8008V3.4131H48.062V5.22025H46.3233V7.02739H48.062V8.83454V10.6417H49.8008V8.83454H48.062H44.5846V10.6417H46.3233V12.449C43.7396 12.449 40.8398 12.3274 39.7025 9.47475C41.5237 7.64822 43.582 4.33606 44.3403 1.60596H46.3233ZM49.801 7.02761H51.5399V8.83476H49.801V7.02761ZM51.5399 5.22003H53.2787V3.41289H51.5399V5.22003ZM30.8802 1.60596C28.0282 1.60596 26.1923 1.60596 23.3403 1.60596V3.4131H25.079V5.22046H21.6016H19.8626V3.4131H21.6016V5.22046V7.02783H23.3403V8.83476H25.079V12.449C27.5697 12.449 29.044 12.449 31.5347 12.449C29.0797 12.1157 27.0529 10.1626 26.9972 7.37496C26.9433 4.56023 28.4863 2.30905 30.8804 1.60617L30.8802 1.60596ZM23.3403 10.6419V12.449H21.6013V10.6419H19.8628V8.83476H21.6013V10.6419H23.3403ZM18.1241 7.02761H19.8628V5.22046H18.1241V7.02761ZM40.0094 1.60617H34.2149C36.6421 2.2972 37.8154 4.397 38.2812 5.75343C38.9554 4.4069 39.571 2.94021 40.0092 1.60617H40.0094ZM34.3011 3.20487C36.0247 3.47254 37.118 5.83656 37.4647 7.21969C36.7128 8.69586 34.5338 11.7567 32.4952 11.6857C30.7627 11.6254 30.1886 9.08068 30.2859 7.47423C30.4132 5.36345 31.8071 2.81747 34.3009 3.20487H34.3011ZM33.5324 12.4493H40.9821C40.1845 12.1803 39.2364 11.1994 38.8659 10.3445C36.9452 11.7763 35.5985 12.2688 33.5324 12.4493Z" fill="#004E81"/>
<path d="M70.7797 15.6587C70.0686 15.39 68.9828 15.2153 67.8967 15.2153C65.2206 15.2153 63.9275 16.1023 63.9275 18.4267C63.9275 20.1602 64.8325 20.8185 66.7588 21.0336C68.4523 21.2219 68.6981 21.5039 68.6981 22.0953C68.6981 22.8074 68.2715 23.009 66.9268 23.009C65.9443 23.009 65.0393 22.861 64.4575 22.7L64.0309 24.5543C64.7548 24.8254 65.8666 25 66.9527 25C69.7583 25 70.9478 24.2588 70.9478 21.9476C70.9478 20.1604 70.0297 19.3406 67.9742 19.0988C66.4097 18.9242 66.1511 18.7092 66.1511 18.1179C66.1511 17.4728 66.5389 17.2042 67.8836 17.2042C68.8792 17.2042 69.8101 17.3522 70.3529 17.5132L70.7795 15.6589L70.7797 15.6587ZM57.7717 20.9262C57.0994 19.166 56.2074 17.0025 55.4576 15.4438H52.6651V24.8094H54.6819V18.4806C55.3283 19.9856 56.2205 22.4713 56.7892 24.0301H58.444C59.0386 22.4446 59.9826 20.0528 60.6678 18.4806V24.8094H62.6846V15.4438H60.0214C59.3103 16.9891 58.4183 19.1524 57.7719 20.9262H57.7717ZM51.2926 15.6587C50.5816 15.39 49.4957 15.2153 48.4096 15.2153C45.7333 15.2153 44.4404 16.1023 44.4404 18.4267C44.4404 20.1602 45.3454 20.8185 47.2717 21.0336C48.9653 21.2219 49.211 21.5039 49.211 22.0953C49.211 22.8074 48.7842 23.009 47.4397 23.009C46.4572 23.009 45.5522 22.861 44.9704 22.7L44.5438 24.5543C45.2677 24.8254 46.3795 25 47.4656 25C50.2712 25 51.4605 24.2588 51.4605 21.9476C51.4605 20.1604 50.5426 19.3406 48.4869 19.0988C46.9226 18.9242 46.664 18.7092 46.664 18.1179C46.664 17.4728 47.0519 17.2042 48.3965 17.2042C49.3921 17.2042 50.3228 17.3522 50.8658 17.5132L51.2924 15.6589L51.2926 15.6587Z" fill="#00A0E3"/>
<path d="M38.9348 17.3204C39.206 18.3138 39.5935 19.589 40.0068 20.8643H37.4238C37.8371 19.5621 38.2502 18.3002 38.5992 17.3204H38.935H38.9348ZM41.3629 24.7975H43.6619C42.6932 22.3545 41.35 18.3674 40.4976 15.4411H37.2816C36.2484 18.0722 34.8405 22.18 34.0892 24.7975H36.313C36.468 24.2202 36.6617 23.5087 36.8942 22.7302H40.601C40.8722 23.5223 41.1435 24.2471 41.3629 24.7975ZM27.8273 20.8509H31.2112V24.7975H33.2907V15.4411H31.2112V18.8509H27.8273V15.4411H25.7478V24.7975H27.8273V20.8509ZM19.4403 24.7975V21.8844H22.3979C24.077 21.8844 24.8519 20.4213 24.8519 18.7298C24.8519 16.8103 24.2311 15.4409 22.3851 15.4409H17.3609V24.7973H19.4405L19.4403 24.7975ZM19.4403 20.099V17.2935H21.6874C22.2558 17.2935 22.5657 17.7098 22.5657 18.7298C22.5657 19.7096 22.2036 20.099 21.6615 20.099H19.4401H19.4403ZM10.2184 15.4409V24.7973H16.3533V22.8911H12.298V15.4409H10.2184ZM4.84556 17.3204C5.11678 18.3138 5.50422 19.589 5.91757 20.8643H3.33452C3.74787 19.5621 4.161 18.3002 4.50991 17.3204H4.84577H4.84556ZM7.27363 24.7975H9.57261C8.604 22.3545 7.26078 18.3674 6.4084 15.4411H3.19239C2.15913 18.0722 0.751272 22.18 0 24.7975H2.22377C2.37875 24.2202 2.57248 23.5087 2.80494 22.7302H6.51179C6.783 23.5223 7.05421 24.2471 7.27363 24.7975Z" fill="#004E81"/>
</g>
<defs>
<clipPath id="clip0_9625_2293">
<rect width="71" height="25" fill="white"/>
</clipPath>
</defs>
</svg>
