<svg width="48" height="48" viewBox="0 0 48 48" fill="none" xmlns="http://www.w3.org/2000/svg">
<path d="M32.2156 18.5232V24.0004C32.2156 28.5379 28.5373 32.2162 23.9998 32.2162C19.4624 32.2162 15.7841 28.5379 15.7841 24.0004V18.5232" stroke="#00162E" stroke-width="2.4" stroke-miterlimit="10" stroke-linejoin="round"/>
<path d="M15.7851 13.0447C14.2727 13.0447 13.0465 14.2708 13.0465 15.7833V18.5219H34.9552V15.7833C34.9552 14.2708 33.7291 13.0447 32.2166 13.0447" stroke="#00162E" stroke-width="2.4" stroke-miterlimit="10" stroke-linecap="round" stroke-linejoin="round"/>
<path d="M21.2607 7.56842V2H26.7379V7.56842" stroke="#00162E" stroke-width="2.4" stroke-miterlimit="10" stroke-linecap="round" stroke-linejoin="round"/>
<path d="M15.7841 13.0464V10.3078C15.7841 7.2828 18.2363 4.83057 21.2612 4.83057" stroke="#00162E" stroke-width="2.4" stroke-miterlimit="10" stroke-linecap="round" stroke-linejoin="round"/>
<path d="M26.7393 4.83057C29.7642 4.83057 32.2164 7.2828 32.2164 10.3078V13.0464" stroke="#00162E" stroke-width="2.4" stroke-miterlimit="10" stroke-linecap="round" stroke-linejoin="round"/>
<path d="M32.2158 32.6721V34.9543C32.2158 37.9792 29.7635 40.4315 26.7386 40.4315H21.2614C18.2364 40.4315 15.7842 37.9792 15.7842 34.9543V32.6721" stroke="#00162E" stroke-width="2.4" stroke-miterlimit="10" stroke-linecap="round" stroke-linejoin="round"/>
<path d="M37.6927 33.5857V46.0006" stroke="#00162E" stroke-width="2.4" stroke-miterlimit="10"/>
<path d="M10.3073 46.0006V33.5857" stroke="#00162E" stroke-width="2.4" stroke-miterlimit="10"/>
<path d="M18.514 30.3097C18.4147 31.5518 17.4819 32.3893 16.2344 32.5972L8.9564 33.8103C4.99487 34.4705 2 37.898 2 41.9143V46.0001H46V41.9143C46 37.898 43.0051 34.4705 39.0436 33.8103L31.7656 32.5972C30.518 32.3893 29.5853 31.4943 29.486 30.2522" stroke="#00162E" stroke-width="2.4" stroke-miterlimit="10" stroke-linecap="round" stroke-linejoin="round"/>
</svg>
