<svg width="48" height="48" viewBox="0 0 48 48" fill="none" xmlns="http://www.w3.org/2000/svg">
<path d="M31.991 27.156V34.5822L16.0078 37.367V27.5068" stroke="#5465FF" stroke-width="2.4" stroke-miterlimit="22.9256" stroke-linecap="round" stroke-linejoin="round"/>
<path d="M30.5276 6.78618L33.2451 2L37.9885 4.78482L35.271 9.57091" stroke="#5465FF" stroke-width="2.4" stroke-miterlimit="22.9256" stroke-linecap="round" stroke-linejoin="round"/>
<path d="M2 27.156H46" stroke="#5465FF" stroke-width="2.4" stroke-miterlimit="22.9256" stroke-linecap="round" stroke-linejoin="round"/>
<path d="M44.2656 27.156L42.8408 42.6327C42.6644 44.548 41.0968 45.9999 39.2049 45.9999H8.7916C6.8996 45.9999 5.33168 44.5475 5.15577 42.6318L3.64136 27.3636" stroke="#5465FF" stroke-width="2.4" stroke-miterlimit="22.9256" stroke-linecap="round" stroke-linejoin="round"/>
<path d="M27.2871 26.6552C27.2871 18.0237 27.2871 21.1248 27.2871 12.4933L30.5278 6.78564L35.2711 9.57046L33.6141 12.4891L35.545 13.4596C37.8099 14.5981 39.1544 16.799 39.1544 19.3682V27.1557" stroke="#5465FF" stroke-width="2.4" stroke-miterlimit="22.9256" stroke-linecap="round" stroke-linejoin="round"/>
<path d="M9.57675 27.156V20.4725L6.80151 15.1469" stroke="#5465FF" stroke-width="2.4" stroke-miterlimit="22.9256" stroke-linecap="round" stroke-linejoin="round"/>
<path d="M17.8838 14.9032L15.0538 20.4724V26.9001" stroke="#5465FF" stroke-width="2.4" stroke-miterlimit="22.9256" stroke-linecap="round" stroke-linejoin="round"/>
<path fill-rule="evenodd" clip-rule="evenodd" d="M4.23439 9.33362H20.3962C21.6252 9.33362 22.6306 10.3561 22.6306 11.6057V14.9032H2V11.6057C2 10.356 3.00544 9.33362 4.23439 9.33362Z" stroke="#5465FF" stroke-width="2.4" stroke-miterlimit="22.9256" stroke-linecap="round" stroke-linejoin="round"/>
</svg>
