<svg width="44" height="44" viewBox="0 0 44 44" fill="none" xmlns="http://www.w3.org/2000/svg">
<g clip-path="url(#clip0_30_202)">
<path d="M29.15 17.1611C31.0476 13.6805 31.2756 10.1395 28.955 6.80568C28.849 8.74521 27.4483 10.4108 25.1023 10.9438C25.8448 6.22397 22.8515 3.78773 19.3141 1.83325C19.3141 1.83325 22.1002 6.8887 17.2198 11.5112L15.4144 7.18535C12.8407 10.4347 12.63 14.0859 14.4528 17.1611" stroke="#00162E" stroke-width="2.4" stroke-miterlimit="10" stroke-linejoin="round"/>
<path d="M32.83 21.3986L38.3905 19.7656" stroke="#00162E" stroke-width="2.4" stroke-miterlimit="10" stroke-linecap="round" stroke-linejoin="round"/>
<path d="M5.5 19.7656L11.0962 21.4092" stroke="#00162E" stroke-width="2.4" stroke-miterlimit="10" stroke-linecap="round" stroke-linejoin="round"/>
<path d="M15.8619 26.4976L11.9169 44.0002" stroke="#00162E" stroke-width="2.4" stroke-miterlimit="10" stroke-linecap="square" stroke-linejoin="round"/>
<path d="M28.0389 26.5081L31.677 43.8545" stroke="#00162E" stroke-width="2.4" stroke-miterlimit="10" stroke-linecap="round" stroke-linejoin="round"/>
<path d="M10.1693 17.1606C10.1693 23.1843 15.4488 28.0673 21.9613 28.0673C28.4739 28.0673 33.7533 23.1843 33.7533 17.1606H10.1693Z" stroke="#00162E" stroke-width="2.4" stroke-miterlimit="10" stroke-linecap="round" stroke-linejoin="round"/>
<path d="M29.4888 33.4226H14.3837" stroke="#00162E" stroke-width="2.4" stroke-miterlimit="10" stroke-linecap="round" stroke-linejoin="round"/>
</g>
<defs>
<clipPath id="clip0_30_202">
<rect width="44" height="44" fill="white"/>
</clipPath>
</defs>
</svg>
