<svg width="33" height="41" viewBox="0 0 33 41" fill="none" xmlns="http://www.w3.org/2000/svg">
<path d="M22.9029 15.1956C24.6603 11.9721 24.8715 8.69271 22.7223 5.6051C22.6242 7.40136 21.3269 8.94398 19.1542 9.43759C19.8418 5.06635 17.0696 2.81005 13.7935 0.999939C13.7935 0.999939 16.3738 5.68198 11.8539 9.96305L10.1818 5.95673C7.79821 8.9661 7.60305 12.3476 9.29124 15.1956" stroke="#48BFFD" stroke-width="2.01502" stroke-miterlimit="10" stroke-linejoin="round"/>
<path d="M26.3097 19.1205L31.4595 17.6081" stroke="#48BFFD" stroke-width="2.01502" stroke-miterlimit="10" stroke-linecap="round" stroke-linejoin="round"/>
<path d="M1 17.6081L6.1829 19.1303" stroke="#48BFFD" stroke-width="2.01502" stroke-miterlimit="10" stroke-linecap="round" stroke-linejoin="round"/>
<path d="M10.5967 23.842L8.41467 34.0643" stroke="#48BFFD" stroke-width="2.01502" stroke-miterlimit="10" stroke-linecap="round" stroke-linejoin="round"/>
<path d="M7.78787 39.9996C9.44467 39.9996 10.7878 38.6565 10.7878 36.9997C10.7878 35.3429 9.44467 33.9998 7.78787 33.9998C6.13107 33.9998 4.78796 35.3429 4.78796 36.9997C4.78796 38.6565 6.13107 39.9996 7.78787 39.9996Z" stroke="#48BFFD" stroke-width="2.01502" stroke-miterlimit="10" stroke-linecap="round" stroke-linejoin="round"/>
<path d="M21.8743 23.8519L25.2436 39.917" stroke="#48BFFD" stroke-width="2.01502" stroke-miterlimit="10" stroke-linecap="round" stroke-linejoin="round"/>
<path d="M5.32324 15.1956C5.32324 20.7743 10.2128 25.2966 16.2443 25.2966C22.2758 25.2966 27.1653 20.7743 27.1653 15.1956H5.32324Z" stroke="#48BFFD" stroke-width="2.01502" stroke-miterlimit="10" stroke-linecap="round" stroke-linejoin="round"/>
<path d="M23.2168 30.257H9.22729" stroke="#48BFFD" stroke-width="2.01502" stroke-miterlimit="10" stroke-linecap="round" stroke-linejoin="round"/>
</svg>
