<svg width="44" height="44" viewBox="0 0 44 44" fill="none" xmlns="http://www.w3.org/2000/svg">
<g clip-path="url(#clip0_408_5727)">
<path d="M29.15 17.1612C31.0476 13.6806 31.2756 10.1397 28.955 6.8058C28.849 8.74533 27.4483 10.411 25.1023 10.944C25.8448 6.22409 22.8515 3.78785 19.3141 1.83337C19.3141 1.83337 22.1002 6.88882 17.2198 11.5113L15.4144 7.18548C12.8407 10.4349 12.63 14.086 14.4528 17.1612" stroke="#5465FF" stroke-width="2.4" stroke-miterlimit="10" stroke-linejoin="round"/>
<path d="M32.83 21.3985L38.3905 19.7655" stroke="#5465FF" stroke-width="2.4" stroke-miterlimit="10" stroke-linecap="round" stroke-linejoin="round"/>
<path d="M5.5 19.7656L11.0962 21.4092" stroke="#5465FF" stroke-width="2.4" stroke-miterlimit="10" stroke-linecap="round" stroke-linejoin="round"/>
<path d="M15.8619 26.4976L11.9169 44.0002" stroke="#5465FF" stroke-width="2.4" stroke-miterlimit="10" stroke-linecap="square" stroke-linejoin="round"/>
<path d="M28.0389 26.5082L31.677 43.8546" stroke="#5465FF" stroke-width="2.4" stroke-miterlimit="10" stroke-linecap="round" stroke-linejoin="round"/>
<path d="M10.1693 17.1606C10.1693 23.1843 15.4488 28.0673 21.9613 28.0673C28.4739 28.0673 33.7533 23.1843 33.7533 17.1606H10.1693Z" stroke="#5465FF" stroke-width="2.4" stroke-miterlimit="10" stroke-linecap="round" stroke-linejoin="round"/>
<path d="M29.4888 33.4227H14.3837" stroke="#5465FF" stroke-width="2.4" stroke-miterlimit="10" stroke-linecap="round" stroke-linejoin="round"/>
</g>
<defs>
<clipPath id="clip0_408_5727">
<rect width="44" height="44" fill="white"/>
</clipPath>
</defs>
</svg>
