<svg width="46" height="46" viewBox="0 0 46 46" fill="none" xmlns="http://www.w3.org/2000/svg">
<path d="M12.8084 33.1909L6.82227 39.1771" stroke="#00162E" stroke-width="2.4" stroke-miterlimit="10" stroke-linecap="round" stroke-linejoin="round"/>
<path d="M14.3848 7.93237L20.3094 13.8571" stroke="#00162E" stroke-width="2.4" stroke-miterlimit="10" stroke-linecap="round" stroke-linejoin="round"/>
<path d="M32.1437 25.7056L38.0684 31.6302" stroke="#00162E" stroke-width="2.4" stroke-miterlimit="10" stroke-linecap="round" stroke-linejoin="round"/>
<path d="M30.5829 39.1156C24.0388 45.6597 13.3668 45.7214 6.82268 39.1773C0.278535 32.6332 0.340238 21.9612 6.88438 15.417L20.3712 1.94531L26.2959 7.86993L12.809 21.3417C9.53693 24.6137 9.53693 29.9188 12.809 33.191C16.0811 36.4631 21.3862 36.4631 24.6582 33.191L38.13 19.7193L44.0547 25.6439L30.5829 39.1156Z" stroke="#00162E" stroke-width="2.4" stroke-miterlimit="10" stroke-linecap="round" stroke-linejoin="round"/>
<path d="M37.6771 9.02271L31.3869 11.8184L34.1827 14.6141L28.5913 17.4097" stroke="#00162E" stroke-width="2.4" stroke-miterlimit="10" stroke-linecap="round" stroke-linejoin="round"/>
</svg>
