<svg width="44" height="46" viewBox="0 0 44 46" fill="none" xmlns="http://www.w3.org/2000/svg">
<path d="M38.0564 7.27319H41.3838" stroke="#00162E" stroke-width="2.4" stroke-miterlimit="10" stroke-linecap="round" stroke-linejoin="round"/>
<path d="M11.3057 6.75024H8.14486C6.99561 6.75024 6.06396 7.68189 6.06396 8.83113V14.7162C6.06396 15.8655 6.99561 16.7971 8.14486 16.7971H20.9396C22.1303 16.7971 23.0956 17.7624 23.0956 18.9531V24.0125" stroke="#00162E" stroke-width="2.4" stroke-miterlimit="10" stroke-linecap="round" stroke-linejoin="round"/>
<path d="M23.0958 44.054C20.8756 44.054 19.1034 42.2029 19.2001 39.9848L19.8963 24.0115H26.2952L26.9915 39.9848C27.0882 42.2029 25.3161 44.054 23.0958 44.054Z" stroke="#00162E" stroke-width="2.4" stroke-miterlimit="10" stroke-linecap="round" stroke-linejoin="round"/>
<path d="M36.7603 12.5149H13.6299C12.9141 12.5149 12.3339 11.9347 12.3339 11.2189V3.32725C12.3339 2.61147 12.9141 2.03125 13.6299 2.03125H36.7603C37.4761 2.03125 38.0563 2.61147 38.0563 3.32725V11.2189C38.0563 11.9346 37.476 12.5149 36.7603 12.5149Z" stroke="#00162E" stroke-width="2.4" stroke-miterlimit="10" stroke-linecap="round" stroke-linejoin="round"/>
<path d="M33.6323 24.1339C33.5197 21.3863 36.2218 18.2461 36.2218 18.2461C36.2218 18.2461 38.9239 21.3863 38.8113 24.1339C38.6781 27.3815 33.7654 27.3815 33.6323 24.1339Z" stroke="#00162E" stroke-width="2.4" stroke-miterlimit="10" stroke-linecap="round" stroke-linejoin="round"/>
</svg>
