<svg width="33" height="43" viewBox="0 0 33 43" fill="none" xmlns="http://www.w3.org/2000/svg">
<path d="M28.6923 6.45142H31.5171" stroke="#FF7456" stroke-width="2.12509" stroke-miterlimit="10" stroke-linecap="round" stroke-linejoin="round"/>
<path d="M6.85472 6.45142H3.92724C2.86286 6.45142 2 7.31427 2 8.37866V13.8292C2 14.8936 2.86286 15.7564 3.92724 15.7564H15.7772C16.88 15.7564 17.774 16.6504 17.774 17.7532V22.4391" stroke="#FF7456" stroke-width="2.12509" stroke-miterlimit="10" stroke-linecap="round" stroke-linejoin="round"/>
<path d="M17.7748 40.9999C15.7185 40.9999 14.0772 39.2855 14.1667 37.2312L14.8116 22.4373H20.738L21.3828 37.2312C21.4724 39.2855 19.8311 40.9999 17.7748 40.9999Z" stroke="#FF7456" stroke-width="2.12509" stroke-miterlimit="10" stroke-linecap="round" stroke-linejoin="round"/>
<path d="M27.5918 10.9004H7.95441C7.34672 10.9004 6.85413 10.4078 6.85413 9.80012V3.10022C6.85413 2.49253 7.34672 1.99994 7.95441 1.99994H27.5918C28.1994 1.99994 28.692 2.49253 28.692 3.10022V9.80012C28.692 10.4077 28.1994 10.9004 27.5918 10.9004Z" stroke="#FF7456" stroke-width="2.12509" stroke-miterlimit="10" stroke-linecap="round" stroke-linejoin="round"/>
<path d="M24.9369 20.7639C24.8413 18.4313 27.1353 15.7653 27.1353 15.7653C27.1353 15.7653 29.4293 18.4313 29.3337 20.7639C29.2207 23.5211 25.0498 23.5211 24.9369 20.7639Z" stroke="#FF7456" stroke-width="2.12509" stroke-miterlimit="10" stroke-linecap="round" stroke-linejoin="round"/>
</svg>
