<svg width="44" height="44" viewBox="0 0 44 44" fill="none" xmlns="http://www.w3.org/2000/svg">
<g clip-path="url(#clip0_408_5776)">
<path d="M37.0211 43.0341V37.7877" stroke="#5465FF" stroke-width="2.4" stroke-miterlimit="10"/>
<path d="M34.5735 19.037C31.7375 23.7993 26.2914 27.0219 20.0386 27.0219C13.9146 27.0219 8.56442 23.6384 5.68225 19.037" stroke="#5465FF" stroke-width="2.4" stroke-miterlimit="10" stroke-linecap="round" stroke-linejoin="round"/>
<path d="M19.9332 31.9158V27.0219" stroke="#5465FF" stroke-width="2.4" stroke-miterlimit="10" stroke-linecap="round" stroke-linejoin="round"/>
<path d="M5.33142 26.1875L8.79204 22.7269" stroke="#5465FF" stroke-width="2.4" stroke-miterlimit="10" stroke-linecap="round" stroke-linejoin="round"/>
<path d="M12.1816 30.428L13.8806 25.8384" stroke="#5465FF" stroke-width="2.4" stroke-miterlimit="10" stroke-linecap="round" stroke-linejoin="round"/>
<path d="M34.9384 26.2251L31.4779 22.7645" stroke="#5465FF" stroke-width="2.4" stroke-miterlimit="10" stroke-linecap="round" stroke-linejoin="round"/>
<path d="M28.0671 30.4444L26.3682 25.8549" stroke="#5465FF" stroke-width="2.4" stroke-miterlimit="10" stroke-linecap="round" stroke-linejoin="round"/>
<path d="M0.945312 5.83846V10.7933L18.026 9.0429C24.7236 8.34947 31.4756 9.67574 37.4131 12.851L43.0547 15.7355L36.1186 5.65988C35.0414 4.20565 33.6399 3.02272 32.0254 2.20494C30.1722 1.26633 28.1016 0.840852 26.0287 0.97268L4.22116 2.34931C2.37952 2.46559 0.945312 3.99313 0.945312 5.83846Z" stroke="#5465FF" stroke-width="2.4" stroke-miterlimit="10" stroke-linecap="round" stroke-linejoin="round"/>
<path d="M8.30164 37.786H43.0479V43.0503H8.30164" stroke="#5465FF" stroke-width="2.4" stroke-miterlimit="10" stroke-linecap="round" stroke-linejoin="round"/>
<path d="M8.30125 37.786L3.14929 40.2794L8.30125 43.0503L9.23057 42.4418C10.5929 41.5499 10.6617 39.5781 9.36472 38.5935L8.30125 37.786Z" stroke="#5465FF" stroke-width="2.4" stroke-miterlimit="10" stroke-linecap="round" stroke-linejoin="round"/>
<path d="M3.14974 40.28H0.961426" stroke="#5465FF" stroke-width="2.4" stroke-miterlimit="10" stroke-linecap="round" stroke-linejoin="round"/>
</g>
<defs>
<clipPath id="clip0_408_5776">
<rect width="44" height="44" fill="white"/>
</clipPath>
</defs>
</svg>
