<svg width="44" height="44" viewBox="0 0 44 44" fill="none" xmlns="http://www.w3.org/2000/svg">
<g clip-path="url(#clip0_30_1741)">
<path d="M37.0211 43.0342V37.7878" stroke="#00162E" stroke-width="2.4" stroke-miterlimit="10"/>
<path d="M34.5735 19.0371C31.7375 23.7994 26.2914 27.022 20.0386 27.022C13.9146 27.022 8.56442 23.6385 5.68225 19.0371" stroke="#00162E" stroke-width="2.4" stroke-miterlimit="10" stroke-linecap="round" stroke-linejoin="round"/>
<path d="M19.9332 31.9159V27.022" stroke="#00162E" stroke-width="2.4" stroke-miterlimit="10" stroke-linecap="round" stroke-linejoin="round"/>
<path d="M5.33142 26.1877L8.79204 22.7271" stroke="#00162E" stroke-width="2.4" stroke-miterlimit="10" stroke-linecap="round" stroke-linejoin="round"/>
<path d="M12.1816 30.4282L13.8806 25.8386" stroke="#00162E" stroke-width="2.4" stroke-miterlimit="10" stroke-linecap="round" stroke-linejoin="round"/>
<path d="M34.9384 26.2252L31.4779 22.7646" stroke="#00162E" stroke-width="2.4" stroke-miterlimit="10" stroke-linecap="round" stroke-linejoin="round"/>
<path d="M28.0671 30.4446L26.3682 25.855" stroke="#00162E" stroke-width="2.4" stroke-miterlimit="10" stroke-linecap="round" stroke-linejoin="round"/>
<path d="M0.945312 5.83846V10.7933L18.026 9.0429C24.7236 8.34947 31.4756 9.67574 37.4131 12.851L43.0547 15.7355L36.1186 5.65988C35.0414 4.20565 33.6399 3.02272 32.0254 2.20494C30.1722 1.26633 28.1016 0.840852 26.0287 0.97268L4.22116 2.34931C2.37952 2.46559 0.945312 3.99313 0.945312 5.83846Z" stroke="#00162E" stroke-width="2.4" stroke-miterlimit="10" stroke-linecap="round" stroke-linejoin="round"/>
<path d="M8.30164 37.7859H43.0479V43.0502H8.30164" stroke="#00162E" stroke-width="2.4" stroke-miterlimit="10" stroke-linecap="round" stroke-linejoin="round"/>
<path d="M8.30125 37.7859L3.14929 40.2793L8.30125 43.0502L9.23057 42.4417C10.5929 41.5498 10.6617 39.5779 9.36472 38.5934L8.30125 37.7859Z" stroke="#00162E" stroke-width="2.4" stroke-miterlimit="10" stroke-linecap="round" stroke-linejoin="round"/>
<path d="M3.14974 40.2798H0.961426" stroke="#00162E" stroke-width="2.4" stroke-miterlimit="10" stroke-linecap="round" stroke-linejoin="round"/>
</g>
<defs>
<clipPath id="clip0_30_1741">
<rect width="44" height="44" fill="white"/>
</clipPath>
</defs>
</svg>
