<svg width="185" height="105" viewBox="0 0 185 105" fill="none" xmlns="http://www.w3.org/2000/svg">
<path fill-rule="evenodd" clip-rule="evenodd" d="M9.24867 28.7897L33.0718 19.1645L61.7339 32.0627L76.4658 68.5252C78.5336 73.6432 76.0823 79.4688 70.9643 81.5366L36.2298 95.5703C31.1378 97.6276 25.3017 95.1503 23.2339 90.0323L3.7367 41.775C1.67932 36.6831 4.15669 30.847 9.24867 28.7897Z" fill="#F5F5F5"/>
<path fill-rule="evenodd" clip-rule="evenodd" d="M33.0469 19.1748L41.4755 40.0363L61.6615 31.8806L33.0469 19.1748Z" fill="#DEDEDE"/>
<path d="M43.0873 77.1952L43.0872 77.1952L43.088 77.2019C43.2247 78.3376 43.0563 79.2835 42.6116 80.0302C42.157 80.7827 41.4275 81.368 40.4232 81.7737C39.1841 82.2743 37.9932 82.2647 36.8503 81.7385C35.7348 81.2242 34.8506 80.2233 34.2583 78.7573C33.6259 77.192 33.551 75.815 33.9972 74.6512C34.4538 73.4811 35.3387 72.6108 36.6393 72.0853C37.79 71.6203 38.8593 71.5942 39.8391 71.9685C40.4163 72.1937 40.9695 72.6346 41.4835 73.3044L41.4835 73.3044L41.4849 73.3062C41.4909 73.3138 41.495 73.3242 41.4957 73.3362C41.4948 73.3392 41.494 73.3412 41.4935 73.3427L41.4863 73.3467L41.4774 73.3531L39.8219 74.542C39.8115 74.5473 39.8018 74.5508 39.794 74.5526C39.7886 74.5539 39.7853 74.5541 39.7838 74.5542C39.7717 74.5513 39.7608 74.5448 39.7526 74.5354C39.4619 74.1134 39.0935 73.8287 38.6358 73.6901C38.175 73.5504 37.7083 73.5851 37.2153 73.7842C36.5445 74.0553 36.0963 74.5111 35.8699 75.1751C35.6344 75.8607 35.7599 76.7463 36.1916 77.8146C36.645 78.9369 37.1864 79.7079 37.8211 80.0332C38.4399 80.3658 39.0714 80.3862 39.7343 80.1183C40.2257 79.9198 40.5789 79.599 40.8056 79.1396C41.0342 78.6766 41.0887 78.0772 40.9769 77.3638L40.9772 77.3637L40.9748 77.3527C40.9746 77.3516 40.9746 77.3505 40.9749 77.3494C40.9752 77.3483 40.9758 77.3472 40.9765 77.3464L40.9853 77.3366L40.9927 77.3258C40.9956 77.3215 40.9979 77.3198 40.9995 77.3189C41.0011 77.318 41.0043 77.3164 41.0105 77.3155L43.0523 77.1627L43.0531 77.1626C43.067 77.1615 43.0854 77.1728 43.0873 77.1952ZM41.6402 73.1841C41.6815 73.2367 41.6977 73.3014 41.6923 73.3628L41.6402 73.1841ZM44.087 76.5794L44.087 76.5794L44.084 76.5741C44.0813 76.5694 44.0795 76.5641 44.0789 76.5588C44.0782 76.5533 44.0789 76.5496 44.0793 76.5485C44.081 76.5425 44.0832 76.5383 44.0848 76.5359L44.0884 76.5344L44.0971 76.5298L45.8414 75.6147C45.8569 75.6076 45.8665 75.6089 45.871 75.6103C45.8759 75.6117 45.8828 75.6154 45.8892 75.6262L45.8892 75.6262L45.891 75.6291C46.2242 76.1677 46.6305 76.5375 47.0834 76.6887C47.5346 76.8393 48.0423 76.7938 48.59 76.5725C49.15 76.3463 49.5701 76.0439 49.7704 75.6539C49.9674 75.3032 50.013 74.9464 49.8749 74.6048C49.7874 74.3881 49.6517 74.2467 49.4726 74.1439L49.4727 74.1437L49.4652 74.1398C49.2659 74.0365 48.979 74.0066 48.6552 74.0148L48.6552 74.0147L48.6479 74.0151C48.4041 74.0303 47.8406 74.0956 46.9964 74.2159L46.9962 74.216C45.8503 74.3808 45.0434 74.3459 44.4915 74.1516C43.7061 73.865 43.164 73.3478 42.8689 72.6174C42.6747 72.1366 42.629 71.6333 42.734 71.1023L42.7342 71.1012C42.8324 70.5886 43.0947 70.1079 43.5197 69.6787C43.9318 69.2654 44.5002 68.9083 45.2246 68.6156C46.4081 68.1374 47.3998 68.0518 48.188 68.3201C48.9787 68.5892 49.5748 69.1508 49.9558 69.9966C49.96 70.0085 49.9596 70.0219 49.9554 70.0331C49.9523 70.0414 49.9488 70.0444 49.9476 70.0452L49.9476 70.0451L49.9393 70.0489L48.1052 70.8901C48.096 70.8936 48.0858 70.894 48.0763 70.8911C48.0669 70.8882 48.0587 70.8823 48.053 70.8743C47.8016 70.4619 47.4997 70.1733 47.1491 70.0683L47.1491 70.0683L47.1451 70.0672C46.7919 69.9697 46.3514 70.0328 45.8577 70.2323C45.3454 70.4392 44.9597 70.7195 44.7389 71.0619C44.6703 71.1594 44.6278 71.2728 44.6153 71.3913C44.6027 71.5107 44.6211 71.6313 44.6686 71.7416C44.7579 71.9606 44.9304 72.0957 45.1565 72.1661C45.2833 72.2099 45.4763 72.2347 45.7741 72.2292C46.0787 72.2235 46.5073 72.1856 47.1125 72.0929L47.113 72.0928C48.1183 71.9363 48.8792 71.8858 49.4082 71.9391C49.9435 71.9977 50.4171 72.1737 50.8284 72.4747C51.2338 72.7721 51.5598 73.2212 51.8008 73.8176C52.0167 74.3519 52.0772 74.9198 51.9672 75.512C51.8539 76.0922 51.5785 76.6179 51.1265 77.065C50.6743 77.5053 50.0483 77.896 49.2284 78.2272C48.0396 78.7076 47.0138 78.7876 46.1787 78.5075C45.3367 78.2162 44.6281 77.5826 44.087 76.5794ZM58.4062 63.526L58.4063 63.5289L58.8336 74.1245C58.8336 74.1247 58.8336 74.1248 58.8336 74.125C58.8337 74.1338 58.8313 74.1424 58.8266 74.1498C58.8219 74.1571 58.8152 74.1629 58.8072 74.1664L56.8179 74.9702C56.8097 74.9731 56.8009 74.9737 56.7925 74.9717C56.7839 74.9696 56.7762 74.9651 56.7702 74.9587C56.77 74.9586 56.7699 74.9584 56.7698 74.9583L49.724 67.0478C49.7149 67.0336 49.7101 67.0172 49.7103 67.0004C49.712 66.9965 49.7143 66.9929 49.7171 66.9897C49.7215 66.9844 49.7271 66.9803 49.7334 66.9776L51.76 66.1588C51.7674 66.1558 51.7739 66.1555 51.7809 66.1573C51.7881 66.1591 51.7976 66.1636 51.8073 66.1728L56.4583 71.554L56.8424 71.9983L56.8049 71.4122L56.3517 64.3282L56.3518 64.3282L56.3513 64.3226C56.3513 64.3222 56.351 64.3178 56.3556 64.3107C56.3602 64.3036 56.3676 64.2972 56.3764 64.2936L58.361 63.4918C58.3641 63.4906 58.3661 63.4904 58.3688 63.4907C58.3721 63.4911 58.38 63.4929 58.392 63.5005L58.3931 63.5012C58.4007 63.506 58.4026 63.5093 58.4032 63.5103C58.4038 63.5114 58.406 63.5156 58.4062 63.526Z" fill="#959595" stroke="#EDEDED" stroke-width="0.395055"/>
<path fill-rule="evenodd" clip-rule="evenodd" d="M140.033 15.9914L164.249 24.5802L177.155 53.239L164.01 90.3032C162.164 95.5056 156.467 98.2416 151.265 96.3964L115.957 83.8738C110.781 82.038 108.054 76.3141 109.899 71.1117L127.297 22.0582C129.133 16.8822 134.857 14.1556 140.033 15.9914Z" fill="#F5F5F5"/>
<path fill-rule="evenodd" clip-rule="evenodd" d="M164.223 24.571L156.702 45.7767L177.221 53.0543L164.223 24.571Z" fill="#DEDEDE"/>
<path d="M133.273 74.6632L133.273 74.6631L133.269 74.6687C132.618 75.6096 131.865 76.206 131.037 76.4702C130.198 76.7322 129.264 76.6867 128.243 76.3246C126.983 75.8779 126.098 75.0811 125.591 73.9294C125.097 72.8048 125.099 71.4693 125.627 69.9791C126.192 68.388 127.049 67.3075 128.154 66.7321C129.272 66.1588 130.511 66.0939 131.833 66.5628C133.003 66.9777 133.821 67.667 134.306 68.5969C134.589 69.1481 134.711 69.845 134.652 70.6872L134.652 70.6872L134.652 70.6894C134.651 70.6991 134.647 70.7096 134.64 70.7191C134.637 70.7207 134.635 70.7217 134.634 70.7224L134.626 70.7207L134.615 70.7196L132.587 70.512C132.576 70.5091 132.566 70.5053 132.559 70.5015C132.554 70.4989 132.552 70.4968 132.551 70.4959C132.543 70.4857 132.54 70.4736 132.54 70.4612C132.602 69.9525 132.515 69.4951 132.264 69.0879C132.012 68.6778 131.639 68.3943 131.138 68.2166C130.456 67.9748 129.818 68.0188 129.209 68.366C128.578 68.7231 128.085 69.4693 127.7 70.5551C127.295 71.6959 127.189 72.6321 127.449 73.2964C127.691 73.9557 128.151 74.3896 128.825 74.6286C129.324 74.8058 129.801 74.7997 130.275 74.6062C130.754 74.4111 131.192 73.9985 131.581 73.3903L131.581 73.3904L131.587 73.3806C131.587 73.3796 131.588 73.3788 131.589 73.3782C131.59 73.3775 131.591 73.3771 131.592 73.377L131.605 73.3755L131.618 73.3723C131.623 73.371 131.626 73.3713 131.628 73.3716C131.63 73.372 131.633 73.373 131.638 73.3764L133.268 74.6157L133.269 74.6162C133.28 74.6246 133.286 74.6452 133.273 74.6632ZM134.849 70.701C134.845 70.7678 134.814 70.8269 134.769 70.8694L134.849 70.701ZM134.429 74.865L134.429 74.8651L134.431 74.859C134.432 74.8538 134.434 74.8486 134.437 74.8442C134.44 74.8396 134.443 74.8374 134.444 74.8367C134.449 74.8335 134.454 74.8318 134.457 74.831L134.46 74.8323L134.47 74.8346L136.382 75.306C136.399 75.3109 136.405 75.3183 136.408 75.3223C136.41 75.3266 136.413 75.3339 136.411 75.3463L136.411 75.3463L136.41 75.3496C136.302 75.9738 136.361 76.52 136.6 76.9334C136.838 77.3453 137.248 77.6479 137.805 77.8454C138.374 78.0472 138.889 78.0994 139.298 77.9402C139.678 77.8083 139.948 77.5714 140.072 77.2241C140.15 77.0039 140.142 76.808 140.076 76.6123L140.076 76.6123L140.073 76.6044C139.992 76.3949 139.797 76.1824 139.55 75.9738L139.55 75.9737L139.544 75.9692C139.351 75.8189 138.886 75.4942 138.174 75.0246L138.174 75.0245C137.207 74.3882 136.626 73.827 136.342 73.3157C135.944 72.5804 135.881 71.8339 136.144 71.0914C136.318 70.6027 136.617 70.1956 137.048 69.8676L137.049 69.8669C137.462 69.5484 137.977 69.3624 138.58 69.3228C139.162 69.2867 139.825 69.3961 140.561 69.6573C141.764 70.084 142.563 70.6774 142.975 71.4008C143.389 72.1265 143.463 72.9421 143.187 73.8279C143.183 73.8396 143.173 73.8494 143.163 73.8549C143.155 73.8591 143.15 73.8591 143.149 73.8589L143.149 73.8588L143.14 73.8561L141.21 73.2699C141.2 73.2664 141.192 73.2599 141.187 73.2515C141.182 73.2431 141.18 73.2333 141.181 73.2235C141.266 72.748 141.232 72.3318 141.039 72.0208L141.039 72.0208L141.036 72.0172C140.837 71.7101 140.465 71.4653 139.963 71.2873C139.442 71.1026 138.968 71.0568 138.575 71.1666C138.46 71.1942 138.353 71.2508 138.265 71.3313C138.176 71.4124 138.11 71.5149 138.072 71.6289C137.994 71.852 138.033 72.0675 138.156 72.2702C138.222 72.387 138.35 72.5336 138.577 72.7269C138.808 72.9245 139.154 73.1804 139.669 73.5122L139.669 73.5125C140.526 74.0618 141.129 74.5285 141.49 74.919C141.851 75.3179 142.089 75.7637 142.198 76.2618C142.304 76.7532 142.25 77.3055 142.035 77.9117C141.843 78.4548 141.511 78.9201 141.036 79.2905C140.567 79.6497 140.012 79.8606 139.377 79.8957C138.747 79.9255 138.019 79.803 137.186 79.5074C135.977 79.0787 135.156 78.4586 134.717 77.6952C134.28 76.9189 134.169 75.9748 134.429 74.865ZM153.804 74.5864L153.802 74.5887L147.097 82.8041C147.097 82.8042 147.097 82.8044 147.096 82.8045C147.091 82.8112 147.083 82.816 147.075 82.8184C147.066 82.8208 147.058 82.8206 147.049 82.818L145.027 82.1008C145.019 82.0976 145.012 82.0921 145.007 82.0851C145.002 82.0779 144.999 82.0693 144.999 82.0606C144.999 82.0604 144.999 82.0602 144.999 82.06L144.969 71.4666C144.971 71.45 144.979 71.4345 144.99 71.4221C144.994 71.4203 144.998 71.4191 145.002 71.4185C145.009 71.4176 145.016 71.4182 145.022 71.4203L147.082 72.151C147.09 72.1536 147.095 72.1577 147.099 72.1637C147.103 72.1698 147.107 72.1795 147.109 72.1928L147.023 79.3049L147.016 79.8922L147.376 79.4286L151.734 73.8248L151.734 73.8249L151.737 73.8203C151.737 73.82 151.74 73.8166 151.748 73.8143C151.756 73.812 151.766 73.8121 151.775 73.8153L153.792 74.5308C153.796 74.5319 153.797 74.5331 153.799 74.5352C153.801 74.5376 153.806 74.5442 153.81 74.5578L153.81 74.5591C153.813 74.5677 153.812 74.5715 153.812 74.5726C153.811 74.5738 153.81 74.5784 153.804 74.5864Z" fill="#959595" stroke="#EDEDED" stroke-width="0.395055"/>
<g filter="url(#filter0_d_7893_8263)">
<path fill-rule="evenodd" clip-rule="evenodd" d="M73.4337 11.8293H100.309L123.052 35.569V76.7034C123.052 82.4771 118.392 87.1664 112.619 87.1664H73.4337C67.6893 87.1664 63 82.4771 63 76.7034V22.263C62.9999 16.5186 67.6893 11.8293 73.4337 11.8293Z" fill="#F5F5F5"/>
<path fill-rule="evenodd" clip-rule="evenodd" d="M100.199 11.8293V35.3638H122.972L100.199 11.8293Z" fill="#DEDEDE"/>
<path d="M87.4137 64.7717H85.4215C85.3647 64.445 85.2599 64.1555 85.1072 63.9034C84.9545 63.6477 84.7646 63.4311 84.5373 63.2536C84.31 63.076 84.0508 62.9428 83.7596 62.854C83.4719 62.7617 83.1612 62.7156 82.8274 62.7156C82.2344 62.7156 81.7088 62.8647 81.2507 63.163C80.7926 63.4577 80.4339 63.891 80.1747 64.4627C79.9155 65.0309 79.7859 65.7251 79.7859 66.5455C79.7859 67.38 79.9155 68.0831 80.1747 68.6548C80.4375 69.223 80.7962 69.6527 81.2507 69.9439C81.7088 70.2315 82.2326 70.3754 82.8221 70.3754C83.1488 70.3754 83.4542 70.3327 83.7383 70.2475C84.0259 70.1587 84.2834 70.0291 84.5107 69.8587C84.7415 69.6882 84.935 69.4787 85.0913 69.2301C85.2511 68.9815 85.3612 68.6974 85.4215 68.3778L87.4137 68.3885C87.3391 68.907 87.1776 69.3935 86.929 69.848C86.6839 70.3026 86.3626 70.7038 85.9648 71.0518C85.5671 71.3963 85.1019 71.6662 84.5692 71.8615C84.0366 72.0533 83.4453 72.1491 82.7955 72.1491C81.8366 72.1491 80.9808 71.9272 80.228 71.4833C79.4751 71.0394 78.8821 70.3984 78.4489 69.5604C78.0156 68.7223 77.799 67.7173 77.799 66.5455C77.799 65.37 78.0174 64.3651 78.4542 63.5305C78.891 62.6925 79.4858 62.0515 80.2386 61.6076C80.9915 61.1637 81.8438 60.9418 82.7955 60.9418C83.4027 60.9418 83.9673 61.027 84.4893 61.1974C85.0114 61.3679 85.4766 61.6183 85.8849 61.9485C86.2933 62.2752 86.6289 62.6765 86.8917 63.1523C87.158 63.6246 87.332 64.1644 87.4137 64.7717ZM95.1521 64.0898C95.1024 63.6246 94.8928 63.2624 94.5235 63.0032C94.1578 62.744 93.6819 62.6143 93.096 62.6143C92.684 62.6143 92.3307 62.6765 92.036 62.8008C91.7412 62.9251 91.5157 63.0937 91.3595 63.3068C91.2032 63.5199 91.1233 63.7631 91.1198 64.0366C91.1198 64.2638 91.1713 64.4609 91.2742 64.6278C91.3808 64.7947 91.5246 64.9368 91.7057 65.054C91.8868 65.1676 92.0874 65.2635 92.3076 65.3416C92.5278 65.4197 92.7497 65.4854 92.9735 65.5387L93.9962 65.7944C94.4081 65.8903 94.8041 66.0199 95.184 66.1832C95.5676 66.3466 95.9102 66.5526 96.2121 66.8011C96.5175 67.0497 96.759 67.3498 96.9365 67.7013C97.1141 68.0529 97.2029 68.4648 97.2029 68.9371C97.2029 69.5763 97.0395 70.1392 96.7128 70.6257C96.3861 71.1087 95.9138 71.4869 95.2959 71.7603C94.6816 72.0302 93.9376 72.1651 93.064 72.1651C92.2153 72.1651 91.4784 72.0337 90.8534 71.771C90.232 71.5082 89.7455 71.1246 89.3939 70.6204C89.0459 70.1161 88.8577 69.5018 88.8293 68.7773H90.7735C90.8019 69.1573 90.9191 69.4734 91.1251 69.7255C91.3311 69.9776 91.5992 70.1658 91.9294 70.2901C92.2632 70.4144 92.6361 70.4766 93.048 70.4766C93.4777 70.4766 93.8541 70.4126 94.1773 70.2848C94.504 70.1534 94.7597 69.9723 94.9443 69.7415C95.129 69.5071 95.2231 69.2337 95.2267 68.9212C95.2231 68.6371 95.1396 68.4027 94.9763 68.218C94.8129 68.0298 94.5839 67.8736 94.2892 67.7493C93.998 67.6214 93.657 67.5078 93.2664 67.4084L92.0253 67.0888C91.1269 66.858 90.4166 66.5082 89.8946 66.0394C89.3762 65.5671 89.1169 64.9403 89.1169 64.1591C89.1169 63.5163 89.2909 62.9535 89.6389 62.4705C89.9905 61.9876 90.4681 61.6129 91.0718 61.3466C91.6755 61.0767 92.3591 60.9418 93.1226 60.9418C93.8968 60.9418 94.575 61.0767 95.1574 61.3466C95.7433 61.6129 96.2032 61.984 96.537 62.4599C96.8708 62.9322 97.0431 63.4755 97.0537 64.0898H95.1521ZM100.424 61.0909L103.263 69.6776H103.375L106.209 61.0909H108.382L104.536 72H102.097L98.2562 61.0909H100.424Z" fill="#363637"/>
</g>
<defs>
<filter id="filter0_d_7893_8263" x="48.5121" y="0.65297" width="89.0285" height="104.313" filterUnits="userSpaceOnUse" color-interpolation-filters="sRGB">
<feFlood flood-opacity="0" result="BackgroundImageFix"/>
<feColorMatrix in="SourceAlpha" type="matrix" values="0 0 0 0 0 0 0 0 0 0 0 0 0 0 0 0 0 0 127 0" result="hardAlpha"/>
<feOffset dy="3.31152"/>
<feGaussianBlur stdDeviation="7.24395"/>
<feComposite in2="hardAlpha" operator="out"/>
<feColorMatrix type="matrix" values="0 0 0 0 0.154167 0 0 0 0 0.154167 0 0 0 0 0.154167 0 0 0 0.25 0"/>
<feBlend mode="normal" in2="BackgroundImageFix" result="effect1_dropShadow_7893_8263"/>
<feBlend mode="normal" in="SourceGraphic" in2="effect1_dropShadow_7893_8263" result="shape"/>
</filter>
</defs>
</svg>
