<svg width="78" height="20" viewBox="0 0 78 20" fill="none" xmlns="http://www.w3.org/2000/svg">
<path d="M7.34529 2.01121L8.21973 0L10.0561 1.3991L11.8049 0L13.2915 2.01121L15.0404 1.13677L15.3027 3.41031H17.7511L17.3139 5.85874L19.4126 6.38341L18.2758 8.21973L19.9372 9.79372L18.2758 11.3677L19.4126 13.0291L17.3139 13.991L17.7511 16.0897H15.3027V18.5381L12.9417 17.5762L11.8049 19.5L10.0561 18.0135L8.21973 19.5L7.08296 17.5762L4.9843 18.5381L4.63453 16.0897H2.36099L2.71076 13.8161L0.612108 13.0291L1.74888 11.1054L0 9.79372L1.74888 8.39462L0.786996 6.38341L2.71076 5.42153L2.36099 3.41031H4.80942L4.9843 1.13677L7.34529 2.01121Z" fill="url(#paint0_linear_9634_2305)"/>
<mask id="mask0_9634_2305" style="mask-type:alpha" maskUnits="userSpaceOnUse" x="6" y="4" width="8" height="11">
<path d="M6.60984 14.5153V12.8658L10.0745 9.83564C10.3342 9.60088 10.5553 9.3862 10.7377 9.1916C10.9201 8.99391 11.0593 8.79622 11.1551 8.59853C11.251 8.39775 11.2989 8.17999 11.2989 7.94523C11.2989 7.68267 11.2417 7.45873 11.1273 7.27339C11.0129 7.08497 10.8552 6.93979 10.6542 6.83786C10.4532 6.73592 10.2229 6.68496 9.96314 6.68496C9.70032 6.68496 9.46997 6.73901 9.27208 6.84713C9.07419 6.95215 8.91959 7.10505 8.80827 7.30583C8.70005 7.50661 8.64594 7.75063 8.64594 8.0379H6.4707C6.4707 7.39232 6.61603 6.83477 6.90668 6.36526C7.19733 5.89574 7.60548 5.53434 8.13112 5.28105C8.65986 5.02467 9.27362 4.89648 9.97242 4.89648C10.6929 4.89648 11.319 5.01695 11.8508 5.25789C12.3827 5.49882 12.7939 5.83551 13.0845 6.26796C13.3783 6.69731 13.5252 7.19617 13.5252 7.76453C13.5252 8.12593 13.4525 8.48424 13.3072 8.83947C13.1618 9.19469 12.9006 9.58698 12.5233 10.0163C12.1492 10.4457 11.6174 10.96 10.9279 11.5592L9.79154 12.6064V12.6666H13.6411V14.5153H6.60984Z" fill="white"/>
</mask>
<g mask="url(#mask0_9634_2305)">
<path d="M6.60984 14.5153V12.8658L10.0745 9.83564C10.3342 9.60088 10.5553 9.3862 10.7377 9.1916C10.9201 8.99391 11.0593 8.79622 11.1551 8.59853C11.251 8.39775 11.2989 8.17999 11.2989 7.94523C11.2989 7.68267 11.2417 7.45873 11.1273 7.27339C11.0129 7.08497 10.8552 6.93979 10.6542 6.83786C10.4532 6.73592 10.2229 6.68496 9.96314 6.68496C9.70032 6.68496 9.46997 6.73901 9.27208 6.84713C9.07419 6.95215 8.91959 7.10505 8.80827 7.30583C8.70005 7.50661 8.64594 7.75063 8.64594 8.0379H6.4707C6.4707 7.39232 6.61603 6.83477 6.90668 6.36526C7.19733 5.89574 7.60548 5.53434 8.13112 5.28105C8.65986 5.02467 9.27362 4.89648 9.97242 4.89648C10.6929 4.89648 11.319 5.01695 11.8508 5.25789C12.3827 5.49882 12.7939 5.83551 13.0845 6.26796C13.3783 6.69731 13.5252 7.19617 13.5252 7.76453C13.5252 8.12593 13.4525 8.48424 13.3072 8.83947C13.1618 9.19469 12.9006 9.58698 12.5233 10.0163C12.1492 10.4457 11.6174 10.96 10.9279 11.5592L9.79154 12.6064V12.6666H13.6411V14.5153H6.60984Z" fill="white"/>
<rect x="10.1436" y="9.61865" width="2.79821" height="0.174888" fill="#D9D9D9"/>
<rect x="8.91895" y="10.3179" width="4.02242" height="0.174888" fill="#D9D9D9"/>
<rect x="7.69531" y="11.1924" width="5.24664" height="0.174888" fill="#D9D9D9"/>
<rect x="6.2959" y="12.0669" width="7.69507" height="0.174888" fill="#D9D9D9"/>
<rect x="6.2959" y="12.7666" width="8.39462" height="0.174888" fill="#D9D9D9"/>
<rect x="6.2959" y="13.6411" width="8.39462" height="0.174888" fill="#D9D9D9"/>
<rect x="7.69531" y="11.3672" width="5.24664" height="0.174888" fill="#D9D9D9"/>
<rect x="6.2959" y="12.2417" width="7.69507" height="0.174888" fill="#D9D9D9"/>
<rect x="6.2959" y="12.9414" width="8.39462" height="0.174888" fill="#D9D9D9"/>
<rect x="6.2959" y="13.8159" width="8.39462" height="0.174888" fill="#D9D9D9"/>
</g>
<path d="M23.4355 7.8787C23.4355 6.37121 24.6888 5.24658 26.3598 5.24658C27.9448 5.24658 29.1919 6.29345 29.1919 7.61549C29.1919 8.5786 28.7434 9.29645 27.2629 10.786L25.0205 13.0412V13.0652H29.3393V14.0223H23.4908V13.2805L26.6117 10.0801C27.8035 8.85976 28.0861 8.39914 28.0861 7.68129C28.0861 6.84978 27.3059 6.18577 26.3291 6.18577C25.2908 6.18577 24.5045 6.91558 24.5045 7.8787V7.88468H23.4355V7.8787Z" fill="#363636"/>
<path d="M32.8705 14.0223H31.7647V5.39015H37.496V6.35925H32.8705V9.32636H36.7961V10.2835H32.8705V14.0223Z" fill="#363636"/>
<path d="M43.9097 14.0223L43.0189 11.5517H39.4926L38.6018 14.0223H37.4407L40.709 5.39015H41.8025L45.0708 14.0223H43.9097ZM41.2373 6.70023L39.8182 10.6364H42.6933L41.2742 6.70023H41.2373Z" fill="#363636"/>
<path d="M50.0126 14.1659C47.5675 14.1659 46.0194 12.437 46.0194 9.70323C46.0194 6.99335 47.5859 5.24658 50.0126 5.24658C51.9416 5.24658 53.4098 6.38916 53.6924 8.112H52.5743C52.2918 6.98139 51.2781 6.23961 50.0126 6.23961C48.2801 6.23961 47.1559 7.60352 47.1559 9.70323C47.1559 11.8209 48.2678 13.1728 50.0187 13.1728C51.3211 13.1728 52.2549 12.5627 52.5743 11.5098H53.6924C53.287 13.2147 51.9723 14.1659 50.0126 14.1659Z" fill="#363636"/>
<path d="M58.094 14.0223H56.9882V6.35925H54.1929V5.39015H60.8892V6.35925H58.094V14.0223Z" fill="#363636"/>
<path d="M65.7695 5.24658C68.2821 5.24658 69.8549 6.96942 69.8549 9.70921C69.8549 12.449 68.2821 14.1659 65.7695 14.1659C63.2569 14.1659 61.6842 12.449 61.6842 9.70921C61.6842 6.96942 63.2569 5.24658 65.7695 5.24658ZM65.7695 6.23961C63.9572 6.23961 62.8207 7.57959 62.8207 9.70921C62.8207 11.8329 63.9572 13.1728 65.7695 13.1728C67.5818 13.1728 68.7183 11.8329 68.7183 9.70921C68.7183 7.57959 67.5818 6.23961 65.7695 6.23961Z" fill="#363636"/>
<path d="M72.5117 6.34728V9.65538H74.6311C75.7676 9.65538 76.4127 9.05717 76.4127 7.99834C76.4127 6.96344 75.7246 6.34728 74.582 6.34728H72.5117ZM72.5117 10.6065V14.0223H71.4059V5.39015H74.7294C76.4373 5.39015 77.5554 6.40711 77.5554 7.96245C77.5554 9.16484 76.8857 10.098 75.7738 10.439L77.8257 14.0223H76.5294L74.6311 10.6065H72.5117Z" fill="#363636"/>
<defs>
<linearGradient id="paint0_linear_9634_2305" x1="9.96861" y1="0" x2="9.96861" y2="19.5" gradientUnits="userSpaceOnUse">
<stop stop-color="#EF393D"/>
<stop offset="1" stop-color="#CD1518"/>
</linearGradient>
</defs>
</svg>
