<svg width="0" height="0" fill="none" style="visibility: hidden; position: absolute;" aria-hidden="true">
    <symbol id="amazing" viewBox="0 0 50 50" fill="none" xmlns="http://www.w3.org/2000/svg">
        <path d="M17.2697 28.6781C17.1866 28.5376 17.0754 28.4143 16.9426 28.3153C16.8097 28.2162 16.6577 28.1435 16.4955 28.1011C16.3332 28.0588 16.1639 28.0477 15.9971 28.0685C15.8304 28.0894 15.6696 28.1417 15.524 28.2225C15.3784 28.3033 15.2508 28.411 15.1487 28.5394C15.0466 28.6678 14.9719 28.8143 14.9289 28.9706C14.8859 29.1268 14.8755 29.2897 14.8983 29.4498C14.9211 29.6099 14.9766 29.7642 15.0616 29.9036C16.0685 31.5809 17.5172 32.9737 19.262 33.9418C21.0068 34.9099 22.986 35.4192 25.0006 35.4183C27.0151 35.4187 28.9942 34.9092 30.7389 33.9412C32.4836 32.9731 33.9324 31.5806 34.9396 29.9036C35.0246 29.7642 35.0802 29.6099 35.1029 29.4498C35.1257 29.2897 35.1153 29.1268 35.0723 28.9706C35.0294 28.8143 34.9547 28.6678 34.8525 28.5394C34.7504 28.411 34.6229 28.3033 34.4773 28.2225C34.3316 28.1417 34.1709 28.0894 34.0041 28.0685C33.8374 28.0477 33.668 28.0588 33.5058 28.1011C33.3435 28.1435 33.1916 28.2162 33.0587 28.3153C32.9258 28.4143 32.8146 28.5376 32.7315 28.6781C31.9485 29.9828 30.8216 31.0663 29.4644 31.8192C28.1072 32.5722 26.5676 32.9682 25.0006 32.9673C23.4336 32.9682 21.894 32.5722 20.5368 31.8192C19.1796 31.0663 18.0528 29.9828 17.2697 28.6781ZM22.4509 17.3203V17.0359C22.4509 16.3859 22.1822 15.7625 21.704 15.3028C21.2259 14.8432 20.5773 14.585 19.9011 14.585H12.9657C12.5781 14.585 12.1957 14.6699 11.8474 14.8333C11.4991 14.9968 11.1941 15.2344 10.9556 15.5281C10.7172 15.8218 10.5516 16.1639 10.4713 16.5284C10.391 16.8929 10.3983 17.2701 10.4924 17.6315L11.2854 20.6756C11.5612 21.7361 12.1978 22.6776 13.094 23.3504C13.9903 24.0232 15.0948 24.3887 16.232 24.3889H17.3513C18.633 24.3892 19.8677 23.9256 20.8098 23.0904C21.752 22.2551 22.3324 21.1095 22.4356 19.8815C23.2608 19.6099 24.1284 19.4764 25.0006 19.4869C26.0027 19.4869 26.8874 19.6438 27.5657 19.8815C27.6689 21.1095 28.2493 22.2551 29.1914 23.0904C30.1335 23.9256 31.3683 24.3892 32.6499 24.3889H33.7667C34.9039 24.3887 36.0084 24.0232 36.9046 23.3504C37.8009 22.6776 38.4375 21.7361 38.7133 20.6756L39.5063 17.6315C39.6004 17.2703 39.6077 16.8933 39.5275 16.529C39.4474 16.1647 39.282 15.8227 39.0438 15.529C38.8057 15.2354 38.501 14.9977 38.1531 14.8341C37.8051 14.6706 37.4229 14.5853 37.0355 14.585H30.1002C29.4239 14.585 28.7754 14.8432 28.2972 15.3028C27.819 15.7625 27.5504 16.3859 27.5504 17.0359V17.3203C26.7153 17.128 25.8593 17.0326 25.0006 17.0359C24.1082 17.0359 23.2413 17.134 22.4509 17.3203Z" fill="var(--primary-color)"/>
        <path d="M45.8337 25.0003C45.8337 30.5257 43.6387 35.8247 39.7317 39.7317C35.8247 43.6387 30.5257 45.8337 25.0003 45.8337C19.475 45.8337 14.1759 43.6387 10.2689 39.7317C6.36193 35.8247 4.16699 30.5257 4.16699 25.0003C4.16699 19.475 6.36193 14.1759 10.2689 10.2689C14.1759 6.36193 19.475 4.16699 25.0003 4.16699C30.5257 4.16699 35.8247 6.36193 39.7317 10.2689C43.6387 14.1759 45.8337 19.475 45.8337 25.0003ZM43.2295 25.0003C43.2295 20.1657 41.3089 15.529 37.8903 12.1104C34.4717 8.69173 29.835 6.77116 25.0003 6.77116C20.1656 6.77116 15.529 8.69173 12.1104 12.1104C8.69173 15.529 6.77116 20.1657 6.77116 25.0003C6.77116 29.835 8.69173 34.4717 12.1104 37.8903C15.529 41.3089 20.1656 43.2295 25.0003 43.2295C29.835 43.2295 34.4717 41.3089 37.8903 37.8903C41.3089 34.4717 43.2295 29.835 43.2295 25.0003Z" fill="var(--primary-color)"/>
    </symbol>
    <symbol id="bad" viewBox="0 0 42 42" fill="none" xmlns="http://www.w3.org/2000/svg">
        <path d="M21.001 38.499C11.3357 38.499 3.50098 30.6643 3.50098 20.999C3.50098 11.3338 11.3357 3.49902 21.001 3.49902C30.6662 3.49902 38.501 11.3338 38.501 20.999C38.501 30.6643 30.6662 38.499 21.001 38.499Z" stroke="var(--primary-color)" stroke-width="2.16522" stroke-linecap="round" stroke-linejoin="round"/>
        <path d="M28.002 26.25C28.002 26.25 23.7356 26.25 21.002 26.25C18.2683 26.25 14.002 26.25 14.002 26.25" stroke="var(--primary-color)" stroke-width="2.16522" stroke-linecap="round" stroke-linejoin="round"/>
        <path d="M27.127 15.749C26.8949 15.749 26.6723 15.6568 26.5082 15.4927C26.3441 15.3286 26.252 15.1061 26.252 14.874C26.252 14.642 26.3441 14.4194 26.5082 14.2553C26.6723 14.0912 26.8949 13.999 27.127 13.999C27.359 13.999 27.5816 14.0912 27.7457 14.2553C27.9098 14.4194 28.002 14.642 28.002 14.874C28.002 15.1061 27.9098 15.3286 27.7457 15.4927C27.5816 15.6568 27.359 15.749 27.127 15.749ZM14.877 15.749C14.6449 15.749 14.4223 15.6568 14.2582 15.4927C14.0941 15.3286 14.002 15.1061 14.002 14.874C14.002 14.642 14.0941 14.4194 14.2582 14.2553C14.4223 14.0912 14.6449 13.999 14.877 13.999C15.109 13.999 15.3316 14.0912 15.4957 14.2553C15.6598 14.4194 15.752 14.642 15.752 14.874C15.752 15.1061 15.6598 15.3286 15.4957 15.4927C15.3316 15.6568 15.109 15.749 14.877 15.749Z" fill="var(--primary-color)" stroke="var(--primary-color)" stroke-width="2.16522" stroke-linecap="round" stroke-linejoin="round"/>
    </symbol>
    <symbol id="excellent" viewBox="0 0 42 42" fill="none" xmlns="http://www.w3.org/2000/svg">
        <path d="M21 38.499C11.3348 38.499 3.5 30.6643 3.5 20.999C3.5 11.3338 11.3348 3.49902 21 3.49902C30.6653 3.49902 38.5 11.3338 38.5 20.999C38.5 30.6643 30.6653 38.499 21 38.499Z" stroke="var(--primary-color)" stroke-width="2.16522" stroke-linecap="round" stroke-linejoin="round"/>
        <path d="M27.9614 25.1125C28.1608 25.0647 28.3695 25.0773 28.5619 25.1488C28.7543 25.2203 28.9219 25.3475 29.0443 25.5148C29.1666 25.6821 29.2382 25.8822 29.2502 26.0904C29.2623 26.2986 29.2143 26.5059 29.1122 26.6867C28.283 28.1504 27.0898 29.3658 25.6528 30.2106C24.2158 31.0554 22.5857 31.4998 20.9265 31.499C19.2673 31.4998 17.6372 31.0554 16.2002 30.2106C14.7632 29.3658 13.57 28.1504 12.7408 26.6867C12.6387 26.5059 12.5907 26.2986 12.6028 26.0904C12.6148 25.8822 12.6864 25.6821 12.8088 25.5148C12.9311 25.3475 13.0987 25.2203 13.2911 25.1488C13.4835 25.0773 13.6922 25.0647 13.8916 25.1125H13.9021L13.9378 25.1232L14.0785 25.1553L14.6077 25.2729C15.0592 25.3713 15.6892 25.5039 16.4073 25.6344C17.8626 25.8996 19.6035 26.152 20.9265 26.152C22.2495 26.152 23.9925 25.8996 25.4457 25.6344C26.2252 25.4915 27.0017 25.3318 27.7745 25.1553L27.9152 25.1232L27.9509 25.1146L27.9614 25.1104V25.1125ZM14.1877 13.4602C15.7899 10.4145 22.6296 13.2036 16.1868 20.8049C6.74534 17.3914 11.2519 11.6123 14.1877 13.4602ZM27.8123 13.4602C30.7481 11.6123 35.2547 17.3914 25.8132 20.8049C19.3725 13.2036 26.2122 10.4145 27.8123 13.4602Z" fill="var(--primary-color)"/>
    </symbol>
    <symbol id="good" viewBox="0 0 42 42" fill="none" xmlns="http://www.w3.org/2000/svg">
        <path d="M20.999 3.49902C30.6641 3.49902 38.499 11.334 38.499 20.999C38.499 30.6641 30.6641 38.499 20.999 38.499C11.334 38.499 3.49902 30.6641 3.49902 20.999C3.49902 11.334 11.334 3.49902 20.999 3.49902Z" stroke="var(--primary-color)" stroke-width="2.16522" stroke-linecap="round"/>
        <path d="M21.0005 30.7192C25.4339 30.7192 29.2061 27.4914 30.7228 22.9414H11.2783C12.795 27.4914 16.5672 30.7192 21.0005 30.7192Z" fill="var(--primary-color)"/>
        <path d="M15.1681 19.054C16.242 19.054 17.1125 17.7482 17.1125 16.1374C17.1125 14.5265 16.242 13.2207 15.1681 13.2207C14.0942 13.2207 13.2236 14.5265 13.2236 16.1374C13.2236 17.7482 14.0942 19.054 15.1681 19.054Z" fill="var(--primary-color)"/>
        <path d="M26.8341 19.054C27.908 19.054 28.7785 17.7482 28.7785 16.1374C28.7785 14.5265 27.908 13.2207 26.8341 13.2207C25.7602 13.2207 24.8896 14.5265 24.8896 16.1374C24.8896 17.7482 25.7602 19.054 26.8341 19.054Z" fill="var(--primary-color)"/>
    </symbol>
    <symbol id="okay" viewBox="0 0 42 42" fill="none" xmlns="http://www.w3.org/2000/svg">
        <path d="M21.001 38.499C11.3357 38.499 3.50098 30.6643 3.50098 20.999C3.50098 11.3338 11.3357 3.49902 21.001 3.49902C30.6662 3.49902 38.501 11.3338 38.501 20.999C38.501 30.6643 30.6662 38.499 21.001 38.499Z" stroke="var(--primary-color)" stroke-width="2.16522" stroke-linecap="round" stroke-linejoin="round"/>
        <path d="M28.876 25.374C28.876 25.374 26.251 28.874 21.001 28.874C15.751 28.874 13.126 25.374 13.126 25.374" stroke="var(--primary-color)" stroke-width="2.16522" stroke-linecap="round" stroke-linejoin="round"/>
        <path d="M27.127 15.75C26.8949 15.75 26.6723 15.6578 26.5082 15.4937C26.3441 15.3296 26.252 15.1071 26.252 14.875C26.252 14.6429 26.3441 14.4204 26.5082 14.2563C26.6723 14.0922 26.8949 14 27.127 14C27.359 14 27.5816 14.0922 27.7457 14.2563C27.9098 14.4204 28.002 14.6429 28.002 14.875C28.002 15.1071 27.9098 15.3296 27.7457 15.4937C27.5816 15.6578 27.359 15.75 27.127 15.75ZM14.877 15.75C14.6449 15.75 14.4223 15.6578 14.2582 15.4937C14.0941 15.3296 14.002 15.1071 14.002 14.875C14.002 14.6429 14.0941 14.4204 14.2582 14.2563C14.4223 14.0922 14.6449 14 14.877 14C15.109 14 15.3316 14.0922 15.4957 14.2563C15.6598 14.4204 15.752 14.6429 15.752 14.875C15.752 15.1071 15.6598 15.3296 15.4957 15.4937C15.3316 15.6578 15.109 15.75 14.877 15.75Z" fill="var(--primary-color)" stroke="var(--primary-color)" stroke-width="2.16522" stroke-linecap="round" stroke-linejoin="round"/>
    </symbol>
</svg>