<svg width="50" height="50" viewBox="0 0 50 50" fill="none" xmlns="http://www.w3.org/2000/svg">
<path d="M17.2697 28.6781C17.1866 28.5376 17.0754 28.4143 16.9426 28.3153C16.8097 28.2162 16.6577 28.1435 16.4955 28.1011C16.3332 28.0588 16.1639 28.0477 15.9971 28.0685C15.8304 28.0894 15.6696 28.1417 15.524 28.2225C15.3784 28.3033 15.2508 28.411 15.1487 28.5394C15.0466 28.6678 14.9719 28.8143 14.9289 28.9706C14.8859 29.1268 14.8755 29.2897 14.8983 29.4498C14.9211 29.6099 14.9766 29.7642 15.0616 29.9036C16.0685 31.5809 17.5172 32.9737 19.262 33.9418C21.0068 34.9099 22.986 35.4192 25.0006 35.4183C27.0151 35.4187 28.9942 34.9092 30.7389 33.9412C32.4836 32.9731 33.9324 31.5806 34.9396 29.9036C35.0246 29.7642 35.0802 29.6099 35.1029 29.4498C35.1257 29.2897 35.1153 29.1268 35.0723 28.9706C35.0294 28.8143 34.9547 28.6678 34.8525 28.5394C34.7504 28.411 34.6229 28.3033 34.4773 28.2225C34.3316 28.1417 34.1709 28.0894 34.0041 28.0685C33.8374 28.0477 33.668 28.0588 33.5058 28.1011C33.3435 28.1435 33.1916 28.2162 33.0587 28.3153C32.9258 28.4143 32.8146 28.5376 32.7315 28.6781C31.9485 29.9828 30.8216 31.0663 29.4644 31.8192C28.1072 32.5722 26.5676 32.9682 25.0006 32.9673C23.4336 32.9682 21.894 32.5722 20.5368 31.8192C19.1796 31.0663 18.0528 29.9828 17.2697 28.6781ZM22.4509 17.3203V17.0359C22.4509 16.3859 22.1822 15.7625 21.704 15.3028C21.2259 14.8432 20.5773 14.585 19.9011 14.585H12.9657C12.5781 14.585 12.1957 14.6699 11.8474 14.8333C11.4991 14.9968 11.1941 15.2344 10.9556 15.5281C10.7172 15.8218 10.5516 16.1639 10.4713 16.5284C10.391 16.8929 10.3983 17.2701 10.4924 17.6315L11.2854 20.6756C11.5612 21.7361 12.1978 22.6776 13.094 23.3504C13.9903 24.0232 15.0948 24.3887 16.232 24.3889H17.3513C18.633 24.3892 19.8677 23.9256 20.8098 23.0904C21.752 22.2551 22.3324 21.1095 22.4356 19.8815C23.2608 19.6099 24.1284 19.4764 25.0006 19.4869C26.0027 19.4869 26.8874 19.6438 27.5657 19.8815C27.6689 21.1095 28.2493 22.2551 29.1914 23.0904C30.1335 23.9256 31.3683 24.3892 32.6499 24.3889H33.7667C34.9039 24.3887 36.0084 24.0232 36.9046 23.3504C37.8009 22.6776 38.4375 21.7361 38.7133 20.6756L39.5063 17.6315C39.6004 17.2703 39.6077 16.8933 39.5275 16.529C39.4474 16.1647 39.282 15.8227 39.0438 15.529C38.8057 15.2354 38.501 14.9977 38.1531 14.8341C37.8051 14.6706 37.4229 14.5853 37.0355 14.585H30.1002C29.4239 14.585 28.7754 14.8432 28.2972 15.3028C27.819 15.7625 27.5504 16.3859 27.5504 17.0359V17.3203C26.7153 17.128 25.8593 17.0326 25.0006 17.0359C24.1082 17.0359 23.2413 17.134 22.4509 17.3203Z" fill="#808B97"/>
<path d="M45.8337 25.0003C45.8337 30.5257 43.6387 35.8247 39.7317 39.7317C35.8247 43.6387 30.5257 45.8337 25.0003 45.8337C19.475 45.8337 14.1759 43.6387 10.2689 39.7317C6.36193 35.8247 4.16699 30.5257 4.16699 25.0003C4.16699 19.475 6.36193 14.1759 10.2689 10.2689C14.1759 6.36193 19.475 4.16699 25.0003 4.16699C30.5257 4.16699 35.8247 6.36193 39.7317 10.2689C43.6387 14.1759 45.8337 19.475 45.8337 25.0003ZM43.2295 25.0003C43.2295 20.1657 41.3089 15.529 37.8903 12.1104C34.4717 8.69173 29.835 6.77116 25.0003 6.77116C20.1656 6.77116 15.529 8.69173 12.1104 12.1104C8.69173 15.529 6.77116 20.1657 6.77116 25.0003C6.77116 29.835 8.69173 34.4717 12.1104 37.8903C15.529 41.3089 20.1656 43.2295 25.0003 43.2295C29.835 43.2295 34.4717 41.3089 37.8903 37.8903C41.3089 34.4717 43.2295 29.835 43.2295 25.0003Z" fill="#808B97"/>
</svg>
