<svg width="42" height="42" viewBox="0 0 42 42" fill="none" xmlns="http://www.w3.org/2000/svg">
<path d="M21.001 38.499C11.3357 38.499 3.50098 30.6643 3.50098 20.999C3.50098 11.3338 11.3357 3.49902 21.001 3.49902C30.6662 3.49902 38.501 11.3338 38.501 20.999C38.501 30.6643 30.6662 38.499 21.001 38.499Z" stroke="#000000" stroke-width="2.16522" stroke-linecap="round" stroke-linejoin="round"/>
<path d="M28.002 26.25C28.002 26.25 23.7356 26.25 21.002 26.25C18.2683 26.25 14.002 26.25 14.002 26.25" stroke="#000000" stroke-width="2.16522" stroke-linecap="round" stroke-linejoin="round"/>
<path d="M27.127 15.749C26.8949 15.749 26.6723 15.6568 26.5082 15.4927C26.3441 15.3286 26.252 15.1061 26.252 14.874C26.252 14.642 26.3441 14.4194 26.5082 14.2553C26.6723 14.0912 26.8949 13.999 27.127 13.999C27.359 13.999 27.5816 14.0912 27.7457 14.2553C27.9098 14.4194 28.002 14.642 28.002 14.874C28.002 15.1061 27.9098 15.3286 27.7457 15.4927C27.5816 15.6568 27.359 15.749 27.127 15.749ZM14.877 15.749C14.6449 15.749 14.4223 15.6568 14.2582 15.4927C14.0941 15.3286 14.002 15.1061 14.002 14.874C14.002 14.642 14.0941 14.4194 14.2582 14.2553C14.4223 14.0912 14.6449 13.999 14.877 13.999C15.109 13.999 15.3316 14.0912 15.4957 14.2553C15.6598 14.4194 15.752 14.642 15.752 14.874C15.752 15.1061 15.6598 15.3286 15.4957 15.4927C15.3316 15.6568 15.109 15.749 14.877 15.749Z" fill="#000000" stroke="#000000" stroke-width="2.16522" stroke-linecap="round" stroke-linejoin="round"/>
</svg>
