<svg width="20" height="24" viewBox="0 0 20 24" fill="none" xmlns="http://www.w3.org/2000/svg">
<path fill-rule="evenodd" clip-rule="evenodd" d="M3.25 3.6001C2.65326 3.6001 2.08097 3.8951 1.65901 4.4202C1.23705 4.9453 1 5.65749 1 6.4001V12.0001C1 12.7427 1.23705 13.4549 1.65901 13.98C2.08097 14.5051 2.65326 14.8001 3.25 14.8001V6.4001H14.5C14.5 5.65749 14.2629 4.9453 13.841 4.4202C13.419 3.8951 12.8467 3.6001 12.25 3.6001H3.25ZM5.5 12.0001C5.5 11.2575 5.73705 10.5453 6.15901 10.0202C6.58097 9.4951 7.15326 9.2001 7.75 9.2001H16.75C17.3467 9.2001 17.919 9.4951 18.341 10.0202C18.7629 10.5453 19 11.2575 19 12.0001V17.6001C19 18.3427 18.7629 19.0549 18.341 19.58C17.919 20.1051 17.3467 20.4001 16.75 20.4001H7.75C7.15326 20.4001 6.58097 20.1051 6.15901 19.58C5.73705 19.0549 5.5 18.3427 5.5 17.6001V12.0001ZM12.25 17.6001C12.8467 17.6001 13.419 17.3051 13.841 16.78C14.2629 16.2549 14.5 15.5427 14.5 14.8001C14.5 14.0575 14.2629 13.3453 13.841 12.8202C13.419 12.2951 12.8467 12.0001 12.25 12.0001C11.6533 12.0001 11.081 12.2951 10.659 12.8202C10.2371 13.3453 10 14.0575 10 14.8001C10 15.5427 10.2371 16.2549 10.659 16.78C11.081 17.3051 11.6533 17.6001 12.25 17.6001Z" fill="#00162E"/>
</svg>
