<svg width="17" height="17" viewBox="0 0 17 17" fill="none" xmlns="http://www.w3.org/2000/svg">
<path fill-rule="evenodd" clip-rule="evenodd" d="M6.7304 1.37373C6.95316 1.12494 7.22589 0.92593 7.53077 0.789681C7.83565 0.653431 8.16584 0.583008 8.49978 0.583008C8.83372 0.583008 9.16391 0.653431 9.46879 0.789681C9.77367 0.92593 10.0464 1.12494 10.2692 1.37373L10.8233 1.99281C10.9025 2.08141 11.0006 2.15103 11.1104 2.19653C11.2202 2.24203 11.3388 2.26224 11.4574 2.25565L12.2887 2.20973C12.622 2.19142 12.9555 2.24359 13.2673 2.36284C13.5791 2.48208 13.8623 2.66572 14.0983 2.90178C14.3344 3.13783 14.518 3.421 14.6373 3.73281C14.7565 4.04462 14.8087 4.37807 14.7904 4.7114L14.7444 5.54265C14.738 5.66116 14.7582 5.77962 14.8037 5.88925C14.8492 5.99887 14.9188 6.09687 15.0073 6.17598L15.6272 6.73015C15.8761 6.95291 16.0752 7.22568 16.2115 7.53064C16.3479 7.83559 16.4183 8.16588 16.4183 8.49992C16.4183 8.83396 16.3479 9.16424 16.2115 9.4692C16.0752 9.77416 15.8761 10.0469 15.6272 10.2697L15.0073 10.8239C14.9187 10.9031 14.8491 11.0012 14.8036 11.1109C14.7581 11.2207 14.7379 11.3393 14.7444 11.458L14.7904 12.2892C14.8087 12.6226 14.7565 12.956 14.6373 13.2678C14.518 13.5796 14.3344 13.8628 14.0983 14.0988C13.8623 14.3349 13.5791 14.5185 13.2673 14.6378C12.9555 14.757 12.622 14.8092 12.2887 14.7909L11.4574 14.745C11.3389 14.7385 11.2205 14.7588 11.1108 14.8043C11.0012 14.8498 10.9032 14.9193 10.8241 15.0078L10.2699 15.6277C10.0472 15.8766 9.77441 16.0757 9.46946 16.2121C9.1645 16.3484 8.83422 16.4189 8.50017 16.4189C8.16613 16.4189 7.83585 16.3484 7.53089 16.2121C7.22594 16.0757 6.95317 15.8766 6.7304 15.6277L6.17624 15.0078C6.09704 14.9192 5.99892 14.8496 5.88914 14.8041C5.77937 14.7586 5.66076 14.7384 5.54211 14.745L4.71086 14.7909C4.37753 14.8092 4.04409 14.757 3.73228 14.6378C3.42047 14.5185 3.1373 14.3349 2.90124 14.0988C2.66519 13.8628 2.48155 13.5796 2.3623 13.2678C2.24306 12.956 2.19089 12.6226 2.2092 12.2892L2.25511 11.458C2.26158 11.3395 2.24132 11.221 2.19582 11.1114C2.15033 11.0018 2.08076 10.9038 1.99228 10.8246L1.3732 10.2705C1.12428 10.0477 0.925154 9.77495 0.788825 9.46999C0.652497 9.16504 0.582031 8.83475 0.582031 8.50071C0.582031 8.16667 0.652497 7.83638 0.788825 7.53143C0.925154 7.22647 1.12428 6.9537 1.3732 6.73094L1.99228 6.17677C2.08087 6.09758 2.1505 5.99945 2.196 5.88968C2.2415 5.7799 2.2617 5.66129 2.25511 5.54265L2.2092 4.7114C2.19089 4.37807 2.24306 4.04462 2.3623 3.73281C2.48155 3.421 2.66519 3.13783 2.90124 2.90178C3.1373 2.66572 3.42047 2.48208 3.73228 2.36284C4.04409 2.24359 4.37753 2.19142 4.71086 2.20973L5.54211 2.25565C5.66063 2.26212 5.77908 2.24185 5.88871 2.19636C5.99834 2.15086 6.09633 2.0813 6.17545 1.99281L6.72961 1.37373H6.7304ZM11.4345 5.56561C11.5829 5.71406 11.6663 5.91539 11.6663 6.12531C11.6663 6.33524 11.5829 6.53656 11.4345 6.68502L6.68449 11.435C6.53518 11.5792 6.3352 11.659 6.12763 11.6572C5.92006 11.6554 5.7215 11.5722 5.57471 11.4254C5.42793 11.2786 5.34467 11.08 5.34287 10.8725C5.34107 10.6649 5.42086 10.4649 5.56507 10.3156L10.3151 5.56561C10.4635 5.41719 10.6649 5.33382 10.8748 5.33382C11.0847 5.33382 11.286 5.41719 11.4345 5.56561ZM6.52061 5.33365C6.20567 5.33365 5.90362 5.45876 5.68092 5.68146C5.45822 5.90416 5.33311 6.2062 5.33311 6.52115V6.52906C5.33311 6.84401 5.45822 7.14605 5.68092 7.36875C5.90362 7.59145 6.20567 7.71656 6.52061 7.71656H6.52853C6.84347 7.71656 7.14552 7.59145 7.36822 7.36875C7.59092 7.14605 7.71603 6.84401 7.71603 6.52906V6.52115C7.71603 6.2062 7.59092 5.90416 7.36822 5.68146C7.14552 5.45876 6.84347 5.33365 6.52853 5.33365H6.52061ZM10.4789 9.29198C10.164 9.29198 9.86196 9.41709 9.63926 9.63979C9.41656 9.86249 9.29145 10.1645 9.29145 10.4795V10.4874C9.29145 10.8023 9.41656 11.1044 9.63926 11.3271C9.86196 11.5498 10.164 11.6749 10.4789 11.6749H10.4869C10.8018 11.6749 11.1039 11.5498 11.3266 11.3271C11.5493 11.1044 11.6744 10.8023 11.6744 10.4874V10.4795C11.6744 10.1645 11.5493 9.86249 11.3266 9.63979C11.1039 9.41709 10.8018 9.29198 10.4869 9.29198H10.4789Z" fill="#27AF4D"/>
</svg>
