<svg width="42" height="42" viewBox="0 0 42 42" fill="none" xmlns="http://www.w3.org/2000/svg">
<path d="M21 38.499C11.3348 38.499 3.5 30.6643 3.5 20.999C3.5 11.3338 11.3348 3.49902 21 3.49902C30.6653 3.49902 38.5 11.3338 38.5 20.999C38.5 30.6643 30.6653 38.499 21 38.499Z" stroke="#5465FF" stroke-width="2.16522" stroke-linecap="round" stroke-linejoin="round"/>
<path d="M27.9614 25.1125C28.1608 25.0647 28.3695 25.0773 28.5619 25.1488C28.7543 25.2203 28.9219 25.3475 29.0443 25.5148C29.1666 25.6821 29.2382 25.8822 29.2502 26.0904C29.2623 26.2986 29.2143 26.5059 29.1122 26.6867C28.283 28.1504 27.0898 29.3658 25.6528 30.2106C24.2158 31.0554 22.5857 31.4998 20.9265 31.499C19.2673 31.4998 17.6372 31.0554 16.2002 30.2106C14.7632 29.3658 13.57 28.1504 12.7408 26.6867C12.6387 26.5059 12.5907 26.2986 12.6028 26.0904C12.6148 25.8822 12.6864 25.6821 12.8088 25.5148C12.9311 25.3475 13.0987 25.2203 13.2911 25.1488C13.4835 25.0773 13.6922 25.0647 13.8916 25.1125H13.9021L13.9378 25.1232L14.0785 25.1553L14.6077 25.2729C15.0592 25.3713 15.6892 25.5039 16.4073 25.6344C17.8626 25.8996 19.6035 26.152 20.9265 26.152C22.2495 26.152 23.9925 25.8996 25.4457 25.6344C26.2252 25.4915 27.0017 25.3318 27.7745 25.1553L27.9152 25.1232L27.9509 25.1146L27.9614 25.1104V25.1125ZM14.1877 13.4602C15.7899 10.4145 22.6296 13.2036 16.1868 20.8049C6.74534 17.3914 11.2519 11.6123 14.1877 13.4602ZM27.8123 13.4602C30.7481 11.6123 35.2547 17.3914 25.8132 20.8049C19.3725 13.2036 26.2122 10.4145 27.8123 13.4602Z" fill="#5465FF"/>
</svg>
