<svg width="42" height="42" viewBox="0 0 42 42" fill="none" xmlns="http://www.w3.org/2000/svg">
<path d="M20.999 3.49902C30.6641 3.49902 38.499 11.334 38.499 20.999C38.499 30.6641 30.6641 38.499 20.999 38.499C11.334 38.499 3.49902 30.6641 3.49902 20.999C3.49902 11.334 11.334 3.49902 20.999 3.49902Z" stroke="#5465FF" stroke-width="2.16522" stroke-linecap="round"/>
<path d="M21.0005 30.7192C25.4339 30.7192 29.2061 27.4914 30.7228 22.9414H11.2783C12.795 27.4914 16.5672 30.7192 21.0005 30.7192Z" fill="#5465FF"/>
<path d="M15.1681 19.054C16.242 19.054 17.1125 17.7482 17.1125 16.1374C17.1125 14.5265 16.242 13.2207 15.1681 13.2207C14.0942 13.2207 13.2236 14.5265 13.2236 16.1374C13.2236 17.7482 14.0942 19.054 15.1681 19.054Z" fill="#5465FF"/>
<path d="M26.8341 19.054C27.908 19.054 28.7785 17.7482 28.7785 16.1374C28.7785 14.5265 27.908 13.2207 26.8341 13.2207C25.7602 13.2207 24.8896 14.5265 24.8896 16.1374C24.8896 17.7482 25.7602 19.054 26.8341 19.054Z" fill="#5465FF"/>
</svg>
