<svg width="20" height="20" viewBox="0 0 20 20" fill="none" xmlns="http://www.w3.org/2000/svg">
<path d="M14.6094 1.53223C12.9457 1.53223 11.4873 2.27406 10.3918 3.67758C10.2524 3.85649 10.1216 4.04197 10 4.2334C9.87838 4.04197 9.74764 3.85648 9.60824 3.67758C8.51273 2.27406 7.0543 1.53223 5.39062 1.53223C2.24781 1.53223 0 4.16375 0 7.32145C0 10.9321 2.95926 14.335 9.59519 18.355C9.71961 18.4304 9.85981 18.4681 10 18.4681C10.1402 18.4681 10.2804 18.4304 10.4048 18.3551C17.0407 14.335 20 10.9321 20 7.32148C20 4.16543 17.754 1.53223 14.6094 1.53223ZM16.3733 11.8173C14.9918 13.3588 12.9041 14.982 10 16.7714C7.0959 14.982 5.0082 13.3588 3.62668 11.8174C2.2377 10.2675 1.5625 8.79691 1.5625 7.32148C1.5625 5.04789 3.09898 3.09473 5.39062 3.09473C6.55766 3.09473 7.55273 3.60215 8.34824 4.60293C8.98434 5.40328 9.25234 6.22973 9.25422 6.23563C9.30381 6.39464 9.40292 6.53364 9.5371 6.63234C9.67127 6.73104 9.83347 6.78427 10 6.78427C10.1666 6.78427 10.3288 6.73104 10.463 6.63234C10.5972 6.53364 10.6963 6.39464 10.7459 6.23563C10.7483 6.22774 11.0083 5.42707 11.6235 4.63895C12.4233 3.61426 13.4279 3.09469 14.6094 3.09469C16.9034 3.09469 18.4375 5.04973 18.4375 7.32145C18.4375 8.79688 17.7623 10.2675 16.3733 11.8173Z" fill="#DC2430"/>
</svg>
