<svg width="20" height="20" viewBox="0 0 20 20" fill="none" xmlns="http://www.w3.org/2000/svg">
<path d="M14.6094 1.53223C12.9457 1.53223 11.4873 2.27406 10.3918 3.67758C10.2524 3.85649 10.1216 4.04197 10 4.2334C9.87838 4.04197 9.74764 3.85648 9.60824 3.67758C8.51273 2.27406 7.0543 1.53223 5.39062 1.53223C2.24781 1.53223 0 4.16375 0 7.32145C0 10.9321 2.95926 14.335 9.59519 18.355C9.71961 18.4304 9.85981 18.4681 10 18.4681C10.1402 18.4681 10.2804 18.4304 10.4048 18.3551C17.0407 14.335 20 10.9321 20 7.32148C20 4.16543 17.754 1.53223 14.6094 1.53223Z" fill="#DC2430"/>
</svg>
