<svg width="89" height="48" viewBox="0 0 89 48" fill="none" xmlns="http://www.w3.org/2000/svg">
<ellipse cx="9.17682" cy="43.7646" rx="7.76471" ry="4.23529" fill="#5465FF"/>
<path d="M15.1765 43.7646C15.1765 44.7444 14.4435 45.7092 13.0862 46.4496C11.7422 47.1826 9.86145 47.6469 7.76471 47.6469C5.66796 47.6469 3.78719 47.1826 2.44324 46.4496C1.08593 45.7092 0.352941 44.7444 0.352941 43.7646C0.352941 42.7848 1.08593 41.82 2.44324 41.0796C3.78719 40.3466 5.66796 39.8822 7.76471 39.8822C9.86145 39.8822 11.7422 40.3466 13.0862 41.0796C14.4435 41.82 15.1765 42.7848 15.1765 43.7646Z" fill="white" stroke="#5465FF" stroke-width="0.705882"/>
<ellipse cx="47.9998" cy="21.8818" rx="40.9412" ry="16.2353" fill="#5465FF"/>
<mask id="path-4-inside-1_443_11920" fill="white">
<path fill-rule="evenodd" clip-rule="evenodd" d="M12.1851 10.1613C10.5004 9.20909 9.55021 8.13068 9.55021 6.98823C9.55021 3.12874 20.3941 0 33.7708 0C42.4055 0 49.9848 1.30367 54.2734 3.26603C56.9768 1.28139 61.2527 0 66.0649 0C74.2395 0 80.8664 3.6976 80.8664 8.25882C80.8664 9.37348 80.4706 10.4366 79.7532 11.4067C83.8641 13.9797 86.2487 17.0419 86.2487 20.3283C86.2487 29.4508 67.8743 36.846 45.2083 36.846C36.8316 36.846 29.041 35.8359 22.5475 34.1019C11.9925 33.3478 4.16785 30.5967 4.16785 27.3182C4.16785 26.5485 4.59919 25.8078 5.39594 25.1152C3.74941 23.4853 2.82227 21.6439 2.82227 19.6947C2.82227 15.8189 6.48764 12.3698 12.1851 10.1613Z"/>
</mask>
<path fill-rule="evenodd" clip-rule="evenodd" d="M12.1851 10.1613C10.5004 9.20909 9.55021 8.13068 9.55021 6.98823C9.55021 3.12874 20.3941 0 33.7708 0C42.4055 0 49.9848 1.30367 54.2734 3.26603C56.9768 1.28139 61.2527 0 66.0649 0C74.2395 0 80.8664 3.6976 80.8664 8.25882C80.8664 9.37348 80.4706 10.4366 79.7532 11.4067C83.8641 13.9797 86.2487 17.0419 86.2487 20.3283C86.2487 29.4508 67.8743 36.846 45.2083 36.846C36.8316 36.846 29.041 35.8359 22.5475 34.1019C11.9925 33.3478 4.16785 30.5967 4.16785 27.3182C4.16785 26.5485 4.59919 25.8078 5.39594 25.1152C3.74941 23.4853 2.82227 21.6439 2.82227 19.6947C2.82227 15.8189 6.48764 12.3698 12.1851 10.1613Z" fill="white"/>
<path d="M12.1851 10.1613L12.6953 11.4776L15.4762 10.3997L12.8797 8.93223L12.1851 10.1613ZM54.2734 3.26603L53.686 4.54978L54.4403 4.89491L55.1089 4.40404L54.2734 3.26603ZM79.7532 11.4067L78.6181 10.5673L77.7111 11.794L79.0042 12.6034L79.7532 11.4067ZM22.5475 34.1019L22.9117 32.7379L22.782 32.7033L22.6481 32.6937L22.5475 34.1019ZM5.39594 25.1152L6.32213 26.1807L7.47056 25.1824L6.38912 24.1119L5.39594 25.1152ZM8.13844 6.98823C8.13844 8.95814 9.73622 10.3989 11.4905 11.3903L12.8797 8.93223C11.2645 8.01932 10.962 7.30321 10.962 6.98823H8.13844ZM33.7708 -1.41176C26.9886 -1.41176 20.7956 -0.620299 16.2529 0.690373C13.991 1.34297 12.0579 2.1469 10.658 3.10184C9.3047 4.02501 8.13844 5.31337 8.13844 6.98823H10.962C10.962 6.73335 11.1512 6.18331 12.2491 5.43436C13.3005 4.71718 14.9144 4.01526 17.0356 3.40324C21.2591 2.18467 27.1763 1.41176 33.7708 1.41176V-1.41176ZM54.8609 1.98227C50.306 -0.101892 42.4931 -1.41176 33.7708 -1.41176V1.41176C42.3178 1.41176 49.6636 2.70923 53.686 4.54978L54.8609 1.98227ZM55.1089 4.40404C57.5089 2.64212 61.4673 1.41176 66.0649 1.41176V-1.41176C61.038 -1.41176 56.4447 -0.0793365 53.438 2.12801L55.1089 4.40404ZM66.0649 1.41176C69.9575 1.41176 73.4119 2.29515 75.8432 3.65179C78.3212 5.03441 79.4546 6.72059 79.4546 8.25882H82.2782C82.2782 5.23583 80.0982 2.79261 77.219 1.18612C74.2933 -0.446351 70.3469 -1.41176 66.0649 -1.41176V1.41176ZM79.4546 8.25882C79.4546 9.02232 79.1873 9.79758 78.6181 10.5673L80.8884 12.2461C81.7539 11.0755 82.2782 9.72464 82.2782 8.25882H79.4546ZM87.6605 20.3283C87.6605 16.3062 84.7568 12.873 80.5023 10.21L79.0042 12.6034C82.9714 15.0865 84.837 17.7777 84.837 20.3283H87.6605ZM45.2083 38.2577C56.6758 38.2577 67.1229 36.3896 74.7554 33.3177C78.5678 31.7833 81.7474 29.9208 83.9968 27.7805C86.2494 25.6369 87.6605 23.1189 87.6605 20.3283H84.837C84.837 22.0989 83.9512 23.9262 82.0504 25.735C80.1462 27.5469 77.3156 29.2437 73.7012 30.6984C66.4799 33.6047 56.4068 35.4342 45.2083 35.4342V38.2577ZM22.1833 35.4659C28.8095 37.2353 36.7239 38.2577 45.2083 38.2577V35.4342C36.9393 35.4342 29.2725 34.4365 22.9117 32.7379L22.1833 35.4659ZM2.75609 27.3182C2.75609 28.7439 3.60904 29.892 4.66459 30.7505C5.73376 31.62 7.20427 32.3602 8.91681 32.9834C12.3561 34.2348 17.0907 35.1274 22.4469 35.5101L22.6481 32.6937C17.4493 32.3223 12.994 31.4623 9.88227 30.33C8.31928 29.7613 7.17394 29.1519 6.44615 28.5599C5.70475 27.957 5.57962 27.5317 5.57962 27.3182H2.75609ZM4.46975 24.0497C3.51077 24.8833 2.75609 25.9793 2.75609 27.3182H5.57962C5.57962 27.1176 5.68762 26.7322 6.32213 26.1807L4.46975 24.0497ZM1.4105 19.6947C1.4105 22.1238 2.57162 24.3059 4.40275 26.1185L6.38912 24.1119C4.92721 22.6647 4.23403 21.1641 4.23403 19.6947H1.4105ZM11.6748 8.84494C8.70448 9.99635 6.17721 11.5025 4.37062 13.3027C2.55808 15.1089 1.4105 17.2799 1.4105 19.6947H4.23403C4.23403 18.2336 4.91913 16.7422 6.36365 15.3028C7.8141 13.8574 9.96825 12.5347 12.6953 11.4776L11.6748 8.84494Z" fill="#5465FF" mask="url(#path-4-inside-1_443_11920)"/>
<path d="M40.7651 10.7794C40.8891 10.8483 40.9719 10.938 41.0132 11.0483C41.0546 11.1585 41.0821 11.2964 41.0959 11.4619C41.0959 11.5997 41.0925 11.6997 41.0856 11.7617C41.0787 11.8513 41.089 11.9513 41.1166 12.0616C41.0684 12.1581 41.0132 12.2374 40.9512 12.2994C40.8891 12.3614 40.8409 12.4545 40.8064 12.5786C40.6754 12.8888 40.5272 13.1576 40.3618 13.3851C40.1826 13.6264 40.0137 13.8814 39.8551 14.1503C39.7035 14.2881 39.5828 14.457 39.4932 14.6569C39.4036 14.8568 39.3174 15.0671 39.2347 15.2877C38.959 15.7426 38.6936 16.2045 38.4385 16.6733C38.1835 17.142 37.9388 17.6176 37.7044 18.1002L38.2938 18.2243C38.4937 18.2656 38.6764 18.3277 38.8418 18.4104C38.9107 18.5138 38.9624 18.5724 38.9969 18.5862C39.0314 18.6 39.0348 18.6241 39.0072 18.6585C39.0624 19.0653 38.9659 19.2031 38.7177 19.0722C38.6212 19.1066 38.5454 19.1066 38.4902 19.0722C38.2696 19.1273 38.0628 19.1687 37.8698 19.1962C37.6768 19.2238 37.4562 19.2514 37.2081 19.279L36.9599 19.796C36.9185 19.8787 36.8772 19.9648 36.8358 20.0545C36.7945 20.1372 36.7531 20.2233 36.7117 20.313C36.2981 21.0437 35.9225 21.7778 35.5847 22.5154C35.2469 23.253 34.9332 24.0147 34.6437 24.8006C34.6162 24.9246 34.5886 25.0418 34.561 25.1521C34.5334 25.2624 34.4921 25.3658 34.4369 25.4623C34.4094 25.6278 34.368 25.7725 34.3128 25.8966C34.2784 25.9724 34.2577 26.0379 34.2508 26.0931C34.2439 26.1482 34.2232 26.2137 34.1888 26.2895C34.1474 26.3998 34.0888 26.4825 34.013 26.5377C33.9372 26.5928 33.8786 26.6687 33.8372 26.7652C33.7545 26.6824 33.689 26.679 33.6407 26.7548C33.5925 26.8307 33.5546 26.903 33.527 26.972C33.3753 26.9995 33.2685 26.9651 33.2065 26.8686C33.1444 26.7721 33.1134 26.6687 33.1134 26.5584C33.0582 26.4825 32.9928 26.4515 32.9169 26.4653C32.848 26.4722 32.7756 26.4412 32.6998 26.3722C32.5895 25.9724 32.4861 25.6484 32.3896 25.4003C32.2931 25.1521 32.1897 24.9177 32.0794 24.6972C32.0656 24.642 32.0518 24.5903 32.038 24.542C32.0242 24.4938 32.0105 24.4455 31.9967 24.3973C31.9829 24.349 31.9691 24.3042 31.9553 24.2629C31.9415 24.2146 31.9277 24.1664 31.9139 24.1181L31.8209 23.9113C31.8071 23.8768 31.7899 23.8424 31.7692 23.8079C31.7554 23.7734 31.7416 23.739 31.7278 23.7045C31.7003 23.67 31.6865 23.6287 31.6865 23.5804C31.6865 23.5322 31.6727 23.4908 31.6451 23.4563C31.6106 23.3805 31.5727 23.3047 31.5314 23.2289C31.49 23.153 31.4452 23.0772 31.3969 23.0014L31.1281 22.5671C31.0316 22.4499 30.9627 22.3465 30.9213 22.2569C30.8868 22.1742 30.8386 22.1121 30.7765 22.0708C30.6938 21.9053 30.6525 21.8054 30.6525 21.7709C30.6525 21.7364 30.6387 21.7054 30.6111 21.6778L30.4043 21.4297C30.3629 21.3814 30.3147 21.3401 30.2595 21.3056C30.1975 21.2711 30.1217 21.2367 30.0321 21.2022C29.9424 21.1677 29.8666 21.1333 29.8046 21.0988L29.5874 21.0057C29.553 20.992 29.5116 20.9782 29.4634 20.9644C29.422 20.9437 29.3772 20.9265 29.3289 20.9127C29.2048 21.1677 29.1014 21.4297 29.0187 21.6985C28.936 21.9743 28.8119 22.2224 28.6465 22.443C28.5707 22.6222 28.4776 22.8118 28.3673 23.0117C28.257 23.2116 28.1639 23.4012 28.0881 23.5804C28.0261 23.6562 27.9778 23.7631 27.9434 23.901C27.9158 24.0113 27.8744 24.125 27.8193 24.2422C27.7986 24.2835 27.7745 24.3249 27.7469 24.3663C27.7262 24.4076 27.7021 24.449 27.6745 24.4903L27.5091 24.7385C27.3436 25.0005 27.1541 25.2142 26.9404 25.3796C26.8301 25.4692 26.7198 25.5657 26.6095 25.6691C26.5061 25.7656 26.4061 25.869 26.3096 25.9793C26.0201 26.2137 25.7857 26.2757 25.6065 26.1654C25.5582 26.1103 25.5203 26.1068 25.4928 26.1551C25.4721 26.1896 25.4411 26.2275 25.3997 26.2688C25.3032 26.2688 25.2377 26.2516 25.2032 26.2171L25.0688 26.0827C25.1033 25.9449 25.1481 25.8346 25.2032 25.7518C25.2791 25.6415 25.3377 25.5381 25.379 25.4416C25.4548 25.4072 25.4962 25.352 25.5031 25.2762C25.51 25.2004 25.5445 25.1383 25.6065 25.0901C25.6892 24.704 25.8271 24.3869 26.0201 24.1388C26.0339 24.1043 26.0477 24.0699 26.0615 24.0354C26.0753 23.994 26.089 23.9561 26.1028 23.9216C26.1166 23.8872 26.1304 23.8493 26.1442 23.8079C26.1649 23.7665 26.1855 23.7252 26.2062 23.6838C26.2476 23.608 26.2993 23.546 26.3613 23.4977C26.4165 23.4494 26.4613 23.3874 26.4957 23.3116C26.544 23.1599 26.5923 23.0255 26.6405 22.9083C26.6888 22.7911 26.737 22.6877 26.7853 22.5981L27.0748 22.0708C27.1713 21.7812 27.2816 21.509 27.4057 21.2539C27.5298 20.9989 27.6607 20.7403 27.7986 20.4784C27.7297 20.4508 27.6952 20.3853 27.6952 20.2819C27.6952 20.1785 27.6607 20.1062 27.5918 20.0648C27.5573 19.7546 27.4539 19.534 27.2816 19.403C27.3505 19.3134 27.385 19.2238 27.385 19.1342C27.447 19.0722 27.5435 19.017 27.6745 18.9687C27.7021 18.955 27.7262 18.9412 27.7469 18.9274C27.7745 18.9136 27.7986 18.9033 27.8193 18.8964C27.8744 18.8688 27.9296 18.8516 27.9847 18.8447L28.3053 18.8136C28.3604 18.8068 28.4121 18.7999 28.4604 18.793C28.5155 18.7861 28.5707 18.7757 28.6258 18.7619C28.6741 18.6861 28.7154 18.6103 28.7499 18.5345C28.7912 18.4517 28.8257 18.369 28.8533 18.2863C28.9084 18.1209 28.9912 17.9761 29.1014 17.852C29.1152 17.8107 29.1359 17.7693 29.1635 17.7279C29.1911 17.6935 29.198 17.6521 29.1842 17.6039C29.2876 17.4867 29.3841 17.335 29.4737 17.1489C29.5564 16.9766 29.6529 16.818 29.7632 16.6733C29.8597 16.4458 29.9735 16.2424 30.1044 16.0632C30.2216 15.8977 30.3423 15.6875 30.4663 15.4324C30.5904 15.2808 30.6973 15.0809 30.7869 14.8327C30.8765 14.5846 30.9558 14.3571 31.0247 14.1503C31.0523 14.0882 31.0661 14.0296 31.0661 13.9745C31.0661 13.9193 31.0798 13.8676 31.1074 13.8194C31.135 13.7574 31.1764 13.6815 31.2315 13.5919C31.2591 13.5506 31.2832 13.5092 31.3039 13.4678C31.3315 13.4265 31.3556 13.3851 31.3763 13.3437C31.4314 13.2472 31.4797 13.1576 31.521 13.0749C31.5624 12.9922 31.5969 12.8957 31.6244 12.7854C31.5831 12.7027 31.5176 12.6854 31.428 12.7337C31.3797 12.7613 31.3315 12.7888 31.2832 12.8164C31.2349 12.8371 31.1832 12.8612 31.1281 12.8888C30.942 12.9853 30.749 13.1025 30.5491 13.2403C30.2457 13.392 29.9597 13.554 29.6908 13.7263C29.4289 13.8987 29.1842 14.0813 28.9567 14.2744C28.8946 14.2812 28.8257 14.3019 28.7499 14.3364C28.681 14.364 28.5982 14.3847 28.5017 14.3984L28.3466 14.2744C28.3397 14.2606 28.3294 14.2399 28.3156 14.2123C28.357 14.171 28.4259 14.1296 28.5224 14.0882C28.6189 14.0469 28.6672 13.9917 28.6672 13.9228C28.6534 13.6608 28.7258 13.4575 28.8843 13.3127C29.0429 13.168 29.198 13.0267 29.3496 12.8888C29.453 12.8267 29.5495 12.7716 29.6391 12.7233C29.7287 12.6682 29.8115 12.6234 29.8873 12.5889C30.0458 12.5131 30.1906 12.42 30.3216 12.3097C30.4112 12.2753 30.4974 12.2408 30.5801 12.2063C30.6697 12.165 30.7593 12.1202 30.8489 12.0719C30.9385 12.0237 31.0247 11.9789 31.1074 11.9375C31.197 11.8961 31.2867 11.8548 31.3763 11.8134C31.4383 11.7858 31.5038 11.7445 31.5727 11.6893C31.6072 11.6618 31.6382 11.6342 31.6658 11.6066C31.7003 11.579 31.7347 11.5515 31.7692 11.5239C31.9346 11.4136 32.1104 11.3033 32.2965 11.193C32.4827 11.0827 32.6722 10.9724 32.8652 10.8621C32.9686 10.8346 33.0272 10.8139 33.041 10.8001C33.0686 10.7725 33.0858 10.7587 33.0927 10.7587C33.3064 10.6898 33.4787 10.614 33.6097 10.5312C33.6649 10.5106 33.72 10.4899 33.7752 10.4692C33.8303 10.4416 33.882 10.4141 33.9303 10.3865C34.0337 10.3313 34.1474 10.3107 34.2715 10.3244C34.3818 10.3244 34.4852 10.3727 34.5817 10.4692C34.6782 10.5657 34.6713 10.6622 34.561 10.7587C34.6713 10.869 34.7264 11.0207 34.7264 11.2137C34.7264 11.4274 34.7402 11.6204 34.7678 11.7927C34.7678 11.841 34.7747 11.9065 34.7885 11.9892C34.8023 12.0512 34.8023 12.1098 34.7885 12.165C34.7816 12.2132 34.7575 12.2787 34.7161 12.3614C34.6816 12.4304 34.6644 12.489 34.6644 12.5372C34.6162 12.6062 34.5748 12.6785 34.5403 12.7544C34.5128 12.8233 34.4714 12.8957 34.4162 12.9715C34.3818 13.1025 34.3335 13.199 34.2715 13.261C34.2026 13.33 34.1474 13.4058 34.106 13.4885C34.0026 13.5643 33.9061 13.654 33.8165 13.7574C33.7614 13.7574 33.7304 13.7815 33.7235 13.8297C33.7166 13.878 33.6993 13.9159 33.6718 13.9435C33.396 14.0124 33.1651 14.1675 32.979 14.4088C32.7929 14.65 32.6102 14.9017 32.431 15.1636C32.2104 15.3084 32.0173 15.4738 31.8519 15.6599C31.8243 15.6944 31.7968 15.7323 31.7692 15.7737C31.7485 15.8081 31.7313 15.8495 31.7175 15.8977C31.7037 15.946 31.683 15.9908 31.6554 16.0322C31.6348 16.0735 31.6106 16.1149 31.5831 16.1562C31.5279 16.2459 31.4693 16.3424 31.4073 16.4458C31.3521 16.5423 31.2935 16.6491 31.2315 16.7663C31.1695 16.8766 31.1074 16.9869 31.0454 17.0972C30.9902 17.2006 30.9351 17.3006 30.8799 17.3971C30.8455 17.4867 30.811 17.5625 30.7765 17.6245C30.7421 17.6797 30.7076 17.7624 30.6731 17.8727L30.5077 18.1829C30.4663 18.2518 30.4319 18.3415 30.4043 18.4517C30.6387 18.4517 30.873 18.438 31.1074 18.4104C31.3418 18.3828 31.5762 18.3552 31.8105 18.3277C32.1621 18.3552 32.4964 18.3173 32.8135 18.2139C33.1375 18.1036 33.4581 18.045 33.7752 18.0381C33.8303 18.0037 33.8786 17.9933 33.9199 18.0071C33.9475 18.014 33.9957 18.0106 34.0647 17.9968C34.368 17.983 34.6747 17.9727 34.9849 17.9658C35.2952 17.9589 35.6157 17.9692 35.9466 17.9968C36.0017 17.9692 36.0465 17.9278 36.081 17.8727C36.1155 17.8176 36.1465 17.7624 36.1741 17.7073C36.2085 17.6245 36.2464 17.5625 36.2878 17.5211C36.3154 17.4936 36.3361 17.466 36.3498 17.4384C36.3705 17.4108 36.3878 17.3833 36.4015 17.3557C36.4429 17.2454 36.4843 17.1696 36.5256 17.1282C36.567 17.0869 36.6014 17.0317 36.629 16.9628C36.7186 16.7835 36.7703 16.6836 36.7841 16.6629C36.7979 16.6491 36.8082 16.6319 36.8151 16.6112C36.8289 16.5836 36.8427 16.5561 36.8565 16.5285L37.4562 15.5152C37.4838 15.4807 37.5079 15.4359 37.5286 15.3807C37.5562 15.3118 37.5803 15.2601 37.601 15.2256C37.6217 15.1912 37.6389 15.1291 37.6527 15.0395C37.6665 14.9637 37.7044 14.9017 37.7664 14.8534C37.794 14.7845 37.825 14.7155 37.8595 14.6466C37.894 14.5708 37.9284 14.4949 37.9629 14.4191L38.18 13.9642C38.2145 13.8952 38.249 13.8297 38.2834 13.7677C38.3179 13.6988 38.3524 13.6298 38.3868 13.5609L38.5936 13.1576C38.6074 13.1232 38.6212 13.0887 38.635 13.0542C38.6488 13.0198 38.6626 12.9887 38.6764 12.9612C38.6901 12.9267 38.7039 12.8957 38.7177 12.8681C38.7315 12.8336 38.7453 12.7992 38.7591 12.7647C38.8625 12.6199 38.9521 12.4683 39.0279 12.3097C39.0831 12.227 39.1382 12.1443 39.1934 12.0616C39.2485 11.9789 39.3037 11.8892 39.3588 11.7927C39.3933 11.7031 39.4277 11.6204 39.4622 11.5446C39.5036 11.4619 39.5449 11.386 39.5863 11.3171L39.669 11.162C39.7035 11.1 39.7242 11.062 39.731 11.0483C39.7586 11.0138 39.7655 10.969 39.7517 10.9138C39.7448 10.8656 39.7448 10.8208 39.7517 10.7794L39.8551 10.645C39.8827 10.6105 39.9172 10.5657 39.9585 10.5106C39.9999 10.4692 40.0344 10.4313 40.0619 10.3968C40.1033 10.3486 40.1584 10.3451 40.2274 10.3865C40.2963 10.3176 40.3928 10.2555 40.5169 10.2004C40.572 10.2073 40.6203 10.2314 40.6617 10.2727C40.6961 10.3003 40.7375 10.3313 40.7857 10.3658C40.8133 10.4347 40.834 10.5106 40.8478 10.5933C40.8616 10.676 40.834 10.7381 40.7651 10.7794ZM34.623 19.4444C34.5679 19.4306 34.5231 19.4272 34.4886 19.4341C34.4542 19.4409 34.4094 19.4375 34.3542 19.4237C34.2577 19.4237 34.1612 19.403 34.0647 19.3617C33.7545 19.3479 33.4684 19.3617 33.2065 19.403C32.91 19.4444 32.6584 19.4513 32.4516 19.4237C32.2655 19.4513 32.0794 19.4789 31.8933 19.5064C31.7071 19.5271 31.5176 19.5443 31.3246 19.5581C30.9523 19.5857 30.5835 19.6374 30.2182 19.7132C30.0458 19.7477 29.8942 19.7891 29.7632 19.8373C29.7356 19.8856 29.715 19.9373 29.7012 19.9924C29.6943 20.0338 29.6736 20.0924 29.6391 20.1682C29.7356 20.2785 29.839 20.3853 29.9493 20.4887C30.0596 20.5852 30.1768 20.6783 30.3009 20.7679C30.4801 20.9885 30.6628 21.1953 30.8489 21.3883C31.035 21.5813 31.2246 21.7744 31.4176 21.9674C31.5279 22.0363 31.6037 22.1397 31.6451 22.2776C31.7209 22.3465 31.7864 22.4292 31.8416 22.5257C31.8691 22.574 31.8967 22.6222 31.9243 22.6705C31.9519 22.7187 31.9829 22.767 32.0173 22.8153C32.1552 22.829 32.2448 22.8842 32.2862 22.9807C32.3344 23.091 32.3896 23.1806 32.4516 23.2495C32.5068 23.3392 32.5654 23.4288 32.6274 23.5184C32.6963 23.608 32.7653 23.6976 32.8342 23.7872C32.979 23.9596 33.0927 24.1457 33.1754 24.3456C33.2237 24.3801 33.2513 24.4111 33.2582 24.4386C33.2651 24.4662 33.2926 24.4972 33.3409 24.5317L33.7028 23.3323C33.7579 23.1599 33.8165 22.991 33.8786 22.8256C33.9406 22.6533 34.0095 22.4844 34.0854 22.3189C34.0992 22.2224 34.1371 22.1259 34.1991 22.0294C34.2611 21.9398 34.2853 21.8364 34.2715 21.7192C34.3473 21.54 34.4231 21.3642 34.499 21.1919C34.5817 21.0126 34.6644 20.8369 34.7471 20.6645C34.8298 20.4922 34.9091 20.3164 34.9849 20.1372C35.0677 19.958 35.1469 19.7753 35.2228 19.5892C35.1194 19.5823 35.0194 19.5616 34.9229 19.5271C34.8747 19.5133 34.8264 19.4995 34.7781 19.4858C34.7299 19.472 34.6782 19.4582 34.623 19.4444ZM48.9544 20.0234C49.0233 20.0303 49.0681 20.0579 49.0888 20.1062C49.1095 20.1475 49.1474 20.1682 49.2026 20.1682C49.2301 20.2992 49.2026 20.3922 49.1198 20.4474C49.0371 20.4956 49.0095 20.5749 49.0371 20.6852C48.913 20.7679 48.7614 20.8196 48.5821 20.8403C48.396 20.861 48.2582 20.9334 48.1685 21.0574C47.9273 21.1746 47.6757 21.247 47.4137 21.2746C47.2827 21.2884 47.1449 21.3091 47.0001 21.3366C46.8622 21.3573 46.7209 21.3814 46.5762 21.409C46.4245 21.5124 46.3315 21.5676 46.297 21.5744C46.2487 21.5813 46.197 21.602 46.1419 21.6365C45.9971 21.5813 45.8524 21.5538 45.7076 21.5538C45.5628 21.5538 45.4112 21.5331 45.2526 21.4917C45.1768 21.5193 45.0975 21.5331 45.0148 21.5331C44.9321 21.5331 44.8528 21.5469 44.777 21.5744C44.7219 21.6985 44.6943 21.8226 44.6943 21.9467C44.6943 22.0777 44.6736 22.2017 44.6322 22.3189L44.5082 22.5671L44.4771 22.7636C44.4634 22.8463 44.4461 22.9118 44.4254 22.96C44.3979 23.0014 44.3668 23.0496 44.3324 23.1048C44.2979 23.1599 44.2807 23.222 44.2807 23.2909C44.1842 23.415 44.1152 23.5425 44.0739 23.6735C44.0325 23.8251 43.9567 23.9458 43.8464 24.0354C43.805 24.1801 43.7395 24.2904 43.6499 24.3663C43.5603 24.449 43.4742 24.5455 43.3914 24.6558C43.2398 24.8626 43.1054 25.0418 42.9882 25.1935C42.871 25.3451 42.7159 25.4761 42.5229 25.5864C42.4539 25.6967 42.3712 25.7725 42.2747 25.8139C42.2058 25.8828 42.1506 25.9517 42.1093 26.0207L41.6957 26.2688C41.5302 26.3722 41.3717 26.4412 41.22 26.4756C40.9856 26.5308 40.7582 26.5239 40.5376 26.455C40.317 26.386 40.1102 26.2895 39.9172 26.1654C39.7862 26.1792 39.6862 26.1551 39.6173 26.0931C39.5484 26.0379 39.4553 25.9931 39.3381 25.9586C39.1865 25.8208 39.021 25.6967 38.8418 25.5864C38.6557 25.4692 38.5247 25.3176 38.4489 25.1314L38.3558 24.6765C38.3282 24.5386 38.2972 24.4007 38.2628 24.2629C38.2352 24.1457 38.2317 24.0147 38.2524 23.8699C38.2731 23.7459 38.2765 23.608 38.2628 23.4563C38.2628 23.3805 38.2628 23.3116 38.2628 23.2495C38.2628 23.1806 38.2593 23.122 38.2524 23.0738C38.2455 22.9704 38.2765 22.8428 38.3455 22.6912C38.3868 22.6016 38.4213 22.5188 38.4489 22.443C38.4764 22.3672 38.4971 22.3017 38.5109 22.2466C38.5247 22.1914 38.5385 22.1397 38.5523 22.0915C38.5661 22.0363 38.5798 21.9881 38.5936 21.9467C38.6143 21.9122 38.635 21.8778 38.6557 21.8433C38.6764 21.8019 38.697 21.7606 38.7177 21.7192C38.7384 21.6778 38.7591 21.6399 38.7798 21.6055C38.8073 21.5641 38.8349 21.5262 38.8625 21.4917C38.9452 21.3676 39.0417 21.2436 39.152 21.1195C39.2623 20.9954 39.3726 20.8782 39.4829 20.7679C39.5587 20.6645 39.6345 20.5749 39.7104 20.4991C39.8344 20.375 39.9516 20.2716 40.0619 20.1889C40.1722 20.1062 40.2963 19.9959 40.4342 19.858C40.4617 19.8166 40.4962 19.7822 40.5376 19.7546L40.6617 19.6719C40.7995 19.5892 40.927 19.5202 41.0442 19.4651C41.1614 19.4099 41.2958 19.3479 41.4475 19.279C41.5785 19.2169 41.6853 19.179 41.768 19.1652C41.8232 19.1514 41.8783 19.1411 41.9335 19.1342C41.9955 19.1204 42.061 19.1066 42.1299 19.0928H42.3781C42.4539 19.0928 42.5229 19.079 42.5849 19.0515C42.5435 18.9412 42.5918 18.8653 42.7297 18.824C42.8675 18.7826 42.9709 18.7688 43.0399 18.7826C43.1777 18.7826 43.288 18.8136 43.3707 18.8757C43.4535 18.9377 43.5293 19.0101 43.5982 19.0928C43.7361 19.1893 43.8878 19.3341 44.0532 19.5271C44.0877 19.5616 44.1221 19.5823 44.1566 19.5892C44.1911 19.596 44.2255 19.6167 44.26 19.6512C44.3151 19.7339 44.3531 19.8097 44.3737 19.8787C44.3944 19.9614 44.4392 20.0372 44.5082 20.1062C44.5495 20.1337 44.5909 20.1682 44.6322 20.2096C44.6736 20.2509 44.7012 20.3061 44.715 20.375C44.8597 20.4301 44.9907 20.4715 45.1079 20.4991C45.1699 20.5267 45.2423 20.5335 45.325 20.5198C45.4009 20.506 45.487 20.506 45.5835 20.5198C45.6456 20.5267 45.7076 20.5439 45.7696 20.5715C45.8248 20.5921 45.8868 20.6025 45.9558 20.6025C46.0592 20.5956 46.1729 20.568 46.297 20.5198C46.4142 20.4784 46.5486 20.4715 46.7003 20.4991C46.9071 20.5473 47.1242 20.5267 47.3517 20.437C47.5792 20.3405 47.8101 20.2785 48.0445 20.2509C48.1134 20.2509 48.1617 20.2475 48.1892 20.2406C48.2168 20.2337 48.2651 20.2302 48.334 20.2302C48.4029 20.1751 48.4925 20.1337 48.6028 20.1062C48.7131 20.0786 48.8303 20.051 48.9544 20.0234ZM43.0399 20.6438C42.902 20.5198 42.8227 20.4405 42.802 20.406C42.7745 20.3647 42.7503 20.3405 42.7297 20.3336C42.6676 20.2716 42.5987 20.2371 42.5229 20.2302C42.4815 20.2233 42.4401 20.2165 42.3988 20.2096C42.3643 20.2027 42.3298 20.1958 42.2954 20.1889C42.0748 20.1475 41.8921 20.1716 41.7474 20.2613C41.6784 20.3095 41.606 20.3543 41.5302 20.3957C41.4613 20.437 41.3923 20.4784 41.3234 20.5198C41.1028 20.6576 40.9098 20.83 40.7444 21.0368C40.703 21.1057 40.6582 21.1815 40.61 21.2642C40.5617 21.347 40.5238 21.4366 40.4962 21.5331C40.4411 21.6434 40.3928 21.7433 40.3514 21.833C40.3101 21.9226 40.2756 22.0294 40.248 22.1535C40.1791 22.2845 40.1378 22.3982 40.124 22.4947C40.1171 22.543 40.1102 22.5878 40.1033 22.6291C40.0964 22.6636 40.0895 22.6981 40.0826 22.7325C40.0757 22.8015 40.0654 22.8739 40.0516 22.9497C40.0378 23.0186 40.024 23.091 40.0102 23.1668C39.9758 23.3392 39.9585 23.4701 39.9585 23.5597C39.9723 23.6011 39.993 23.6562 40.0206 23.7252C40.0481 23.7941 40.0757 23.8424 40.1033 23.8699C40.1309 23.9389 40.1619 24.0147 40.1963 24.0974C40.2308 24.1801 40.2618 24.2422 40.2894 24.2835C40.3652 24.3801 40.4548 24.4421 40.5582 24.4697C40.6134 24.4835 40.672 24.5007 40.734 24.5214C40.7961 24.5352 40.8616 24.5524 40.9305 24.5731C41.0821 24.6558 41.1855 24.6903 41.2407 24.6765C41.3096 24.6627 41.351 24.6558 41.3648 24.6558C41.5509 24.6213 41.7094 24.5455 41.8404 24.4283C41.9576 24.318 42.0955 24.2215 42.254 24.1388C42.3092 24.0561 42.3643 23.9699 42.4195 23.8803C42.4815 23.7907 42.547 23.7011 42.6159 23.6114C42.6849 23.5149 42.7469 23.4219 42.802 23.3323C42.8641 23.2358 42.9227 23.1392 42.9778 23.0427C43.0123 23.0014 43.0468 22.9393 43.0812 22.8566C43.095 22.8222 43.1088 22.7911 43.1226 22.7636C43.1364 22.7291 43.1502 22.6981 43.1639 22.6705C43.2605 22.5533 43.3053 22.4913 43.2984 22.4844C43.2915 22.4775 43.2949 22.4568 43.3087 22.4223C43.3983 22.2155 43.4397 22.057 43.4328 21.9467C43.4259 21.8364 43.4259 21.7261 43.4328 21.6158C43.3983 21.54 43.3673 21.4607 43.3397 21.378C43.3122 21.2953 43.2846 21.2091 43.257 21.1195C43.2019 20.9334 43.1295 20.7748 43.0399 20.6438ZM53.2145 21.1195C53.3524 21.154 53.4523 21.2022 53.5144 21.2642C53.5626 21.3125 53.5867 21.3676 53.5867 21.4297C53.4764 21.5813 53.411 21.6813 53.3903 21.7295C53.3696 21.7778 53.3248 21.8157 53.2559 21.8433C53.1662 21.9812 53.0697 22.1121 52.9663 22.2362C52.8698 22.3534 52.763 22.4671 52.6458 22.5774C52.4321 22.7842 52.2219 23.0221 52.0151 23.2909C51.9254 23.3805 51.8634 23.4494 51.8289 23.4977C51.7945 23.546 51.7324 23.6149 51.6428 23.7045C51.4774 23.8217 51.3395 23.9423 51.2292 24.0664C51.1672 24.1353 51.1017 24.2008 51.0327 24.2629C50.9707 24.318 50.9052 24.3732 50.8363 24.4283C50.8018 24.4559 50.7673 24.4835 50.7329 24.511C50.7053 24.5317 50.6743 24.5558 50.6398 24.5834C50.6122 24.611 50.5812 24.6386 50.5468 24.6661C50.5123 24.6937 50.4778 24.7247 50.4434 24.7592C50.3882 24.8143 50.3262 24.8695 50.2572 24.9246C50.2297 24.9453 50.1986 24.9694 50.1642 24.997C50.1366 25.0177 50.1056 25.0418 50.0711 25.0694C49.9884 25.1659 49.9057 25.2624 49.823 25.3589C49.7402 25.4554 49.6575 25.5588 49.5748 25.6691C49.43 25.7381 49.2922 25.8208 49.1612 25.9173C49.0371 26.0069 48.8923 26.0896 48.7269 26.1654C48.658 26.2068 48.5925 26.2723 48.5304 26.3619C48.4753 26.4446 48.396 26.5032 48.2926 26.5377C48.1823 26.579 48.0651 26.5894 47.9411 26.5687C47.817 26.548 47.7136 26.517 47.6309 26.4756C47.5412 26.4136 47.4861 26.3791 47.4654 26.3722C47.4103 26.3585 47.3758 26.3516 47.362 26.3516C47.231 26.1654 47.1414 25.969 47.0932 25.7622C47.0656 25.6519 47.0346 25.5416 47.0001 25.4313C46.9725 25.321 46.9415 25.2073 46.9071 25.0901C46.8795 25.0211 46.8588 24.9488 46.845 24.8729C46.8312 24.7971 46.8174 24.7109 46.8037 24.6144L46.7726 24.449C46.7657 24.4214 46.7588 24.3938 46.752 24.3663C46.7451 24.3318 46.7347 24.2973 46.7209 24.2629C46.6934 24.1939 46.6658 24.1216 46.6382 24.0457C46.6106 23.9699 46.59 23.8906 46.5762 23.8079C46.5486 23.6425 46.5383 23.4805 46.5452 23.3219C46.552 23.1634 46.5693 23.0083 46.5969 22.8566C46.6796 22.4017 46.8002 21.9674 46.9588 21.5538C47.1173 21.1402 47.2793 20.7472 47.4447 20.375C47.4792 20.2027 47.5171 20.0717 47.5585 19.9821C47.5998 19.8925 47.6446 19.7684 47.6929 19.6098C47.7549 19.534 47.8032 19.4237 47.8377 19.279C47.8514 19.2169 47.8652 19.1549 47.879 19.0928C47.8997 19.0308 47.9204 18.9687 47.9411 18.9067C47.9617 18.8516 47.9859 18.7964 48.0134 18.7413C48.041 18.6792 48.0686 18.6137 48.0962 18.5448C48.1513 18.4207 48.1961 18.2932 48.2306 18.1622C48.2788 18.0037 48.3168 17.8658 48.3443 17.7486C48.3581 17.6797 48.3753 17.6142 48.396 17.5522C48.4236 17.4901 48.4512 17.4315 48.4787 17.3764C48.5339 17.2316 48.5856 17.0903 48.6338 16.9524C48.689 16.8146 48.7407 16.6801 48.7889 16.5492C48.8372 16.4182 48.8855 16.2872 48.9337 16.1562C48.9889 16.0253 49.044 15.8943 49.0992 15.7633C49.1129 15.722 49.1267 15.6806 49.1405 15.6392C49.1543 15.5979 49.1681 15.5565 49.1819 15.5152C49.2094 15.4393 49.2508 15.3635 49.306 15.2877C49.3404 15.1912 49.3749 15.1188 49.4094 15.0705C49.4645 14.9878 49.5059 14.9223 49.5334 14.8741C49.5334 14.7983 49.5576 14.7466 49.6058 14.719C49.6403 14.6983 49.6782 14.6535 49.7196 14.5846C49.7954 14.4674 49.8471 14.3571 49.8747 14.2537C49.9022 14.1503 49.9539 14.04 50.0298 13.9228L50.2779 13.6126C50.2917 13.585 50.3055 13.5574 50.3193 13.5299C50.3331 13.5023 50.3469 13.4747 50.3606 13.4472C50.3951 13.392 50.4365 13.3437 50.4847 13.3024C50.6433 13.0542 50.8087 12.8061 50.981 12.5579L51.5394 11.7721C51.6635 11.579 51.8014 11.3964 51.953 11.224C52.1047 11.0517 52.2632 10.8828 52.4287 10.7174C52.4838 10.6484 52.5493 10.5726 52.6251 10.4899C52.7009 10.4072 52.7802 10.3589 52.8629 10.3451C52.9939 10.3313 53.1318 10.3451 53.2765 10.3865C53.3179 10.4554 53.3558 10.5278 53.3903 10.6036C53.4247 10.6795 53.4558 10.7656 53.4833 10.8621C53.5109 11.2895 53.4971 11.7031 53.442 12.1029C53.3868 12.5028 53.3248 12.8957 53.2559 13.2817C53.2421 13.3713 53.2386 13.4368 53.2455 13.4782C53.2524 13.5195 53.249 13.585 53.2352 13.6746C53.2076 13.7574 53.1731 13.8642 53.1318 13.9952C53.0904 14.1261 53.056 14.2468 53.0284 14.3571C53.0284 14.5432 52.987 14.7155 52.9043 14.8741C52.8216 15.0257 52.7664 15.1774 52.7389 15.329C52.6975 15.3566 52.6734 15.4014 52.6665 15.4635C52.6596 15.5255 52.6355 15.5703 52.5941 15.5979C52.5596 15.7564 52.5148 15.8943 52.4597 16.0115C52.3976 16.1356 52.3459 16.2597 52.3046 16.3837C52.2012 16.5285 52.0978 16.6698 51.9944 16.8077C51.891 16.9455 51.7841 17.0834 51.6738 17.2213C51.5635 17.3523 51.4567 17.4901 51.3533 17.6349C51.2568 17.7727 51.1603 17.9141 51.0638 18.0588C50.8225 18.4242 50.5709 18.7688 50.3089 19.0928C50.047 19.4168 49.7954 19.7615 49.5541 20.1268C49.3611 20.2992 49.2094 20.4715 49.0992 20.6438C48.982 20.83 48.8234 21.0023 48.6235 21.1608C48.589 21.2987 48.5546 21.4435 48.5201 21.5951C48.4925 21.7468 48.4615 21.9019 48.427 22.0604C48.3995 22.219 48.3685 22.381 48.334 22.5464C48.2995 22.7119 48.2651 22.8773 48.2306 23.0427C48.2237 23.1324 48.203 23.2254 48.1685 23.3219C48.1548 23.3702 48.141 23.4184 48.1272 23.4667C48.1134 23.508 48.0996 23.5528 48.0858 23.6011C48.0582 23.6976 48.0514 23.8148 48.0651 23.9527C48.072 24.0767 48.0514 24.1939 48.0031 24.3042C48.0238 24.3594 48.041 24.4386 48.0548 24.542C48.0617 24.6317 48.0858 24.7109 48.1272 24.7799C48.203 24.904 48.2857 24.966 48.3753 24.966C48.4787 24.9108 48.5339 24.8867 48.5408 24.8936C48.5477 24.9005 48.5684 24.8971 48.6028 24.8833C48.6718 24.8419 48.7407 24.7868 48.8096 24.7178C48.8786 24.6489 48.9406 24.5869 48.9957 24.5317C49.0716 24.4972 49.1233 24.4662 49.1509 24.4386C49.1715 24.418 49.2094 24.3869 49.2646 24.3456C49.306 24.318 49.3439 24.2973 49.3783 24.2835C49.4128 24.2698 49.4438 24.2491 49.4714 24.2215C49.6713 24.0147 49.8574 23.8596 50.0298 23.7562C50.209 23.6528 50.3537 23.5253 50.464 23.3736L50.8363 23.1461C50.9121 23.1048 50.9845 23.0462 51.0534 22.9704C51.1155 22.8945 51.1947 22.8359 51.2912 22.7946C51.3326 22.7394 51.3602 22.705 51.374 22.6912C51.3878 22.6774 51.4153 22.6429 51.4567 22.5878C51.5394 22.5326 51.6221 22.4775 51.7048 22.4223C51.7876 22.3672 51.8668 22.312 51.9427 22.2569C52.0185 22.2017 52.0978 22.1466 52.1805 22.0915C52.2701 22.0363 52.3597 21.9812 52.4493 21.926C52.4769 21.8571 52.5217 21.8019 52.5838 21.7606C52.6458 21.7192 52.6975 21.6778 52.7389 21.6365C52.7802 21.5951 52.8147 21.5503 52.8423 21.5021C52.8767 21.4469 52.925 21.4159 52.987 21.409C52.9939 21.347 53.0249 21.2987 53.0801 21.2642C53.1352 21.2298 53.18 21.1815 53.2145 21.1195ZM52.0978 13.4058H52.0771C51.953 13.4334 51.8668 13.4954 51.8186 13.5919C51.7703 13.6884 51.7255 13.7987 51.6842 13.9228C51.6566 13.9779 51.629 14.0262 51.6014 14.0676C51.5808 14.1089 51.5635 14.1434 51.5497 14.171C51.5222 14.2192 51.5118 14.3019 51.5187 14.4191C51.305 14.7707 51.1017 15.1326 50.9087 15.5048C50.7156 15.8702 50.5295 16.2459 50.3503 16.6319C50.178 17.0179 50.0022 17.4074 49.823 17.8003C49.6437 18.1864 49.4645 18.5758 49.2853 18.9687C49.5679 18.6861 49.8264 18.3552 50.0608 17.9761C50.178 17.7831 50.2986 17.6039 50.4227 17.4384C50.5537 17.273 50.6846 17.1213 50.8156 16.9835C50.9121 16.7491 51.0121 16.5216 51.1155 16.301C51.2258 16.0804 51.3395 15.8702 51.4567 15.6703C51.6842 15.2842 51.8634 14.8258 51.9944 14.295C51.9392 14.1227 51.9461 13.9745 52.0151 13.8504C52.084 13.7263 52.1116 13.5781 52.0978 13.4058ZM59.2117 24.2215C59.3083 24.2215 59.3772 24.2284 59.4185 24.2422C59.4599 24.256 59.4944 24.2629 59.5219 24.2629C59.6598 24.2629 59.8356 24.1664 60.0493 23.9733C60.2699 23.7734 60.4457 23.6218 60.5766 23.5184C60.8593 23.4563 61.0867 23.2771 61.2591 22.9807C61.4383 22.6774 61.6382 22.4154 61.8588 22.1949C62.1414 21.9122 62.3689 21.6606 62.5412 21.44C62.7205 21.2125 62.8721 21.0988 62.9962 21.0988C63.1065 21.0988 63.1858 21.1505 63.234 21.2539C63.2961 21.378 63.3409 21.4642 63.3685 21.5124C63.3409 21.54 63.3271 21.5813 63.3271 21.6365C63.3271 21.6985 63.3133 21.7468 63.2857 21.7812C63.2582 21.8226 63.2168 21.864 63.1617 21.9053C63.1065 21.9467 63.0583 21.9949 63.0169 22.0501L62.8101 22.2983C62.6309 22.4775 62.462 22.705 62.3034 22.9807C62.1449 23.2564 61.9863 23.5184 61.8278 23.7665C61.6761 24.0078 61.5141 24.1801 61.3418 24.2835C60.9764 24.5179 60.6835 24.7661 60.4629 25.028C60.2492 25.2831 60.0114 25.4899 59.7494 25.6484C59.7219 25.6484 59.7046 25.645 59.6977 25.6381C59.6908 25.6312 59.6805 25.6278 59.6667 25.6278C59.6047 25.6278 59.5599 25.6415 59.5323 25.6691C59.5047 25.6967 59.4668 25.7105 59.4185 25.7105C59.1635 25.614 58.9601 25.5071 58.8085 25.3899C58.6568 25.2659 58.4604 25.0005 58.2191 24.5937C58.1571 24.4903 58.1019 24.3766 58.0537 24.2525C58.0054 24.1147 57.9503 23.994 57.8882 23.8906L57.609 23.384C57.5332 23.2461 57.4953 23.0152 57.4953 22.6912C57.4953 22.5533 57.5091 22.3465 57.5367 22.0708C57.5642 21.795 57.5918 21.5744 57.6194 21.409C57.4057 21.6227 57.2092 21.8881 57.03 22.2052C56.9404 22.3568 56.8542 22.5051 56.7715 22.6498C56.6888 22.7946 56.606 22.9324 56.5233 23.0634C56.3027 23.4012 56.0649 23.7355 55.8099 24.0664C55.5617 24.3835 55.4342 24.6282 55.4273 24.8006C55.3446 24.8833 55.2549 25.0039 55.1584 25.1625C55.0619 25.321 54.9861 25.4589 54.931 25.5761C54.8827 25.6864 54.8827 25.7174 54.931 25.6691C54.7379 25.9862 54.4588 26.2102 54.0934 26.3412C53.7281 26.4722 53.3868 26.5377 53.0697 26.5377C53.0077 26.5308 52.9457 26.5239 52.8836 26.517C52.8216 26.5101 52.7595 26.5032 52.6975 26.4963C52.5803 26.4894 52.4631 26.4412 52.3459 26.3516L52.0357 26.1241C51.8151 26.0138 51.6635 25.8415 51.5808 25.6071C51.498 25.3727 51.4567 25.1176 51.4567 24.8419C51.629 24.4076 51.729 24.0182 51.7566 23.6735C51.7841 23.3357 51.8634 23.0014 51.9944 22.6705C52.1874 22.1604 52.4597 21.7054 52.8112 21.3056C53.1628 20.9058 53.5316 20.5404 53.9176 20.2096C54.2278 19.9476 54.5828 19.6615 54.9827 19.3513C55.3894 19.0342 55.6823 18.7688 55.8616 18.5551C56.0821 18.5207 56.2683 18.4552 56.4199 18.3587C56.5785 18.2553 56.737 18.1588 56.8956 18.0692C57.0541 17.9795 57.2402 17.9347 57.4539 17.9347C57.771 17.9347 57.9571 17.9899 58.0123 18.1002C58.0674 18.2105 58.1502 18.3621 58.2605 18.5551C58.3501 18.3277 58.419 18.0967 58.4673 17.8624C58.4948 17.7452 58.5259 17.6314 58.5603 17.5211C58.6017 17.4108 58.6465 17.3074 58.6947 17.2109C58.7775 16.7835 58.9188 16.3286 59.1187 15.846C59.3186 15.3635 59.5185 14.9189 59.7184 14.5122C59.8838 14.1813 60.0458 13.8676 60.2044 13.5712C60.3698 13.2679 60.4801 13.0749 60.5353 12.9922C60.749 12.6613 60.9799 12.3821 61.2281 12.1546C61.4693 11.9272 61.6796 11.6824 61.8588 11.4205C61.9967 11.2551 62.1311 11.0655 62.2621 10.8518C62.3999 10.6174 62.5068 10.4761 62.5826 10.4278C62.9686 10.5312 63.172 10.6829 63.1927 10.8828C63.2134 11.0827 63.2237 11.3102 63.2237 11.5653C63.2237 11.7858 63.203 12.0064 63.1617 12.227L62.4585 13.6953C62.2655 14.0538 62.0828 14.4191 61.9105 14.7914C61.7382 15.1636 61.5762 15.5427 61.4245 15.9288C61.1695 16.4251 60.8903 16.8594 60.587 17.2316C60.4353 17.4177 60.2906 17.6108 60.1527 17.8107C60.0217 18.0106 59.8942 18.2174 59.7701 18.4311C59.7219 18.5758 59.6495 18.7171 59.553 18.855C59.5047 18.9239 59.4599 18.9929 59.4185 19.0618C59.3772 19.1239 59.3358 19.1893 59.2945 19.2583L58.9222 20.1475C58.8395 20.2578 58.7981 20.3612 58.7981 20.4577C58.8257 20.5198 58.8395 20.5749 58.8395 20.6232V20.7266C58.8395 20.7886 58.8395 20.8506 58.8395 20.9127C58.8395 20.9747 58.8361 21.0368 58.8292 21.0988C58.8223 21.1608 58.8188 21.2263 58.8188 21.2953C58.8188 21.3573 58.8188 21.4228 58.8188 21.4917C58.8188 22.1949 58.8464 22.8842 58.9015 23.5597C58.874 23.608 58.8602 23.6425 58.8602 23.6631C58.8602 23.7597 58.9119 23.8596 59.0153 23.963C59.1187 24.0595 59.1842 24.1457 59.2117 24.2215ZM57.2264 19.1962L56.7094 19.5271C56.606 19.5616 56.4682 19.6615 56.2958 19.827L55.8616 20.2302L55.4273 20.6232C55.3308 20.8024 55.1998 20.954 55.0344 21.0781C54.8689 21.2022 54.731 21.3401 54.6208 21.4917C54.4691 21.6847 54.3209 21.9122 54.1761 22.1742C54.0314 22.4361 53.9659 22.6567 53.9797 22.8359C53.9452 22.96 53.9073 23.0772 53.8659 23.1875C53.8315 23.2909 53.7935 23.3874 53.7522 23.477C53.6695 23.6494 53.6281 23.8493 53.6281 24.0767C53.6281 24.256 53.6867 24.349 53.8039 24.3559C53.9211 24.3628 54.0072 24.3663 54.0624 24.3663C54.2692 24.2284 54.4863 24.0285 54.7138 23.7665C54.9482 23.4977 55.1584 23.222 55.3446 22.9393C55.5376 22.6567 55.6685 22.4223 55.7375 22.2362C55.8891 21.9743 56.0615 21.6951 56.2545 21.3987C56.4475 21.1023 56.6612 20.8369 56.8956 20.6025L57.4333 19.7339C57.447 19.6994 57.4608 19.6684 57.4746 19.6409C57.4884 19.6064 57.5022 19.5754 57.516 19.5478C57.5435 19.4995 57.5573 19.4375 57.5573 19.3617C57.5573 19.2721 57.5298 19.1893 57.4746 19.1135C57.4195 19.1135 57.3712 19.1239 57.3299 19.1445C57.2885 19.1652 57.254 19.1824 57.2264 19.1962Z" fill="#5465FF"/>
</svg>
