<svg width="22" height="20" viewBox="0 0 22 20" fill="none" xmlns="http://www.w3.org/2000/svg">
<path d="M19.8281 6.01002L13.278 0.770018C11.998 -0.249982 9.99805 -0.259982 8.72801 0.760018L2.17801 6.01002C1.23801 6.76002 0.66801 8.26 0.86801 9.44L2.12801 16.98C2.41801 18.67 3.98801 20 5.69801 20H16.298C17.988 20 19.588 18.64 19.878 16.97L21.1381 9.43C21.3181 8.26 20.7481 6.76002 19.8281 6.01002ZM11.748 16C11.748 16.41 11.408 16.75 10.998 16.75C10.588 16.75 10.248 16.41 10.248 16V13C10.248 12.59 10.588 12.25 10.998 12.25C11.408 12.25 11.748 12.59 11.748 13V16Z" fill="#808B97"/>
</svg>
