<svg width="36" height="36" viewBox="0 0 36 36" fill="none" xmlns="http://www.w3.org/2000/svg">
<path fill-rule="evenodd" clip-rule="evenodd" d="M17.9921 0.0233234C16.2462 -0.00106696 14.5128 0.321754 12.8926 0.97303C11.2725 1.62431 9.79798 2.59105 8.55469 3.81709C7.3114 5.04314 6.32416 6.50403 5.65031 8.1149C4.97647 9.72577 4.62947 11.4545 4.62947 13.2006C4.62947 14.9467 4.97647 16.6755 5.65031 18.2863C6.32416 19.8972 7.3114 21.3581 8.55469 22.5841C9.79798 23.8102 11.2725 24.7769 12.8926 25.4282C14.5128 26.0795 16.2462 26.4023 17.9921 26.3779C21.4873 26.3779 24.8393 24.9894 27.3108 22.518C29.7822 20.0465 31.1707 16.6945 31.1707 13.1993C31.1707 9.70415 29.7822 6.35213 27.3108 3.88067C24.8393 1.4092 21.4873 0.0233234 17.9921 0.0233234ZM18.5141 6.25389L20.2704 9.78704C20.3095 9.87617 20.3714 9.95336 20.45 10.0107C20.5286 10.0681 20.621 10.1036 20.7178 10.1136L24.6161 10.705C24.7278 10.7193 24.833 10.7651 24.9195 10.8371C25.006 10.9091 25.0701 11.0043 25.1044 11.1115C25.1387 11.2187 25.1417 11.3334 25.1131 11.4423C25.0844 11.5511 25.0253 11.6495 24.9427 11.7259L22.0678 14.4619C22.025 14.5436 22.0027 14.6345 22.0027 14.7268C22.0027 14.819 22.025 14.9099 22.0678 14.9916L22.6181 18.8693C22.6413 18.981 22.6317 19.097 22.5904 19.2033C22.5492 19.3096 22.4781 19.4017 22.3857 19.4686C22.2933 19.5354 22.1836 19.5741 22.0697 19.58C21.9558 19.5859 21.8427 19.5588 21.7438 19.5019L18.2724 17.6659C18.1823 17.6251 18.0846 17.6039 17.9857 17.6039C17.8868 17.6039 17.789 17.6251 17.699 17.6659L14.2275 19.5019C14.1287 19.5588 14.0156 19.5859 13.9017 19.58C13.7878 19.5741 13.6781 19.5354 13.5857 19.4686C13.4933 19.4017 13.4222 19.3096 13.381 19.2033C13.3397 19.097 13.3301 18.981 13.3533 18.8693L14.0038 14.9916C14.0317 14.9017 14.0369 14.8063 14.0189 14.7138C14.001 14.6214 13.9605 14.5349 13.901 14.4619L11.0236 11.7053C10.9463 11.6282 10.8919 11.5311 10.8664 11.4249C10.8409 11.3187 10.8453 11.2075 10.8791 11.1037C10.9129 10.9998 10.9748 10.9074 11.0579 10.8366C11.1411 10.7657 11.2422 10.7193 11.3501 10.7025L15.251 10.1342C15.3478 10.1242 15.4402 10.0887 15.5188 10.0313C15.5974 9.97393 15.6594 9.89674 15.6984 9.80761L17.4547 6.27447C17.5014 6.17419 17.5754 6.08903 17.6681 6.02867C17.7609 5.96832 17.8687 5.93519 17.9793 5.93305C18.0899 5.9309 18.1989 5.95984 18.2939 6.01655C18.3889 6.07327 18.4661 6.1555 18.5167 6.25389H18.5141ZM31.6284 22.2945C29.4122 25.6155 26.0618 28.0152 22.2041 29.0445L25.835 35.3342C25.962 35.5544 26.1515 35.7321 26.3795 35.8447C26.6074 35.9573 26.8637 35.9997 27.1158 35.9667C27.3679 35.9337 27.6045 35.8266 27.7958 35.6591C27.9871 35.4916 28.1244 35.2712 28.1904 35.0256L29.5018 30.1425L34.3824 31.4513C34.628 31.5169 34.8875 31.5082 35.1281 31.4263C35.3687 31.3444 35.5796 31.1931 35.7343 30.9914C35.8889 30.7897 35.9803 30.5467 35.9969 30.2931C36.0135 30.0394 35.9546 29.7866 35.8276 29.5665L31.6284 22.2945ZM13.793 29.047C9.93492 28.0217 6.58267 25.6257 4.36355 22.3073L0.172121 29.5665C0.0450861 29.7866 -0.0138542 30.0394 0.00274586 30.2931C0.0193459 30.5467 0.110741 30.7897 0.265386 30.9914C0.420031 31.1931 0.630987 31.3444 0.871603 31.4263C1.11222 31.5082 1.3717 31.5169 1.61726 31.4513L6.50041 30.1425L7.80926 35.0256C7.87526 35.2712 8.01258 35.4916 8.20386 35.6591C8.39514 35.8266 8.6318 35.9337 8.8839 35.9667C9.13601 35.9997 9.39225 35.9573 9.62022 35.8447C9.8482 35.7321 10.0377 35.5544 10.1647 35.3342L13.793 29.047Z" fill="#FF4B4B"/>
</svg>
