<svg width="42" height="42" viewBox="0 0 42 42" fill="none" xmlns="http://www.w3.org/2000/svg">
<path d="M21.001 38.499C11.3357 38.499 3.50098 30.6643 3.50098 20.999C3.50098 11.3338 11.3357 3.49902 21.001 3.49902C30.6662 3.49902 38.501 11.3338 38.501 20.999C38.501 30.6643 30.6662 38.499 21.001 38.499Z" stroke="#5465FF" stroke-width="2.16522" stroke-linecap="round" stroke-linejoin="round"/>
<path d="M28.876 25.374C28.876 25.374 26.251 28.874 21.001 28.874C15.751 28.874 13.126 25.374 13.126 25.374" stroke="#5465FF" stroke-width="2.16522" stroke-linecap="round" stroke-linejoin="round"/>
<path d="M27.127 15.75C26.8949 15.75 26.6723 15.6578 26.5082 15.4937C26.3441 15.3296 26.252 15.1071 26.252 14.875C26.252 14.6429 26.3441 14.4204 26.5082 14.2563C26.6723 14.0922 26.8949 14 27.127 14C27.359 14 27.5816 14.0922 27.7457 14.2563C27.9098 14.4204 28.002 14.6429 28.002 14.875C28.002 15.1071 27.9098 15.3296 27.7457 15.4937C27.5816 15.6578 27.359 15.75 27.127 15.75ZM14.877 15.75C14.6449 15.75 14.4223 15.6578 14.2582 15.4937C14.0941 15.3296 14.002 15.1071 14.002 14.875C14.002 14.6429 14.0941 14.4204 14.2582 14.2563C14.4223 14.0922 14.6449 14 14.877 14C15.109 14 15.3316 14.0922 15.4957 14.2563C15.6598 14.4204 15.752 14.6429 15.752 14.875C15.752 15.1071 15.6598 15.3296 15.4957 15.4937C15.3316 15.6578 15.109 15.75 14.877 15.75Z" fill="#5465FF" stroke="#5465FF" stroke-width="2.16522" stroke-linecap="round" stroke-linejoin="round"/>
</svg>
