<svg id="quote-active" viewBox="0 0 48 38" xmlns="http://www.w3.org/2000/svg">
    <path d="M34.9455 38C37.97 38 40.4223 36.9206 42.3025 34.7619C44.1008 32.5201 45 29.6142 45 26.044C45 21.3944 43.6512 17.0769 40.9537 13.0916C38.2561 9.0232 34.9046 5.99267 30.8992 4L30.1635 5.4945C31.8801 6.82295 33.3924 8.52503 34.7003 10.6007C36.0082 12.6764 36.9482 15.2503 37.5204 18.3223L34.9455 18.9451C32.0845 19.6093 29.8774 20.8547 28.3243 22.6813C26.6894 24.4249 25.8719 26.5421 25.8719 29.033C25.8719 31.6899 26.7711 33.8486 28.5695 35.5092C30.2861 37.1697 32.4114 38 34.9455 38ZM9.07357 38C12.0981 38 14.5504 36.9206 16.4305 34.7619C18.2289 32.5201 19.1281 29.6142 19.1281 26.044C19.1281 21.3944 17.7793 17.0769 15.0817 13.0916C12.3842 9.0232 9.0327 5.99267 5.02725 4L4.29155 5.4945C6.00817 6.82295 7.52043 8.52503 8.82834 10.6007C10.1362 12.6764 11.0763 15.2503 11.6485 18.3223L9.07357 18.9451C6.21253 19.6093 4.00545 20.8547 2.45232 22.6813C0.817439 24.4249 0 26.5421 0 29.033C0 31.6899 0.899183 33.8486 2.69755 35.5092C4.41417 37.1697 6.53951 38 9.07357 38Z" fill="var(--primary-color)"/>
    <path d="M44.6795 33.0903L44.6861 33.0827L44.6925 33.0748C46.5779 30.7245 47.5 27.6997 47.5 24.044C47.5 19.2916 46.1196 14.8777 43.369 10.8132C40.6277 6.67955 37.2123 3.58728 33.1219 1.55234L32.6723 1.32869L32.4506 1.77917L31.7149 3.27367L31.5346 3.64002L31.8575 3.88992C33.5222 5.17825 34.9965 6.83467 36.2772 8.86728C37.4781 10.7732 38.369 13.1294 38.9386 15.9486L36.8324 16.458C36.8316 16.4582 36.8309 16.4584 36.8301 16.4586C33.8944 17.1405 31.5873 18.4285 29.9512 20.3482C28.231 22.187 27.3719 24.4252 27.3719 27.033C27.3719 29.814 28.3186 32.1092 30.226 33.8726C32.0413 35.6265 34.2925 36.5 36.9455 36.5C40.1053 36.5 42.6985 35.3649 44.6795 33.0903ZM18.8076 33.0903L18.8142 33.0827L18.8205 33.0748C20.706 30.7245 21.6281 27.6997 21.6281 24.044C21.6281 19.2916 20.2477 14.8778 17.4972 10.8133C14.7559 6.67962 11.3404 3.5873 7.24996 1.55234L6.80041 1.32869L6.57866 1.77917L5.84296 3.27367L5.66262 3.64002L5.98554 3.88992C7.65031 5.17825 9.12456 6.83467 10.4053 8.86728C11.6062 10.7732 12.4971 13.1294 13.0667 15.9486L10.9582 16.4585C8.02248 17.1405 5.7154 18.4285 4.07928 20.3482C2.35908 22.187 1.5 24.4252 1.5 27.033C1.5 29.814 2.44668 32.1092 4.35408 33.8726C6.16932 35.6265 8.42054 36.5 11.0736 36.5C14.2334 36.5 16.8266 35.3649 18.8076 33.0903Z" fill="white" stroke="var(--primary-color)"/>
</svg>
