<svg width="48" height="37" viewBox="0 0 48 37" fill="none" xmlns="http://www.w3.org/2000/svg">
<path d="M43.6795 33.0903L43.6861 33.0827L43.6925 33.0748C45.5779 30.7245 46.5 27.6997 46.5 24.044C46.5 19.2916 45.1196 14.8777 42.369 10.8132C39.6277 6.67955 36.2123 3.58728 32.1219 1.55234L31.6723 1.32869L31.4506 1.77917L30.7149 3.27367L30.5346 3.64002L30.8575 3.88992C32.5222 5.17825 33.9965 6.83467 35.2772 8.86728C36.4781 10.7732 37.369 13.1294 37.9386 15.9486L35.8324 16.458C35.8316 16.4582 35.8309 16.4584 35.8301 16.4586C32.8944 17.1405 30.5873 18.4285 28.9512 20.3482C27.231 22.187 26.3719 24.4252 26.3719 27.033C26.3719 29.814 27.3186 32.1092 29.226 33.8726C31.0413 35.6265 33.2925 36.5 35.9455 36.5C39.1053 36.5 41.6985 35.3649 43.6795 33.0903ZM17.8076 33.0903L17.8142 33.0827L17.8205 33.0748C19.706 30.7245 20.6281 27.6997 20.6281 24.044C20.6281 19.2916 19.2477 14.8778 16.4972 10.8133C13.7559 6.67962 10.3404 3.5873 6.24996 1.55234L5.80041 1.32869L5.57866 1.77917L4.84296 3.27367L4.66262 3.64002L4.98554 3.88992C6.65031 5.17825 8.12456 6.83467 9.40531 8.86728C10.6062 10.7732 11.4971 13.1294 12.0667 15.9486L9.95818 16.4585C7.02248 17.1405 4.7154 18.4285 3.07928 20.3482C1.35908 22.187 0.5 24.4252 0.5 27.033C0.5 29.814 1.44668 32.1092 3.35408 33.8726C5.16932 35.6265 7.42054 36.5 10.0736 36.5C13.2334 36.5 15.8266 35.3649 17.8076 33.0903Z" stroke="#E5E8EA"/>
<path d="M37.9455 34C40.97 34 43.4223 32.9206 45.3025 30.7619C47.1008 28.5201 48 25.6142 48 22.044C48 17.3944 46.6512 13.0769 43.9537 9.09157C41.2561 5.0232 37.9046 1.99267 33.8992 0L33.1635 1.4945C34.8801 2.82295 36.3924 4.52503 37.7003 6.60073C39.0082 8.67643 39.9482 11.2503 40.5204 14.3223L37.9455 14.9451C35.0845 15.6093 32.8774 16.8547 31.3243 18.6813C29.6894 20.4249 28.8719 22.5421 28.8719 25.033C28.8719 27.6899 29.7711 29.8486 31.5695 31.5092C33.2861 33.1697 35.4114 34 37.9455 34ZM12.0736 34C15.0981 34 17.5504 32.9206 19.4305 30.7619C21.2289 28.5201 22.1281 25.6142 22.1281 22.044C22.1281 17.3944 20.7793 13.0769 18.0817 9.09157C15.3842 5.0232 12.0327 1.99267 8.02725 0L7.29155 1.4945C9.00817 2.82295 10.5204 4.52503 11.8283 6.60073C13.1362 8.67643 14.0763 11.2503 14.6485 14.3223L12.0736 14.9451C9.21253 15.6093 7.00545 16.8547 5.45232 18.6813C3.81744 20.4249 3 22.5421 3 25.033C3 27.6899 3.89918 29.8486 5.69755 31.5092C7.41417 33.1697 9.53951 34 12.0736 34Z" fill="#E5E8EA"/>
</svg>
