<svg>

<symbol id="total-referral" xmlns="http://www.w3.org/2000/svg" viewBox="0 0 24 24"><path d="M8.5 7C8.5 8.10457 7.60457 9 6.5 9C5.39543 9 4.5 8.10457 4.5 7C4.5 5.89543 5.39543 5 6.5 5C7.60457 5 8.5 5.89543 8.5 7ZM2.5 7C2.5 9.20914 4.29086 11 6.5 11C8.70914 11 10.5 9.20914 10.5 7C10.5 4.79086 8.70914 3 6.5 3C4.29086 3 2.5 4.79086 2.5 7ZM9 16.5C9 15.1193 7.88071 14 6.5 14C5.11929 14 4 15.1193 4 16.5V19H9V16.5ZM11 21H2V16.5C2 14.0147 4.01472 12 6.5 12C8.98528 12 11 14.0147 11 16.5V21ZM19.5 7C19.5 8.10457 18.6046 9 17.5 9C16.3954 9 15.5 8.10457 15.5 7C15.5 5.89543 16.3954 5 17.5 5C18.6046 5 19.5 5.89543 19.5 7ZM13.5 7C13.5 9.20914 15.2909 11 17.5 11C19.7091 11 21.5 9.20914 21.5 7C21.5 4.79086 19.7091 3 17.5 3C15.2909 3 13.5 4.79086 13.5 7ZM20 16.5C20 15.1193 18.8807 14 17.5 14C16.1193 14 15 15.1193 15 16.5V19H20V16.5ZM13 19V16.5C13 14.0147 15.0147 12 17.5 12C19.9853 12 22 14.0147 22 16.5V21H13V19Z"></path></symbol>

<symbol id="bottom-total" xmlns="http://www.w3.org/2000/svg" viewBox="0 0 24 24"><path d="M5.23379 7.72989C6.65303 5.48625 9.15342 4 12.0002 4C14.847 4 17.3474 5.48625 18.7667 7.72989L20.4569 6.66071C18.6865 3.86199 15.5612 2 12.0002 2C8.43928 2 5.31393 3.86199 3.54356 6.66071L5.23379 7.72989ZM12.0002 20C9.15342 20 6.65303 18.5138 5.23379 16.2701L3.54356 17.3393C5.31393 20.138 8.43928 22 12.0002 22C15.5612 22 18.6865 20.138 20.4569 17.3393L18.7667 16.2701C17.3474 18.5138 14.847 20 12.0002 20ZM12 8C12.5523 8 13 8.44772 13 9C13 9.55228 12.5523 10 12 10C11.4477 10 11 9.55228 11 9C11 8.44772 11.4477 8 12 8ZM12 12C13.6569 12 15 10.6569 15 9C15 7.34315 13.6569 6 12 6C10.3431 6 9 7.34315 9 9C9 10.6569 10.3431 12 12 12ZM12 15C10.8954 15 10 15.8954 10 17H8C8 14.7909 9.79086 13 12 13C14.2091 13 16 14.7909 16 17H14C14 15.8954 13.1046 15 12 15ZM3 11C2.44772 11 2 11.4477 2 12C2 12.5523 2.44772 13 3 13C3.55228 13 4 12.5523 4 12C4 11.4477 3.55228 11 3 11ZM0 12C0 10.3431 1.34315 9 3 9C4.65685 9 6 10.3431 6 12C6 13.6569 4.65685 15 3 15C1.34315 15 0 13.6569 0 12ZM20 12C20 11.4477 20.4477 11 21 11C21.5523 11 22 11.4477 22 12C22 12.5523 21.5523 13 21 13C20.4477 13 20 12.5523 20 12ZM21 9C19.3431 9 18 10.3431 18 12C18 13.6569 19.3431 15 21 15C22.6569 15 24 13.6569 24 12C24 10.3431 22.6569 9 21 9Z"></path></symbol>

<symbol id="referrals" xmlns="http://www.w3.org/2000/svg" viewBox="0 0 24 24" ><path d="M2 22C2 17.5817 5.58172 14 10 14C14.4183 14 18 17.5817 18 22H16C16 18.6863 13.3137 16 10 16C6.68629 16 4 18.6863 4 22H2ZM10 13C6.685 13 4 10.315 4 7C4 3.685 6.685 1 10 1C13.315 1 16 3.685 16 7C16 10.315 13.315 13 10 13ZM10 11C12.21 11 14 9.21 14 7C14 4.79 12.21 3 10 3C7.79 3 6 4.79 6 7C6 9.21 7.79 11 10 11ZM18.2837 14.7028C21.0644 15.9561 23 18.752 23 22H21C21 19.564 19.5483 17.4671 17.4628 16.5271L18.2837 14.7028ZM17.5962 3.41321C19.5944 4.23703 21 6.20361 21 8.5C21 11.3702 18.8042 13.7252 16 13.9776V11.9646C17.6967 11.7222 19 10.264 19 8.5C19 7.11935 18.2016 5.92603 17.041 5.35635L17.5962 3.41321Z"></path></symbol>

<symbol id="code" xmlns="http://www.w3.org/2000/svg" viewBox="0 0 24 24" ><path d="M2.00488 9.49979V3.99979C2.00488 3.4475 2.4526 2.99979 3.00488 2.99979H21.0049C21.5572 2.99979 22.0049 3.4475 22.0049 3.99979V9.49979C20.6242 9.49979 19.5049 10.6191 19.5049 11.9998C19.5049 13.3805 20.6242 14.4998 22.0049 14.4998V19.9998C22.0049 20.5521 21.5572 20.9998 21.0049 20.9998H3.00488C2.4526 20.9998 2.00488 20.5521 2.00488 19.9998V14.4998C3.38559 14.4998 4.50488 13.3805 4.50488 11.9998C4.50488 10.6191 3.38559 9.49979 2.00488 9.49979ZM4.00488 7.96755C5.4866 8.7039 6.50488 10.2329 6.50488 11.9998C6.50488 13.7666 5.4866 15.2957 4.00488 16.032V18.9998H20.0049V16.032C18.5232 15.2957 17.5049 13.7666 17.5049 11.9998C17.5049 10.2329 18.5232 8.7039 20.0049 7.96755V4.99979H4.00488V7.96755ZM9.00488 8.99979H15.0049V10.9998H9.00488V8.99979ZM9.00488 12.9998H15.0049V14.9998H9.00488V12.9998Z"></path></symbol>

<symbol id="barcode" xmlns="http://www.w3.org/2000/svg" viewBox="0 0 24 24"><path d="M15 3H21V8H19V5H15V3ZM9 3V5H5V8H3V3H9ZM15 21V19H19V16H21V21H15ZM9 21H3V16H5V19H9V21ZM3 11H21V13H3V11Z"></path></symbol>      

</svg>