<svg width="22" height="22" viewBox="0 0 22 22" fill="none" xmlns="http://www.w3.org/2000/svg">
<g clip-path="url(#clip0_2714_17139)">
<path d="M20.6612 19.2027C20.5194 18.6742 20.2917 18.1844 19.9952 17.7504C20.2745 17.5871 20.528 17.3852 20.7472 17.1359C21.2929 16.5043 21.5421 15.7008 21.4519 14.8629C21.3788 14.2484 20.6269 13.9906 20.1972 14.4375L19.4839 15.082C19.2519 15.2754 18.8737 15.2969 18.6288 15.0691C18.3839 14.8543 18.3237 14.4977 18.4827 14.2355L19.0327 13.4234C19.4194 12.9293 19.0413 12.2203 18.4355 12.2461C17.6105 12.2719 16.8284 12.6414 16.287 13.2645C15.7284 13.909 15.4835 14.7512 15.5909 15.5762L14.6585 15.4773C14.6413 15.4773 14.6284 15.473 14.6112 15.473C14.0784 15.473 13.6444 15.0391 13.6444 14.5062V13.2859C14.7917 12.259 15.9046 11.0129 15.9046 9.64219V7.10273H16.6652C16.9144 7.10273 17.112 6.90078 17.112 6.65586C17.112 6.41094 16.9101 6.20898 16.6652 6.20898H16.3601C16.2784 4.08203 14.9851 2.26445 13.146 1.43516C13.1847 0.657422 12.5702 0 11.7753 0H10.0136C9.20578 0 8.61281 0.678906 8.65148 1.43516C6.81242 2.26445 5.51906 4.08203 5.43742 6.20898H5.12804C4.87882 6.20898 4.68117 6.41094 4.68117 6.65586C4.68117 6.90078 4.88312 7.10273 5.12804 7.10273H5.88429V9.64219C5.88429 11.0172 7.00578 12.2633 8.15304 13.2902V14.5062C8.15304 15.0391 7.71906 15.473 7.18625 15.473C7.16906 15.473 7.15617 15.473 7.13898 15.4773C5.68664 15.6277 5.65656 15.632 5.02062 15.7008C3.14289 15.993 1.6175 17.3637 1.13195 19.1984L0.538981 21.4328C0.474528 21.6734 0.616324 21.9184 0.856949 21.9828C1.09757 22.0473 1.3425 21.9055 1.40695 21.6648L1.99992 19.4305C2.38664 17.9738 3.58117 16.8781 5.04211 16.6117V18.2531C4.3632 18.4422 3.80031 18.9535 3.55539 19.6367L2.92804 21.3984C2.8464 21.6305 2.96672 21.8883 3.19875 21.9699C3.43078 22.0516 3.68859 21.9312 3.77023 21.6992L4.39757 19.9375C4.58234 19.4176 5.08078 19.0652 5.63078 19.0652H12.9398L12.798 19.2285C12.1964 19.9246 12.2694 20.9816 12.9655 21.5875C13.6659 22.1934 14.723 22.1117 15.3245 21.4199L17.0476 19.4305C17.1937 19.568 17.3097 19.7398 17.3784 19.9375L18.0058 21.6992C18.0874 21.9312 18.3452 22.0559 18.5773 21.9699C18.8093 21.8883 18.9339 21.6305 18.848 21.3984L18.2206 19.6367C18.096 19.2887 17.8898 18.9922 17.6319 18.7516L18.1734 18.1285C18.4913 18.1672 18.805 18.1457 19.1144 18.0812C19.4152 18.4766 19.6472 18.932 19.7804 19.4305L20.3734 21.6648C20.4378 21.9012 20.6827 22.0473 20.9234 21.9828C21.164 21.9184 21.3058 21.6734 21.2413 21.4328L20.6612 19.2027ZM8.83195 2.34609L9.36047 4.72226C9.41632 4.96289 9.65695 5.11758 9.89757 5.06172C10.1382 5.00586 10.2929 4.76953 10.237 4.52461L9.55382 1.46523C9.48937 1.16875 9.71281 0.89375 10.0093 0.89375H11.771C12.0718 0.89375 12.2995 1.18164 12.2265 1.46523L11.5562 4.52891C11.5003 4.76953 11.655 5.01016 11.8956 5.06601C12.1362 5.12187 12.3769 4.96719 12.4327 4.72656L12.9612 2.35039C14.3878 3.07656 15.3847 4.52891 15.462 6.21758H6.33546C6.40851 4.52461 7.40539 3.07226 8.83195 2.34609ZM6.78664 9.64648V7.10703H15.0023V9.64648C15.0023 11.0988 13.0472 12.6371 11.8612 13.6211C11.7538 13.7113 11.6163 13.7629 11.4745 13.7629H10.3101C10.1726 13.7629 10.0351 13.7113 9.92336 13.6211C8.78039 12.6715 6.78664 11.1074 6.78664 9.64648ZM9.35187 14.3129C9.62257 14.5363 9.96203 14.6609 10.3144 14.6609H11.4788C11.8269 14.6609 12.1706 14.5363 12.4413 14.3129C12.4714 14.2871 12.3296 14.4074 12.7464 14.0594V14.5105C12.7464 15.1637 13.0859 15.7395 13.5929 16.0703C11.7882 17.1488 10.0136 17.1488 8.2089 16.0703C8.72023 15.7352 9.05539 15.1637 9.05539 14.5105V14.0637C9.08547 14.0894 8.94796 13.9734 9.35187 14.3129ZM5.94445 18.1715V16.5086L7.06593 16.3926C8.33781 17.3207 9.61828 17.7891 10.8945 17.7891C12.1749 17.7891 13.4554 17.3207 14.723 16.3926L15.2171 16.4441L13.7218 18.1715H5.94445ZM18.1046 17.209C17.9456 17.1746 17.778 17.2305 17.6706 17.3551L14.6542 20.8355C13.9839 21.609 12.8194 20.5906 13.4855 19.8215L16.4976 16.341C16.605 16.2164 16.6351 16.0445 16.5792 15.8941C16.3257 15.198 16.4718 14.4203 16.9573 13.8574C17.2624 13.5051 17.6577 13.2773 18.1046 13.1871L17.7222 13.7586C17.3269 14.4117 17.4601 15.2496 18.0359 15.7523C18.603 16.2422 19.4452 16.2766 20.0683 15.7652L20.5624 15.3184C20.5366 15.7738 20.3648 16.1992 20.064 16.5516C19.5784 17.1059 18.8265 17.3637 18.1046 17.209Z" fill="#27AF4D"/>
</g>
<defs>
<clipPath id="clip0_2714_17139">
<rect width="22" height="22" fill="white"/>
</clipPath>
</defs>
</svg>
