<svg viewBox="0 0 93 93" id="service-package" xmlns="http://www.w3.org/2000/svg">
<rect width="93" height="93" rx="10" fill="var(--primary-color)" fill-opacity="0.1"/>
<mask id="mask0_2922_45743" style="mask-type:alpha" maskUnits="userSpaceOnUse" x="0" y="0" width="93" height="93">
<rect width="93" height="93" rx="10" fill="var(--primary-color)"/>
</mask>
<g mask="url(#mask0_2922_45743)">
<rect x="-17.2317" y="79.3281" width="103.761" height="69" rx="10" transform="rotate(-18.538 -17.2317 79.3281)" fill-opacity="0.1" fill="var(--primary-color)"/>
<path d="M64.3334 46.6875L59.3101 43.5332C64.1501 39.0696 59.2917 30.7375 53.4801 33.5744L51.8851 34.3084L51.6834 32.4039C51.5001 30.2614 50.4734 28.7338 49.1167 27.8411C46.1101 25.9505 41.5267 27.246 40.7934 31.9675L35.7517 28.833C33.9917 27.7221 31.7551 28.3767 30.7467 30.2812L28.9134 33.7132C28.4001 34.6655 28.7117 35.8756 29.5917 36.4311L43.8734 45.3583L46.6234 40.2004L49.7951 42.1842L47.0451 47.3422L61.3268 56.2694C62.2067 56.7654 63.3434 56.4876 63.8384 55.5354L65.6717 52.1033C66.6801 50.1989 66.0934 47.7786 64.3334 46.6875ZM46.6784 34.9432C45.0834 35.4392 43.8001 33.5942 44.6067 32.0667C45.0834 31.1144 46.2384 30.797 47.1184 31.3326C48.5301 32.2254 48.2551 34.5266 46.6784 34.9432ZM56.1934 40.8947C54.6167 41.3907 53.3334 39.5457 54.1401 38.0182C54.6351 37.0659 55.7717 36.7485 56.6334 37.2841C58.0451 38.1769 57.7701 40.4781 56.1934 40.8947ZM62.2617 58.5111C63.0134 58.5111 63.7284 58.2334 64.3334 57.7573V64.7007C64.3334 66.9027 62.7017 68.6683 60.6667 68.6683H31.3334C30.361 68.6683 29.4283 68.2503 28.7407 67.5062C28.0531 66.7622 27.6667 65.753 27.6667 64.7007V46.8462H42.6084L44.1667 47.8381V64.7007H47.8334V50.1195L60.4284 57.9755C60.9784 58.3326 61.5834 58.5111 62.2617 58.5111Z" fill="var(--primary-color)"/>
<path d="M93.1494 11.0624L93.7248 9.24569C95.2488 10.5505 97.2684 8.47968 96.1373 6.76309L95.8392 6.28933L96.3548 6.1108C96.9374 5.92406 97.2996 5.50031 97.4663 5.00723C97.8115 3.91968 97.1803 2.50995 95.8288 2.55254L96.3977 0.731019C96.6009 0.094148 96.2867 -0.592461 95.6992 -0.806403L94.6396 -1.19721C94.3453 -1.30716 94.0286 -1.13418 93.927 -0.815746L92.3023 4.34699L93.8945 4.93262L93.5333 6.07923L91.9411 5.49361L90.3165 10.6563C90.2313 10.9712 90.3758 11.3234 90.669 11.4274L91.7286 11.8182C92.3161 12.0322 92.9517 11.6981 93.1494 11.0624ZM95.3541 4.63818C95.1219 4.15028 95.5568 3.62442 96.0279 3.79534C96.32 3.89339 96.4765 4.24918 96.3804 4.56644C96.217 5.07736 95.5631 5.12485 95.3541 4.63818ZM94.2706 8.07803C94.0396 7.59607 94.4744 7.07021 94.9455 7.24113C95.2387 7.34513 95.3941 7.69497 95.2969 8.00628C95.1335 8.5172 94.4797 8.5647 94.2706 8.07803ZM89.751 11.0928C89.7957 11.3366 89.9151 11.552 90.0829 11.72L88.1594 12.1324C87.5494 12.2632 86.9634 11.8388 86.8425 11.1788L85.1002 1.66406C85.0424 1.34863 85.1028 1.02129 85.2681 0.754045C85.4333 0.486803 85.69 0.301553 85.9815 0.239048L90.9275 -0.821497L91.815 4.02505L91.6328 4.58944L86.9616 5.59106L87.1794 6.7804L91.2186 5.91429L89.7905 10.4663C89.7242 10.6659 89.7107 10.8728 89.751 11.0928Z" fill="var(--primary-color)" fill-opacity="0.2"/>
<path d="M16.7948 17.9448L16.389 15.6143C18.7607 16.0099 19.7626 12.4538 17.5807 11.3567L16.9937 11.0447L17.4468 10.5128C17.9672 9.92785 18.1173 9.23386 18.0185 8.59438C17.7763 7.19883 16.3043 6.10142 14.877 7.03884L14.4615 4.70755C14.3208 3.88959 13.5965 3.3596 12.8451 3.51745L11.4871 3.79691C11.1091 3.87301 10.8665 4.26771 10.9368 4.67669L12.1012 11.2925L14.1409 10.8709L14.3992 12.3404L12.3595 12.762L13.5239 19.3778C13.6099 19.7722 13.9635 20.055 14.3369 19.9733L15.695 19.6938C16.4464 19.536 16.9407 18.7579 16.7948 17.9448ZM15.5424 9.5917C15.0182 9.22093 15.1889 8.36934 15.791 8.24208C16.1599 8.15465 16.5285 8.43342 16.6041 8.83751C16.7164 9.49399 16.0411 9.97636 15.5424 9.5917ZM16.3172 14.0003C15.7975 13.6352 15.9681 12.7837 16.5703 12.6564C16.9437 12.5746 17.3078 12.8477 17.3788 13.2462C17.4912 13.9026 16.8159 14.385 16.3172 14.0003ZM13.1626 20.2196C13.3479 20.4519 13.5976 20.6045 13.8724 20.6741L12.0394 22.386C11.458 22.929 10.5896 22.8599 10.0879 22.2308L2.85563 13.1633C2.61587 12.8627 2.49628 12.4713 2.52318 12.0753C2.55008 11.6793 2.72126 11.3111 2.99906 11.0516L7.71262 6.64952L11.3965 11.2683L11.5189 11.9946L7.0672 16.1521L7.97123 17.2855L11.8206 13.6905L12.852 19.5208C12.8933 19.7789 12.9954 20.0099 13.1626 20.2196Z" fill="var(--primary-color)" fill-opacity="0.2"/>
<path d="M82.9026 87.0397L83.9335 87.3047C83.3051 88.36 84.559 89.5387 85.4362 88.7122L85.6791 88.4932L85.8069 88.8144C85.9432 89.1782 86.1968 89.3866 86.4772 89.4653C87.0943 89.6243 87.8319 89.137 87.7304 88.2705L88.7635 88.5309C89.125 88.6247 89.4838 88.383 89.5673 87.9929L89.7207 87.289C89.764 87.0934 89.6507 86.8998 89.47 86.8529L86.5411 86.1068L86.3116 87.1644L85.6611 86.9985L85.8906 85.9409L82.9618 85.1948C82.7839 85.1582 82.5989 85.2715 82.5587 85.466L82.4054 86.1699C82.3219 86.56 82.5421 86.9494 82.9026 87.0397ZM86.5577 88.0858C86.8122 87.9083 87.1261 88.1575 87.0595 88.4703C87.0225 88.6638 86.8362 88.785 86.6564 88.7416C86.3664 88.666 86.3025 88.2484 86.5577 88.0858ZM84.6062 87.5881C84.8575 87.4116 85.1714 87.6608 85.1048 87.9736C85.0646 88.1681 84.8815 88.2883 84.7049 88.2438C84.4149 88.1683 84.351 87.7506 84.6062 87.5881ZM82.6894 84.8564C82.5581 84.8992 82.4467 84.9885 82.3642 85.1061L82.0265 83.8932C81.9194 83.5086 82.1186 83.1072 82.4741 82.9913L87.5979 81.3209C87.7678 81.2655 87.9511 81.2855 88.1074 81.3763C88.2637 81.4671 88.3802 81.6214 88.4314 81.8052L89.2997 84.924L86.6897 85.7748L86.3693 85.6903L85.5492 82.7448L84.9087 82.9536L85.6179 85.5006L83.0357 84.8456C82.9223 84.8145 82.8079 84.8178 82.6894 84.8564Z" fill="var(--primary-color)" fill-opacity="0.2"/>
<path d="M15.2152 101.723L17.6019 102.337C16.1471 104.78 19.05 107.509 21.0809 105.596L21.6433 105.088L21.9392 105.832C22.2546 106.674 22.8418 107.157 23.491 107.339C24.9198 107.707 26.6274 106.579 26.3924 104.573L28.7842 105.176C29.621 105.393 30.4518 104.833 30.6452 103.93L31.0001 102.3C31.1005 101.848 30.8382 101.399 30.4198 101.291L23.6391 99.5635L23.1077 102.012L21.6017 101.628L22.133 99.1793L15.3523 97.452C14.9406 97.3674 14.5122 97.6296 14.4192 98.08L14.0642 99.7096C13.8709 100.613 14.3806 101.514 15.2152 101.723ZM23.6774 104.145C24.2666 103.734 24.9933 104.311 24.8391 105.035C24.7535 105.483 24.3222 105.764 23.906 105.663C23.2346 105.488 23.0867 104.522 23.6774 104.145ZM19.1594 102.993C19.7411 102.584 20.4678 103.161 20.3136 103.885C20.2207 104.336 19.7967 104.614 19.3879 104.511C18.7165 104.336 18.5686 103.369 19.1594 102.993ZM14.7218 96.6687C14.4178 96.7678 14.1599 96.9744 13.9688 97.2467L13.1871 94.4387C12.9391 93.5482 13.4002 92.6191 14.2231 92.3508L26.0857 88.4835C26.479 88.3553 26.9032 88.4014 27.2651 88.6116C27.6269 88.8219 27.8968 89.1791 28.0153 89.6046L30.0256 96.8251L23.9831 98.795L23.2412 98.5993L21.3426 91.78L19.8598 92.2634L21.5015 98.1601L15.5235 96.6436C15.2609 96.5717 14.9961 96.5793 14.7218 96.6687Z" fill="var(--primary-color)" fill-opacity="0.2"/>
</g>
</svg>
