<svg width="30" height="30" viewBox="0 0 30 30" fill="none" xmlns="http://www.w3.org/2000/svg">
<path fill-rule="evenodd" clip-rule="evenodd" d="M9.9045 2.6985C10.5374 1.96834 11.3201 1.38293 12.1993 0.982022C13.0785 0.58111 14.0337 0.374085 15 0.375003C17.0355 0.375003 18.8595 1.275 20.0955 2.6985C21.0595 2.62967 22.0271 2.76913 22.9325 3.10741C23.8378 3.44569 24.6598 3.97487 25.3425 4.659C26.0264 5.3416 26.5554 6.16331 26.8936 7.06839C27.2319 7.97346 27.3715 8.94071 27.303 9.9045C28.0329 10.5376 28.618 11.3203 29.0187 12.1995C29.4193 13.0787 29.6261 14.0338 29.625 15C29.6259 15.9663 29.4189 16.9215 29.018 17.8007C28.6171 18.6799 28.0317 19.4626 27.3015 20.0955C27.37 21.0593 27.2304 22.0265 26.8921 22.9316C26.5539 23.8367 26.0249 24.6584 25.341 25.341C24.6584 26.0249 23.8367 26.5539 22.9316 26.8921C22.0265 27.2304 21.0593 27.37 20.0955 27.3015C19.4626 28.0317 18.6799 28.6171 17.8007 29.018C16.9215 29.4189 15.9663 29.6259 15 29.625C14.0337 29.6259 13.0785 29.4189 12.1993 29.018C11.3201 28.6171 10.5374 28.0317 9.9045 27.3015C8.94057 27.3705 7.97307 27.2313 7.06771 26.8933C6.16235 26.5553 5.34034 26.0264 4.6575 25.3425C3.97345 24.6597 3.44433 23.8378 3.10605 22.9324C2.76778 22.0271 2.62827 21.0595 2.697 20.0955C1.96712 19.4624 1.38199 18.6797 0.981341 17.8005C0.580691 16.9213 0.3739 15.9662 0.375004 15C0.375004 12.9645 1.275 11.1405 2.6985 9.9045C2.62989 8.9407 2.76946 7.97342 3.10773 7.06833C3.44601 6.16325 3.97507 5.34154 4.659 4.659C5.34154 3.97507 6.16325 3.44601 7.06834 3.10773C7.97343 2.76946 8.9407 2.62989 9.9045 2.6985ZM20.415 12.279C20.505 12.1591 20.5701 12.0224 20.6065 11.8769C20.6429 11.7315 20.6499 11.5802 20.627 11.432C20.6042 11.2839 20.5519 11.1417 20.4733 11.014C20.3947 10.8864 20.2914 10.7757 20.1694 10.6885C20.0474 10.6013 19.9092 10.5394 19.763 10.5063C19.6167 10.4733 19.4653 10.4699 19.3177 10.4962C19.1701 10.5225 19.0293 10.5781 18.9034 10.6596C18.7776 10.7412 18.6693 10.847 18.585 10.971L13.731 17.766L11.295 15.33C11.0817 15.1313 10.7997 15.0231 10.5082 15.0282C10.2168 15.0334 9.93869 15.1515 9.73257 15.3576C9.52645 15.5637 9.40838 15.8418 9.40324 16.1332C9.3981 16.4247 9.50628 16.7067 9.705 16.92L13.08 20.295C13.1955 20.4104 13.3347 20.4993 13.488 20.5555C13.6413 20.6117 13.8049 20.6338 13.9676 20.6204C14.1304 20.607 14.2882 20.5583 14.4302 20.4778C14.5722 20.3972 14.695 20.2868 14.79 20.154L20.415 12.279Z" fill="#27AF4D"/>
</svg>
