<svg width="24" height="24" viewBox="0 0 24 24" fill="none" xmlns="http://www.w3.org/2000/svg">
<path d="M9.112 8.26202L5.97 15.758H3.92L2.374 9.77502C2.28 9.40702 2.199 9.27202 1.913 9.11702C1.447 8.86402 0.677 8.62702 0 8.47902L0.046 8.26202H3.346C3.56165 8.26181 3.77027 8.33869 3.93421 8.47879C4.09815 8.61889 4.2066 8.81298 4.24 9.02602L5.057 13.364L7.075 8.26202H9.112ZM17.145 13.311C17.153 11.332 14.409 11.223 14.428 10.339C14.434 10.07 14.69 9.78402 15.25 9.71102C15.9063 9.64869 16.5672 9.76478 17.163 10.047L17.503 8.45702C16.923 8.23897 16.3087 8.1262 15.689 8.12402C13.772 8.12402 12.423 9.14402 12.411 10.603C12.399 11.682 13.374 12.283 14.109 12.643C14.865 13.01 15.119 13.246 15.115 13.574C15.11 14.078 14.513 14.299 13.955 14.308C12.98 14.323 12.415 14.045 11.963 13.835L11.612 15.477C12.065 15.685 12.901 15.867 13.768 15.875C15.805 15.875 17.138 14.869 17.145 13.311ZM22.206 15.758H24L22.435 8.26202H20.779C20.6021 8.26038 20.4287 8.31194 20.2814 8.41001C20.1341 8.50808 20.0197 8.64814 19.953 8.81202L17.044 15.758H19.08L19.485 14.638H21.973L22.206 15.758ZM20.043 13.102L21.063 10.287L21.651 13.102H20.043ZM11.883 8.26202L10.28 15.758H8.34L9.945 8.26202H11.883Z" fill="#00162E"/>
</svg>
