<svg width="75" height="22" viewBox="0 0 75 22" fill="none" xmlns="http://www.w3.org/2000/svg">
<g clip-path="url(#clip0_9625_2357)">
<path d="M33.0375 8.71419C33.0375 9.26872 33.0259 9.82324 33.0375 10.3778C33.0491 10.7625 32.8984 10.921 32.4927 10.9097C31.9015 10.887 31.3103 10.8983 30.6611 10.8983C30.6611 11.8942 30.6264 12.8109 30.6727 13.7276C30.6959 14.2029 31.0553 14.4745 31.5421 14.4632C31.9826 14.4518 32.4115 14.3726 32.91 14.316C32.9332 14.4179 32.9679 14.5537 32.9679 14.7008C32.9795 15.2667 32.9679 15.8325 32.9679 16.3983C32.9679 17.4055 32.9795 17.5074 31.9363 17.6432C30.8814 17.779 29.7801 17.813 28.7369 17.6432C27.4386 17.4395 26.6271 16.421 26.5576 15.1195C26.488 13.9765 26.5228 12.8222 26.4996 11.6679C26.4996 11.4302 26.4764 11.1926 26.4533 10.9776C26.3837 10.9436 26.3721 10.921 26.3489 10.921C25.2709 10.7625 25.2709 10.7739 25.2709 9.65349C25.2709 9.20081 25.3056 8.74814 25.2593 8.29546C25.2129 7.83147 25.4216 7.66172 25.8505 7.7183C26.3721 7.7862 26.4996 7.54855 26.4996 7.07324C26.488 5.54546 26.5112 5.54546 27.9834 5.08147C28.6673 4.86645 29.3397 4.65143 30.0236 4.44773C30.1975 4.39114 30.3829 4.36851 30.6727 4.32324C30.6727 5.23991 30.7075 6.08867 30.6611 6.92612C30.6264 7.50328 30.8234 7.67304 31.4146 7.66172C33.0375 7.62777 34.6604 7.66172 36.2832 7.63909C36.7701 7.62777 36.9556 7.80884 37.0483 8.26151C37.2454 9.22345 37.5004 10.1741 37.7438 11.1247C37.7786 11.2831 37.8597 11.4189 38.0336 11.5774C38.2075 11.0341 38.393 10.4909 38.5553 9.93641C38.7523 9.3253 38.9494 8.71419 39.1117 8.09176C39.1928 7.75225 39.3667 7.62777 39.7145 7.63909C40.4911 7.66172 41.2562 7.66172 42.0329 7.63909C42.4154 7.62777 42.5777 7.77489 42.682 8.12571C42.9486 9.0537 43.2384 9.97036 43.5282 10.887C43.5978 11.1134 43.6905 11.3397 43.8876 11.5774C43.9687 11.3284 44.0614 11.0681 44.131 10.8191C44.3744 9.91378 44.6179 8.99711 44.8497 8.08044C44.9308 7.77489 45.0815 7.66172 45.4177 7.66172C47.7593 7.67304 50.0893 7.67304 52.4308 7.66172C52.825 7.66172 52.9177 7.80884 52.9177 8.15966C52.9061 11.1926 52.9061 14.2368 52.9177 17.2697C52.9177 17.7111 52.7438 17.813 52.3381 17.8016C51.318 17.779 50.2863 17.779 49.2662 17.8016C48.791 17.813 48.6866 17.6319 48.6866 17.2018C48.6982 14.565 48.6982 11.9169 48.6982 9.28003C48.6982 9.05369 48.6982 8.83867 48.6982 8.61234C48.6635 8.60102 48.6287 8.60102 48.5939 8.5897C48.5359 8.71419 48.4664 8.82736 48.4316 8.95184C47.5738 11.7245 46.716 14.4971 45.8698 17.2811C45.7539 17.6432 45.6032 17.813 45.1859 17.7903C44.4092 17.7564 43.6441 17.7564 42.8675 17.7903C42.4038 17.813 42.2183 17.6206 42.1024 17.2245C41.801 16.1946 41.4764 15.1648 41.1519 14.1463C41.0939 13.9765 41.0243 13.8068 40.9084 13.4786C40.7577 13.8747 40.6534 14.1123 40.5723 14.35C40.2477 15.3119 39.9115 16.2739 39.6217 17.2584C39.4942 17.6998 39.274 17.813 38.8451 17.7903C38.1148 17.7564 37.3729 17.7451 36.6426 17.7903C36.1557 17.8243 35.9703 17.6093 35.8427 17.1905C35.0313 14.5197 34.2083 11.849 33.3852 9.1895C33.3273 9.00843 33.2577 8.83867 33.1998 8.66892C33.1534 8.70287 33.0954 8.70287 33.0375 8.71419Z" fill="#F22F46"/>
<path d="M22.4768 11.0113C22.4768 17.1111 17.4691 22 11.2094 21.9887C4.98454 22 0 17.0772 0 10.9548C0 4.84364 5.03091 -0.0112971 11.3601 1.97444e-05C17.4923 0.0113366 22.4768 4.94549 22.4768 11.0113ZM11.2558 2.88582C6.64219 2.88582 2.90958 6.4959 2.89799 10.9774C2.8864 15.4702 6.60742 19.1255 11.1978 19.1255C15.8578 19.1255 19.5788 15.5155 19.5788 11.0113C19.5788 6.50722 15.8578 2.88582 11.2558 2.88582Z" fill="#F22F46"/>
<path d="M74.9999 12.6184C74.9999 14.2368 74.316 15.5382 73.0524 16.5454C71.0123 18.175 67.8129 18.2429 65.7263 16.6812C63.9759 15.3684 63.2109 13.6256 63.7325 11.5094C64.2657 9.32523 65.7959 8.05774 67.9868 7.59375C69.8531 7.19766 71.6034 7.51453 73.1104 8.73675C74.3391 9.73264 74.9999 11.0228 74.9999 12.6184ZM69.3662 10.8983C68.3461 10.9096 67.639 11.6452 67.6506 12.6977C67.6506 13.6935 68.3925 14.4857 69.343 14.4857C70.2936 14.4857 71.0354 13.7049 71.0354 12.6977C71.0354 11.6791 70.3167 10.887 69.3662 10.8983Z" fill="#F22F46"/>
<path d="M58.0526 11.0564C58.0526 13.0482 58.041 15.0512 58.0642 17.043C58.0642 17.541 57.9483 17.756 57.3919 17.7333C56.4066 17.6881 55.4212 17.7107 54.4359 17.7333C54.0186 17.7447 53.8447 17.6315 53.8447 17.2015C53.8563 13.0934 53.8563 8.9854 53.8447 4.8887C53.8447 4.53787 53.9722 4.37944 54.3432 4.37944C55.4096 4.39075 56.4645 4.40207 57.531 4.37944C57.9483 4.36812 58.0526 4.53787 58.0526 4.91133C58.0526 6.94837 58.0526 9.00804 58.0526 11.0564Z" fill="#F22F46"/>
<path d="M58.91 12.5846C58.91 11.136 58.9216 9.68746 58.8984 8.22758C58.8984 7.82017 58.9912 7.65042 59.4433 7.66174C60.4981 7.68437 61.5646 7.68437 62.631 7.66174C63.0136 7.65042 63.1411 7.79754 63.1411 8.15968C63.1295 11.1587 63.1295 14.1463 63.1411 17.1453C63.1411 17.4735 63.0252 17.6206 62.6774 17.6206C61.5762 17.6093 60.4749 17.6093 59.3737 17.6206C58.968 17.6319 58.91 17.4282 58.91 17.0887C58.91 15.5949 58.91 14.0897 58.91 12.5846Z" fill="#F22F46"/>
<path d="M50.8771 6.97096C50.3207 6.97096 49.7642 6.95964 49.1962 6.97096C48.8717 6.98228 48.6862 6.89174 48.6978 6.5296C48.721 5.95244 48.6746 5.36396 48.721 4.7868C48.7326 4.63968 48.9644 4.40203 49.1035 4.40203C50.2743 4.36808 51.4567 4.39071 52.6275 4.37939C52.952 4.37939 53.0679 4.5152 53.0679 4.82075C53.0564 5.3866 53.0564 5.95244 53.0679 6.51828C53.0795 6.84647 52.952 6.99359 52.6043 6.98228C52.0363 6.94832 51.4567 6.97096 50.8771 6.97096Z" fill="#F22F46"/>
<path d="M61.0785 4.36823C61.635 4.36823 62.203 4.3456 62.7478 4.39086C62.8985 4.40218 63.1303 4.62852 63.1419 4.76432C63.1883 5.36412 63.1883 5.96391 63.1419 6.5637C63.1303 6.71082 62.8869 6.94848 62.7478 6.94848C61.577 6.98243 60.3946 6.98243 59.2238 6.94848C59.0847 6.94848 58.8297 6.71082 58.8297 6.5637C58.7833 5.96391 58.7833 5.36412 58.8297 4.76432C58.8413 4.6172 59.0847 4.39086 59.2354 4.37955C59.8498 4.3456 60.4642 4.36823 61.0785 4.36823Z" fill="#F22F46"/>
<path d="M8.43902 10.4905C7.1639 10.4905 6.16699 9.51726 6.16699 8.28372C6.16699 7.03886 7.1639 6.06561 8.42742 6.05429C9.71413 6.04298 10.7574 7.05018 10.7458 8.29503C10.7342 9.52857 9.71413 10.4905 8.43902 10.4905Z" fill="#F22F46"/>
<path d="M14.0268 10.4905C12.7632 10.4905 11.7431 9.50594 11.7315 8.28372C11.7199 7.03886 12.7632 6.04298 14.0499 6.05429C15.325 6.06561 16.3104 7.05018 16.3104 8.28372C16.2988 9.52857 15.3019 10.4905 14.0268 10.4905Z" fill="#F22F46"/>
<path d="M8.43889 11.5093C9.71401 11.5093 10.7341 12.4712 10.7457 13.7048C10.7573 14.9496 9.7256 15.9568 8.4273 15.9455C7.15218 15.9342 6.15527 14.9609 6.15527 13.7161C6.16687 12.4825 7.16377 11.5093 8.43889 11.5093Z" fill="#F22F46"/>
<path d="M14.0383 11.5093C15.3135 11.5093 16.3104 12.4825 16.3104 13.7161C16.3104 14.9496 15.3135 15.9342 14.0499 15.9455C12.7632 15.9568 11.7199 14.9496 11.7315 13.7048C11.7431 12.4712 12.7632 11.5093 14.0383 11.5093Z" fill="#F22F46"/>
</g>
<defs>
<clipPath id="clip0_9625_2357">
<rect width="75" height="22" fill="white"/>
</clipPath>
</defs>
</svg>
