<svg width="74" height="24" viewBox="0 0 74 24" fill="none" xmlns="http://www.w3.org/2000/svg">
<g clip-path="url(#clip0_9625_2341)">
<path fill-rule="evenodd" clip-rule="evenodd" d="M0.116512 9.22542L26.3832 0.00897498C26.4593 -0.01801 26.5449 0.0223542 26.5708 0.0996813C26.5765 0.116008 26.5792 0.133016 26.5792 0.148663V23.8518C26.5792 23.9332 26.5128 23.9999 26.4317 23.9999L0.140455 22.7137C0.0620982 22.7094 0.000677437 22.6443 0.000677437 22.5656L0 9.37077C0 9.30002 0.0494463 9.23948 0.116512 9.22542ZM73.9997 23.2586V11.6371H72.9025L70.5075 12.987L70.8166 13.9487L72.748 12.8476V23.2588L73.9997 23.2586ZM67.6819 17.7659C67.3574 19.9512 66.1414 21.9617 63.8813 22.2812L62.6915 22.3586V23.4293C65.6065 23.5597 67.8201 21.7789 68.6296 18.9657C69.3825 16.3522 69.1151 11.4337 65.4423 11.4357C60.8985 11.4377 60.413 19.0521 64.9787 19.0534C66.0626 19.0534 66.9821 18.6049 67.6363 17.7659L67.6819 17.7659ZM65.3335 12.4285C67.2176 12.4385 67.6882 14.6195 67.6819 16.1778C67.6726 18.2691 63.0873 19.3433 63.0776 15.4458C63.074 14.0569 63.7711 12.4392 65.3335 12.4285ZM2.98582 11.7638C2.70536 11.6831 2.41135 11.8446 2.33096 12.1267C2.2499 12.4081 2.41135 12.7029 2.69159 12.7843L12.2877 15.5735L12.5022 15.3951L22.0568 7.47524C22.2819 7.28952 22.3144 6.95436 22.1288 6.72828C21.9439 6.50151 21.6101 6.46886 21.385 6.65526L12.0449 14.397L2.98582 11.7638Z" fill="#1E75BA"/>
<path fill-rule="evenodd" clip-rule="evenodd" d="M60.4855 17.1607H56.8386V18.2002H59.218V21.9865C58.2815 22.5138 56.3707 22.387 55.3941 21.9992C52.2646 20.757 52.0162 15.7958 54.0421 13.7033C55.4352 12.2646 58.0715 12.0408 59.8207 12.8932L60.1608 11.8231C58.6584 11.1152 56.4186 11.1875 54.9411 11.7735C50.4806 13.5429 50.4623 20.1178 53.5968 22.3918C55.4359 23.7268 58.4286 23.6029 60.4855 22.7773V17.1607ZM49.9811 11.8231C48.2198 10.69 43.9633 11.1118 43.9712 14.3826C43.9775 17.1045 46.93 17.441 48.1945 18.3837C50.0313 19.7536 49.1831 22.9587 45.6704 22.2471C45.1072 22.133 44.54 21.9196 44.0791 21.6135L43.7234 22.6843C45.6196 24.0258 50.4294 23.8004 50.4294 20.1085C50.4294 16.1571 45.2689 17.1598 45.2689 14.2125C45.2689 12.0726 48.244 12.0079 49.5952 12.8923L49.9811 11.8231ZM41.6862 11.4349H40.0793C39.1196 14.1178 37.414 18.539 36.7113 21.3963H36.6648C35.8498 18.1755 34.4934 14.594 33.4047 11.4356H31.829L31.0098 23.2591H32.2305L32.7865 12.8472H32.833C33.6113 16.1097 35.0559 20.0067 36.1398 23.2118H37.0819C38.2879 19.8103 39.6216 16.2841 40.6208 12.8472H40.6666C40.649 15.5371 41.0202 20.6976 41.1614 23.2585H42.428L41.6862 11.4349Z" fill="#4B4B4D"/>
</g>
<defs>
<clipPath id="clip0_9625_2341">
<rect width="74" height="24" fill="white"/>
</clipPath>
</defs>
</svg>
