<svg width="1920" height="52" viewBox="0 0 1920 52" fill="none" xmlns="http://www.w3.org/2000/svg">
<path d="M0 0H1920V26V52H0V26V0Z" fill="url(#paint0_linear_5972_27763)"/>
<mask id="mask0_5972_27763" style="mask-type:alpha" maskUnits="userSpaceOnUse" x="0" y="0" width="1920" height="52">
<path d="M0 0H1920V25.6486V52H0V0Z" fill="url(#paint1_linear_5972_27763)"/>
</mask>
<g mask="url(#mask0_5972_27763)">
<g opacity="0.15">
<g clip-path="url(#clip0_5972_27763)">
<path d="M1324.81 -59.7661L1343.41 -41.1622L1343.95 -40.6188L1362.56 -22.015L1343.95 -3.41114L1343.41 -2.86777L1324.81 15.7361L1324.26 16.2794L1324.81 16.8228L1343.41 35.4267L1343.95 35.97L1344.5 35.4267L1363.1 16.8228L1381.7 35.4267L1382.25 35.97L1401.4 55.1172L1401.94 54.5739L1382.79 35.4267L1382.25 34.8833L1363.64 16.2794L1382.25 -2.3244L1382.79 -2.86777L1401.4 -21.4716L1420 -2.86777L1420.54 -2.3244L1421.09 -2.86777L1440.23 -22.015L1439.69 -22.5584L1420.54 -3.41114L1401.94 -22.015L1420.54 -40.6188L1421.09 -41.1622L1439.69 -59.7661L1440.23 -60.3094L1458.84 -78.9133L1477.98 -59.7661L1478.53 -60.3094L1459.38 -79.4566L1458.84 -80L1458.29 -79.4566L1439.69 -60.8528L1420.54 -80L1420 -79.4566L1439.15 -60.3094L1420.54 -41.7056L1401.4 -60.8528L1400.85 -60.3094L1420 -41.1622L1401.4 -22.5584L1400.85 -22.015L1382.25 -3.41114L1363.64 -22.015L1382.25 -40.6188L1382.79 -41.1622L1382.25 -41.7056L1363.64 -60.3094L1382.79 -79.4566L1382.25 -80L1363.1 -60.8528L1362.56 -60.3094L1343.95 -41.7056L1325.35 -60.3094L1344.5 -79.4566L1343.95 -80L1324.81 -60.8528L1305.66 -80L1305.12 -79.4566L1324.26 -60.3094L1324.81 -59.7661ZM1381.7 -2.86777L1363.1 15.7361L1362.56 16.2794L1343.95 34.8833L1325.35 16.2794L1343.95 -2.3244L1344.5 -2.86777L1363.1 -21.4716L1381.7 -2.86777ZM1363.1 -59.7661L1381.7 -41.1622L1363.1 -22.5584L1344.5 -41.1622L1363.1 -59.7661Z" fill="#E2E2E2"/>
<path d="M1535.43 -59.766L1535.97 -60.3094L1535.43 -60.8528L1516.28 -80L1515.74 -79.4566L1534.88 -60.3094L1516.28 -41.7056L1497.67 -60.3094L1497.13 -60.8528L1477.98 -80L1477.44 -79.4566L1496.59 -60.3094L1477.98 -41.7056L1459.38 -60.3094L1458.84 -60.8528L1458.29 -60.3094L1439.69 -41.7056L1439.15 -41.1622L1420 -22.015L1420.54 -21.4716L1439.69 -40.6188L1458.29 -22.015L1439.69 -3.41113L1439.15 -2.86776L1420.54 15.7361L1401.94 -2.86776L1401.4 -3.41113L1400.85 -2.86776L1382.25 15.7361L1381.7 16.2795L1382.25 16.8228L1400.85 35.4267L1401.4 35.97L1420 54.5739L1401.4 73.1777L1382.79 54.5739L1382.25 54.0305L1363.64 35.4267L1363.1 34.8833L1362.56 35.4267L1343.95 54.0305L1325.35 35.4267L1324.81 34.8833L1306.2 16.2795L1324.81 -2.32439L1325.35 -2.86776L1343.95 -21.4716L1344.5 -22.015L1343.95 -22.5583L1325.35 -41.1622L1324.81 -41.7056L1306.2 -60.3094L1305.66 -60.8528L1286.51 -80L1285.97 -79.4566L1305.12 -60.3094L1286.51 -41.7056L1267.91 -60.3094L1267.36 -60.8528L1266.82 -60.3094L1248.22 -41.7056L1247.67 -41.1622L1248.22 -40.6188L1266.82 -22.015L1248.22 -3.41113L1247.67 -2.86776L1248.22 -2.32439L1266.82 16.2795L1248.22 34.8833L1247.67 35.4267L1229.07 54.0305L1228.53 54.5739L1209.38 73.7211L1209.92 74.2645L1229.07 55.1173L1229.61 54.5739L1248.22 35.97L1248.76 35.4267L1267.36 16.8228L1267.91 16.2795L1267.36 15.7361L1248.76 -2.86776L1267.36 -21.4716L1285.97 -2.86776L1286.51 -2.32439L1305.12 16.2795L1305.66 16.8228L1324.26 35.4267L1305.66 54.0305L1305.12 54.5739L1305.66 55.1173L1324.26 73.7211L1305.66 92.325L1286.51 73.1777L1285.97 73.7211L1305.12 92.8683L1305.66 93.4117L1324.26 112.016L1305.66 130.619L1287.06 112.016L1286.51 111.472L1267.36 92.325L1266.82 92.8683L1285.97 112.016L1266.82 131.163L1267.36 131.706L1286.51 112.559L1305.12 131.163L1305.66 131.706L1306.2 131.163L1324.81 112.559L1325.35 112.016L1343.95 93.4117L1362.56 112.016L1343.41 131.163L1343.95 131.706L1363.1 112.559L1381.7 131.163L1382.25 131.706L1382.79 131.163L1401.4 112.559L1401.94 112.016L1420.54 93.4117L1421.09 92.8683L1439.69 74.2645L1458.29 92.8683L1458.84 93.4117L1459.38 92.8683L1478.53 73.7211L1477.98 73.1777L1458.84 92.325L1440.23 73.7211L1439.69 73.1777L1439.15 73.7211L1420.54 92.325L1401.94 73.7211L1420.54 55.1173L1421.09 54.5739L1420.54 54.0305L1401.94 35.4267L1401.4 34.8833L1382.79 16.2795L1401.4 -2.32439L1420 16.2795L1420.54 16.8228L1439.69 35.97L1440.23 35.4267L1421.09 16.2795L1439.69 -2.32439L1458.84 16.8228L1459.38 16.2795L1440.23 -2.86776L1458.84 -21.4716L1459.38 -22.015L1458.84 -22.5583L1440.23 -41.1622L1458.84 -59.766L1477.44 -41.1622L1477.98 -40.6188L1496.59 -22.015L1477.98 -3.41113L1477.44 -2.86776L1477.98 -2.32439L1496.59 16.2795L1497.13 16.8228L1515.74 35.4267L1496.59 54.5739L1497.13 55.1173L1516.28 35.97L1535.43 55.1173L1535.97 54.5739L1516.82 35.4267L1535.43 16.8228L1535.97 16.2795L1535.43 15.7361L1516.82 -2.86776L1516.28 -3.41113L1515.74 -2.86776L1497.13 15.7361L1478.53 -2.86776L1497.13 -21.4716L1497.67 -22.015L1516.28 -40.6188L1535.43 -21.4716L1535.97 -22.015L1516.82 -41.1622L1535.43 -59.766ZM1343.41 -22.015L1324.81 -3.41113L1306.2 -22.015L1324.81 -40.6188L1343.41 -22.015ZM1267.91 -22.015L1267.36 -22.5583L1248.76 -41.1622L1267.36 -59.766L1285.97 -41.1622L1286.51 -40.6188L1287.06 -41.1622L1305.66 -59.766L1324.26 -41.1622L1305.66 -22.5583L1305.12 -22.015L1286.51 -3.41113L1267.91 -22.015ZM1287.06 -2.86776L1305.66 -21.4716L1324.26 -2.86776L1305.66 15.7361L1287.06 -2.86776ZM1400.85 73.7211L1382.25 92.325L1363.64 73.7211L1382.25 55.1173L1400.85 73.7211ZM1363.1 35.97L1381.7 54.5739L1363.1 73.1777L1344.5 54.5739L1363.1 35.97ZM1362.56 73.7211L1343.95 92.325L1325.35 73.7211L1343.95 55.1173L1362.56 73.7211ZM1306.2 54.5739L1324.81 35.97L1343.41 54.5739L1324.81 73.1777L1306.2 54.5739ZM1324.81 111.472L1306.2 92.8683L1324.81 74.2645L1343.41 92.8683L1324.81 111.472ZM1344.5 92.8683L1363.1 74.2645L1381.7 92.8683L1363.1 111.472L1344.5 92.8683ZM1420 92.8683L1401.4 111.472L1400.85 112.016L1382.25 130.619L1363.64 112.016L1382.25 93.4117L1382.79 92.8683L1401.4 74.2645L1420 92.8683ZM1516.28 -2.32439L1534.88 16.2795L1516.28 34.8833L1497.67 16.2795L1516.28 -2.32439ZM1497.13 -22.5583L1478.53 -41.1622L1497.13 -59.766L1515.74 -41.1622L1497.13 -22.5583Z" fill="#E2E2E2"/>
<path d="M1363.11 -3.42397L1343.41 16.2808L1343.95 16.8296L1363.66 -2.87509L1363.11 -3.42397Z" fill="#E2E2E2"/>
<path d="M1151.94 54.5736L1152.48 55.117L1171.09 73.7208L1171.63 74.2642L1172.17 73.7208L1190.78 55.117L1191.32 54.5736L1209.92 35.9698L1210.47 35.4264L1229.07 16.8226L1229.61 16.2792L1229.07 15.7358L1210.47 -2.86801L1229.61 -22.0152L1229.07 -22.5586L1209.92 -3.41138L1209.38 -2.86801L1209.92 -2.32464L1228.53 16.2792L1209.92 34.8831L1191.32 16.2792L1190.78 15.7358L1190.23 16.2792L1171.63 34.8831L1152.48 15.7358L1151.94 16.2792L1171.09 35.4264L1152.48 54.0303L1151.94 54.5736ZM1190.78 16.8226L1209.38 35.4264L1190.78 54.0303L1172.17 35.4264L1190.78 16.8226ZM1171.63 35.9698L1190.23 54.5736L1171.63 73.1775L1153.02 54.5736L1171.63 35.9698Z" fill="#E2E2E2"/>
<path d="M1267.36 55.1173L1267.91 54.5739L1287.06 35.4267L1286.51 34.8833L1267.36 54.0305L1266.82 54.5739L1247.67 73.7211L1248.22 74.2645L1267.36 55.1173Z" fill="#E2E2E2"/>
<path d="M1535.97 73.7211L1535.43 73.1777L1516.82 54.5739L1516.28 54.0305L1515.74 54.5739L1497.13 73.1777L1478.53 54.5739L1497.13 35.97L1497.67 35.4267L1497.13 34.8833L1478.53 16.2795L1477.98 15.7361L1459.38 -2.86776L1477.98 -21.4716L1478.53 -22.015L1477.98 -22.5583L1458.84 -41.7056L1458.29 -41.1622L1477.44 -22.015L1458.84 -3.41113L1458.29 -2.86776L1458.84 -2.3244L1477.44 16.2795L1458.84 34.8833L1439.69 15.7361L1439.15 16.2795L1458.29 35.4267L1439.69 54.0305L1421.09 35.4267L1420.54 34.8833L1401.4 15.7361L1400.85 16.2795L1420 35.4267L1420.54 35.97L1439.15 54.5739L1420 73.7211L1420.54 74.2645L1439.69 55.1173L1458.29 73.7211L1458.84 74.2645L1459.38 73.7211L1477.98 55.1173L1496.59 73.7211L1477.98 92.325L1477.44 92.8683L1458.84 111.472L1440.23 92.8683L1439.69 92.325L1439.15 92.8683L1420.54 111.472L1420 112.016L1400.85 131.163L1401.4 131.706L1420.54 112.559L1421.09 112.016L1439.69 93.4117L1458.29 112.016L1439.15 131.163L1439.69 131.706L1458.84 112.559L1477.98 131.706L1478.53 131.163L1459.38 112.016L1477.98 93.4117L1497.13 112.559L1497.67 112.016L1478.53 92.8683L1497.13 74.2645L1515.74 92.8683L1516.28 93.4117L1534.88 112.016L1515.74 131.163L1516.28 131.706L1535.43 112.559L1535.97 112.016L1535.43 111.472L1516.82 92.8683L1535.43 74.2645L1535.97 73.7211ZM1477.98 16.8228L1496.59 35.4267L1477.98 54.0305L1459.38 35.4267L1477.98 16.8228ZM1458.84 73.1777L1440.23 54.5739L1458.84 35.97L1477.44 54.5739L1458.84 73.1777ZM1516.28 92.325L1497.67 73.7211L1516.28 55.1173L1534.88 73.7211L1516.28 92.325Z" fill="#E2E2E2"/>
<path d="M1267.91 112.016L1267.36 111.472L1248.76 92.8683L1267.36 74.2645L1285.97 92.8683L1286.51 93.4117L1305.66 112.559L1306.2 112.016L1287.06 92.8683L1286.51 92.325L1267.91 73.7211L1286.51 55.1173L1305.66 74.2645L1306.2 73.7211L1287.06 54.5739L1305.66 35.97L1306.2 35.4267L1305.66 34.8833L1287.06 16.2795L1286.51 15.7361L1267.36 -3.41113L1266.82 -2.86776L1285.97 16.2795L1267.36 34.8833L1266.82 35.4267L1248.22 54.0305L1247.67 54.5739L1229.07 73.1777L1228.53 73.7211L1209.92 92.325L1191.32 73.7211L1209.92 55.1173L1210.47 54.5739L1229.07 35.97L1229.61 35.4267L1248.22 16.8228L1248.76 16.2795L1248.22 15.7361L1229.61 -2.86776L1248.22 -21.4716L1248.76 -22.015L1248.22 -22.5583L1229.61 -41.1622L1248.22 -59.766L1248.76 -60.3094L1267.36 -78.9133L1286.51 -59.766L1287.06 -60.3094L1267.91 -79.4566L1267.36 -80L1266.82 -79.4566L1248.22 -60.8528L1247.67 -60.3094L1229.07 -41.7056L1209.92 -60.8528L1209.38 -60.3094L1228.53 -41.1622L1209.92 -22.5583L1209.38 -22.015L1190.78 -3.41113L1172.17 -22.015L1190.78 -40.6188L1191.32 -41.1622L1190.78 -41.7056L1172.17 -60.3094L1191.32 -79.4566L1190.78 -80L1171.63 -60.8528L1171.09 -60.3094L1152.48 -41.7056L1151.94 -41.1622L1152.48 -40.6188L1171.09 -22.015L1152.48 -3.41113L1151.94 -2.86776L1152.48 -2.32439L1171.09 16.2795L1171.63 16.8228L1172.17 16.2795L1190.78 -2.32439L1209.92 16.8228L1210.47 16.2795L1191.32 -2.86776L1209.92 -21.4716L1210.47 -22.015L1229.07 -40.6188L1247.67 -22.015L1229.07 -3.41113L1228.53 -2.86776L1229.07 -2.32439L1247.67 16.2795L1229.07 34.8833L1228.53 35.4267L1209.92 54.0305L1209.38 54.5739L1190.78 73.1777L1190.23 73.7211L1171.63 92.325L1152.48 73.1777L1151.94 73.7211L1171.09 92.8683L1152.48 111.472L1151.94 112.016L1152.48 112.559L1171.63 131.706L1172.17 131.163L1153.02 112.016L1171.63 93.4117L1172.17 92.8683L1190.78 74.2645L1209.38 92.8683L1209.92 93.4117L1228.53 112.016L1209.92 130.619L1190.78 111.472L1190.23 112.016L1209.38 131.163L1209.92 131.706L1210.47 131.163L1229.07 112.559L1247.67 131.163L1248.22 131.706L1248.76 131.163L1267.36 112.559L1267.91 112.016ZM1153.02 -41.1622L1171.63 -59.766L1190.23 -41.1622L1171.63 -22.5583L1153.02 -41.1622ZM1171.63 15.7361L1153.02 -2.86776L1171.63 -21.4716L1190.23 -2.86776L1171.63 15.7361ZM1248.22 55.1173L1248.76 54.5739L1267.36 35.97L1267.91 35.4267L1286.51 16.8228L1305.12 35.4267L1286.51 54.0305L1285.97 54.5739L1267.36 73.1777L1266.82 73.7211L1248.22 92.325L1229.61 73.7211L1248.22 55.1173ZM1210.47 92.8683L1229.07 74.2645L1247.67 92.8683L1229.07 111.472L1210.47 92.8683ZM1248.22 130.619L1229.61 112.016L1248.22 93.4117L1266.82 112.016L1248.22 130.619Z" fill="#E2E2E2"/>
</g>
<g clip-path="url(#clip1_5972_27763)">
<path d="M556.848 -59.7661L575.451 -41.1622L575.995 -40.6188L594.599 -22.015L575.995 -3.41114L575.451 -2.86777L556.848 15.7361L556.304 16.2794L556.848 16.8228L575.451 35.4267L575.995 35.97L576.538 35.4267L595.142 16.8228L613.746 35.4267L614.289 35.97L633.436 55.1172L633.98 54.5739L614.833 35.4267L614.289 34.8833L595.685 16.2794L614.289 -2.3244L614.833 -2.86777L633.436 -21.4716L652.04 -2.86777L652.584 -2.3244L653.127 -2.86777L672.274 -22.015L671.731 -22.5584L652.584 -3.41114L633.98 -22.015L652.584 -40.6188L653.127 -41.1622L671.731 -59.7661L672.274 -60.3094L690.878 -78.9133L710.025 -59.7661L710.569 -60.3094L691.421 -79.4566L690.878 -80L690.335 -79.4566L671.731 -60.8528L652.584 -80L652.04 -79.4566L671.188 -60.3094L652.584 -41.7056L633.436 -60.8528L632.893 -60.3094L652.04 -41.1622L633.436 -22.5584L632.893 -22.015L614.289 -3.41114L595.685 -22.015L614.289 -40.6188L614.833 -41.1622L614.289 -41.7056L595.685 -60.3094L614.833 -79.4566L614.289 -80L595.142 -60.8528L594.599 -60.3094L575.995 -41.7056L557.391 -60.3094L576.538 -79.4566L575.995 -80L556.848 -60.8528L537.7 -80L537.157 -79.4566L556.304 -60.3094L556.848 -59.7661ZM613.746 -2.86777L595.142 15.7361L594.599 16.2794L575.995 34.8833L557.391 16.2794L575.995 -2.3244L576.538 -2.86777L595.142 -21.4716L613.746 -2.86777ZM595.142 -59.7661L613.746 -41.1622L595.142 -22.5584L576.538 -41.1622L595.142 -59.7661Z" fill="#E2E2E2"/>
<path d="M767.467 -59.766L768.01 -60.3094L767.467 -60.8528L748.32 -80L747.776 -79.4566L766.924 -60.3094L748.32 -41.7056L729.716 -60.3094L729.172 -60.8528L710.025 -80L709.482 -79.4566L728.629 -60.3094L710.025 -41.7056L691.421 -60.3094L690.878 -60.8528L690.335 -60.3094L671.731 -41.7056L671.187 -41.1622L652.04 -22.015L652.584 -21.4716L671.731 -40.6188L690.335 -22.015L671.731 -3.41113L671.187 -2.86776L652.584 15.7361L633.98 -2.86776L633.436 -3.41113L632.893 -2.86776L614.289 15.7361L613.746 16.2795L614.289 16.8228L632.893 35.4267L633.436 35.97L652.04 54.5739L633.436 73.1777L614.833 54.5739L614.289 54.0305L595.685 35.4267L595.142 34.8833L594.599 35.4267L575.995 54.0305L557.391 35.4267L556.848 34.8833L538.244 16.2795L556.848 -2.32439L557.391 -2.86776L575.995 -21.4716L576.538 -22.015L575.995 -22.5583L557.391 -41.1622L556.848 -41.7056L538.244 -60.3094L537.7 -60.8528L518.553 -80L518.01 -79.4566L537.157 -60.3094L518.553 -41.7056L499.949 -60.3094L499.406 -60.8528L498.863 -60.3094L480.259 -41.7056L479.715 -41.1622L480.259 -40.6188L498.863 -22.015L480.259 -3.41113L479.715 -2.86776L480.259 -2.32439L498.863 16.2795L480.259 34.8833L479.715 35.4267L461.111 54.0305L460.568 54.5739L441.421 73.7211L441.964 74.2645L461.111 55.1173L461.655 54.5739L480.259 35.97L480.802 35.4267L499.406 16.8228L499.949 16.2795L499.406 15.7361L480.802 -2.86776L499.406 -21.4716L518.01 -2.86776L518.553 -2.32439L537.157 16.2795L537.7 16.8228L556.304 35.4267L537.7 54.0305L537.157 54.5739L537.7 55.1173L556.304 73.7211L537.7 92.325L518.553 73.1777L518.01 73.7211L537.157 92.8683L537.7 93.4117L556.304 112.016L537.7 130.619L519.096 112.016L518.553 111.472L499.406 92.325L498.863 92.8683L518.01 112.016L498.863 131.163L499.406 131.706L518.553 112.559L537.157 131.163L537.7 131.706L538.244 131.163L556.848 112.559L557.391 112.016L575.995 93.4117L594.599 112.016L575.451 131.163L575.995 131.706L595.142 112.559L613.746 131.163L614.289 131.706L614.833 131.163L633.436 112.559L633.98 112.016L652.584 93.4117L653.127 92.8683L671.731 74.2645L690.335 92.8683L690.878 93.4117L691.421 92.8683L710.569 73.7211L710.025 73.1777L690.878 92.325L672.274 73.7211L671.731 73.1777L671.187 73.7211L652.584 92.325L633.98 73.7211L652.584 55.1173L653.127 54.5739L652.584 54.0305L633.98 35.4267L633.436 34.8833L614.833 16.2795L633.436 -2.32439L652.04 16.2795L652.584 16.8228L671.731 35.97L672.274 35.4267L653.127 16.2795L671.731 -2.32439L690.878 16.8228L691.421 16.2795L672.274 -2.86776L690.878 -21.4716L691.421 -22.015L690.878 -22.5583L672.274 -41.1622L690.878 -59.766L709.482 -41.1622L710.025 -40.6188L728.629 -22.015L710.025 -3.41113L709.482 -2.86776L710.025 -2.32439L728.629 16.2795L729.172 16.8228L747.776 35.4267L728.629 54.5739L729.172 55.1173L748.32 35.97L767.467 55.1173L768.01 54.5739L748.863 35.4267L767.467 16.8228L768.01 16.2795L767.467 15.7361L748.863 -2.86776L748.32 -3.41113L747.776 -2.86776L729.172 15.7361L710.569 -2.86776L729.172 -21.4716L729.716 -22.015L748.32 -40.6188L767.467 -21.4716L768.01 -22.015L748.863 -41.1622L767.467 -59.766ZM575.451 -22.015L556.848 -3.41113L538.244 -22.015L556.848 -40.6188L575.451 -22.015ZM499.949 -22.015L499.406 -22.5583L480.802 -41.1622L499.406 -59.766L518.01 -41.1622L518.553 -40.6188L519.096 -41.1622L537.7 -59.766L556.304 -41.1622L537.7 -22.5583L537.157 -22.015L518.553 -3.41113L499.949 -22.015ZM519.096 -2.86776L537.7 -21.4716L556.304 -2.86776L537.7 15.7361L519.096 -2.86776ZM632.893 73.7211L614.289 92.325L595.685 73.7211L614.289 55.1173L632.893 73.7211ZM595.142 35.97L613.746 54.5739L595.142 73.1777L576.538 54.5739L595.142 35.97ZM594.599 73.7211L575.995 92.325L557.391 73.7211L575.995 55.1173L594.599 73.7211ZM538.244 54.5739L556.848 35.97L575.451 54.5739L556.848 73.1777L538.244 54.5739ZM556.848 111.472L538.244 92.8683L556.848 74.2645L575.451 92.8683L556.848 111.472ZM576.538 92.8683L595.142 74.2645L613.746 92.8683L595.142 111.472L576.538 92.8683ZM652.04 92.8683L633.436 111.472L632.893 112.016L614.289 130.619L595.685 112.016L614.289 93.4117L614.833 92.8683L633.436 74.2645L652.04 92.8683ZM748.32 -2.32439L766.924 16.2795L748.32 34.8833L729.716 16.2795L748.32 -2.32439ZM729.172 -22.5583L710.569 -41.1622L729.172 -59.766L747.776 -41.1622L729.172 -22.5583Z" fill="#E2E2E2"/>
<path d="M595.151 -3.42397L575.446 16.2808L575.995 16.8296L595.7 -2.87509L595.151 -3.42397Z" fill="#E2E2E2"/>
<path d="M383.979 54.5736L384.523 55.117L403.126 73.7208L403.67 74.2642L404.213 73.7208L422.817 55.117L423.36 54.5736L441.964 35.9698L442.508 35.4264L461.111 16.8226L461.655 16.2792L461.111 15.7358L442.508 -2.86801L461.655 -22.0152L461.111 -22.5586L441.964 -3.41138L441.421 -2.86801L441.964 -2.32464L460.568 16.2792L441.964 34.8831L423.36 16.2792L422.817 15.7358L422.274 16.2792L403.67 34.8831L384.523 15.7358L383.979 16.2792L403.126 35.4264L384.523 54.0303L383.979 54.5736ZM422.817 16.8226L441.421 35.4264L422.817 54.0303L404.213 35.4264L422.817 16.8226ZM403.67 35.9698L422.274 54.5736L403.67 73.1775L385.066 54.5736L403.67 35.9698Z" fill="#E2E2E2"/>
<path d="M499.406 55.1173L499.949 54.5739L519.096 35.4267L518.553 34.8833L499.406 54.0305L498.863 54.5739L479.715 73.7211L480.259 74.2645L499.406 55.1173Z" fill="#E2E2E2"/>
<path d="M768.01 73.7211L767.467 73.1777L748.863 54.5739L748.32 54.0305L747.776 54.5739L729.173 73.1777L710.569 54.5739L729.173 35.97L729.716 35.4267L729.173 34.8833L710.569 16.2795L710.025 15.7361L691.421 -2.86776L710.025 -21.4716L710.569 -22.015L710.025 -22.5583L690.878 -41.7056L690.335 -41.1622L709.482 -22.015L690.878 -3.41113L690.335 -2.86776L690.878 -2.3244L709.482 16.2795L690.878 34.8833L671.731 15.7361L671.188 16.2795L690.335 35.4267L671.731 54.0305L653.127 35.4267L652.584 34.8833L633.436 15.7361L632.893 16.2795L652.04 35.4267L652.584 35.97L671.188 54.5739L652.04 73.7211L652.584 74.2645L671.731 55.1173L690.335 73.7211L690.878 74.2645L691.421 73.7211L710.025 55.1173L728.629 73.7211L710.025 92.325L709.482 92.8683L690.878 111.472L672.274 92.8683L671.731 92.325L671.188 92.8683L652.584 111.472L652.04 112.016L632.893 131.163L633.436 131.706L652.584 112.559L653.127 112.016L671.731 93.4117L690.335 112.016L671.188 131.163L671.731 131.706L690.878 112.559L710.025 131.706L710.569 131.163L691.421 112.016L710.025 93.4117L729.173 112.559L729.716 112.016L710.569 92.8683L729.173 74.2645L747.776 92.8683L748.32 93.4117L766.924 112.016L747.776 131.163L748.32 131.706L767.467 112.559L768.01 112.016L767.467 111.472L748.863 92.8683L767.467 74.2645L768.01 73.7211ZM710.025 16.8228L728.629 35.4267L710.025 54.0305L691.421 35.4267L710.025 16.8228ZM690.878 73.1777L672.274 54.5739L690.878 35.97L709.482 54.5739L690.878 73.1777ZM748.32 92.325L729.716 73.7211L748.32 55.1173L766.924 73.7211L748.32 92.325Z" fill="#E2E2E2"/>
<path d="M499.949 112.016L499.406 111.472L480.802 92.8683L499.406 74.2645L518.01 92.8683L518.553 93.4117L537.7 112.559L538.244 112.016L519.097 92.8683L518.553 92.325L499.949 73.7211L518.553 55.1173L537.7 74.2645L538.244 73.7211L519.097 54.5739L537.7 35.97L538.244 35.4267L537.7 34.8833L519.097 16.2795L518.553 15.7361L499.406 -3.41113L498.863 -2.86776L518.01 16.2795L499.406 34.8833L498.863 35.4267L480.259 54.0305L479.715 54.5739L461.111 73.1777L460.568 73.7211L441.964 92.325L423.36 73.7211L441.964 55.1173L442.508 54.5739L461.111 35.97L461.655 35.4267L480.259 16.8228L480.802 16.2795L480.259 15.7361L461.655 -2.86776L480.259 -21.4716L480.802 -22.015L480.259 -22.5583L461.655 -41.1622L480.259 -59.766L480.802 -60.3094L499.406 -78.9133L518.553 -59.766L519.097 -60.3094L499.949 -79.4566L499.406 -80L498.863 -79.4566L480.259 -60.8528L479.715 -60.3094L461.111 -41.7056L441.964 -60.8528L441.421 -60.3094L460.568 -41.1622L441.964 -22.5583L441.421 -22.015L422.817 -3.41113L404.213 -22.015L422.817 -40.6188L423.36 -41.1622L422.817 -41.7056L404.213 -60.3094L423.36 -79.4566L422.817 -80L403.67 -60.8528L403.126 -60.3094L384.523 -41.7056L383.979 -41.1622L384.523 -40.6188L403.126 -22.015L384.523 -3.41113L383.979 -2.86776L384.523 -2.32439L403.126 16.2795L403.67 16.8228L404.213 16.2795L422.817 -2.32439L441.964 16.8228L442.508 16.2795L423.36 -2.86776L441.964 -21.4716L442.508 -22.015L461.111 -40.6188L479.715 -22.015L461.111 -3.41113L460.568 -2.86776L461.111 -2.32439L479.715 16.2795L461.111 34.8833L460.568 35.4267L441.964 54.0305L441.421 54.5739L422.817 73.1777L422.274 73.7211L403.67 92.325L384.523 73.1777L383.979 73.7211L403.126 92.8683L384.523 111.472L383.979 112.016L384.523 112.559L403.67 131.706L404.213 131.163L385.066 112.016L403.67 93.4117L404.213 92.8683L422.817 74.2645L441.421 92.8683L441.964 93.4117L460.568 112.016L441.964 130.619L422.817 111.472L422.274 112.016L441.421 131.163L441.964 131.706L442.508 131.163L461.111 112.559L479.715 131.163L480.259 131.706L480.802 131.163L499.406 112.559L499.949 112.016ZM385.066 -41.1622L403.67 -59.766L422.274 -41.1622L403.67 -22.5583L385.066 -41.1622ZM403.67 15.7361L385.066 -2.86776L403.67 -21.4716L422.274 -2.86776L403.67 15.7361ZM480.259 55.1173L480.802 54.5739L499.406 35.97L499.949 35.4267L518.553 16.8228L537.157 35.4267L518.553 54.0305L518.01 54.5739L499.406 73.1777L498.863 73.7211L480.259 92.325L461.655 73.7211L480.259 55.1173ZM442.508 92.8683L461.111 74.2645L479.715 92.8683L461.111 111.472L442.508 92.8683ZM480.259 130.619L461.655 112.016L480.259 93.4117L498.863 112.016L480.259 130.619Z" fill="#E2E2E2"/>
</g>
<g clip-path="url(#clip2_5972_27763)">
<path d="M1708.84 -59.7661L1727.44 -41.1622L1727.98 -40.6188L1746.59 -22.015L1727.98 -3.41114L1727.44 -2.86777L1708.84 15.7361L1708.29 16.2794L1708.84 16.8228L1727.44 35.4267L1727.98 35.97L1728.53 35.4267L1747.13 16.8228L1765.74 35.4267L1766.28 35.97L1785.43 55.1172L1785.97 54.5739L1766.82 35.4267L1766.28 34.8833L1747.68 16.2794L1766.28 -2.3244L1766.82 -2.86777L1785.43 -21.4716L1804.03 -2.86777L1804.57 -2.3244L1805.12 -2.86777L1824.26 -22.015L1823.72 -22.5584L1804.57 -3.41114L1785.97 -22.015L1804.57 -40.6188L1805.12 -41.1622L1823.72 -59.7661L1824.26 -60.3094L1842.87 -78.9133L1862.02 -59.7661L1862.56 -60.3094L1843.41 -79.4566L1842.87 -80L1842.32 -79.4566L1823.72 -60.8528L1804.57 -80L1804.03 -79.4566L1823.18 -60.3094L1804.57 -41.7056L1785.43 -60.8528L1784.88 -60.3094L1804.03 -41.1622L1785.43 -22.5584L1784.88 -22.015L1766.28 -3.41114L1747.68 -22.015L1766.28 -40.6188L1766.82 -41.1622L1766.28 -41.7056L1747.68 -60.3094L1766.82 -79.4566L1766.28 -80L1747.13 -60.8528L1746.59 -60.3094L1727.98 -41.7056L1709.38 -60.3094L1728.53 -79.4566L1727.98 -80L1708.84 -60.8528L1689.69 -80L1689.15 -79.4566L1708.29 -60.3094L1708.84 -59.7661ZM1765.74 -2.86777L1747.13 15.7361L1746.59 16.2794L1727.98 34.8833L1709.38 16.2794L1727.98 -2.3244L1728.53 -2.86777L1747.13 -21.4716L1765.74 -2.86777ZM1747.13 -59.7661L1765.74 -41.1622L1747.13 -22.5584L1728.53 -41.1622L1747.13 -59.7661Z" fill="#E2E2E2"/>
<path d="M1919.46 -59.766L1920 -60.3094L1919.46 -60.8528L1900.31 -80L1899.77 -79.4566L1918.91 -60.3094L1900.31 -41.7056L1881.71 -60.3094L1881.16 -60.8528L1862.02 -80L1861.47 -79.4566L1880.62 -60.3094L1862.02 -41.7056L1843.41 -60.3094L1842.87 -60.8528L1842.32 -60.3094L1823.72 -41.7056L1823.18 -41.1622L1804.03 -22.015L1804.57 -21.4716L1823.72 -40.6188L1842.32 -22.015L1823.72 -3.41113L1823.18 -2.86776L1804.57 15.7361L1785.97 -2.86776L1785.43 -3.41113L1784.88 -2.86776L1766.28 15.7361L1765.74 16.2795L1766.28 16.8228L1784.88 35.4267L1785.43 35.97L1804.03 54.5739L1785.43 73.1777L1766.82 54.5739L1766.28 54.0305L1747.68 35.4267L1747.13 34.8833L1746.59 35.4267L1727.98 54.0305L1709.38 35.4267L1708.84 34.8833L1690.23 16.2795L1708.84 -2.32439L1709.38 -2.86776L1727.98 -21.4716L1728.53 -22.015L1727.98 -22.5583L1709.38 -41.1622L1708.84 -41.7056L1690.23 -60.3094L1689.69 -60.8528L1670.54 -80L1670 -79.4566L1689.15 -60.3094L1670.54 -41.7056L1651.94 -60.3094L1651.4 -60.8528L1650.85 -60.3094L1632.25 -41.7056L1631.71 -41.1622L1632.25 -40.6188L1650.85 -22.015L1632.25 -3.41113L1631.71 -2.86776L1632.25 -2.32439L1650.85 16.2795L1632.25 34.8833L1631.71 35.4267L1613.1 54.0305L1612.56 54.5739L1593.41 73.7211L1593.95 74.2645L1613.1 55.1173L1613.64 54.5739L1632.25 35.97L1632.79 35.4267L1651.4 16.8228L1651.94 16.2795L1651.4 15.7361L1632.79 -2.86776L1651.4 -21.4716L1670 -2.86776L1670.54 -2.32439L1689.15 16.2795L1689.69 16.8228L1708.29 35.4267L1689.69 54.0305L1689.15 54.5739L1689.69 55.1173L1708.29 73.7211L1689.69 92.325L1670.54 73.1777L1670 73.7211L1689.15 92.8683L1689.69 93.4117L1708.29 112.016L1689.69 130.619L1671.09 112.016L1670.54 111.472L1651.4 92.325L1650.85 92.8683L1670 112.016L1650.85 131.163L1651.4 131.706L1670.54 112.559L1689.15 131.163L1689.69 131.706L1690.23 131.163L1708.84 112.559L1709.38 112.016L1727.98 93.4117L1746.59 112.016L1727.44 131.163L1727.98 131.706L1747.13 112.559L1765.74 131.163L1766.28 131.706L1766.82 131.163L1785.43 112.559L1785.97 112.016L1804.57 93.4117L1805.12 92.8683L1823.72 74.2645L1842.32 92.8683L1842.87 93.4117L1843.41 92.8683L1862.56 73.7211L1862.02 73.1777L1842.87 92.325L1824.26 73.7211L1823.72 73.1777L1823.18 73.7211L1804.57 92.325L1785.97 73.7211L1804.57 55.1173L1805.12 54.5739L1804.57 54.0305L1785.97 35.4267L1785.43 34.8833L1766.82 16.2795L1785.43 -2.32439L1804.03 16.2795L1804.57 16.8228L1823.72 35.97L1824.26 35.4267L1805.12 16.2795L1823.72 -2.32439L1842.87 16.8228L1843.41 16.2795L1824.26 -2.86776L1842.87 -21.4716L1843.41 -22.015L1842.87 -22.5583L1824.26 -41.1622L1842.87 -59.766L1861.47 -41.1622L1862.02 -40.6188L1880.62 -22.015L1862.02 -3.41113L1861.47 -2.86776L1862.02 -2.32439L1880.62 16.2795L1881.16 16.8228L1899.77 35.4267L1880.62 54.5739L1881.16 55.1173L1900.31 35.97L1919.46 55.1173L1920 54.5739L1900.85 35.4267L1919.46 16.8228L1920 16.2795L1919.46 15.7361L1900.85 -2.86776L1900.31 -3.41113L1899.77 -2.86776L1881.16 15.7361L1862.56 -2.86776L1881.16 -21.4716L1881.71 -22.015L1900.31 -40.6188L1919.46 -21.4716L1920 -22.015L1900.85 -41.1622L1919.46 -59.766ZM1727.44 -22.015L1708.84 -3.41113L1690.23 -22.015L1708.84 -40.6188L1727.44 -22.015ZM1651.94 -22.015L1651.4 -22.5583L1632.79 -41.1622L1651.4 -59.766L1670 -41.1622L1670.54 -40.6188L1671.09 -41.1622L1689.69 -59.766L1708.29 -41.1622L1689.69 -22.5583L1689.15 -22.015L1670.54 -3.41113L1651.94 -22.015ZM1671.09 -2.86776L1689.69 -21.4716L1708.29 -2.86776L1689.69 15.7361L1671.09 -2.86776ZM1784.88 73.7211L1766.28 92.325L1747.68 73.7211L1766.28 55.1173L1784.88 73.7211ZM1747.13 35.97L1765.74 54.5739L1747.13 73.1777L1728.53 54.5739L1747.13 35.97ZM1746.59 73.7211L1727.98 92.325L1709.38 73.7211L1727.98 55.1173L1746.59 73.7211ZM1690.23 54.5739L1708.84 35.97L1727.44 54.5739L1708.84 73.1777L1690.23 54.5739ZM1708.84 111.472L1690.23 92.8683L1708.84 74.2645L1727.44 92.8683L1708.84 111.472ZM1728.53 92.8683L1747.13 74.2645L1765.74 92.8683L1747.13 111.472L1728.53 92.8683ZM1804.03 92.8683L1785.43 111.472L1784.88 112.016L1766.28 130.619L1747.68 112.016L1766.28 93.4117L1766.82 92.8683L1785.43 74.2645L1804.03 92.8683ZM1900.31 -2.32439L1918.91 16.2795L1900.31 34.8833L1881.71 16.2795L1900.31 -2.32439ZM1881.16 -22.5583L1862.56 -41.1622L1881.16 -59.766L1899.77 -41.1622L1881.16 -22.5583Z" fill="#E2E2E2"/>
<path d="M1747.14 -3.42397L1727.44 16.2808L1727.98 16.8296L1747.69 -2.87509L1747.14 -3.42397Z" fill="#E2E2E2"/>
<path d="M1535.97 54.5736L1536.51 55.117L1555.12 73.7208L1555.66 74.2642L1556.2 73.7208L1574.81 55.117L1575.35 54.5736L1593.95 35.9698L1594.5 35.4264L1613.1 16.8226L1613.64 16.2792L1613.1 15.7358L1594.5 -2.86801L1613.64 -22.0152L1613.1 -22.5586L1593.95 -3.41138L1593.41 -2.86801L1593.95 -2.32464L1612.56 16.2792L1593.95 34.8831L1575.35 16.2792L1574.81 15.7358L1574.26 16.2792L1555.66 34.8831L1536.51 15.7358L1535.97 16.2792L1555.12 35.4264L1536.51 54.0303L1535.97 54.5736ZM1574.81 16.8226L1593.41 35.4264L1574.81 54.0303L1556.2 35.4264L1574.81 16.8226ZM1555.66 35.9698L1574.26 54.5736L1555.66 73.1775L1537.06 54.5736L1555.66 35.9698Z" fill="#E2E2E2"/>
<path d="M1651.4 55.1173L1651.94 54.5739L1671.09 35.4267L1670.54 34.8833L1651.4 54.0305L1650.85 54.5739L1631.71 73.7211L1632.25 74.2645L1651.4 55.1173Z" fill="#E2E2E2"/>
<path d="M1920 73.7211L1919.46 73.1777L1900.85 54.5739L1900.31 54.0305L1899.77 54.5739L1881.16 73.1777L1862.56 54.5739L1881.16 35.97L1881.71 35.4267L1881.16 34.8833L1862.56 16.2795L1862.02 15.7361L1843.41 -2.86776L1862.02 -21.4716L1862.56 -22.015L1862.02 -22.5583L1842.87 -41.7056L1842.32 -41.1622L1861.47 -22.015L1842.87 -3.41113L1842.32 -2.86776L1842.87 -2.3244L1861.47 16.2795L1842.87 34.8833L1823.72 15.7361L1823.18 16.2795L1842.32 35.4267L1823.72 54.0305L1805.12 35.4267L1804.57 34.8833L1785.43 15.7361L1784.88 16.2795L1804.03 35.4267L1804.57 35.97L1823.18 54.5739L1804.03 73.7211L1804.57 74.2645L1823.72 55.1173L1842.32 73.7211L1842.87 74.2645L1843.41 73.7211L1862.02 55.1173L1880.62 73.7211L1862.02 92.325L1861.47 92.8683L1842.87 111.472L1824.26 92.8683L1823.72 92.325L1823.18 92.8683L1804.57 111.472L1804.03 112.016L1784.88 131.163L1785.43 131.706L1804.57 112.559L1805.12 112.016L1823.72 93.4117L1842.32 112.016L1823.18 131.163L1823.72 131.706L1842.87 112.559L1862.02 131.706L1862.56 131.163L1843.41 112.016L1862.02 93.4117L1881.16 112.559L1881.71 112.016L1862.56 92.8683L1881.16 74.2645L1899.77 92.8683L1900.31 93.4117L1918.91 112.016L1899.77 131.163L1900.31 131.706L1919.46 112.559L1920 112.016L1919.46 111.472L1900.85 92.8683L1919.46 74.2645L1920 73.7211ZM1862.02 16.8228L1880.62 35.4267L1862.02 54.0305L1843.41 35.4267L1862.02 16.8228ZM1842.87 73.1777L1824.26 54.5739L1842.87 35.97L1861.47 54.5739L1842.87 73.1777ZM1900.31 92.325L1881.71 73.7211L1900.31 55.1173L1918.91 73.7211L1900.31 92.325Z" fill="#E2E2E2"/>
<path d="M1651.94 112.016L1651.4 111.472L1632.79 92.8683L1651.4 74.2645L1670 92.8683L1670.54 93.4117L1689.69 112.559L1690.23 112.016L1671.09 92.8683L1670.54 92.325L1651.94 73.7211L1670.54 55.1173L1689.69 74.2645L1690.23 73.7211L1671.09 54.5739L1689.69 35.97L1690.23 35.4267L1689.69 34.8833L1671.09 16.2795L1670.54 15.7361L1651.4 -3.41113L1650.85 -2.86776L1670 16.2795L1651.4 34.8833L1650.85 35.4267L1632.25 54.0305L1631.71 54.5739L1613.1 73.1777L1612.56 73.7211L1593.95 92.325L1575.35 73.7211L1593.95 55.1173L1594.5 54.5739L1613.1 35.97L1613.64 35.4267L1632.25 16.8228L1632.79 16.2795L1632.25 15.7361L1613.64 -2.86776L1632.25 -21.4716L1632.79 -22.015L1632.25 -22.5583L1613.64 -41.1622L1632.25 -59.766L1632.79 -60.3094L1651.4 -78.9133L1670.54 -59.766L1671.09 -60.3094L1651.94 -79.4566L1651.4 -80L1650.85 -79.4566L1632.25 -60.8528L1631.71 -60.3094L1613.1 -41.7056L1593.95 -60.8528L1593.41 -60.3094L1612.56 -41.1622L1593.95 -22.5583L1593.41 -22.015L1574.81 -3.41113L1556.2 -22.015L1574.81 -40.6188L1575.35 -41.1622L1574.81 -41.7056L1556.2 -60.3094L1575.35 -79.4566L1574.81 -80L1555.66 -60.8528L1555.12 -60.3094L1536.51 -41.7056L1535.97 -41.1622L1536.51 -40.6188L1555.12 -22.015L1536.51 -3.41113L1535.97 -2.86776L1536.51 -2.32439L1555.12 16.2795L1555.66 16.8228L1556.2 16.2795L1574.81 -2.32439L1593.95 16.8228L1594.5 16.2795L1575.35 -2.86776L1593.95 -21.4716L1594.5 -22.015L1613.1 -40.6188L1631.71 -22.015L1613.1 -3.41113L1612.56 -2.86776L1613.1 -2.32439L1631.71 16.2795L1613.1 34.8833L1612.56 35.4267L1593.95 54.0305L1593.41 54.5739L1574.81 73.1777L1574.26 73.7211L1555.66 92.325L1536.51 73.1777L1535.97 73.7211L1555.12 92.8683L1536.51 111.472L1535.97 112.016L1536.51 112.559L1555.66 131.706L1556.2 131.163L1537.06 112.016L1555.66 93.4117L1556.2 92.8683L1574.81 74.2645L1593.41 92.8683L1593.95 93.4117L1612.56 112.016L1593.95 130.619L1574.81 111.472L1574.26 112.016L1593.41 131.163L1593.95 131.706L1594.5 131.163L1613.1 112.559L1631.71 131.163L1632.25 131.706L1632.79 131.163L1651.4 112.559L1651.94 112.016ZM1537.06 -41.1622L1555.66 -59.766L1574.26 -41.1622L1555.66 -22.5583L1537.06 -41.1622ZM1555.66 15.7361L1537.06 -2.86776L1555.66 -21.4716L1574.26 -2.86776L1555.66 15.7361ZM1632.25 55.1173L1632.79 54.5739L1651.4 35.97L1651.94 35.4267L1670.54 16.8228L1689.15 35.4267L1670.54 54.0305L1670 54.5739L1651.4 73.1777L1650.85 73.7211L1632.25 92.325L1613.64 73.7211L1632.25 55.1173ZM1594.5 92.8683L1613.1 74.2645L1631.71 92.8683L1613.1 111.472L1594.5 92.8683ZM1632.25 130.619L1613.64 112.016L1632.25 93.4117L1650.85 112.016L1632.25 130.619Z" fill="#E2E2E2"/>
</g>
<g clip-path="url(#clip3_5972_27763)">
<path d="M172.868 -59.7661L191.472 -41.1622L192.016 -40.6188L210.619 -22.015L192.016 -3.41114L191.472 -2.86777L172.868 15.7361L172.325 16.2794L172.868 16.8228L191.472 35.4267L192.016 35.97L192.559 35.4267L211.163 16.8228L229.767 35.4267L230.31 35.97L249.457 55.1172L250.001 54.5739L230.853 35.4267L230.31 34.8833L211.706 16.2794L230.31 -2.3244L230.853 -2.86777L249.457 -21.4716L268.061 -2.86777L268.604 -2.3244L269.148 -2.86777L288.295 -22.015L287.752 -22.5584L268.604 -3.41114L250.001 -22.015L268.604 -40.6188L269.148 -41.1622L287.752 -59.7661L288.295 -60.3094L306.899 -78.9133L326.046 -59.7661L326.589 -60.3094L307.442 -79.4566L306.899 -80L306.355 -79.4566L287.752 -60.8528L268.604 -80L268.061 -79.4566L287.208 -60.3094L268.604 -41.7056L249.457 -60.8528L248.914 -60.3094L268.061 -41.1622L249.457 -22.5584L248.914 -22.015L230.31 -3.41114L211.706 -22.015L230.31 -40.6188L230.853 -41.1622L230.31 -41.7056L211.706 -60.3094L230.853 -79.4566L230.31 -80L211.163 -60.8528L210.619 -60.3094L192.016 -41.7056L173.412 -60.3094L192.559 -79.4566L192.016 -80L172.868 -60.8528L153.721 -80L153.178 -79.4566L172.325 -60.3094L172.868 -59.7661ZM229.767 -2.86777L211.163 15.7361L210.619 16.2794L192.016 34.8833L173.412 16.2794L192.016 -2.3244L192.559 -2.86777L211.163 -21.4716L229.767 -2.86777ZM211.163 -59.7661L229.767 -41.1622L211.163 -22.5584L192.559 -41.1622L211.163 -59.7661Z" fill="#E2E2E2"/>
<path d="M383.488 -59.766L384.031 -60.3094L383.488 -60.8528L364.34 -80L363.797 -79.4566L382.944 -60.3094L364.34 -41.7056L345.737 -60.3094L345.193 -60.8528L326.046 -80L325.503 -79.4566L344.65 -60.3094L326.046 -41.7056L307.442 -60.3094L306.899 -60.8528L306.355 -60.3094L287.752 -41.7056L287.208 -41.1622L268.061 -22.015L268.604 -21.4716L287.752 -40.6188L306.355 -22.015L287.752 -3.41113L287.208 -2.86776L268.604 15.7361L250.001 -2.86776L249.457 -3.41113L248.914 -2.86776L230.31 15.7361L229.767 16.2795L230.31 16.8228L248.914 35.4267L249.457 35.97L268.061 54.5739L249.457 73.1777L230.853 54.5739L230.31 54.0305L211.706 35.4267L211.163 34.8833L210.619 35.4267L192.016 54.0305L173.412 35.4267L172.868 34.8833L154.264 16.2795L172.868 -2.32439L173.412 -2.86776L192.016 -21.4716L192.559 -22.015L192.016 -22.5583L173.412 -41.1622L172.868 -41.7056L154.264 -60.3094L153.721 -60.8528L134.574 -80L134.031 -79.4566L153.178 -60.3094L134.574 -41.7056L115.97 -60.3094L115.427 -60.8528L114.883 -60.3094L96.2794 -41.7056L95.7361 -41.1622L96.2794 -40.6188L114.883 -22.015L96.2794 -3.41113L95.7361 -2.86776L96.2794 -2.32439L114.883 16.2795L96.2794 34.8833L95.7361 35.4267L77.1322 54.0305L76.5889 54.5739L57.4417 73.7211L57.985 74.2645L77.1322 55.1173L77.6756 54.5739L96.2794 35.97L96.8228 35.4267L115.427 16.8228L115.97 16.2795L115.427 15.7361L96.8228 -2.86776L115.427 -21.4716L134.031 -2.86776L134.574 -2.32439L153.178 16.2795L153.721 16.8228L172.325 35.4267L153.721 54.0305L153.178 54.5739L153.721 55.1173L172.325 73.7211L153.721 92.325L134.574 73.1777L134.031 73.7211L153.178 92.8683L153.721 93.4117L172.325 112.016L153.721 130.619L135.117 112.016L134.574 111.472L115.427 92.325L114.883 92.8683L134.031 112.016L114.883 131.163L115.427 131.706L134.574 112.559L153.178 131.163L153.721 131.706L154.264 131.163L172.868 112.559L173.412 112.016L192.016 93.4117L210.619 112.016L191.472 131.163L192.016 131.706L211.163 112.559L229.767 131.163L230.31 131.706L230.853 131.163L249.457 112.559L250.001 112.016L268.604 93.4117L269.148 92.8683L287.752 74.2645L306.355 92.8683L306.899 93.4117L307.442 92.8683L326.589 73.7211L326.046 73.1777L306.899 92.325L288.295 73.7211L287.752 73.1777L287.208 73.7211L268.604 92.325L250.001 73.7211L268.604 55.1173L269.148 54.5739L268.604 54.0305L250.001 35.4267L249.457 34.8833L230.853 16.2795L249.457 -2.32439L268.061 16.2795L268.604 16.8228L287.752 35.97L288.295 35.4267L269.148 16.2795L287.752 -2.32439L306.899 16.8228L307.442 16.2795L288.295 -2.86776L306.899 -21.4716L307.442 -22.015L306.899 -22.5583L288.295 -41.1622L306.899 -59.766L325.503 -41.1622L326.046 -40.6188L344.65 -22.015L326.046 -3.41113L325.503 -2.86776L326.046 -2.32439L344.65 16.2795L345.193 16.8228L363.797 35.4267L344.65 54.5739L345.193 55.1173L364.34 35.97L383.488 55.1173L384.031 54.5739L364.884 35.4267L383.488 16.8228L384.031 16.2795L383.488 15.7361L364.884 -2.86776L364.34 -3.41113L363.797 -2.86776L345.193 15.7361L326.589 -2.86776L345.193 -21.4716L345.737 -22.015L364.34 -40.6188L383.488 -21.4716L384.031 -22.015L364.884 -41.1622L383.488 -59.766ZM191.472 -22.015L172.868 -3.41113L154.264 -22.015L172.868 -40.6188L191.472 -22.015ZM115.97 -22.015L115.427 -22.5583L96.8228 -41.1622L115.427 -59.766L134.031 -41.1622L134.574 -40.6188L135.117 -41.1622L153.721 -59.766L172.325 -41.1622L153.721 -22.5583L153.178 -22.015L134.574 -3.41113L115.97 -22.015ZM135.117 -2.86776L153.721 -21.4716L172.325 -2.86776L153.721 15.7361L135.117 -2.86776ZM248.914 73.7211L230.31 92.325L211.706 73.7211L230.31 55.1173L248.914 73.7211ZM211.163 35.97L229.767 54.5739L211.163 73.1777L192.559 54.5739L211.163 35.97ZM210.619 73.7211L192.016 92.325L173.412 73.7211L192.016 55.1173L210.619 73.7211ZM154.264 54.5739L172.868 35.97L191.472 54.5739L172.868 73.1777L154.264 54.5739ZM172.868 111.472L154.264 92.8683L172.868 74.2645L191.472 92.8683L172.868 111.472ZM192.559 92.8683L211.163 74.2645L229.767 92.8683L211.163 111.472L192.559 92.8683ZM268.061 92.8683L249.457 111.472L248.914 112.016L230.31 130.619L211.706 112.016L230.31 93.4117L230.853 92.8683L249.457 74.2645L268.061 92.8683ZM364.34 -2.32439L382.944 16.2795L364.34 34.8833L345.737 16.2795L364.34 -2.32439ZM345.193 -22.5583L326.589 -41.1622L345.193 -59.766L363.797 -41.1622L345.193 -22.5583Z" fill="#E2E2E2"/>
<path d="M211.172 -3.42397L191.467 16.2808L192.016 16.8296L211.721 -2.87509L211.172 -3.42397Z" fill="#E2E2E2"/>
<path d="M0 54.5736L0.543367 55.117L19.1472 73.7208L19.6906 74.2642L20.2339 73.7208L38.8378 55.117L39.3812 54.5736L57.985 35.9698L58.5284 35.4264L77.1322 16.8226L77.6756 16.2792L77.1322 15.7358L58.5284 -2.86801L77.6756 -22.0152L77.1322 -22.5586L57.985 -3.41138L57.4416 -2.86801L57.985 -2.32464L76.5889 16.2792L57.985 34.8831L39.3812 16.2792L38.8378 15.7358L38.2944 16.2792L19.6906 34.8831L0.543367 15.7358L0 16.2792L19.1472 35.4264L0.543367 54.0303L0 54.5736ZM38.8378 16.8226L57.4416 35.4264L38.8378 54.0303L20.2339 35.4264L38.8378 16.8226ZM19.6906 35.9698L38.2944 54.5736L19.6906 73.1775L1.08673 54.5736L19.6906 35.9698Z" fill="#E2E2E2"/>
<path d="M115.427 55.1173L115.97 54.5739L135.117 35.4267L134.574 34.8833L115.427 54.0305L114.883 54.5739L95.7361 73.7211L96.2795 74.2645L115.427 55.1173Z" fill="#E2E2E2"/>
<path d="M384.031 73.7211L383.488 73.1777L364.884 54.5739L364.34 54.0305L363.797 54.5739L345.193 73.1777L326.589 54.5739L345.193 35.97L345.737 35.4267L345.193 34.8833L326.589 16.2795L326.046 15.7361L307.442 -2.86776L326.046 -21.4716L326.589 -22.015L326.046 -22.5583L306.899 -41.7056L306.355 -41.1622L325.503 -22.015L306.899 -3.41113L306.355 -2.86776L306.899 -2.3244L325.503 16.2795L306.899 34.8833L287.752 15.7361L287.208 16.2795L306.355 35.4267L287.752 54.0305L269.148 35.4267L268.604 34.8833L249.457 15.7361L248.914 16.2795L268.061 35.4267L268.604 35.97L287.208 54.5739L268.061 73.7211L268.604 74.2645L287.752 55.1173L306.355 73.7211L306.899 74.2645L307.442 73.7211L326.046 55.1173L344.65 73.7211L326.046 92.325L325.503 92.8683L306.899 111.472L288.295 92.8683L287.752 92.325L287.208 92.8683L268.604 111.472L268.061 112.016L248.914 131.163L249.457 131.706L268.604 112.559L269.148 112.016L287.752 93.4117L306.355 112.016L287.208 131.163L287.752 131.706L306.899 112.559L326.046 131.706L326.589 131.163L307.442 112.016L326.046 93.4117L345.193 112.559L345.737 112.016L326.589 92.8683L345.193 74.2645L363.797 92.8683L364.34 93.4117L382.944 112.016L363.797 131.163L364.34 131.706L383.488 112.559L384.031 112.016L383.488 111.472L364.884 92.8683L383.488 74.2645L384.031 73.7211ZM326.046 16.8228L344.65 35.4267L326.046 54.0305L307.442 35.4267L326.046 16.8228ZM306.899 73.1777L288.295 54.5739L306.899 35.97L325.503 54.5739L306.899 73.1777ZM364.34 92.325L345.737 73.7211L364.34 55.1173L382.944 73.7211L364.34 92.325Z" fill="#E2E2E2"/>
<path d="M115.97 112.016L115.427 111.472L96.8228 92.8683L115.427 74.2645L134.031 92.8683L134.574 93.4117L153.721 112.559L154.264 112.016L135.117 92.8683L134.574 92.325L115.97 73.7211L134.574 55.1173L153.721 74.2645L154.264 73.7211L135.117 54.5739L153.721 35.97L154.264 35.4267L153.721 34.8833L135.117 16.2795L134.574 15.7361L115.427 -3.41113L114.883 -2.86776L134.031 16.2795L115.427 34.8833L114.883 35.4267L96.2795 54.0305L95.7361 54.5739L77.1322 73.1777L76.5889 73.7211L57.985 92.325L39.3812 73.7211L57.985 55.1173L58.5284 54.5739L77.1322 35.97L77.6756 35.4267L96.2795 16.8228L96.8228 16.2795L96.2795 15.7361L77.6756 -2.86776L96.2795 -21.4716L96.8228 -22.015L96.2795 -22.5583L77.6756 -41.1622L96.2795 -59.766L96.8228 -60.3094L115.427 -78.9133L134.574 -59.766L135.117 -60.3094L115.97 -79.4566L115.427 -80L114.883 -79.4566L96.2795 -60.8528L95.7361 -60.3094L77.1322 -41.7056L57.985 -60.8528L57.4417 -60.3094L76.5889 -41.1622L57.985 -22.5583L57.4417 -22.015L38.8378 -3.41113L20.234 -22.015L38.8378 -40.6188L39.3812 -41.1622L38.8378 -41.7056L20.234 -60.3094L39.3812 -79.4566L38.8378 -80L19.6906 -60.8528L19.1472 -60.3094L0.543367 -41.7056L0 -41.1622L0.543367 -40.6188L19.1472 -22.015L0.543367 -3.41113L0 -2.86776L0.543367 -2.32439L19.1472 16.2795L19.6906 16.8228L20.234 16.2795L38.8378 -2.32439L57.985 16.8228L58.5284 16.2795L39.3812 -2.86776L57.985 -21.4716L58.5284 -22.015L77.1322 -40.6188L95.7361 -22.015L77.1322 -3.41113L76.5889 -2.86776L77.1322 -2.32439L95.7361 16.2795L77.1322 34.8833L76.5889 35.4267L57.985 54.0305L57.4417 54.5739L38.8378 73.1777L38.2944 73.7211L19.6906 92.325L0.543367 73.1777L0 73.7211L19.1472 92.8683L0.543367 111.472L0 112.016L0.543367 112.559L19.6906 131.706L20.234 131.163L1.08673 112.016L19.6906 93.4117L20.234 92.8683L38.8378 74.2645L57.4417 92.8683L57.985 93.4117L76.5889 112.016L57.985 130.619L38.8378 111.472L38.2944 112.016L57.4417 131.163L57.985 131.706L58.5284 131.163L77.1322 112.559L95.7361 131.163L96.2795 131.706L96.8228 131.163L115.427 112.559L115.97 112.016ZM1.08673 -41.1622L19.6906 -59.766L38.2944 -41.1622L19.6906 -22.5583L1.08673 -41.1622ZM19.6906 15.7361L1.08673 -2.86776L19.6906 -21.4716L38.2944 -2.86776L19.6906 15.7361ZM96.2795 55.1173L96.8228 54.5739L115.427 35.97L115.97 35.4267L134.574 16.8228L153.178 35.4267L134.574 54.0305L134.031 54.5739L115.427 73.1777L114.883 73.7211L96.2795 92.325L77.6756 73.7211L96.2795 55.1173ZM58.5284 92.8683L77.1322 74.2645L95.7361 92.8683L77.1322 111.472L58.5284 92.8683ZM96.2795 130.619L77.6756 112.016L96.2795 93.4117L114.883 112.016L96.2795 130.619Z" fill="#E2E2E2"/>
</g>
<g clip-path="url(#clip4_5972_27763)">
<path d="M940.879 -59.7661L959.482 -41.1622L960.026 -40.6188L978.63 -22.015L960.026 -3.41114L959.482 -2.86777L940.879 15.7361L940.335 16.2794L940.879 16.8228L959.482 35.4267L960.026 35.97L960.569 35.4267L979.173 16.8228L997.777 35.4267L998.32 35.97L1017.47 55.1172L1018.01 54.5739L998.864 35.4267L998.32 34.8833L979.716 16.2794L998.32 -2.3244L998.864 -2.86777L1017.47 -21.4716L1036.07 -2.86777L1036.61 -2.3244L1037.16 -2.86777L1056.31 -22.015L1055.76 -22.5584L1036.61 -3.41114L1018.01 -22.015L1036.61 -40.6188L1037.16 -41.1622L1055.76 -59.7661L1056.31 -60.3094L1074.91 -78.9133L1094.06 -59.7661L1094.6 -60.3094L1075.45 -79.4566L1074.91 -80L1074.37 -79.4566L1055.76 -60.8528L1036.61 -80L1036.07 -79.4566L1055.22 -60.3094L1036.61 -41.7056L1017.47 -60.8528L1016.92 -60.3094L1036.07 -41.1622L1017.47 -22.5584L1016.92 -22.015L998.32 -3.41114L979.716 -22.015L998.32 -40.6188L998.864 -41.1622L998.32 -41.7056L979.716 -60.3094L998.864 -79.4566L998.32 -80L979.173 -60.8528L978.63 -60.3094L960.026 -41.7056L941.422 -60.3094L960.569 -79.4566L960.026 -80L940.879 -60.8528L921.731 -80L921.188 -79.4566L940.335 -60.3094L940.879 -59.7661ZM997.777 -2.86777L979.173 15.7361L978.63 16.2794L960.026 34.8833L941.422 16.2794L960.026 -2.3244L960.569 -2.86777L979.173 -21.4716L997.777 -2.86777ZM979.173 -59.7661L997.777 -41.1622L979.173 -22.5584L960.569 -41.1622L979.173 -59.7661Z" fill="#E2E2E2"/>
<path d="M1151.5 -59.766L1152.04 -60.3094L1151.5 -60.8528L1132.35 -80L1131.81 -79.4566L1150.95 -60.3094L1132.35 -41.7056L1113.75 -60.3094L1113.2 -60.8528L1094.06 -80L1093.51 -79.4566L1112.66 -60.3094L1094.06 -41.7056L1075.45 -60.3094L1074.91 -60.8528L1074.37 -60.3094L1055.76 -41.7056L1055.22 -41.1622L1036.07 -22.015L1036.61 -21.4716L1055.76 -40.6188L1074.37 -22.015L1055.76 -3.41113L1055.22 -2.86776L1036.61 15.7361L1018.01 -2.86776L1017.47 -3.41113L1016.92 -2.86776L998.32 15.7361L997.777 16.2795L998.32 16.8228L1016.92 35.4267L1017.47 35.97L1036.07 54.5739L1017.47 73.1777L998.864 54.5739L998.32 54.0305L979.716 35.4267L979.173 34.8833L978.63 35.4267L960.026 54.0305L941.422 35.4267L940.879 34.8833L922.275 16.2795L940.879 -2.32439L941.422 -2.86776L960.026 -21.4716L960.569 -22.015L960.026 -22.5583L941.422 -41.1622L940.879 -41.7056L922.275 -60.3094L921.731 -60.8528L902.584 -80L902.041 -79.4566L921.188 -60.3094L902.584 -41.7056L883.98 -60.3094L883.437 -60.8528L882.894 -60.3094L864.29 -41.7056L863.746 -41.1622L864.29 -40.6188L882.894 -22.015L864.29 -3.41113L863.746 -2.86776L864.29 -2.32439L882.894 16.2795L864.29 34.8833L863.746 35.4267L845.142 54.0305L844.599 54.5739L825.452 73.7211L825.995 74.2645L845.142 55.1173L845.686 54.5739L864.29 35.97L864.833 35.4267L883.437 16.8228L883.98 16.2795L883.437 15.7361L864.833 -2.86776L883.437 -21.4716L902.041 -2.86776L902.584 -2.32439L921.188 16.2795L921.731 16.8228L940.335 35.4267L921.731 54.0305L921.188 54.5739L921.731 55.1173L940.335 73.7211L921.731 92.325L902.584 73.1777L902.041 73.7211L921.188 92.8683L921.731 93.4117L940.335 112.016L921.731 130.619L903.128 112.016L902.584 111.472L883.437 92.325L882.894 92.8683L902.041 112.016L882.894 131.163L883.437 131.706L902.584 112.559L921.188 131.163L921.731 131.706L922.275 131.163L940.879 112.559L941.422 112.016L960.026 93.4117L978.63 112.016L959.482 131.163L960.026 131.706L979.173 112.559L997.777 131.163L998.32 131.706L998.864 131.163L1017.47 112.559L1018.01 112.016L1036.61 93.4117L1037.16 92.8683L1055.76 74.2645L1074.37 92.8683L1074.91 93.4117L1075.45 92.8683L1094.6 73.7211L1094.06 73.1777L1074.91 92.325L1056.31 73.7211L1055.76 73.1777L1055.22 73.7211L1036.61 92.325L1018.01 73.7211L1036.61 55.1173L1037.16 54.5739L1036.61 54.0305L1018.01 35.4267L1017.47 34.8833L998.864 16.2795L1017.47 -2.32439L1036.07 16.2795L1036.61 16.8228L1055.76 35.97L1056.31 35.4267L1037.16 16.2795L1055.76 -2.32439L1074.91 16.8228L1075.45 16.2795L1056.31 -2.86776L1074.91 -21.4716L1075.45 -22.015L1074.91 -22.5583L1056.31 -41.1622L1074.91 -59.766L1093.51 -41.1622L1094.06 -40.6188L1112.66 -22.015L1094.06 -3.41113L1093.51 -2.86776L1094.06 -2.32439L1112.66 16.2795L1113.2 16.8228L1131.81 35.4267L1112.66 54.5739L1113.2 55.1173L1132.35 35.97L1151.5 55.1173L1152.04 54.5739L1132.89 35.4267L1151.5 16.8228L1152.04 16.2795L1151.5 15.7361L1132.89 -2.86776L1132.35 -3.41113L1131.81 -2.86776L1113.2 15.7361L1094.6 -2.86776L1113.2 -21.4716L1113.75 -22.015L1132.35 -40.6188L1151.5 -21.4716L1152.04 -22.015L1132.89 -41.1622L1151.5 -59.766ZM959.482 -22.015L940.879 -3.41113L922.275 -22.015L940.879 -40.6188L959.482 -22.015ZM883.98 -22.015L883.437 -22.5583L864.833 -41.1622L883.437 -59.766L902.041 -41.1622L902.584 -40.6188L903.128 -41.1622L921.731 -59.766L940.335 -41.1622L921.731 -22.5583L921.188 -22.015L902.584 -3.41113L883.98 -22.015ZM903.128 -2.86776L921.731 -21.4716L940.335 -2.86776L921.731 15.7361L903.128 -2.86776ZM1016.92 73.7211L998.32 92.325L979.716 73.7211L998.32 55.1173L1016.92 73.7211ZM979.173 35.97L997.777 54.5739L979.173 73.1777L960.569 54.5739L979.173 35.97ZM978.63 73.7211L960.026 92.325L941.422 73.7211L960.026 55.1173L978.63 73.7211ZM922.275 54.5739L940.879 35.97L959.482 54.5739L940.879 73.1777L922.275 54.5739ZM940.879 111.472L922.275 92.8683L940.879 74.2645L959.482 92.8683L940.879 111.472ZM960.569 92.8683L979.173 74.2645L997.777 92.8683L979.173 111.472L960.569 92.8683ZM1036.07 92.8683L1017.47 111.472L1016.92 112.016L998.32 130.619L979.716 112.016L998.32 93.4117L998.864 92.8683L1017.47 74.2645L1036.07 92.8683ZM1132.35 -2.32439L1150.95 16.2795L1132.35 34.8833L1113.75 16.2795L1132.35 -2.32439ZM1113.2 -22.5583L1094.6 -41.1622L1113.2 -59.766L1131.81 -41.1622L1113.2 -22.5583Z" fill="#E2E2E2"/>
<path d="M979.182 -3.42397L959.478 16.2808L960.026 16.8296L979.731 -2.87509L979.182 -3.42397Z" fill="#E2E2E2"/>
<path d="M768.01 54.5736L768.554 55.117L787.157 73.7208L787.701 74.2642L788.244 73.7208L806.848 55.117L807.391 54.5736L825.995 35.9698L826.539 35.4264L845.142 16.8226L845.686 16.2792L845.142 15.7358L826.539 -2.86801L845.686 -22.0152L845.142 -22.5586L825.995 -3.41138L825.452 -2.86801L825.995 -2.32464L844.599 16.2792L825.995 34.8831L807.391 16.2792L806.848 15.7358L806.305 16.2792L787.701 34.8831L768.554 15.7358L768.01 16.2792L787.157 35.4264L768.554 54.0303L768.01 54.5736ZM806.848 16.8226L825.452 35.4264L806.848 54.0303L788.244 35.4264L806.848 16.8226ZM787.701 35.9698L806.305 54.5736L787.701 73.1775L769.097 54.5736L787.701 35.9698Z" fill="#E2E2E2"/>
<path d="M883.437 55.1173L883.98 54.5739L903.128 35.4267L902.584 34.8833L883.437 54.0305L882.894 54.5739L863.746 73.7211L864.29 74.2645L883.437 55.1173Z" fill="#E2E2E2"/>
<path d="M1152.04 73.7211L1151.5 73.1777L1132.89 54.5739L1132.35 54.0305L1131.81 54.5739L1113.2 73.1777L1094.6 54.5739L1113.2 35.97L1113.75 35.4267L1113.2 34.8833L1094.6 16.2795L1094.06 15.7361L1075.45 -2.86776L1094.06 -21.4716L1094.6 -22.015L1094.06 -22.5583L1074.91 -41.7056L1074.37 -41.1622L1093.51 -22.015L1074.91 -3.41113L1074.37 -2.86776L1074.91 -2.3244L1093.51 16.2795L1074.91 34.8833L1055.76 15.7361L1055.22 16.2795L1074.37 35.4267L1055.76 54.0305L1037.16 35.4267L1036.61 34.8833L1017.47 15.7361L1016.92 16.2795L1036.07 35.4267L1036.61 35.97L1055.22 54.5739L1036.07 73.7211L1036.61 74.2645L1055.76 55.1173L1074.37 73.7211L1074.91 74.2645L1075.45 73.7211L1094.06 55.1173L1112.66 73.7211L1094.06 92.325L1093.51 92.8683L1074.91 111.472L1056.31 92.8683L1055.76 92.325L1055.22 92.8683L1036.61 111.472L1036.07 112.016L1016.92 131.163L1017.47 131.706L1036.61 112.559L1037.16 112.016L1055.76 93.4117L1074.37 112.016L1055.22 131.163L1055.76 131.706L1074.91 112.559L1094.06 131.706L1094.6 131.163L1075.45 112.016L1094.06 93.4117L1113.2 112.559L1113.75 112.016L1094.6 92.8683L1113.2 74.2645L1131.81 92.8683L1132.35 93.4117L1150.95 112.016L1131.81 131.163L1132.35 131.706L1151.5 112.559L1152.04 112.016L1151.5 111.472L1132.89 92.8683L1151.5 74.2645L1152.04 73.7211ZM1094.06 16.8228L1112.66 35.4267L1094.06 54.0305L1075.45 35.4267L1094.06 16.8228ZM1074.91 73.1777L1056.31 54.5739L1074.91 35.97L1093.51 54.5739L1074.91 73.1777ZM1132.35 92.325L1113.75 73.7211L1132.35 55.1173L1150.95 73.7211L1132.35 92.325Z" fill="#E2E2E2"/>
<path d="M883.98 112.016L883.437 111.472L864.833 92.8683L883.437 74.2645L902.041 92.8683L902.584 93.4117L921.731 112.559L922.275 112.016L903.128 92.8683L902.584 92.325L883.98 73.7211L902.584 55.1173L921.731 74.2645L922.275 73.7211L903.128 54.5739L921.731 35.97L922.275 35.4267L921.731 34.8833L903.128 16.2795L902.584 15.7361L883.437 -3.41113L882.894 -2.86776L902.041 16.2795L883.437 34.8833L882.894 35.4267L864.29 54.0305L863.746 54.5739L845.142 73.1777L844.599 73.7211L825.995 92.325L807.391 73.7211L825.995 55.1173L826.539 54.5739L845.142 35.97L845.686 35.4267L864.29 16.8228L864.833 16.2795L864.29 15.7361L845.686 -2.86776L864.29 -21.4716L864.833 -22.015L864.29 -22.5583L845.686 -41.1622L864.29 -59.766L864.833 -60.3094L883.437 -78.9133L902.584 -59.766L903.128 -60.3094L883.98 -79.4566L883.437 -80L882.894 -79.4566L864.29 -60.8528L863.746 -60.3094L845.142 -41.7056L825.995 -60.8528L825.452 -60.3094L844.599 -41.1622L825.995 -22.5583L825.452 -22.015L806.848 -3.41113L788.244 -22.015L806.848 -40.6188L807.391 -41.1622L806.848 -41.7056L788.244 -60.3094L807.391 -79.4566L806.848 -80L787.701 -60.8528L787.157 -60.3094L768.554 -41.7056L768.01 -41.1622L768.554 -40.6188L787.157 -22.015L768.554 -3.41113L768.01 -2.86776L768.554 -2.32439L787.157 16.2795L787.701 16.8228L788.244 16.2795L806.848 -2.32439L825.995 16.8228L826.539 16.2795L807.391 -2.86776L825.995 -21.4716L826.539 -22.015L845.142 -40.6188L863.746 -22.015L845.142 -3.41113L844.599 -2.86776L845.142 -2.32439L863.746 16.2795L845.142 34.8833L844.599 35.4267L825.995 54.0305L825.452 54.5739L806.848 73.1777L806.305 73.7211L787.701 92.325L768.554 73.1777L768.01 73.7211L787.157 92.8683L768.554 111.472L768.01 112.016L768.554 112.559L787.701 131.706L788.244 131.163L769.097 112.016L787.701 93.4117L788.244 92.8683L806.848 74.2645L825.452 92.8683L825.995 93.4117L844.599 112.016L825.995 130.619L806.848 111.472L806.305 112.016L825.452 131.163L825.995 131.706L826.539 131.163L845.142 112.559L863.746 131.163L864.29 131.706L864.833 131.163L883.437 112.559L883.98 112.016ZM769.097 -41.1622L787.701 -59.766L806.305 -41.1622L787.701 -22.5583L769.097 -41.1622ZM787.701 15.7361L769.097 -2.86776L787.701 -21.4716L806.305 -2.86776L787.701 15.7361ZM864.29 55.1173L864.833 54.5739L883.437 35.97L883.98 35.4267L902.584 16.8228L921.188 35.4267L902.584 54.0305L902.041 54.5739L883.437 73.1777L882.894 73.7211L864.29 92.325L845.686 73.7211L864.29 55.1173ZM826.539 92.8683L845.142 74.2645L863.746 92.8683L845.142 111.472L826.539 92.8683ZM864.29 130.619L845.686 112.016L864.29 93.4117L882.894 112.016L864.29 130.619Z" fill="#E2E2E2"/>
</g>
</g>
</g>
<defs>
<linearGradient id="paint0_linear_5972_27763" x1="0" y1="26" x2="1920" y2="26" gradientUnits="userSpaceOnUse">
<stop stop-color="#5465FF"/>
<stop offset="1" stop-color="#00162E"/>
</linearGradient>
<linearGradient id="paint1_linear_5972_27763" x1="0" y1="26" x2="1920" y2="26" gradientUnits="userSpaceOnUse">
<stop stop-color="#5465FF"/>
<stop offset="1" stop-color="#00162E"/>
</linearGradient>
<clipPath id="clip0_5972_27763">
<rect width="384.031" height="211.706" fill="white" transform="translate(1151.94 -80)"/>
</clipPath>
<clipPath id="clip1_5972_27763">
<rect width="384.031" height="211.706" fill="white" transform="translate(383.979 -80)"/>
</clipPath>
<clipPath id="clip2_5972_27763">
<rect width="384.031" height="211.706" fill="white" transform="translate(1535.97 -80)"/>
</clipPath>
<clipPath id="clip3_5972_27763">
<rect width="384.031" height="211.706" fill="white" transform="translate(0 -80)"/>
</clipPath>
<clipPath id="clip4_5972_27763">
<rect width="384.031" height="211.706" fill="white" transform="translate(768.01 -80)"/>
</clipPath>
</defs>
</svg>
