<svg width="159" height="212" viewBox="0 0 159 212" fill="none" xmlns="http://www.w3.org/2000/svg">
<path fill-rule="evenodd" clip-rule="evenodd" d="M27.5445 0H98.4948L158.536 62.6715V184.378C158.536 199.621 146.234 212 130.991 212H27.5445C12.3795 212 4.34672e-09 199.621 4.34672e-09 184.378V27.5445C-0.000267857 12.3795 12.3795 0 27.5445 0Z" fill="#199675"/>
<path d="M0 19C0 8.50658 8.50659 0 19 0H58.4455C61.1184 0 63.7612 0.563973 66.2013 1.65507L120.125 25.7673C122.677 26.9084 124.946 28.5985 126.769 30.7171L153.4 61.656C156.368 65.1038 158 69.5019 158 74.051V107.5V193C158 203.493 149.493 212 139 212H19C8.50659 212 0 203.493 0 193V19Z" fill="#199675"/>
<path fill-rule="evenodd" clip-rule="evenodd" d="M98.1494 0V62.1299H158.268L98.1494 0Z" fill="#15755C"/>
</svg>
